<?xml version="1.0" encoding="utf-8"?>
<!-- Uploaded to: SVG Repo, www.svgrepo.com, Generator: SVG Repo Mixer Tools -->
<!DOCTYPE svg PUBLIC "-//W3C//DTD SVG 1.1//EN" "http://www.w3.org/Graphics/SVG/1.1/DTD/svg11.dtd">
<svg fill="#000000" width="800px" height="800px" viewBox="0 0 1000 1000" version="1.1" xmlns="http://www.w3.org/2000/svg" xmlns:xlink="http://www.w3.org/1999/xlink"  enable-background="new 0 0 1000 1000" xml:space="preserve">

<g>
<g transform="translate(0.000000,511.000000) scale(0.100000,-0.100000)">
<path d="M1444.5,4329c-11.5-21.1-9.6-243.2,1.9-555.4c19.2-553.5,17.2-580.3-67-580.3c-19.2,0-88.1,26.8-149.4,57.5c-128.3,65.1-191.5,55.5-191.5-24.9c0-23,51.7-281.5,114.9-574.6l114.9-534.3v-499.9v-501.8l76.6-226C1519.1,370.4,1793-6.9,2172.2-252l124.5-80.4l-15.3-80.4c-7.7-44.1-15.3-86.2-17.2-93.8c0-9.6-91.9-15.3-204.9-15.3c-114.9,0-264.3-13.4-337.1-28.7c-170.5-36.4-379.2-147.5-499.9-268.1c-134.1-130.2-925-1177.8-1003.5-1325.3c-34.5-65.1-74.7-178.1-90-249c-38.3-176.2-38.3-754.6,0-930.8c61.3-294.9,279.6-574.6,549.7-708.6c78.5-38.3,153.2-70.9,164.7-70.9c17.2,0,23,93.8,23,350.5c0,191.5,9.6,381.1,19.2,419.4C914-3230.1,1002-3165,1113.1-3165c49.8,0,107.3-13.4,132.1-30.6c90-63.2,99.6-111.1,99.6-543.9v-402.2h1637.5h1637.5v383c0,419.4,11.5,478.8,105.3,551.6c63.2,49.8,176.2,55.5,258.5,13.4c105.3-53.6,114.9-101.5,114.9-545.8c0-457.7-17.2-423.2,178.1-371.6c168.5,44.1,319.8,126.4,450.1,247.1l114.9,105.3h911.6h911.6v285.4c0,155.1,9.6,310.3,21.1,342.8c42.1,122.6,193.4,158.9,289.2,67l53.6-51.7v-314.1v-316l84.3,9.6c216.4,24.9,465.4,214.5,570.7,434.7c55.5,114.9,61.3,147.5,68.9,348.6l7.7,222.2l-132.2,11.5c-599.4,55.5-1187.4,446.2-1493.8,990.1c-352.4,624.3-323.7,1407.7,72.8,2009c137.9,208.8,339,417.5,520.9,538.2l130.2,86.2l-7.7,316c-5.7,270-13.4,331.3-49.8,427.1c-80.4,204.9-229.8,354.3-444.3,440.5c-95.8,38.3-143.6,42.1-632,47.9l-528.6,7.7l-120.7,151.3C5947,2456,5897.2,2479,5860.8,2398.6c-42.1-93.8-80.4-80.4-302.6,105.3c-151.3,124.5-224.1,172.4-254.7,168.5l-42.1-5.7l7.7-425.2c7.7-486.5,9.6-484.5-143.6-409.9c-185.8,90-193.4,65.1-99.6-352.4c74.7-333.3,78.5-360,91.9-814c13.4-465.4,13.4-471.1,74.7-641.6c145.5-400.3,339-655,670.3-871.4c36.4-24.9,42.1-40.2,30.6-97.7l-13.4-70.8l-216.4-7.7c-204.9-7.7-226-11.5-363.9-80.4c-80.4-40.2-149.4-68.9-151.3-65.1c-45.9,67-285.4,340.9-350.5,398.3c-180,157.1-446.2,247.1-735.4,249H3915l-21.1,84.3c-32.6,128.3-28.7,137.9,67,193.4c114.9,67,352.4,294.9,469.2,446.2C4556.6,370.4,4683,621.3,4773,889.4l76.6,226v861.8V2839l-47.9,132.1c-103.4,294.9-319.8,511.4-620.5,616.7c-122.6,44-143.6,46-808.2,46h-681.8l-168.5,210.7c-139.8,176.2-178.1,210.7-220.2,210.7c-40.2,0-57.5-13.4-76.6-57.5c-32.6-80.4-86.2-107.3-139.8-70.9c-23,15.3-153.2,118.7-289.2,231.7C1547.9,4365.4,1478.9,4398,1444.5,4329z"/>
<path d="M8614.8,50.6c-82.3-70.8-107.2-151.3-107.2-346.6v-149.4h-492.2c-476.9,0-496-1.9-570.7-44c-42.1-23-95.8-76.6-120.7-118.8c-36.4-65.1-42.1-97.7-38.3-231.7c5.7-134.1,13.4-162.8,59.4-224.1c95.8-126.4,109.2-128.3,664.6-128.3h497.9v-168.5c0-203,46-314.1,153.2-371.5c126.4-68.9,176.2-47.9,580.3,260.4c526.7,398.4,593.7,453.9,632,528.6c40.2,78.5,34.5,203-11.5,275.8c-24.9,36.4-773.7,624.4-951.8,745c-26.8,19.2-84.3,32.6-137.9,32.6C8697.2,109.9,8668.5,98.4,8614.8,50.6z"/>
</g>
</g>
</svg>