<?xml version="1.0" encoding="utf-8"?>
<!-- Generator: Adobe Illustrator 23.1.0, SVG Export Plug-In . SVG Version: 6.00 Build 0)  -->
<svg version="1.1" id="Layer_1" xmlns="http://www.w3.org/2000/svg" xmlns:xlink="http://www.w3.org/1999/xlink" x="0px" y="0px"
	 viewBox="0 0 500 500" style="enable-background:new 0 0 500 500;" xml:space="preserve">
<style type="text/css">
	.st0{fill:#03376C;}
	.st1{fill:#FFFFFF;}
	.st2{fill:#F7801C;}
	.st3{fill:none;}
	.st4{fill:#004C8E;}
	.st5{fill:#FEFEFE;}
	.st6{clip-path:url(#SVGID_2_);fill:#FFFFFF;}
	.st7{clip-path:url(#SVGID_2_);}
</style>
<g>
	<g>
		<g>
			<path class="st0" d="M246.3,12.5c54.4,0.2,103.3,10.9,150.3,30.1c7.3,3,14.4,6.3,21.6,9.4c2,0.8,2.8,1.9,2.6,4.2
				c-0.3,3.8-0.1,7.7-0.4,11.5c-0.1,2.1,0.7,3.1,2.6,3.9c5.5,2.4,10.9,5,16.4,7.4c1.7,0.7,2.3,1.6,2.3,3.5
				c0.1,57.1,0.5,114.2,0.3,171.4c-0.1,23.7-2.6,47.1-10,69.9c-8.6,26.3-24.6,47.2-46.6,63.6c-44.4,33-88.8,66.1-133.2,99.2
				c-2.1,1.6-3.3,1.4-5.3-0.1c-42.2-31.5-84.5-62.8-126.7-94.4c-32.6-24.4-51.8-57.2-59.2-97.1c-2.6-14-3.5-28.2-3.5-42.4
				c0-56,0-112-0.2-168c0-2.8,0.8-4.2,3.4-5.2c5.7-2.2,11.2-4.9,16.8-7.2c1.8-0.7,2.5-1.7,2.5-3.7c-0.1-4.5,0.1-8.9,0.1-13.4
				c0-1.8,0.6-2.7,2.3-3.5c31.5-14.7,64.1-25.8,98.2-32.4C203.5,14.7,226.5,12.6,246.3,12.5z"/>
			<path class="st1" d="M246.3,12.5c54.4,0.2,103.3,10.9,150.3,30.1c7.3,3,14.4,6.3,21.6,9.4c2,0.8,2.8,1.9,2.6,4.2
				c-0.3,3.8-0.1,7.7-0.4,11.5c-0.1,2.1,0.7,3.1,2.6,3.9c5.5,2.4,10.9,5,16.4,7.4c1.7,0.7,2.3,1.6,2.3,3.5
				c0.1,57.1,0.5,114.2,0.3,171.4c-0.1,23.7-2.6,47.1-10,69.9c-8.6,26.3-24.6,47.2-46.6,63.6c-44.4,33-88.8,66.1-133.2,99.2
				c-1,0.7-1.8,1.1-2.6,1.1c-0.9,0-1.7-0.4-2.7-1.2c-42.2-31.5-84.5-62.8-126.7-94.4c-32.6-24.4-51.8-57.2-59.2-97.1
				c-2.6-14-3.5-28.2-3.5-42.4c0-56,0-112-0.2-168c0-2.8,0.8-4.2,3.4-5.2c5.7-2.2,11.2-4.9,16.8-7.2c1.8-0.7,2.5-1.7,2.5-3.7
				c-0.1-4.5,0.1-8.9,0.1-13.4c0-1.8,0.6-2.7,2.3-3.5c31.5-14.7,64.1-25.8,98.2-32.4C203.5,14.7,226.5,12.6,246.3,12.5 M246.2,5
				L246.2,5c-21.6,0.2-44.7,2.5-66.9,6.8c-33.5,6.5-66.2,17.2-100,33c-5.5,2.6-6.6,7.1-6.6,10.4c0,2.1,0,4.2,0,6.5
				c0,1.5,0,2.9,0,4.5c-1.7,0.7-3.4,1.5-5,2.2c-3.3,1.5-6.4,2.8-9.5,4c-5.5,2.1-8.2,6.2-8.2,12.2c0.1,45.4,0.1,91.6,0.1,136.2
				l0,31.7c0,16.3,1.2,30.6,3.6,43.7c3.9,21,11,40.1,21.1,56.8c10.4,17.2,24.1,32.3,41,44.9c25.3,19,51.1,38.2,76.1,56.7
				c16.6,12.3,33.7,25.1,50.6,37.6c1.5,1.1,3.9,2.7,7.2,2.7c2.4,0,4.7-0.8,7.1-2.6c44.9-33.5,90.4-67.4,133.2-99.2
				c11.8-8.8,21.8-18.7,29.9-29.6c8.4-11.3,14.9-24,19.4-37.7c6.9-21.2,10.3-44.8,10.4-72.1c0.1-38.2,0-77-0.1-114.5
				c-0.1-18.7-0.1-37.9-0.2-56.9c0-4.8-2.4-8.4-6.8-10.3c-2.5-1.1-5.1-2.3-7.6-3.4c-2.2-1-4.5-2.1-6.8-3.1c0-1.1,0-2.2,0.1-3.3
				c0-1.9,0-3.8,0.2-5.5c0.3-3.1-0.3-8.8-7.2-11.7c-3.2-1.3-6.4-2.8-9.5-4.1c-4-1.8-8.1-3.6-12.2-5.3C349.3,15.2,299.2,5.2,246.2,5
				L246.2,5L246.2,5z"/>
		</g>
		<g>
			<g>
				<path class="st2" d="M127.8,386.6c-7-4-13.4-8.9-19.2-14.4c-20-18.5-31.3-41.9-37.4-68c-3.7-16-5.6-32.2-5.6-48.6
					c0-56.2,0.1-112.3,0.1-168.5c0-2.1,0.7-3.1,2.6-3.8c6.3-2.5,12.5-5.2,19.3-8.1c0,6.4,0,12.3,0,18.2
					c0.1,57.7-0.1,115.4,0.3,173.2c0.3,36.5,8.2,71.2,27.7,102.7C119.4,375.1,123.6,380.8,127.8,386.6z"/>
				<g>
					<path class="st4" d="M384.4,369.1c19.5-31.5,27.4-66.1,27.7-102.7c0.4-57.7,0.3-115.4,0.3-173.2c0-5.9,0-11.7,0-18.1v0v-0.1
						V57.6c0,0-91-40.5-162.6-36.3l0.2,456.6l122.3-91.4l0,0c0,0-0.1,0-0.1,0.1C376.5,380.8,380.6,375.1,384.4,369.1z"/>
					<path class="st2" d="M434.3,87c0-2.1-0.7-3.1-2.6-3.8c-6.3-2.5-12.5-5.2-19.3-8.1c0,0,0,0.1,0,0.1c0,6.4,0,12.2,0,18.1
						c-0.1,57.7,0.1,115.4-0.3,173.2c-0.3,36.5-8.2,71.2-27.7,102.7c-3.7,6-7.9,11.8-12.1,17.5c0,0,0.1,0,0.1-0.1
						c7-4,13.3-8.9,19.1-14.3c20-18.5,31.3-41.9,37.4-68c3.7-16,5.6-32.2,5.6-48.6C434.5,199.3,434.4,143.2,434.3,87z"/>
				</g>
			</g>
		</g>
		<path class="st5" d="M248.4,50.8c10.1-1.1,15.8,3,18.1,13.1c1.6,6.9,1.5,13.8,0.7,20.7c-1,9.9,0.2,11.7,10.1,10.9
			c7.1-0.5,13.4,1,19.5,4.5c10.2,5.9,21.6,6.6,33.1,6c9.6-0.5,19.2-1.1,28.9-1.6c1.7-0.1,3.2-0.5,4.7-1.4c7.2-4.1,14.5-4.1,21.9-0.6
			c2,0.9,4.2,0.9,6.4,1.3c3.3,0.6,4.2,2.4,2.6,5.3c-2.4,4.3-6.5,5.9-11,6.5c-2.2,0.3-4.3,0.7-6.3,1.5c-4.5,1.7-9.2,2.1-13.7,0.6
			c-3.1-1-4.3,0.1-5,2.9c-1.1,4.1-2.5,8.1-4.4,11.9c-1.8,3.7-4,7-6.9,9.8c-3.9,3.6-8,6.1-13.8,5.8c-8.4-0.4-16.8,0.2-25.2,0.3
			c-1.5,0-2.8,0.3-4.1,1c-4.8,2.6-9.9,4.7-15.3,6c-1.9,0.4-2.4,1.4-2.4,3.2c0,5.2,0,10.4-0.2,15.5c0,2,0.3,5-2.1,5.1
			c-1.7,0.1-1.5-3-1.6-4.8c-0.3-5.9-0.6-11.8-1-17.7c-0.1-2,0.3-3.3,2.5-3.9c7.5-2,14.6-5.1,21.4-9c1.3-0.8,2.8-1.3,4.2-1.9
			c0.9-0.4,2.1-0.6,2.7-0.1c1.4,1.2,2.8,1.8,4.7,1.7c7.5-0.4,15.1,0.8,22.5-1.8c3-1.1,5.2-3.3,7.1-5.8c3.6-4.8,5.9-10.2,8.1-15.7
			c0.7-1.6,1.4-3.2,2.3-4.7c1.2-2.1,2.7-2.4,5.4-1.8c9.1,1.9,18.1,1.4,26.6-3c0.9-0.5,1.7-1.3,2-2.3c0.6-1.7,0.7-3.1-1.7-3.2
			c-3.4-0.2-6.7-1-9.9-2.1c-4.1-1.5-8.4-0.7-12.1,1.3c-5.1,2.8-10.6,3.1-16.2,3.6c-7.3,0.7-14.6,1.5-21.9,2.4
			c-8.7,1.1-16.8-1.5-25-3.8c-5.2-1.5-10.2-3.2-15-5.8c-3.8-2-8.1-1-12.2-1c-2.9,0-5.8,0.1-8.7-0.3c-4.4-0.7-5.5-2.2-5.2-6.6
			c0.5-9,1.1-18-1-26.9c-0.6-2.6-1.5-5.2-3.1-7.4c-2.7-3.8-6.6-4.9-11.2-3.2c-3.8,1.1-5.3,4-6.3,7.4c-2.1,7.2-1.2,14.6-1,21.9
			c0.1,3.6,0.3,7.2,0.6,10.9c0.2,1.9-0.5,2.4-2.3,2.9c-16.4,4.2-33,7.8-49.6,11.1c-2.1,0.4-4.1,0.5-4.2,3.4
			c-0.1,1.5-1.3,1.7-2.5,1.6c-12.9-0.6-25.7,1.3-38.4,2.6c-4.5,0.5-7.9-0.3-12-1.9c-5-1.9-10.5-2.6-15.9,0.4c-2,1.1-4.8,0.7-7.3,1.1
			c-1.7,0.3-4.1,0.5-4.2,2.4c-0.1,1.7,2.1,2.6,3.6,3.4c2,1,4.1,1.2,6.3,1.2c8.3,0.1,16.5-0.4,24.8-1.5c4.3-0.6,5.8,0.5,7.8,4.4
			c3.3,6.8,7.3,13.2,12.1,19.1c2.9,3.6,6.6,4.8,11.1,3.7c15.1-3.7,29.5-1.3,43.6,4.7c1.8,0.8,2.2,1.7,2.1,3.5
			c-0.4,15.2-0.6,30.5-0.9,45.7c0,1.4-0.6,3.1,1.9,3.3c1,0.1,0.9,1.7,1.1,2.7c0.4,3.1-0.1,6.3,1.9,9.2c0.8,1.2,0.8,3.3,0.6,4.8
			c-1.5,10,0.4,19.8,1.8,29.6c0.3,1.7,0.5,3.5-0.6,5.1c-1.2-0.3-1.3-1.3-1.5-2.2c-2.5-8.8-4-17.8-3.1-27c0.5-5.4-1.1-10.1-2.7-15
			c-0.1-0.3-0.2-0.7-0.4-0.8c-4.4-1.7-2.8-5.2-2.8-8.4c0.1-7,0.1-14.1,0-21.1c0-8-0.1-16,0-23.9c0-1.9-0.5-2.7-2.5-3.1
			c-6.2-1.4-12-4.5-18.5-5c-5.8-0.4-11.6-0.2-17.2,1.6c-8.1,2.5-14,0.6-19-6.3c-4.3-6-8.2-12.2-11.4-18.8c-1-2.1-2.3-2.6-4.3-2.6
			c-2.9,0-5.7,1.1-8.5,1.5c-6.7,1-13.4,0.5-20.2-0.1c-3.4-0.3-6.2-2.2-8.6-4.6c-1.6-1.7-1.4-3.3,0.3-4.9c2.5-2.4,5.6-2.9,8.8-3.4
			c0.8-0.1,1.8,0,2.4-0.5c6.8-4.9,13.7-4.3,20.8-0.9c1.8,0.9,3.6,1.3,5.6,1.3c11.6,0.1,22.9-2.2,34.3-3.3c6.5-0.6,11.8-4.2,17.9-5.5
			c14.2-3,28.2-6.5,42.3-9.6c2.1-0.5,2.8-1.2,2.7-3.5c-0.2-8.7-0.9-17.4,0.1-26.1C237.5,57,240.3,53.2,248.4,50.8z"/>
	</g>
	<g>
		<defs>
			<circle id="SVGID_1_" cx="295.2" cy="207.4" r="23.8"/>
		</defs>
		<clipPath id="SVGID_2_">
			<use xlink:href="#SVGID_1_"  style="overflow:visible;"/>
		</clipPath>
		<circle class="st6" cx="295.2" cy="207.4" r="23.8"/>
		<g class="st7">
			<polygon class="st0" points="298.8,229.4 289.8,229.4 279.1,218.5 279.1,211 283.2,207.9 291.4,195 287.3,192.3 278,192.3 
				274.2,199.7 277.6,208.9 277.3,216.7 274.3,218.2 274.1,217.7 276.7,216.3 276.9,209 273.5,199.7 277.7,191.7 287.4,191.7 
				292.3,194.8 283.6,208.3 279.8,211.3 279.8,218.2 290,228.8 298.5,228.8 305,222.5 308,214 294.9,193.8 294.9,183.9 295.5,183.9 
				295.5,193.7 308.7,213.9 305.5,222.8 			"/>
			<rect x="287.8" y="216.2" class="st0" width="12.7" height="0.6"/>
			
				<rect x="309.2" y="205.8" transform="matrix(0.5852 -0.8109 0.8109 0.5852 -37.0642 339.7455)" class="st0" width="8.6" height="0.6"/>
			
				<rect x="313" y="217.2" transform="matrix(0.4961 -0.8683 0.8683 0.4961 -32.4256 382.436)" class="st0" width="0.6" height="3.9"/>
			
				<rect x="305.9" y="187.9" transform="matrix(4.213465e-02 -0.9991 0.9991 4.213465e-02 100.8264 490.4929)" class="st0" width="0.6" height="9.6"/>
		</g>
		<g class="st7">
			<polygon class="st0" points="295.2,187 286.7,191.9 288.7,199.7 299.7,199.7 302.6,192.5 			"/>
			<polygon class="st0" points="311.4,189.6 310.5,193.1 315.2,202.7 319.3,205.7 318.6,195.7 			"/>
			<polygon class="st0" points="304.7,208.5 312.2,208.5 312.2,218.4 304.9,223.3 299.6,216.5 			"/>
			<polygon class="st0" points="288.7,230.2 289.8,228.4 299.2,228.4 301.7,230.2 296.9,232.1 289.4,231.6 			"/>
			<polygon class="st0" points="283.6,207.4 288.7,216.5 283.8,223.3 276.3,216.9 276.7,208 			"/>
			<polygon class="st0" points="280.1,188.4 280.1,192.5 274.6,201.7 271,202.7 270.5,190 			"/>
		</g>
	</g>
	<g>
		<g>
			<path class="st1" d="M249.1,275h-42.4v37.5c0,0,0.7,8.4-7.7,8.4c0,0-8.4,1-8.4-8.6c0-9.6,0-37.2,0-37.2h-17.1v6.9h7.4v31.6
				c0,18.3,18.7,17.9,18.7,17.9c12.1,0,18.2-10.8,18.2-20.1V282h9.9v48.8h21.6c0,0,22.7-3.5,22.7-27.9S249.1,275,249.1,275z
				 M238.6,319.7v-34c0,0,22.9-3.2,22.9,17.4C261.5,321.4,238.6,319.7,238.6,319.7z"/>
		</g>
		<g>
			<path class="st1" d="M152.6,275h-15.7v6.2h5.5l-21.2,49.2h12.1l6.6-14.3h18.7l5,14.3h12.4L152.6,275z M142.3,306.2l6.3-16.6
				l5.4,16.6H142.3z"/>
		</g>
		<path class="st1" d="M380.4,274.6h-13L354,292.7l-12.7-18.1h-15.3v7.1h7.8l13.9,21l-15.1,21.8h-5.9l-21-49.5h-15.7v6.2h5.5
			l-21.2,49.2h12.1l6.6-14.3h18.7l5,14.2l-0.1,0v0.5h25.2l12.4-19.4l12.9,18.9h13.1l-19.5-27.8L380.4,274.6z M295.5,306.2l6.3-16.6
			l5.4,16.6H295.5z"/>
	</g>
</g>
</svg>
