<svg id="Camada_1" data-name="Camada 1" xmlns="http://www.w3.org/2000/svg" viewBox="0 0 600 600"><defs><style>.cls-1{fill:#f7ec00;}.cls-2,.cls-3{fill:#1d1d1c;}.cls-2{fill-rule:evenodd;}.cls-4{fill:#0d0d0d;}.cls-5{fill:#0e0e0e;}</style></defs><path class="cls-1" d="M600,300c0,165.69-134.31,300-300,300S0,465.69,0,300,134.31,0,300,0,600,134.31,600,300"/><path class="cls-2" d="M105.35,460.32A254.32,254.32,0,0,1,44.62,295C44.62,154,158.93,39.7,300,39.7S555.28,154,555.28,295a254.23,254.23,0,0,1-56.47,160.14l10,11.54a269.2,269.2,0,0,0,61.39-171.53c0-149.27-121-270.29-270.29-270.29S29.66,145.91,29.66,295.18a269.22,269.22,0,0,0,65.18,176Z"/><path class="cls-3" d="M299.07,296.34c2.07,2.49,4,5.06,6,7.61,15.74,20.15,42,19.27,41.28-13.63.2.34,6.32,11.44-.23,26.56a45.4,45.4,0,0,1-4.46,7.93,23.87,23.87,0,0,0,12.64-8.93s-2.17,10.71-11.59,16.22a24.49,24.49,0,0,1-12.93,3.22s-.68,0-1.39-.07c-9.73-.81-18.94-8.59-18.94-8.59-8.89-7.52-13.15-16.56-29-38.2-2.36-3.21-10.7-13.19-18.72-18a42.51,42.51,0,0,0-8.49-4.07c21.14,3.25,32.58,14,45.81,30"/><path class="cls-3" d="M142,521.56a19.82,19.82,0,0,1-8.29,1.93,22.13,22.13,0,0,1-8.9-1.86,31.1,31.1,0,0,1-9.19-6.23,31.76,31.76,0,0,1-7.39-9.77,21.81,21.81,0,0,1-2.12-9.94,23.87,23.87,0,0,1,2.56-9.83,39.25,39.25,0,0,1,6.66-9.41,40.93,40.93,0,0,1,9.09-7.4,25.29,25.29,0,0,1,10-3.46,23.1,23.1,0,0,1,10.49,1.29,30.83,30.83,0,0,1,10.62,6.84q8,7.47,8.61,15.12t-4.77,15.66l-14-10.48a16.37,16.37,0,0,0,1.25-2.52,7.48,7.48,0,0,0,.52-2.46,5.41,5.41,0,0,0-.52-2.43,8,8,0,0,0-1.85-2.42,6.86,6.86,0,0,0-6.81-1.84c-2.51.66-5.39,2.71-8.61,6.16A28.24,28.24,0,0,0,125,494.2a11.57,11.57,0,0,0-1.49,4.46,6.16,6.16,0,0,0,.66,3.46,10.36,10.36,0,0,0,2,2.65,7.1,7.1,0,0,0,5,2.15,8.81,8.81,0,0,0,5.55-2.44l12.69,11.89a27.61,27.61,0,0,1-7.4,5.19"/><path class="cls-3" d="M161.38,534.26,155,540.79l-15-8.49,42.59-39,18.74,10.61-11.65,56.51-15.33-8.67,2.21-8.91Zm18.62-5.1,4.63-18.33-13.33,13.4Z"/><path class="cls-3" d="M216.75,556.9q1.42,2.1,5.26,3.23a8.45,8.45,0,0,0,4.83.34,3.47,3.47,0,0,0,2.3-2.49,3.14,3.14,0,0,0-.31-2.66,8.88,8.88,0,0,0-3.29-2.57l-6.75-3.5q-8.68-4.56-11.7-9.69A14.16,14.16,0,0,1,206,527.93a17.28,17.28,0,0,1,3.77-7,15.93,15.93,0,0,1,6.09-4.1,21,21,0,0,1,8.06-1.24,38,38,0,0,1,9.66,1.63,34.67,34.67,0,0,1,9.34,4.11,19.92,19.92,0,0,1,5.76,5.5,15.94,15.94,0,0,1,2.57,6.4,19.05,19.05,0,0,1-.17,6.85l-16.74-3.31a6.66,6.66,0,0,0-1-4.59,7.72,7.72,0,0,0-4-2.34,8,8,0,0,0-4.64-.32,3,3,0,0,0-2,2.05A2.64,2.64,0,0,0,223,534a10.14,10.14,0,0,0,3.39,2.52L233,540a46.68,46.68,0,0,1,7.43,4.87,18.93,18.93,0,0,1,4.45,5,12.49,12.49,0,0,1,1.73,5.44,17.28,17.28,0,0,1-.76,6.15q-2.52,8.57-9.83,11.5t-18.83-.43a37.6,37.6,0,0,1-9.77-4.27,20.53,20.53,0,0,1-6.1-5.85,16.56,16.56,0,0,1-2.65-7.23,25,25,0,0,1,.5-8.39l16.53,4.86a7.15,7.15,0,0,0,1,5.18"/><path class="cls-3" d="M302.05,572.11a19.91,19.91,0,0,1-5.18,6.76,22.16,22.16,0,0,1-8.06,4.21,31.51,31.51,0,0,1-11.05,1,32,32,0,0,1-11.92-2.86,22,22,0,0,1-7.94-6.34,23.89,23.89,0,0,1-4.26-9.23,39,39,0,0,1-.82-11.5,41.2,41.2,0,0,1,2.33-11.48,25.2,25.2,0,0,1,5.52-9A23.16,23.16,0,0,1,269.6,528a31,31,0,0,1,12.54-1.45q10.91.72,16.24,6.23t6.26,15.13l-17.47.79a15.51,15.51,0,0,0-.63-2.74,7.57,7.57,0,0,0-1.17-2.24,5.25,5.25,0,0,0-1.94-1.55,7.91,7.91,0,0,0-3-.7,6.88,6.88,0,0,0-6.43,2.9q-2.3,3.17-2.75,10.22a28.76,28.76,0,0,0,.26,7.15,11.71,11.71,0,0,0,1.68,4.39,6.1,6.1,0,0,0,2.7,2.26,10.3,10.3,0,0,0,3.27.75,7.07,7.07,0,0,0,5.18-1.47,8.86,8.86,0,0,0,2.75-5.41l17.34,1.14a27.18,27.18,0,0,1-2.42,8.7"/><path class="cls-3" d="M326.07,573.33l-1.23,9.08-17.09,2.2,10.67-56.75,21.36-2.76,24.57,52.21-17.47,2.25-3.57-8.45Zm11.84-15.25-7.29-17.45L328,559.35Z"/><polygon class="cls-3" points="390.28 549.62 385.17 512.49 402.32 505.66 407.15 562.85 386.72 571 351.02 526.11 368.45 519.16 390.28 549.62"/><polygon class="cls-3" points="440.47 479.99 447.83 491.26 427.99 504.21 431.82 510.07 450.36 497.96 457.72 509.23 439.17 521.34 443.3 527.65 464.42 513.86 470.68 525.84 436.29 548.3 406.27 502.31 440.47 479.99"/><polygon class="cls-3" points="455.22 463.26 482.8 492.13 499.43 476.25 508.73 488.1 480.53 515.04 442.59 475.32 455.22 463.26"/><path class="cls-3" d="M331.3,333.5c.53-.14,1.09,6.73,5.78,9.19,3.52,1.85,7.93.48,11.29-1.1-3.12,4.69-8.89,6.18-12.9,4.06-5.79-3.06-4.75-12-4.17-12.15"/><path class="cls-3" d="M318.37,333.93c.55,0-.75,6.78,3.12,10.41,2.89,2.72,7.51,2.58,11.16,2-4.26,3.68-10.21,3.57-13.51.46-4.76-4.5-1.37-12.83-.77-12.83"/><path class="cls-3" d="M299.23,88.69q-2.61,0-5.19.06c-1,0-2-.07-3-.07v.18C179.79,93.18,90.62,185,90.62,297.3c0,115,93.58,208.6,208.6,208.6A208.85,208.85,0,0,0,507.83,297.29c0-115-93.58-208.6-208.6-208.6M219.16,288.82c.3-.74.6-1.45.92-2.15a.73.73,0,0,1,.89-.39l1.09.37c10.53,3.64,23.77,14.43,34.84,46.44,1.54,4.81,8,23,26.12,31.93,13.78,6.79,27.28,4.75,36.59,3.34a82.55,82.55,0,0,0,28.4-9.88s-49.23,3.34-63.29-37.84a89.44,89.44,0,0,0-20.52-34c-17.3-17.62-35.79-25.46-42.17-25.61,7.06-.07,41.41-2,90-30.88,4.18,1.93,9.64,10,5.78,32.16,2.81-4.33,17.37-3.86,19.3-45.66,12.86-1.61,15.75-1.61,15.75-1.61s7.72,2.25,4.18,31.19c0,0,21.54-5.79,21.22-45.33,0,0,3.22-21.55-22.83-20.9s-34.72-9-39.22-9.65-15.44-.64-22.51,11.25a14.39,14.39,0,0,1-1.36,1.9c2.78.58,5.54,1.29,8.27,1.91,7.13,1.77,14.07,3.47,21.5,3.74,0,0-17.1-.78-24.5-1.67-3.7-.45-4.3-1.14-7.82-1.51h0a18.79,18.79,0,0,0,2.56-2.47c-5.39-1.12-10.87-1.72-16.49-.16C268.9,185.75,263.3,191,258.23,196c1.62,0,3.23-.12,4.84-.29h0s-3.53,2.61-8.27,6.75c-2.84,2.47-11.94,9.93-11.94,9.93,5.53-5.08,9.95-11.14,15.37-16.39h0c-.8,0-1.6,0-2.4,0-6.16-.11-21.92,2.81-51.09,27.43-1.89,1.6-3.82,3.14-5.77,4.66-2.58,2-19.68,17.84-18.79,31.33a.7.7,0,0,1-.09.4l-.84,1.45c-11.24,19.88-10.37,37.93-10.16,41.36,0,.37,0,.73.07,1.08C172.35,381.05,236.27,443,314.41,443a165,165,0,0,0,117-48.52c1.09-1.1,2.14-2.24,3.21-3.37a164.7,164.7,0,0,1-135.36,71c-90.86,0-164.78-73.92-164.78-164.78,0-89.55,71.83-162.61,160.89-164.69,78,2.29,146.54,50.32,146.54,144.18,0,67.08-60.38,122.4-127.46,122.4-56,0-98.88-37.68-98.88-93.68a52,52,0,0,1,3.63-16.69m49.27-80.18s5-9,12.25-9.47,18.13,3.68,27.46,3c-5.47,2.09-8,10.13-39.71,6.43"/><path class="cls-4" d="M375.22,73.68c.13.55.58.77.87,1.12A4.87,4.87,0,0,1,377,80a5.14,5.14,0,0,1-4.23,3.44,11.78,11.78,0,0,1-5.14-.57c-1.05-.31-2.09-.68-3.11-1.09s-1.15-.51-.79-1.68c.73-2.38,1.49-4.75,2.24-7.12,1-3.1,1.93-6.19,2.92-9.28.4-1.25.43-1.24,1.72-1a22.06,22.06,0,0,1,5.15,1.51A7,7,0,0,1,378.34,66a4.45,4.45,0,0,1-1.66,7.19C376.2,73.37,375.7,73.52,375.22,73.68Z"/><path class="cls-4" d="M252,67.18c.6.15,1,.24,1.38.35a4.76,4.76,0,0,1,3.64,3.8,5.2,5.2,0,0,1-1.76,5.33,11.5,11.5,0,0,1-4.5,2.18c-1.12.3-2.27.49-3.38.81-.92.27-1.24-.13-1.46-.93q-2.23-8.4-4.52-16.78a1.19,1.19,0,0,1,.88-1.69,26.41,26.41,0,0,1,5.34-1.52,6.61,6.61,0,0,1,2.93.16A4.45,4.45,0,0,1,253,66C252.7,66.32,252.39,66.66,252,67.18Z"/><path class="cls-4" d="M260.5,64.79c0-5.47,2.59-9.05,6.88-10.15a8.44,8.44,0,0,1,9.9,4.25,12.91,12.91,0,0,1,1.29,9.43,8.68,8.68,0,0,1-7.27,6.62,8.43,8.43,0,0,1-8.85-3.88A12.17,12.17,0,0,1,260.5,64.79Z"/><path class="cls-5" d="M344.63,70.54a29.92,29.92,0,0,1,1-5.31c.5-2.44,1.05-4.86,1.6-7.29.27-1.18.47-1.28,1.69-1,1,.25,1.1.33.84,1.6Q348.56,64,347.4,69.42a7.36,7.36,0,0,0,.08,3.61,4,4,0,0,0,3.26,3,4.22,4.22,0,0,0,4.51-1.51,10.18,10.18,0,0,0,1.68-4.15c.71-3.23,1.4-6.45,2.1-9.68.32-1.46.41-1.44,1.87-1.11.86.19,1,.59.78,1.35-.81,3.62-1.58,7.24-2.38,10.86a12.74,12.74,0,0,1-.41,1.33c-2.09,5.85-7.05,6-10.81,4.25C345.46,76.11,344.59,73.8,344.63,70.54Z"/><path class="cls-5" d="M207.6,91.44a6.16,6.16,0,0,1-2,4.67,9.28,9.28,0,0,1-3.87,2.25,5.88,5.88,0,0,1-5.43-1,9.53,9.53,0,0,1-2.65-3c-1.93-3.37-3.83-6.76-5.73-10.15-.2-.34-.56-.75-.15-1.09a2.84,2.84,0,0,1,1.83-.88c.41,0,.53.57.73.91,1.66,2.93,3.3,5.86,4.95,8.8a12.35,12.35,0,0,0,1.9,2.69,4.31,4.31,0,0,0,5.53.94,4.37,4.37,0,0,0,2.15-5.33,12.28,12.28,0,0,0-1.31-3c-1.64-2.93-3.3-5.86-4.93-8.8-.2-.37-.72-.8-.26-1.23a2.86,2.86,0,0,1,1.81-.92c.32,0,.44.34.58.59,2,3.5,3.91,7,5.82,10.5A8.2,8.2,0,0,1,207.6,91.44Z"/><path class="cls-5" d="M237.25,72c0,.69-.43.77-.8.91-1.69.61-3.39,1.2-5.07,1.83-1.23.45-1.24.47-.8,1.74.52,1.47,1.12,2.92,1.58,4.42.28.93.73,1,1.54.68,2-.75,3.92-1.44,5.89-2.12,1.11-.39,1.24-.28,1.59.81.18.56.09.88-.46,1.09q-4.51,1.6-9,3.25c-.76.28-1-.12-1.25-.75-.78-2.25-1.6-4.48-2.41-6.71-1.17-3.28-2.36-6.55-3.52-9.83-.45-1.25-.43-1.29.82-1.74,2.61-1,5.24-1.87,7.85-2.84.76-.29,1.16-.18,1.44.61s.16,1.19-.65,1.46c-1.87.63-3.72,1.3-5.57,2-1.13.42-1.13.45-.73,1.63s.94,2.5,1.34,3.77c.24.74.64.87,1.3.62,1.75-.64,3.49-1.27,5.24-1.88C236.6,70.62,237.27,71.14,237.25,72Z"/><path class="cls-5" d="M389.6,71.88a.68.68,0,0,0-.7.5c-.62,1.51-1.23,3-1.85,4.51-.26.64.19.81.64,1,1.71.7,3.44,1.38,5.15,2.1,1.11.47,1.14.66.68,1.66-.28.64-.64.7-1.23.45Q389.73,81,387.13,80c-1.12-.44-1.15-.43-1.64.72-.58,1.39-1.15,2.79-1.71,4.19s-.5,1.3.86,1.86c1.82.75,3.66,1.47,5.47,2.23,1.11.46,1.19.8.63,1.83a.67.67,0,0,1-1,.38l-9-3.68a.67.67,0,0,1-.42-1c.12-.33.24-.65.37-1q3.12-7.66,6.24-15.31c.67-1.63.47-1.69,2.19-1,2.41,1,4.84,2,7.25,3,1.16.48,1.22.75.73,1.8-.33.7-.75.55-1.27.33-1.72-.71-3.44-1.4-5.16-2.09C390.29,72.13,389.91,72,389.6,71.88Z"/><path class="cls-5" d="M319,70.9a9.88,9.88,0,0,0,2.48-.28c.65-.2,1.13-.18,1.29.64s.09,1.23-.76,1.43c-7.92,1.82-14.84-2.23-13.68-11.34.78-6.07,5.69-9.63,11.79-8.82a12.41,12.41,0,0,1,2.55.52c1.11.41,1.17.51.87,1.45s-.37,1-1.49.67a10.94,10.94,0,0,0-4.29-.47c-3.58.32-5.88,2.51-6.63,6.29a11.06,11.06,0,0,0-.08,3.63C311.66,68.65,314.52,70.93,319,70.9Z"/><path class="cls-5" d="M182.21,88.43c0,.28-.34.42-.61.61-1.58,1.08-3.16,2.15-4.73,3.25-1.17.81-1.17.82-.4,2s1.43,2.12,2.16,3.16.8,1.11,1.88.39c1.44-1,2.89-1.93,4.3-2.94.72-.52,1.09-.28,1.52.37s.36,1-.27,1.41c-1.5,1-2.95,2-4.46,3-.75.48-.89.89-.34,1.65,1.22,1.69,2.37,3.43,3.54,5.16.94,1.38.83,1.73-.64,2.44-.36.17-.65.21-.91-.13s-.34-.47-.5-.71q-4.86-7.11-9.7-14.22c-.75-1.1-.74-1.13.33-1.87,2.29-1.58,4.59-3.14,6.89-4.7A1.25,1.25,0,0,1,182.21,88.43Z"/><path class="cls-5" d="M219.53,69.32c.08.51-.23.67-.55.81-1.16.53-2.33,1.05-3.48,1.59s-1.3.61-.73,1.88q2.88,6.44,5.77,12.84c.12.27.25.53.35.8.16.42.63.85.34,1.27a3.3,3.3,0,0,1-1.81.94c-.28.09-.43-.15-.53-.34-.22-.41-.4-.83-.59-1.26q-3-6.57-5.93-13.14c-.59-1.29-.61-1.29-1.93-.72-1.11.49-2.23,1-3.32,1.5-.85.43-1.1-.07-1.41-.7s-.13-1.05.53-1.34c3.86-1.72,7.71-3.48,11.57-5.2C218.75,67.84,219.43,68.32,219.53,69.32Z"/><path class="cls-5" d="M338.1,75.12c-3.29-.42-6.34-.82-9.38-1.18-.79-.1-.91-.48-.82-1.18.77-5.92,1.5-11.84,2.27-17.75.13-1,.34-1,1.62-.92.8.07,1.09.37,1,1.22-.62,4.59-1.17,9.19-1.79,13.78-.38,2.82-.41,2.82,2.45,3.21,1.55.22,3.09.43,4.65.61.69.08,1.07.29.92,1.09S338.81,75.32,338.1,75.12Z"/><path class="cls-5" d="M283.87,54.76c0-.12,0-.24,0-.35,0-.44-.25-1,.22-1.28A2.81,2.81,0,0,1,286,52.9c.48.1.44.64.47,1,.19,2.14.35,4.28.52,6.41.23,3,.45,5.9.69,8.84.11,1.35.12,1.39,1.42,1.32,2-.11,4.05-.28,6.07-.41.61,0,1.16,0,1.22.81s0,1.24-1.06,1.32c-2.89.24-5.77.48-8.67.68-1.28.08-1.3,0-1.4-1.15-.45-5.66-.88-11.32-1.33-17Z"/><path class="cls-1" d="M370.71,81.37c-.25,0-.66,0-1.06-.1-3.14-.47-3.3-.73-2.36-3.69.38-1.21.79-2.42,1.13-3.65.21-.74.59-.9,1.28-.68A11.5,11.5,0,0,1,373,74.7a3.5,3.5,0,0,1,1.51,4.09C374,80.51,372.79,81.36,370.71,81.37Z"/><path class="cls-1" d="M373.07,72.08l-.76-.14c-3.05-.6-3.05-.6-2.15-3.48.29-.94.59-1.87.89-2.81a.76.76,0,0,1,1.05-.58,12,12,0,0,1,2.78,1c1.65.87,2.27,2.11,1.87,3.67A3.37,3.37,0,0,1,373.07,72.08Z"/><path class="cls-1" d="M250.41,69.08c2.1,0,3.43,1,3.88,2.8a3.53,3.53,0,0,1-2,4.19,10.66,10.66,0,0,1-3.12,1.06c-.72.16-1.06-.09-1.23-.8-.44-1.8-.93-3.59-1.44-5.38-.19-.68-.11-1.08.67-1.26A13.65,13.65,0,0,1,250.41,69.08Z"/><path class="cls-1" d="M248,60.75a3.13,3.13,0,0,1,2.16,5.63,9.21,9.21,0,0,1-3.85,1.48c-.43.11-.62-.18-.72-.55l-1.32-4.86a.72.72,0,0,1,.54-.93A11,11,0,0,1,248,60.75Z"/><path class="cls-1" d="M263.26,63.82a8.64,8.64,0,0,1,.7-3.73,5.78,5.78,0,0,1,9.63-1.69,10.93,10.93,0,0,1,1.88,10.92,5.76,5.76,0,0,1-9.74,1.55A10.3,10.3,0,0,1,263.26,63.82Z"/></svg>