<?xml version="1.0" encoding="UTF-8"?>
<!DOCTYPE svg PUBLIC "-//W3C//DTD SVG 1.1//EN" "http://www.w3.org/Graphics/SVG/1.1/DTD/svg11.dtd">
<svg xmlns="http://www.w3.org/2000/svg" version="1.1" width="251px" height="248px" style="shape-rendering:geometricPrecision; text-rendering:geometricPrecision; image-rendering:optimizeQuality; fill-rule:evenodd; clip-rule:evenodd" xmlns:xlink="http://www.w3.org/1999/xlink">
<g><path style="opacity:0.216" fill="#ffcf00" d="M 108.5,6.5 C 112.243,6.4592 112.41,7.12587 109,8.5C 108.536,7.90558 108.369,7.23891 108.5,6.5 Z"/></g>
<g><path style="opacity:0.39" fill="#fece00" d="M 136.5,7.5 C 136.897,6.47498 137.563,6.30831 138.5,7C 137.906,7.46434 137.239,7.63101 136.5,7.5 Z"/></g>
<g><path style="opacity:0.922" fill="#040404" d="M 10.5,21.5 C 86.5,21.5 162.5,21.5 238.5,21.5C 238.667,44.1691 238.5,66.8358 238,89.5C 200.327,138.001 162.493,186.334 124.5,234.5C 86.5066,186.334 48.6732,138.001 11,89.5C 10.5,66.8358 10.3334,44.1691 10.5,21.5 Z"/></g>
<g><path style="opacity:1" fill="#faf9f9" d="M 14.5,26.5 C 87.8333,26.5 161.167,26.5 234.5,26.5C 234.667,46.5028 234.5,66.5028 234,86.5C 197.278,133.048 160.778,179.714 124.5,226.5C 88.1908,179.69 51.6908,133.023 15,86.5C 14.5,66.5028 14.3334,46.5028 14.5,26.5 Z"/></g>
<g><path style="opacity:1" fill="#040404" d="M 23.5,34.5 C 90.8333,34.5 158.167,34.5 225.5,34.5C 225.5,50.8333 225.5,67.1667 225.5,83.5C 158.167,83.5 90.8333,83.5 23.5,83.5C 23.5,67.1667 23.5,50.8333 23.5,34.5 Z"/></g>
<g><path style="opacity:1" fill="#f4f4f4" d="M 185.5,40.5 C 190.511,40.3341 195.511,40.5007 200.5,41C 205.527,42.8534 208.527,46.3534 209.5,51.5C 207.658,51.7233 205.825,52.0566 204,52.5C 201.533,50.711 199.033,48.8777 196.5,47C 188.5,45.6667 183.833,49 182.5,57C 181.338,67.8395 186.005,72.5062 196.5,71C 198.715,68.4482 201.215,66.2815 204,64.5C 205.825,64.9434 207.658,65.2767 209.5,65.5C 208.846,71.6547 205.513,75.488 199.5,77C 181.888,79.7179 173.388,72.2179 174,54.5C 175.873,48.1358 179.706,43.4691 185.5,40.5 Z"/></g>
<g><path style="opacity:1" fill="#eeeeee" d="M 39.5,40.5 C 49.1667,40.5 58.8333,40.5 68.5,40.5C 68.5,42.8333 68.5,45.1667 68.5,47.5C 61.8333,47.5 55.1667,47.5 48.5,47.5C 48.5,50.1667 48.5,52.8333 48.5,55.5C 54.1667,55.5 59.8333,55.5 65.5,55.5C 65.5,57.5 65.5,59.5 65.5,61.5C 59.8333,61.5 54.1667,61.5 48.5,61.5C 48.5,66.8333 48.5,72.1667 48.5,77.5C 45.5,77.5 42.5,77.5 39.5,77.5C 39.5,65.1667 39.5,52.8333 39.5,40.5 Z"/></g>
<g><path style="opacity:1" fill="#f3f2f2" d="M 119.5,40.5 C 122.777,40.2161 125.943,40.5495 129,41.5C 134.46,53.4159 139.627,65.4159 144.5,77.5C 141.428,77.8174 138.428,77.4841 135.5,76.5C 134.399,74.3584 133.399,72.1917 132.5,70C 126.804,69.1701 121.137,69.3368 115.5,70.5C 113.809,76.8916 109.809,78.8916 103.5,76.5C 108.848,64.474 114.181,52.474 119.5,40.5 Z"/></g>
<g><path style="opacity:1" fill="#0f0f0f" d="M 123.5,50.5 C 125.868,54.0671 127.868,57.9004 129.5,62C 125.833,62.6667 122.167,62.6667 118.5,62C 120.267,58.1958 121.933,54.3625 123.5,50.5 Z"/></g>
<g><path style="opacity:1" fill="#010101" d="M 217.5,93.5 C 190.742,128.68 163.742,163.68 136.5,198.5C 135.502,163.671 135.168,128.671 135.5,93.5C 162.833,93.5 190.167,93.5 217.5,93.5 Z"/></g>
<g><path style="opacity:1" fill="#b7b7b7" d="M 217.5,93.5 C 190.167,93.5 162.833,93.5 135.5,93.5C 135.168,128.671 135.502,163.671 136.5,198.5C 136.44,199.043 136.107,199.376 135.5,199.5C 134.5,163.84 134.167,128.173 134.5,92.5C 162.908,92.1673 190.574,92.5007 217.5,93.5 Z"/></g>
<g><path style="opacity:1" fill="#ff151e" d="M 32.5,94.5 C 59.1667,94.5 85.8333,94.5 112.5,94.5C 112.826,128.573 112.493,162.573 111.5,196.5C 84.6942,162.9 58.3609,128.9 32.5,94.5 Z"/></g>
<g><path style="opacity:1" fill="#ff0a0c" d="M 31.5,93.5 C 58.8333,93.5 86.1667,93.5 113.5,93.5C 113.832,128.671 113.498,163.671 112.5,198.5C 112.167,197.833 111.833,197.167 111.5,196.5C 112.493,162.573 112.826,128.573 112.5,94.5C 85.8333,94.5 59.1667,94.5 32.5,94.5C 31.8333,94.5 31.5,94.1667 31.5,93.5 Z"/></g>
<g><path style="opacity:1" fill="#ffb9b4" d="M 31.5,93.5 C 58.995,92.5021 86.6616,92.1687 114.5,92.5C 114.833,128.173 114.5,163.84 113.5,199.5C 112.893,199.376 112.56,199.043 112.5,198.5C 113.498,163.671 113.832,128.671 113.5,93.5C 86.1667,93.5 58.8333,93.5 31.5,93.5 Z"/></g>
</svg>
