<?xml version="1.0" encoding="UTF-8"?>
<!DOCTYPE svg PUBLIC "-//W3C//DTD SVG 1.1//EN" "http://www.w3.org/Graphics/SVG/1.1/DTD/svg11.dtd">
<svg xmlns="http://www.w3.org/2000/svg" version="1.1" width="300px" height="350px" style="shape-rendering:geometricPrecision; text-rendering:geometricPrecision; image-rendering:optimizeQuality; fill-rule:evenodd; clip-rule:evenodd" xmlns:xlink="http://www.w3.org/1999/xlink">
<g><path style="opacity:1" fill="#f9f9f9" d="M 44.5,0.5 C 44.5,0.166667 44.5,-0.166667 44.5,-0.5C 45.5,-0.5 46.5,-0.5 47.5,-0.5C 46.8946,1.48123 45.8946,1.81457 44.5,0.5 Z"/></g>
<g><path style="opacity:1" fill="#e7e7e7" d="M 48.5,0.5 C 48.5,0.166667 48.5,-0.166667 48.5,-0.5C 50.5,-0.5 52.5,-0.5 54.5,-0.5C 54.1667,0.166667 53.8333,0.833333 53.5,1.5C 51.8828,0.962003 50.2161,0.628669 48.5,0.5 Z"/></g>
<g><path style="opacity:1" fill="#f5f6f5" d="M 44.5,0.5 C 43.8333,1.16667 43.8333,1.16667 44.5,0.5 Z"/></g>
<g><path style="opacity:1" fill="#f5f6f5" d="M 255.5,1.5 C 256.833,2.16667 256.833,2.16667 255.5,1.5 Z"/></g>
<g><path style="opacity:1" fill="#141416" d="M 148.5,-0.5 C 149.167,-0.5 149.833,-0.5 150.5,-0.5C 151.965,0.736849 153.632,1.73685 155.5,2.5C 158.833,3.83333 162.167,5.16667 165.5,6.5C 185.356,16.5133 206.023,18.1799 227.5,11.5C 228.995,11.0113 230.329,10.3446 231.5,9.5C 237.655,6.90319 243.321,3.56986 248.5,-0.5C 249.5,-0.5 250.5,-0.5 251.5,-0.5C 251.797,1.42964 253.13,3.09631 255.5,4.5C 255.833,5.16667 256.167,5.83333 256.5,6.5C 257.512,7.87165 258.512,9.20498 259.5,10.5C 263.833,15.1667 268.167,19.8333 272.5,24.5C 272.427,26.0269 273.094,27.0269 274.5,27.5C 277.271,31.39 280.271,35.0567 283.5,38.5C 283.833,39.1667 284.167,39.8333 284.5,40.5C 285.5,42.1667 286.833,43.5 288.5,44.5C 288.427,46.0269 289.094,47.0269 290.5,47.5C 290.833,47.5 291.167,47.5 291.5,47.5C 292.167,48.8333 292.833,50.1667 293.5,51.5C 292.199,52.8845 292.199,54.3845 293.5,56C 290.833,58.3333 290.833,60.6667 293.5,63C 289.832,63.4632 288.498,65.2965 289.5,68.5C 287.833,70.5 286.167,72.5 284.5,74.5C 285.167,75.1667 285.833,75.8333 286.5,76.5C 284.306,76.358 281.973,76.6914 279.5,77.5C 283.165,71.5158 286.831,65.5158 290.5,59.5C 277.2,41.8721 263.2,24.8721 248.5,8.5C 224.672,23.1171 199.339,26.2838 172.5,18C 165.085,14.3067 157.585,10.8067 150,7.5C 141.363,11.8076 132.53,15.6409 123.5,19C 108.96,22.7015 94.2931,23.3682 79.5,21C 70.0419,17.7399 60.8753,13.9066 52,9.5C 50.2894,9.43928 48.956,10.1059 48,11.5C 41.9018,19.2318 35.7352,26.8985 29.5,34.5C 31.704,35.2063 33.704,36.2063 35.5,37.5C 35.5,38.1667 35.5,38.8333 35.5,39.5C 31.3162,36.7464 28.3162,37.9131 26.5,43C 32.862,51.904 40.0287,60.0707 48,67.5C 52.2056,66.4068 53.5389,63.7402 52,59.5C 49.6148,56.6215 47.4482,53.6215 45.5,50.5C 49.1667,50.5 52.8333,50.5 56.5,50.5C 69.2673,56.0536 76.1007,65.7202 77,79.5C 78.5185,80.1634 79.6851,81.1634 80.5,82.5C 75.8497,80.5094 71.1831,78.5094 66.5,76.5C 60.8366,78.6511 60.1699,81.8178 64.5,86C 72.615,90.3921 80.9483,94.2254 89.5,97.5C 93.4997,97.3371 94.9997,95.3371 94,91.5C 90.9319,88.9174 87.7652,86.5841 84.5,84.5C 88.0459,84.4411 91.3792,83.6077 94.5,82C 97.5,81.3333 100.5,81.3333 103.5,82C 109.426,85.9213 114.759,90.588 119.5,96C 117.19,96.4966 114.857,96.6633 112.5,96.5C 112.257,99.8826 112.924,103.049 114.5,106C 114.167,106.167 113.833,106.333 113.5,106.5C 108.126,102.622 102.626,98.9554 97,95.5C 92.7557,97.2116 90.7557,100.212 91,104.5C 93.8424,107.542 96.6757,110.542 99.5,113.5C 98.1349,114.941 96.6349,116.274 95,117.5C 94.5026,120.146 94.3359,122.813 94.5,125.5C 88.9428,121.628 84.1094,116.961 80,111.5C 78.9893,106.213 78.156,100.879 77.5,95.5C 74.1437,93.7932 70.8104,92.1265 67.5,90.5C 63,92.3835 58.3334,92.8835 53.5,92C 45.2277,87.0614 39.0611,80.228 35,71.5C 34.755,67.1468 34.755,62.8134 35,58.5C 31.6014,55.2711 28.4347,51.9378 25.5,48.5C 24.8301,45.6522 23.1634,44.1522 20.5,44C 15.8935,48.7638 11.8935,53.9304 8.5,59.5C 14.682,69.1909 20.682,79.0242 26.5,89C 32.5307,101.978 34.0307,115.478 31,129.5C 24.0028,151.485 17.0028,173.485 10,195.5C 1.89299,227.499 10.0597,254.332 34.5,276C 41.672,280.419 48.672,285.085 55.5,290C 78.1389,299.829 100.472,309.829 122.5,320C 132.299,325.983 141.466,332.816 150,340.5C 155.079,335.943 160.245,331.443 165.5,327C 173.782,322.697 181.782,318.03 189.5,313C 217.38,303.951 243.213,291.117 267,274.5C 267.167,274.167 267.333,273.833 267.5,273.5C 265.955,272.548 264.288,272.215 262.5,272.5C 262.5,270.833 262.5,269.167 262.5,267.5C 274.595,266.067 279.262,259.401 276.5,247.5C 277.167,247.5 277.833,247.5 278.5,247.5C 278.833,247.5 279.167,247.5 279.5,247.5C 280.103,250.308 281.103,252.974 282.5,255.5C 289.487,244.593 292.82,232.593 292.5,219.5C 292.214,205.419 289.714,191.752 285,178.5C 278.036,162.013 272.703,145.013 269,127.5C 267.632,118.87 267.298,110.203 268,101.5C 270.222,95.6943 272.722,90.0276 275.5,84.5C 276.88,85.7065 278.047,85.3731 279,83.5C 280.033,86.2175 279.2,88.0508 276.5,89C 277.308,89.3076 277.975,89.8076 278.5,90.5C 276.255,92.5666 275.921,94.9 277.5,97.5C 272.761,113.277 274.095,128.444 281.5,143C 281.043,143.414 280.709,143.914 280.5,144.5C 288.372,165.139 294.705,186.472 299.5,208.5C 299.5,216.5 299.5,224.5 299.5,232.5C 297.571,241.606 294.238,250.273 289.5,258.5C 288.662,258.842 288.328,259.508 288.5,260.5C 287.833,260.5 287.5,260.833 287.5,261.5C 286.167,262.167 285.167,263.167 284.5,264.5C 284.267,266.062 283.6,267.395 282.5,268.5C 281.662,268.842 281.328,269.508 281.5,270.5C 279.554,271.035 278.554,272.368 278.5,274.5C 272.208,278.791 266.208,283.458 260.5,288.5C 254.992,291.755 249.325,294.755 243.5,297.5C 241.847,297.66 240.514,298.326 239.5,299.5C 238.833,299.5 238.5,299.833 238.5,300.5C 229.693,304.052 220.693,308.052 211.5,312.5C 204.18,315.148 196.847,318.481 189.5,322.5C 185.217,323.975 181.217,325.975 177.5,328.5C 175.973,328.427 174.973,329.094 174.5,330.5C 173.833,330.5 173.5,330.833 173.5,331.5C 170.883,332.786 168.55,334.453 166.5,336.5C 165.29,336.932 164.29,337.599 163.5,338.5C 161.833,339.5 160.5,340.833 159.5,342.5C 157.77,343.026 156.436,344.026 155.5,345.5C 154.5,346.167 153.5,346.833 152.5,347.5C 151.5,347.833 150.833,348.5 150.5,349.5C 149.833,349.5 149.167,349.5 148.5,349.5C 146.129,346.794 143.463,344.461 140.5,342.5C 136.167,338.833 131.833,335.167 127.5,331.5C 127.027,330.094 126.027,329.427 124.5,329.5C 124.167,329.5 123.833,329.5 123.5,329.5C 114.277,323.727 104.944,318.893 95.5,315C 88.0243,312.094 80.691,308.927 73.5,305.5C 72.4863,304.326 71.153,303.66 69.5,303.5C 65.8333,302.167 62.1667,300.833 58.5,299.5C 53.1745,296.503 47.8412,293.503 42.5,290.5C 39.5249,287.677 36.1916,285.344 32.5,283.5C 32.5,283.167 32.5,282.833 32.5,282.5C 31.7377,280.738 30.4044,279.738 28.5,279.5C 28.1667,278.5 27.5,277.833 26.5,277.5C 25.8333,277.5 25.5,277.167 25.5,276.5C 25.1667,275.5 24.5,274.833 23.5,274.5C 20.8333,271.833 18.1667,269.167 15.5,266.5C 15.5,266.167 15.5,265.833 15.5,265.5C 15.573,263.973 14.9063,262.973 13.5,262.5C 10.917,259.003 8.58363,255.336 6.5,251.5C 0.610058,236.336 -1.05661,220.669 1.5,204.5C 3.03954,202.162 3.70621,199.495 3.5,196.5C 7.25023,178.92 12.5836,161.92 19.5,145.5C 20.9238,143.485 21.5905,141.152 21.5,138.5C 22.8195,132.885 23.9862,127.218 25,121.5C 25.8945,104.016 20.7278,88.6823 9.5,75.5C 8.33067,72.4887 6.664,69.822 4.5,67.5C 4.5,65.5 3.5,64.5 1.5,64.5C 2.42856,62.6783 1.7619,61.3449 -0.5,60.5C -0.5,59.5 -0.5,58.5 -0.5,57.5C 1.7619,56.6551 2.42856,55.3217 1.5,53.5C 3.40435,53.2624 4.73769,52.2624 5.5,50.5C 7.19416,49.4726 8.5275,48.1392 9.5,46.5C 10.5,46.1667 11.1667,45.5 11.5,44.5C 14.4864,40.183 17.8197,36.183 21.5,32.5C 22.8333,31.8333 23.8333,30.8333 24.5,29.5C 25.1237,27.246 26.457,25.5794 28.5,24.5C 29.9063,24.0269 30.573,23.0269 30.5,21.5C 31.1667,21.5 31.5,21.1667 31.5,20.5C 32.5,20.1667 33.1667,19.5 33.5,18.5C 38.1415,12.7995 43.1415,6.79952 48.5,0.5C 50.2161,0.628669 51.8828,0.962003 53.5,1.5C 71.7456,13.7268 91.7456,18.0601 113.5,14.5C 116.495,14.7062 119.162,14.0395 121.5,12.5C 127.733,10.137 133.399,7.47033 138.5,4.5C 139.492,4.67158 140.158,4.33825 140.5,3.5C 143.485,2.67433 146.151,1.341 148.5,-0.5 Z"/></g>
<g><path style="opacity:1" fill="#f5f6f5" d="M 140.5,3.5 C 139.833,2.16667 139.833,2.16667 140.5,3.5 Z"/></g>
<g><path style="opacity:1" fill="#f6f7f6" d="M 158.5,0.5 C 159.833,1.16667 159.833,1.16667 158.5,0.5 Z"/></g>
<g><path style="opacity:1" fill="#eaeaea" d="M 150.5,-0.5 C 151.833,-0.5 153.167,-0.5 154.5,-0.5C 155.11,0.391047 155.443,1.39105 155.5,2.5C 153.632,1.73685 151.965,0.736849 150.5,-0.5 Z"/></g>
<g><path style="opacity:1" fill="#f2f3f2" d="M 62.5,0.5 C 63.8333,1.16667 63.8333,1.16667 62.5,0.5 Z"/></g>
<g><path style="opacity:1" fill="#f5f6f5" d="M 156.5,-0.5 C 156.833,-0.5 157.167,-0.5 157.5,-0.5C 157.315,0.170143 156.981,0.170143 156.5,-0.5 Z"/></g>
<g><path style="opacity:1" fill="#eff0ef" d="M 138.5,4.5 C 137.833,3.16667 137.833,3.16667 138.5,4.5 Z"/></g>
<g><path style="opacity:1" fill="#f6f7f6" d="M 255.5,3.5 C 256.833,4.16667 256.833,4.16667 255.5,3.5 Z"/></g>
<g><path style="opacity:1" fill="#f6f7f6" d="M 41.5,5.5 C 42.8333,6.16667 42.8333,6.16667 41.5,5.5 Z"/></g>
<g><path style="opacity:1" fill="#f6f7f6" d="M 131.5,5.5 C 132.833,6.16667 132.833,6.16667 131.5,5.5 Z"/></g>
<g><path style="opacity:1" fill="#f3f4f3" d="M 165.5,5.5 C 166.833,6.16667 166.833,6.16667 165.5,5.5 Z"/></g>
<g><path style="opacity:1" fill="#f6f7f6" d="M 41.5,6.5 C 40.8333,7.16667 40.8333,7.16667 41.5,6.5 Z"/></g>
<g><path style="opacity:1" fill="#efefef" d="M 260.5,8.5 C 259.662,8.84171 259.328,9.50838 259.5,10.5C 258.512,9.20498 257.512,7.87165 256.5,6.5C 257.222,6.08247 257.722,5.4158 258,4.5C 258.662,5.98392 259.496,7.31725 260.5,8.5 Z"/></g>
<g><path style="opacity:1" fill="#f6f7f6" d="M 124.5,9.5 C 124.897,8.47498 125.563,8.30831 126.5,9C 125.906,9.46434 125.239,9.63101 124.5,9.5 Z"/></g>
<g><path style="opacity:1" fill="#f6f7f6" d="M 260.5,8.5 C 261.167,8.5 261.5,8.83333 261.5,9.5C 261.167,9.16667 260.833,8.83333 260.5,8.5 Z"/></g>
<g><path style="opacity:1" fill="#f4f5f4" d="M 33.5,10.5 C 32.8333,9.16667 32.8333,9.16667 33.5,10.5 Z"/></g>
<g><path style="opacity:1" fill="#f6f7f6" d="M 37.5,9.5 C 38.8333,10.1667 38.8333,10.1667 37.5,9.5 Z"/></g>
<g><path style="opacity:1" fill="#f1f2f1" d="M 261.5,9.5 C 262.833,10.1667 262.833,10.1667 261.5,9.5 Z"/></g>
<g><path style="opacity:1" fill="#f8f8f8" d="M 33.5,10.5 C 36.0973,9.59724 36.5973,10.2639 35,12.5C 34.2828,11.9558 33.7828,11.2891 33.5,10.5 Z"/></g>
<g><path style="opacity:1" fill="#f6f7f6" d="M 31.5,11.5 C 32.8333,12.1667 32.8333,12.1667 31.5,11.5 Z"/></g>
<g><path style="opacity:1" fill="#f5f6f5" d="M 26.5,16.5 C 27.8333,17.1667 27.8333,17.1667 26.5,16.5 Z"/></g>
<g><path style="opacity:1" fill="#f5f6f5" d="M 267.5,16.5 C 268.833,17.1667 268.833,17.1667 267.5,16.5 Z"/></g>
<g><path style="opacity:1" fill="#eeeeef" d="M 33.5,18.5 C 33.1667,19.5 32.5,20.1667 31.5,20.5C 30.5,18.1667 31.1667,17.5 33.5,18.5 Z"/></g>
<g><path style="opacity:1" fill="#f4f4f4" d="M 269.5,20.5 C 270.077,19.2267 270.743,19.2267 271.5,20.5C 271.03,21.463 270.363,21.463 269.5,20.5 Z"/></g>
<g><path style="opacity:1" fill="#dbdbdb" d="M 30.5,21.5 C 30.573,23.0269 29.9063,24.0269 28.5,24.5C 27.0184,21.6675 27.685,20.6675 30.5,21.5 Z"/></g>
<g><path style="opacity:1" fill="#027b34" d="M 94.5,125.5 C 94.3359,122.813 94.5026,120.146 95,117.5C 96.6349,116.274 98.1349,114.941 99.5,113.5C 96.6757,110.542 93.8424,107.542 91,104.5C 90.7557,100.212 92.7557,97.2116 97,95.5C 102.626,98.9554 108.126,102.622 113.5,106.5C 113.833,106.333 114.167,106.167 114.5,106C 112.924,103.049 112.257,99.8826 112.5,96.5C 114.857,96.6633 117.19,96.4966 119.5,96C 114.759,90.588 109.426,85.9213 103.5,82C 100.5,81.3333 97.5,81.3333 94.5,82C 91.3792,83.6077 88.0459,84.4411 84.5,84.5C 82.847,84.3404 81.5137,83.6737 80.5,82.5C 79.6851,81.1634 78.5185,80.1634 77,79.5C 76.1007,65.7202 69.2673,56.0536 56.5,50.5C 53.023,49.6773 49.3563,49.1773 45.5,49C 43.6298,46.9604 41.6298,45.1271 39.5,43.5C 37.8333,42.5 36.5,41.1667 35.5,39.5C 35.5,38.8333 35.5,38.1667 35.5,37.5C 40.831,30.8373 46.4977,24.504 52.5,18.5C 59.7273,21.6139 67.0606,24.4472 74.5,27C 92.3274,31.8661 109.994,31.1994 127.5,25C 135.079,22.3103 142.412,19.1436 149.5,15.5C 165.431,23.9193 182.431,28.9193 200.5,30.5C 215.762,29.9355 230.095,26.1021 243.5,19C 244.5,18.3333 245.5,18.3333 246.5,19C 198.662,53.3286 150.662,87.4952 102.5,121.5C 99.7872,122.914 97.1205,124.247 94.5,125.5 Z"/></g>
<g><path style="opacity:1" fill="#f3f3f3" d="M 25.5,22.5 C 26.525,22.8966 26.6917,23.5632 26,24.5C 25.5357,23.9056 25.369,23.2389 25.5,22.5 Z"/></g>
<g><path style="opacity:1" fill="#f4f4f4" d="M 272.5,24.5 C 272.897,23.475 273.563,23.3083 274.5,24C 273.906,24.4643 273.239,24.631 272.5,24.5 Z"/></g>
<g><path style="opacity:1" fill="#f5f6f5" d="M 275.5,25.5 C 276.833,26.1667 276.833,26.1667 275.5,25.5 Z"/></g>
<g><path style="opacity:1" fill="#f0f1f0" d="M 275.5,26.5 C 274.833,27.1667 274.833,27.1667 275.5,26.5 Z"/></g>
<g><path style="opacity:1" fill="#f3f4f3" d="M 20.5,28.5 C 21.8333,29.1667 21.8333,29.1667 20.5,28.5 Z"/></g>
<g><path style="opacity:1" fill="#c5c5c5" d="M 24.5,29.5 C 23.8333,30.8333 22.8333,31.8333 21.5,32.5C 21.5,30.5 22.5,29.5 24.5,29.5 Z"/></g>
<g><path style="opacity:1" fill="#f6f7f6" d="M 282.5,32.5 C 283.833,33.1667 283.833,33.1667 282.5,32.5 Z"/></g>
<g><path style="opacity:1" fill="#f6f7f6" d="M 282.5,34.5 C 283.833,35.1667 283.833,35.1667 282.5,34.5 Z"/></g>
<g><path style="opacity:1" fill="#f4f5f4" d="M 283.5,37.5 C 284.833,38.1667 284.833,38.1667 283.5,37.5 Z"/></g>
<g><path style="opacity:1" fill="#f6f7f6" d="M 11.5,40.5 C 12.8333,41.1667 12.8333,41.1667 11.5,40.5 Z"/></g>
<g><path style="opacity:1" fill="#f2f2ee" d="M 284.5,40.5 C 285.922,40.7086 287.255,41.2086 288.5,42C 289.598,42.7697 289.598,43.603 288.5,44.5C 286.833,43.5 285.5,42.1667 284.5,40.5 Z"/></g>
<g><path style="opacity:1" fill="#ebebeb" d="M 11.5,44.5 C 11.1667,45.5 10.5,46.1667 9.5,46.5C 7.16667,42.8333 7.83333,42.1667 11.5,44.5 Z"/></g>
<g><path style="opacity:1" fill="#f6f7f6" d="M 290.5,43.5 C 291.833,44.1667 291.833,44.1667 290.5,43.5 Z"/></g>
<g><path style="opacity:1" fill="#f4f3f4" d="M 35.5,39.5 C 36.5,41.1667 37.8333,42.5 39.5,43.5C 40.7573,46.4274 42.7573,48.7607 45.5,50.5C 47.4482,53.6215 49.6148,56.6215 52,59.5C 53.5389,63.7402 52.2056,66.4068 48,67.5C 40.0287,60.0707 32.862,51.904 26.5,43C 28.3162,37.9131 31.3162,36.7464 35.5,39.5 Z"/></g>
<g><path style="opacity:1" fill="#bcbcbc" d="M 288.5,44.5 C 289.906,44.9731 290.573,45.9731 290.5,47.5C 289.094,47.0269 288.427,46.0269 288.5,44.5 Z"/></g>
<g><path style="opacity:1" fill="#f5f6f5" d="M 291.5,46.5 C 292.833,47.1667 292.833,47.1667 291.5,46.5 Z"/></g>
<g><path style="opacity:1" fill="#f4f5f4" d="M 1.5,49.5 C 2.83333,50.1667 2.83333,50.1667 1.5,49.5 Z"/></g>
<g><path style="opacity:1" fill="#f4f5f4" d="M 5.5,50.5 C 4.83333,49.1667 4.83333,49.1667 5.5,50.5 Z"/></g>
<g><path style="opacity:1" fill="#f4f5f4" d="M 1.5,53.5 C 0.833333,52.1667 0.833333,52.1667 1.5,53.5 Z"/></g>
<g><path style="opacity:1" fill="#f0f1f0" d="M 296.5,52.5 C 297.833,53.1667 297.833,53.1667 296.5,52.5 Z"/></g>
<g><path style="opacity:1" fill="#f4f5f4" d="M -0.5,54.5 C 0.833333,55.1667 0.833333,55.1667 -0.5,54.5 Z"/></g>
<g><path style="opacity:1" fill="#f5f6f5" d="M 1.5,64.5 C 0.833333,65.1667 0.833333,65.1667 1.5,64.5 Z"/></g>
<g><path style="opacity:1" fill="#f6f7f6" d="M 1.5,66.5 C 2.83333,67.1667 2.83333,67.1667 1.5,66.5 Z"/></g>
<g><path style="opacity:1" fill="#eff0ef" d="M 4.5,67.5 C 3.83333,68.1667 3.83333,68.1667 4.5,67.5 Z"/></g>
<g><path style="opacity:1" fill="#f5f5f5" d="M 3.5,68.5 C 3.63101,69.2389 3.46434,69.9056 3,70.5C 2.30831,69.5632 2.47498,68.8966 3.5,68.5 Z"/></g>
<g><path style="opacity:1" fill="#f6f7f6" d="M 293.5,73.5 C 294.833,74.1667 294.833,74.1667 293.5,73.5 Z"/></g>
<g><path style="opacity:1" fill="#f2f3f2" d="M 9.5,75.5 C 8.83333,76.1667 8.83333,76.1667 9.5,75.5 Z"/></g>
<g><path style="opacity:1" fill="#232325" d="M 293.5,51.5 C 294.5,52.1667 295.5,52.8333 296.5,53.5C 297.026,55.2303 298.026,56.5637 299.5,57.5C 299.5,58.5 299.5,59.5 299.5,60.5C 290.232,72.0912 282.899,84.4245 277.5,97.5C 275.921,94.9 276.255,92.5666 278.5,90.5C 277.975,89.8076 277.308,89.3076 276.5,89C 279.2,88.0508 280.033,86.2175 279,83.5C 278.047,85.3731 276.88,85.7065 275.5,84.5C 276.838,82.1317 278.172,79.7984 279.5,77.5C 281.973,76.6914 284.306,76.358 286.5,76.5C 285.833,75.8333 285.167,75.1667 284.5,74.5C 286.167,72.5 287.833,70.5 289.5,68.5C 288.498,65.2965 289.832,63.4632 293.5,63C 290.833,60.6667 290.833,58.3333 293.5,56C 292.199,54.3845 292.199,52.8845 293.5,51.5 Z"/></g>
<g><path style="opacity:1" fill="#f4f5f4" d="M 292.5,77.5 C 293.833,78.1667 293.833,78.1667 292.5,77.5 Z"/></g>
<g><path style="opacity:1" fill="#f4f5f4" d="M 11.5,80.5 C 12.8333,81.1667 12.8333,81.1667 11.5,80.5 Z"/></g>
<g><path style="opacity:1" fill="#f6f7f6" d="M 284.5,85.5 C 285.833,86.1667 285.833,86.1667 284.5,85.5 Z"/></g>
<g><path style="opacity:1" fill="#f5f6f5" d="M 14.5,86.5 C 15.8333,87.1667 15.8333,87.1667 14.5,86.5 Z"/></g>
<g><path style="opacity:1" fill="#f5f6f5" d="M 282.5,89.5 C 283.833,90.1667 283.833,90.1667 282.5,89.5 Z"/></g>
<g><path style="opacity:1" fill="#f3f4f3" d="M 16.5,91.5 C 17.8333,92.1667 17.8333,92.1667 16.5,91.5 Z"/></g>
<g><path style="opacity:1" fill="#f2f3f2" d="M 17.5,93.5 C 18.8333,94.1667 18.8333,94.1667 17.5,93.5 Z"/></g>
<g><path style="opacity:1" fill="#f6f7f6" d="M 21.5,102.5 C 22.8333,103.167 22.8333,103.167 21.5,102.5 Z"/></g>
<g><path style="opacity:1" fill="#2b2d93" d="M 279.5,77.5 C 278.172,79.7984 276.838,82.1317 275.5,84.5C 272.722,90.0276 270.222,95.6943 268,101.5C 267.298,110.203 267.632,118.87 269,127.5C 272.703,145.013 278.036,162.013 285,178.5C 289.714,191.752 292.214,205.419 292.5,219.5C 292.82,232.593 289.487,244.593 282.5,255.5C 281.103,252.974 280.103,250.308 279.5,247.5C 285.137,235.844 286.97,223.511 285,210.5C 283.638,201.355 281.638,192.355 279,183.5C 273.669,167.511 268.335,151.511 263,135.5C 259.34,121.043 259.673,106.71 264,92.5C 268.724,83.0523 273.391,73.719 278,64.5C 237.985,93.0298 198.152,121.696 158.5,150.5C 157.508,150.328 156.842,150.662 156.5,151.5C 111.851,183.142 67.1848,214.808 22.5,246.5C 21.4173,247.365 21.2506,248.365 22,249.5C 29.5,262.333 39.6667,272.5 52.5,280C 58.6754,283.588 65.0087,286.922 71.5,290C 87.242,296.368 102.909,303.034 118.5,310C 129.614,315.968 140.114,322.802 150,330.5C 157.546,324.626 165.379,319.126 173.5,314C 195.448,303.194 217.781,293.194 240.5,284C 246.665,280.418 252.665,276.585 258.5,272.5C 259.833,272.5 261.167,272.5 262.5,272.5C 264.288,272.215 265.955,272.548 267.5,273.5C 267.333,273.833 267.167,274.167 267,274.5C 243.213,291.117 217.38,303.951 189.5,313C 181.782,318.03 173.782,322.697 165.5,327C 160.245,331.443 155.079,335.943 150,340.5C 141.466,332.816 132.299,325.983 122.5,320C 100.472,309.829 78.1389,299.829 55.5,290C 48.672,285.085 41.672,280.419 34.5,276C 10.0597,254.332 1.89299,227.499 10,195.5C 17.0028,173.485 24.0028,151.485 31,129.5C 34.0307,115.478 32.5307,101.978 26.5,89C 20.682,79.0242 14.682,69.1909 8.5,59.5C 11.8935,53.9304 15.8935,48.7638 20.5,44C 23.1634,44.1522 24.8301,45.6522 25.5,48.5C 22.9316,52.4133 19.9316,56.08 16.5,59.5C 26.7612,72.6387 34.2612,87.3053 39,103.5C 39.8723,114.26 39.2056,124.927 37,135.5C 32.8922,148.864 28.3922,162.031 23.5,175C 23.8333,175.5 24.1667,176 24.5,176.5C 45.1491,161.175 66.1491,146.342 87.5,132C 90.3623,130.265 92.6956,128.098 94.5,125.5C 97.1205,124.247 99.7872,122.914 102.5,121.5C 150.662,87.4952 198.662,53.3286 246.5,19C 245.5,18.3333 244.5,18.3333 243.5,19C 230.095,26.1021 215.762,29.9355 200.5,30.5C 182.431,28.9193 165.431,23.9193 149.5,15.5C 142.412,19.1436 135.079,22.3103 127.5,25C 109.994,31.1994 92.3274,31.8661 74.5,27C 67.0606,24.4472 59.7273,21.6139 52.5,18.5C 46.4977,24.504 40.831,30.8373 35.5,37.5C 33.704,36.2063 31.704,35.2063 29.5,34.5C 35.7352,26.8985 41.9018,19.2318 48,11.5C 48.956,10.1059 50.2894,9.43928 52,9.5C 60.8753,13.9066 70.0419,17.7399 79.5,21C 94.2931,23.3682 108.96,22.7015 123.5,19C 132.53,15.6409 141.363,11.8076 150,7.5C 157.585,10.8067 165.085,14.3067 172.5,18C 199.339,26.2838 224.672,23.1171 248.5,8.5C 263.2,24.8721 277.2,41.8721 290.5,59.5C 286.831,65.5158 283.165,71.5158 279.5,77.5 Z"/></g>
<g><path style="opacity:1" fill="#0d0d11" d="M 247.5,30.5 C 249.92,30.2924 252.253,30.6258 254.5,31.5C 255.228,33.1932 256.228,34.6932 257.5,36C 261.155,37.8973 264.655,40.0639 268,42.5C 269.373,44.6954 269.706,47.0288 269,49.5C 265.31,53.8633 260.81,57.03 255.5,59C 247.707,65.6135 239.707,72.1135 231.5,78.5C 224.16,82.5013 217.16,87.0013 210.5,92C 196.822,102.334 183.155,112.667 169.5,123C 168.056,123.781 166.723,123.614 165.5,122.5C 163.205,119.576 161.705,116.243 161,112.5C 159.448,111.034 157.614,110.034 155.5,109.5C 152.422,105.308 153.089,101.808 157.5,99C 162.796,95.3461 168.129,91.6794 173.5,88C 175.5,88.6667 177.5,89.3333 179.5,90C 187.75,84.7129 195.416,78.7129 202.5,72C 205.368,69.5683 208.701,68.235 212.5,68C 214.369,63.5491 217.703,60.7158 222.5,59.5C 221.415,52.1558 224.415,47.8225 231.5,46.5C 233.195,44.2342 235.361,42.5675 238,41.5C 239.86,43.2009 242.027,44.2009 244.5,44.5C 244.853,39.6429 245.853,34.9762 247.5,30.5 Z"/></g>
<g><path style="opacity:1" fill="#e5e5e5" d="M 81.5,98.5 C 83.5824,98.472 85.4157,99.1387 87,100.5C 87.9281,106.187 90.7614,110.687 95.5,114C 92.8626,116.074 90.3626,115.907 88,113.5C 84.1907,109.214 82.024,104.214 81.5,98.5 Z"/></g>
<g><path style="opacity:1" fill="#eeeeee" d="M 173.5,92.5 C 175.758,92.7751 176.092,93.7751 174.5,95.5C 176.5,98.5 178.5,101.5 180.5,104.5C 181.391,105.59 182.391,105.59 183.5,104.5C 183.833,105 184.167,105.5 184.5,106C 182.358,108.468 179.858,110.635 177,112.5C 175.383,111.464 175.216,110.297 176.5,109C 175.382,107.926 174.382,106.76 173.5,105.5C 171.998,106.083 170.665,106.916 169.5,108C 171.226,110.198 173.226,112.032 175.5,113.5C 172.909,115.38 170.409,117.38 168,119.5C 166.256,118.351 166.089,117.017 167.5,115.5C 165.082,111.082 161.749,107.749 157.5,105.5C 159.234,102.8 161.568,100.8 164.5,99.5C 165.308,99.8076 165.975,100.308 166.5,101C 165.526,103.702 166.526,105.035 169.5,105C 170.357,104.311 171.023,103.478 171.5,102.5C 170.252,100.541 168.585,99.0414 166.5,98C 169.02,96.3029 171.353,94.4695 173.5,92.5 Z"/></g>
<g><path style="opacity:1" fill="#ececec" d="M 199.5,94.5 C 199.586,95.4959 199.252,96.3292 198.5,97C 194.711,99.1266 191.211,101.627 188,104.5C 185.044,101.596 181.878,98.9295 178.5,96.5C 179.579,94.457 181.246,93.1237 183.5,92.5C 185.605,95.027 187.939,97.3603 190.5,99.5C 191.614,98.277 191.781,96.9437 191,95.5C 189.648,93.5676 187.815,92.2343 185.5,91.5C 187.008,89.4925 188.842,87.8259 191,86.5C 192.833,89 194.667,91.5 196.5,94C 197.448,94.4828 198.448,94.6495 199.5,94.5 Z"/></g>
<g><path style="opacity:1" fill="#fd040e" d="M 279.5,247.5 C 279.167,247.5 278.833,247.5 278.5,247.5C 274.769,239.233 269.436,232.067 262.5,226C 259.845,224.559 257.012,223.726 254,223.5C 250.527,224.163 247.027,224.496 243.5,224.5C 242.738,222.738 241.404,221.738 239.5,221.5C 238.415,219.413 236.749,218.08 234.5,217.5C 234.898,210.564 232.565,204.731 227.5,200C 217.367,193.883 206.367,190.716 194.5,190.5C 193.89,188.566 192.89,186.899 191.5,185.5C 191.573,183.973 190.906,182.973 189.5,182.5C 189.068,181.29 188.401,180.29 187.5,179.5C 188.1,175.333 188.766,171.167 189.5,167C 189.385,164.268 188.552,161.768 187,159.5C 181.185,154.262 175.185,149.262 169,144.5C 168.503,146.81 168.337,149.143 168.5,151.5C 165.119,151.54 161.786,151.207 158.5,150.5C 198.152,121.696 237.985,93.0298 278,64.5C 273.391,73.719 268.724,83.0523 264,92.5C 259.673,106.71 259.34,121.043 263,135.5C 268.335,151.511 273.669,167.511 279,183.5C 281.638,192.355 283.638,201.355 285,210.5C 286.97,223.511 285.137,235.844 279.5,247.5 Z"/></g>
<g><path style="opacity:1" fill="#037c34" d="M 25.5,48.5 C 28.4347,51.9378 31.6014,55.2711 35,58.5C 34.755,62.8134 34.755,67.1468 35,71.5C 39.0611,80.228 45.2277,87.0614 53.5,92C 58.3334,92.8835 63,92.3835 67.5,90.5C 70.8104,92.1265 74.1437,93.7932 77.5,95.5C 78.156,100.879 78.9893,106.213 80,111.5C 84.1094,116.961 88.9428,121.628 94.5,125.5C 92.6956,128.098 90.3623,130.265 87.5,132C 66.1491,146.342 45.1491,161.175 24.5,176.5C 24.1667,176 23.8333,175.5 23.5,175C 28.3922,162.031 32.8922,148.864 37,135.5C 39.2056,124.927 39.8723,114.26 39,103.5C 34.2612,87.3053 26.7612,72.6387 16.5,59.5C 19.9316,56.08 22.9316,52.4133 25.5,48.5 Z"/></g>
<g><path style="opacity:1" fill="#eceded" d="M 94.5,83.5 C 102.063,84.4488 108.397,87.7821 113.5,93.5C 112.311,94.4287 110.978,94.762 109.5,94.5C 109.851,96.8695 110.018,99.2028 110,101.5C 103.593,96.2447 97.093,91.2447 90.5,86.5C 91.9014,85.4793 93.2347,84.4793 94.5,83.5 Z"/></g>
<g><path style="opacity:1" fill="#f3f3f4" d="M 80.5,82.5 C 81.5137,83.6737 82.847,84.3404 84.5,84.5C 87.7652,86.5841 90.9319,88.9174 94,91.5C 94.9997,95.3371 93.4997,97.3371 89.5,97.5C 80.9483,94.2254 72.615,90.3921 64.5,86C 60.1699,81.8178 60.8366,78.6511 66.5,76.5C 71.1831,78.5094 75.8497,80.5094 80.5,82.5 Z"/></g>
<g><path style="opacity:1" fill="#e8e8e8" d="M 220.5,78.5 C 219.466,81.8584 217.133,83.8584 213.5,84.5C 211.379,87.45 208.713,89.95 205.5,92C 203.783,93.5588 201.783,94.3921 199.5,94.5C 199.867,90.295 197.867,87.295 193.5,85.5C 196.924,83.1203 199.924,80.287 202.5,77C 205.586,75.4367 208.586,73.6033 211.5,71.5C 214.024,73.1901 216.024,75.3568 217.5,78C 218.448,78.4828 219.448,78.6495 220.5,78.5 Z"/></g>
<g><path style="opacity:1" fill="#101010" d="M 201.5,81.5 C 203.624,82.0312 205.124,83.3645 206,85.5C 206.749,86.635 206.583,87.635 205.5,88.5C 202.453,87.1249 201.12,84.7916 201.5,81.5 Z"/></g>
<g><path style="opacity:1" fill="#171717" d="M 213.5,84.5 C 210.888,83.7225 209.055,82.0559 208,79.5C 207.437,78.2752 207.77,77.2752 209,76.5C 211.81,78.4561 213.31,81.1228 213.5,84.5 Z"/></g>
<g><path style="opacity:1" fill="#ececec" d="M 39.5,64.5 C 40.7942,65.2899 41.9609,66.2899 43,67.5C 44.1392,70.5833 45.4725,73.5833 47,76.5C 51.8801,81.3563 57.3801,85.3563 63.5,88.5C 58.2188,90.0386 53.5522,88.872 49.5,85C 45.9496,81.1174 42.7829,76.9507 40,72.5C 39.5026,69.854 39.3359,67.1873 39.5,64.5 Z"/></g>
<g><path style="opacity:1" fill="#efeeef" d="M 220.5,78.5 C 220.018,77.5837 219.685,76.5837 219.5,75.5C 221.002,72.8434 222.169,70.1768 223,67.5C 221.817,66.269 220.651,66.269 219.5,67.5C 221.283,71.0308 220.283,72.5308 216.5,72C 215.978,71.4387 215.645,70.772 215.5,70C 220.584,60.5021 225.75,60.3354 231,69.5C 231.617,68.5509 231.451,67.7175 230.5,67C 231.449,66.3828 232.282,66.5494 233,67.5C 233.698,71.6509 231.865,73.9843 227.5,74.5C 226.233,77.6349 223.9,78.9683 220.5,78.5 Z"/></g>
<g><path style="opacity:1" fill="#262625" d="M 224.5,70.5 C 227.14,71.7936 227.14,73.127 224.5,74.5C 223.374,73.1916 223.374,71.8583 224.5,70.5 Z"/></g>
<g><path style="opacity:1" fill="#e9eaeb" d="M 50.5,53.5 C 61.7753,54.2586 69.6086,59.9253 74,70.5C 74.4966,72.8098 74.6633,75.1432 74.5,77.5C 73.1779,77.67 72.0113,77.3366 71,76.5C 69.7195,64.7198 63.2195,58.0531 51.5,56.5C 50.8728,55.5832 50.5394,54.5832 50.5,53.5 Z"/></g>
<g><path style="opacity:1" fill="#f4f4f4" d="M 54.5,60.5 C 62.0392,62.1704 65.3725,66.6704 64.5,74C 61.4423,75.2177 58.7756,77.051 56.5,79.5C 52.5,77.5 49.5,74.5 47.5,70.5C 52.2086,68.7967 54.542,65.4633 54.5,60.5 Z"/></g>
<g><path style="opacity:1" fill="#e9e8e9" d="M 232.5,55.5 C 235.038,57.0011 237.038,59.1677 238.5,62C 240.044,62.2896 241.377,62.9563 242.5,64C 240.53,66.3157 238.196,68.1491 235.5,69.5C 234.686,65.0318 232.352,61.6985 228.5,59.5C 229.867,58.16 231.2,56.8267 232.5,55.5 Z"/></g>
<g><path style="opacity:1" fill="#e6e7e6" d="M 228.5,51.5 C 230.252,51.4176 231.252,52.2509 231.5,54C 229.833,57.3333 228.167,57.3333 226.5,54C 227.056,52.9889 227.722,52.1556 228.5,51.5 Z"/></g>
<g><path style="opacity:1" fill="#173e1d" d="M 39.5,43.5 C 41.6298,45.1271 43.6298,46.9604 45.5,49C 49.3563,49.1773 53.023,49.6773 56.5,50.5C 52.8333,50.5 49.1667,50.5 45.5,50.5C 42.7573,48.7607 40.7573,46.4274 39.5,43.5 Z"/></g>
<g><path style="opacity:1" fill="#eae9ea" d="M 236.5,46.5 C 238.912,46.244 240.579,47.244 241.5,49.5C 242.478,49.0233 243.311,48.3567 244,47.5C 245.794,49.464 245.294,50.964 242.5,52C 244.213,53.3782 245.547,55.0448 246.5,57C 247.332,57.6877 247.998,57.521 248.5,56.5C 247.355,55.109 247.355,53.7757 248.5,52.5C 252.247,58.6876 250.58,61.521 243.5,61C 241.247,58.1212 238.58,55.7879 235.5,54C 236.435,51.6194 236.768,49.1194 236.5,46.5 Z"/></g>
<g><path style="opacity:1" fill="#eaeaea" d="M 254.5,39.5 C 255.552,39.3505 256.552,39.5172 257.5,40C 259.046,42.2568 260.712,44.4235 262.5,46.5C 262.669,45.6034 263.002,44.6034 263.5,43.5C 266.08,45.713 266.08,47.8797 263.5,50C 260.391,51.6002 257.391,53.4335 254.5,55.5C 249.339,53.3784 249.173,50.7118 254,47.5C 254.645,43.7986 253.478,42.9652 250.5,45C 252.931,46.7291 252.597,48.2291 249.5,49.5C 247.079,47.8244 246.912,45.8244 249,43.5C 251.015,42.3034 252.849,40.9701 254.5,39.5 Z"/></g>
<g><path style="opacity:1" fill="#262625" d="M 255.5,47.5 C 256.586,47.62 257.253,48.2867 257.5,49.5C 257.167,50.1667 256.833,50.8333 256.5,51.5C 255.571,50.3112 255.238,48.9778 255.5,47.5 Z"/></g>
<g><path style="opacity:1" fill="#dadada" d="M 249.5,34.5 C 250.5,34.5 251.5,34.5 252.5,34.5C 249.286,43.4358 248.286,43.4358 249.5,34.5 Z"/></g>
<g><path style="opacity:1" fill="#818181" d="M 121.5,12.5 C 119.162,14.0395 116.495,14.7062 113.5,14.5C 115.905,13.2318 118.572,12.5651 121.5,12.5 Z"/></g>
<g><path style="opacity:1" fill="#e7e7e7" d="M 231.5,9.5 C 230.329,10.3446 228.995,11.0113 227.5,11.5C 226.402,10.603 226.402,9.76971 227.5,9C 228.819,8.80503 230.153,8.97169 231.5,9.5 Z"/></g>
<g><path style="opacity:1" fill="#f6f7f6" d="M 119.5,9.5 C 120.833,10.1667 120.833,10.1667 119.5,9.5 Z"/></g>
<g><path style="opacity:1" fill="#7f7f7f" d="M 21.5,138.5 C 21.5905,141.152 20.9238,143.485 19.5,145.5C 19.4095,142.848 20.0762,140.515 21.5,138.5 Z"/></g>
<g><path style="opacity:1" fill="#f6f7f6" d="M 16.5,142.5 C 17.8333,143.167 17.8333,143.167 16.5,142.5 Z"/></g>
<g><path style="opacity:1" fill="#0c0c10" d="M 147.5,113.5 C 155.29,112.89 159.957,116.39 161.5,124C 160.964,127.072 159.63,129.739 157.5,132C 152.201,133.407 148.201,136.407 145.5,141C 130.893,150.457 116.893,160.623 103.5,171.5C 100.216,172.657 96.8823,172.824 93.5,172C 85.7851,167.078 83.4518,160.244 86.5,151.5C 92.6037,145.703 99.437,141.037 107,137.5C 108.582,139.029 110.415,139.529 112.5,139C 115,137.167 117.5,135.333 120,133.5C 119.695,131.557 119.695,129.557 120,127.5C 121.925,126.12 123.759,124.62 125.5,123C 129.42,122.134 133.42,121.634 137.5,121.5C 140.564,118.43 143.897,115.763 147.5,113.5 Z"/></g>
<g><path style="opacity:1" fill="#ededed" d="M 105.5,141.5 C 109.008,144.132 111.842,147.466 114,151.5C 115.307,152.772 116.807,153.772 118.5,154.5C 116.42,157.542 113.753,158.876 110.5,158.5C 110.709,157.914 111.043,157.414 111.5,157C 108.864,152.057 105.531,148.391 101.5,146C 103.041,144.629 104.375,143.129 105.5,141.5 Z"/></g>
<g><path style="opacity:1" fill="#e9e9e9" d="M 98.5,146.5 C 101.241,147.439 103.241,149.273 104.5,152C 103.892,152.87 103.059,153.37 102,153.5C 95.482,150.684 93.482,152.684 96,159.5C 97.6837,161.351 99.5171,163.018 101.5,164.5C 102.748,163.96 103.915,163.293 105,162.5C 105.015,160.209 105.182,158.042 105.5,156C 106.332,155.312 106.998,155.479 107.5,156.5C 108.509,163.194 105.509,167.194 98.5,168.5C 92.8333,167.5 89.5,164.167 88.5,158.5C 88.577,156.701 89.077,155.034 90,153.5C 93.0458,151.254 95.8792,148.921 98.5,146.5 Z"/></g>
<g><path style="opacity:1" fill="#eeeeee" d="M 123.5,135.5 C 126.482,138.469 129.816,141.136 133.5,143.5C 131.919,146.125 129.585,147.458 126.5,147.5C 125.846,151.662 123.513,152.996 119.5,151.5C 117.483,148.817 115.15,146.483 112.5,144.5C 113.945,142.937 115.611,141.604 117.5,140.5C 119.358,142.524 121.025,144.691 122.5,147C 123.448,147.483 124.448,147.649 125.5,147.5C 125.409,143.408 123.409,140.741 119.5,139.5C 120.867,138.16 122.2,136.827 123.5,135.5 Z"/></g>
<g><path style="opacity:1" fill="#ececec" d="M 127.5,125.5 C 129.729,126.055 131.395,127.389 132.5,129.5C 136.237,124.229 140.07,124.229 144,129.5C 146.566,135.111 144.733,138.111 138.5,138.5C 138.55,140.59 137.55,141.923 135.5,142.5C 132.833,138.833 130.167,135.167 127.5,131.5C 126.167,130.833 124.833,130.167 123.5,129.5C 125.188,128.479 126.521,127.145 127.5,125.5 Z"/></g>
<g><path style="opacity:1" fill="#121211" d="M 134.5,130.5 C 137.669,130.662 139.669,132.328 140.5,135.5C 136.891,136.255 134.891,134.588 134.5,130.5 Z"/></g>
<g><path style="opacity:1" fill="#e8e8e8" d="M 148.5,116.5 C 157.292,118.436 157.625,121.436 149.5,125.5C 150.348,127.283 151.681,127.783 153.5,127C 154.116,124.821 155.283,122.988 157,121.5C 158.165,127.484 155.665,130.817 149.5,131.5C 143.974,129.754 142.141,126.088 144,120.5C 145.667,119.267 147.167,117.933 148.5,116.5 Z"/></g>
<g><path style="opacity:1" fill="#171717" d="M 147.5,120.5 C 150.957,120.667 151.29,121.667 148.5,123.5C 147.614,122.675 147.281,121.675 147.5,120.5 Z"/></g>
<g><path style="opacity:1" fill="#f5f6f5" d="M 9.5,162.5 C 10.525,162.897 10.6917,163.563 10,164.5C 9.53566,163.906 9.36899,163.239 9.5,162.5 Z"/></g>
<g><path style="opacity:1" fill="#f1f2f1" d="M 187.5,179.5 C 188.401,180.29 189.068,181.29 189.5,182.5C 189.427,184.027 190.094,185.027 191.5,185.5C 192.89,186.899 193.89,188.566 194.5,190.5C 196.298,193.93 197.965,197.43 199.5,201C 198.94,204.571 196.94,206.238 193.5,206C 185.592,196.434 178.926,186.101 173.5,175C 174.159,170.918 176.492,169.584 180.5,171C 182.698,174.023 185.031,176.856 187.5,179.5 Z"/></g>
<g><path style="opacity:1" fill="#fe040d" d="M 156.5,151.5 C 163.533,156.021 169.866,161.521 175.5,168C 173.603,171.059 171.269,173.559 168.5,175.5C 163.262,172.935 158.262,169.935 153.5,166.5C 152.682,168.108 152.015,169.775 151.5,171.5C 148.833,172.167 146.167,172.833 143.5,173.5C 149.558,179.729 156.558,184.562 164.5,188C 169.08,187.857 173.58,188.024 178,188.5C 179.608,191.772 181.608,194.772 184,197.5C 180.854,206.737 183.021,214.57 190.5,221C 202.284,228.023 214.951,230.69 228.5,229C 231.167,231 233.833,233 236.5,235C 238.805,250.442 246.138,262.942 258.5,272.5C 252.665,276.585 246.665,280.418 240.5,284C 217.781,293.194 195.448,303.194 173.5,314C 165.379,319.126 157.546,324.626 150,330.5C 140.114,322.802 129.614,315.968 118.5,310C 102.909,303.034 87.242,296.368 71.5,290C 65.0087,286.922 58.6754,283.588 52.5,280C 39.6667,272.5 29.5,262.333 22,249.5C 21.2506,248.365 21.4173,247.365 22.5,246.5C 67.1848,214.808 111.851,183.142 156.5,151.5 Z"/></g>
<g><path style="opacity:1" fill="#4f252e" d="M 189.5,182.5 C 190.906,182.973 191.573,183.973 191.5,185.5C 190.094,185.027 189.427,184.027 189.5,182.5 Z"/></g>
<g><path style="opacity:1" fill="#0d0d11" d="M 71.5,162.5 C 74.9256,163.433 78.2589,163.933 81.5,164C 84.7041,166.869 87.5374,170.035 90,173.5C 90.9214,181.965 87.088,185.965 78.5,185.5C 78.822,187.722 78.1554,189.556 76.5,191C 70.7392,193.679 65.7392,197.346 61.5,202C 58.7796,202.797 56.2796,203.963 54,205.5C 54.3482,208.543 54.1815,211.543 53.5,214.5C 51.0072,216.58 48.3405,218.414 45.5,220C 43.1913,220.756 41.1913,220.256 39.5,218.5C 35.1216,221.689 30.4549,224.355 25.5,226.5C 24.8333,226.333 24.1667,226.167 23.5,226C 21.0818,221.994 18.0818,218.494 14.5,215.5C 13.0831,210.842 13.4165,206.342 15.5,202C 19.0587,200.37 22.392,198.37 25.5,196C 28.0351,195.383 30.3684,195.883 32.5,197.5C 36.2346,193.926 40.5679,191.426 45.5,190C 46.8333,188 48.1667,186 49.5,184C 56.147,181.027 61.9804,176.86 67,171.5C 66.6451,167.412 68.1451,164.412 71.5,162.5 Z"/></g>
<g><path style="opacity:1" fill="#eeeeee" d="M 54.5,185.5 C 65.5523,186.616 67.2189,191.116 59.5,199C 51.6667,200.5 48.5,197.333 50,189.5C 51.3968,187.93 52.8968,186.596 54.5,185.5 Z"/></g>
<g><path style="opacity:1" fill="#161717" d="M 54.5,188.5 C 56.6237,189.031 58.1237,190.365 59,192.5C 59.7805,193.944 59.6139,195.277 58.5,196.5C 54.7099,194.791 53.3766,192.124 54.5,188.5 Z"/></g>
<g><path style="opacity:1" fill="#efefef" d="M 71.5,175.5 C 72.3007,177.042 72.634,178.708 72.5,180.5C 70.857,180.52 69.5237,179.853 68.5,178.5C 68.1693,181.537 69.3359,184.203 72,186.5C 72.8928,185.289 73.7261,185.289 74.5,186.5C 72.7656,189.2 70.4323,191.2 67.5,192.5C 66.6856,188.032 64.3523,184.698 60.5,182.5C 63.6951,179.282 67.3618,176.948 71.5,175.5 Z"/></g>
<g><path style="opacity:1" fill="#eae9e9" d="M 71.5,175.5 C 72.6716,173.156 72.6716,170.823 71.5,168.5C 71.8333,167.5 72.5,166.833 73.5,166.5C 74.8333,167.5 76.1667,168.5 77.5,169.5C 80.9963,168.522 81.3296,169.356 78.5,172C 80.003,175.038 82.003,176.871 84.5,177.5C 83.8333,176.5 83.1667,175.5 82.5,174.5C 85.0426,173.422 86.3759,174.422 86.5,177.5C 85.8103,180.354 83.9769,182.021 81,182.5C 78.1792,181.013 76.0126,178.846 74.5,176C 73.552,175.517 72.552,175.351 71.5,175.5 Z"/></g>
<g><path style="opacity:1" fill="#909090" d="M 3.5,196.5 C 3.70621,199.495 3.03954,202.162 1.5,204.5C 1.56513,201.572 2.2318,198.905 3.5,196.5 Z"/></g>
<g><path style="opacity:1" fill="#ecebec" d="M 42.5,194.5 C 47.327,194.988 50.327,197.655 51.5,202.5C 50.9602,205.871 48.9602,207.705 45.5,208C 46.8513,209.617 48.518,210.784 50.5,211.5C 48.4698,213.607 46.3031,215.607 44,217.5C 43.3333,215.5 42.6667,213.5 42,211.5C 39.6705,208.004 36.8371,205.004 33.5,202.5C 36.7607,200.051 39.7607,197.384 42.5,194.5 Z"/></g>
<g><path style="opacity:1" fill="#1a1a1a" d="M 41.5,198.5 C 44.3937,199.953 46.0603,202.286 46.5,205.5C 45.1779,205.67 44.0113,205.337 43,204.5C 41.4382,202.496 40.9382,200.496 41.5,198.5 Z"/></g>
<g><path style="opacity:1" fill="#ebebeb" d="M 26.5,199.5 C 28.922,200.085 30.5887,201.585 31.5,204C 28.5586,204.513 25.5586,205.18 22.5,206C 21.6634,207.011 21.33,208.178 21.5,209.5C 24.944,208.409 28.444,207.409 32,206.5C 37.4242,208.348 38.5909,211.681 35.5,216.5C 32.4081,218.59 29.2414,220.59 26,222.5C 24.0471,221.254 23.0471,219.587 23,217.5C 25.369,217.273 27.869,217.107 30.5,217C 32.0368,215.89 32.7035,214.39 32.5,212.5C 29.056,213.591 25.556,214.591 22,215.5C 17.118,214.07 15.7847,211.07 18,206.5C 20.9958,204.267 23.8292,201.934 26.5,199.5 Z"/></g>
<g><path style="opacity:1" fill="#342619" d="M 234.5,217.5 C 236.749,218.08 238.415,219.413 239.5,221.5C 237.251,220.92 235.585,219.587 234.5,217.5 Z"/></g>
<g><path style="opacity:1" fill="#130e0e" d="M 187.5,179.5 C 185.031,176.856 182.698,174.023 180.5,171C 176.492,169.584 174.159,170.918 173.5,175C 178.926,186.101 185.592,196.434 193.5,206C 196.94,206.238 198.94,204.571 199.5,201C 197.965,197.43 196.298,193.93 194.5,190.5C 206.367,190.716 217.367,193.883 227.5,200C 232.565,204.731 234.898,210.564 234.5,217.5C 231.996,215.856 229.329,214.356 226.5,213C 218.462,212.012 216.796,214.679 221.5,221C 230.387,227.397 239.387,233.563 248.5,239.5C 252.525,238.783 254.025,236.45 253,232.5C 249.642,229.969 246.476,227.302 243.5,224.5C 247.027,224.496 250.527,224.163 254,223.5C 257.012,223.726 259.845,224.559 262.5,226C 269.436,232.067 274.769,239.233 278.5,247.5C 277.833,247.5 277.167,247.5 276.5,247.5C 272.768,238.606 266.768,231.773 258.5,227C 255.446,226.179 252.446,226.345 249.5,227.5C 250.981,228.48 252.315,229.647 253.5,231C 263.26,232.411 269.76,237.911 273,247.5C 274.817,257.675 270.651,262.508 260.5,262C 253.365,257.237 248.531,250.737 246,242.5C 241.997,237.855 240.663,238.522 242,244.5C 245.279,252.443 250.112,259.277 256.5,265C 258.217,266.559 260.217,267.392 262.5,267.5C 262.5,269.167 262.5,270.833 262.5,272.5C 261.167,272.5 259.833,272.5 258.5,272.5C 246.138,262.942 238.805,250.442 236.5,235C 233.833,233 231.167,231 228.5,229C 214.951,230.69 202.284,228.023 190.5,221C 183.021,214.57 180.854,206.737 184,197.5C 181.608,194.772 179.608,191.772 178,188.5C 173.58,188.024 169.08,187.857 164.5,188C 156.558,184.562 149.558,179.729 143.5,173.5C 146.167,172.833 148.833,172.167 151.5,171.5C 152.015,169.775 152.682,168.108 153.5,166.5C 158.262,169.935 163.262,172.935 168.5,175.5C 171.269,173.559 173.603,171.059 175.5,168C 169.866,161.521 163.533,156.021 156.5,151.5C 156.842,150.662 157.508,150.328 158.5,150.5C 161.786,151.207 165.119,151.54 168.5,151.5C 168.337,149.143 168.503,146.81 169,144.5C 175.185,149.262 181.185,154.262 187,159.5C 188.552,161.768 189.385,164.268 189.5,167C 188.766,171.167 188.1,175.333 187.5,179.5 Z"/></g>
<g><path style="opacity:1" fill="#efefef" d="M 185.5,203.5 C 188.552,204.88 190.718,207.214 192,210.5C 198.956,217.492 207.456,220.992 217.5,221C 218.5,222 219.5,223 220.5,224C 207.449,225.539 196.283,221.706 187,212.5C 185.851,209.607 185.351,206.607 185.5,203.5 Z"/></g>
<g><path style="opacity:1" fill="#f4f4f4" d="M 202.5,200.5 C 209.289,199.818 215.122,201.818 220,206.5C 221.109,209.947 220.109,212.614 217,214.5C 216.517,215.448 216.351,216.448 216.5,217.5C 209.711,218.182 203.878,216.182 199,211.5C 199.017,209.432 200.017,207.766 202,206.5C 202.495,204.527 202.662,202.527 202.5,200.5 Z"/></g>
<g><path style="opacity:1" fill="#eaeaeb" d="M 197.5,194.5 C 205.845,193.074 213.845,194.574 221.5,199C 226.664,201.823 228.664,205.989 227.5,211.5C 226.833,211.167 226.167,210.833 225.5,210.5C 223.529,203.365 218.863,199.198 211.5,198C 206.564,197.376 201.897,196.21 197.5,194.5 Z"/></g>
<g><path style="opacity:1" fill="#ececed" d="M 154.5,170.5 C 159.236,175.034 164.903,177.7 171.5,178.5C 172.624,179.914 173.624,181.414 174.5,183C 167.092,183.642 160.592,181.475 155,176.5C 154.505,174.527 154.338,172.527 154.5,170.5 Z"/></g>
<g><path style="opacity:1" fill="#f3f3f3" d="M 172.5,150.5 C 177.497,154.664 181.997,159.331 186,164.5C 186.824,167.882 186.657,171.216 185.5,174.5C 179.37,167.538 172.704,161.038 165.5,155C 167.568,154.313 169.568,154.48 171.5,155.5C 172.452,153.955 172.785,152.288 172.5,150.5 Z"/></g>
<g><path style="opacity:1" fill="#f4f5f4" d="M 234.5,217.5 C 235.585,219.587 237.251,220.92 239.5,221.5C 240.262,223.262 241.596,224.262 243.5,224.5C 246.476,227.302 249.642,229.969 253,232.5C 254.025,236.45 252.525,238.783 248.5,239.5C 239.387,233.563 230.387,227.397 221.5,221C 216.796,214.679 218.462,212.012 226.5,213C 229.329,214.356 231.996,215.856 234.5,217.5 Z"/></g>
<g><path style="opacity:1" fill="#301a15" d="M 239.5,221.5 C 241.404,221.738 242.738,222.738 243.5,224.5C 241.596,224.262 240.262,223.262 239.5,221.5 Z"/></g>
<g><path style="opacity:1" fill="#f4f4f4" d="M 256.5,237.5 C 263.192,238.349 267.692,242.016 270,248.5C 270.667,250.5 270.667,252.5 270,254.5C 264.769,261.132 259.769,260.798 255,253.5C 253.627,250.588 252.127,247.754 250.5,245C 252.241,243.38 254.075,241.88 256,240.5C 256.483,239.552 256.649,238.552 256.5,237.5 Z"/></g>
<g><path style="opacity:1" fill="#f4f5f4" d="M 6.5,251.5 C 5.83333,252.167 5.83333,252.167 6.5,251.5 Z"/></g>
<g><path style="opacity:1" fill="#eeefee" d="M 8.5,258.5 C 9.83333,259.167 9.83333,259.167 8.5,258.5 Z"/></g>
<g><path style="opacity:1" fill="#f6f7f6" d="M 289.5,258.5 C 290.833,259.167 290.833,259.167 289.5,258.5 Z"/></g>
<g><path style="opacity:1" fill="#eeeeef" d="M 276.5,247.5 C 279.262,259.401 274.595,266.067 262.5,267.5C 260.217,267.392 258.217,266.559 256.5,265C 250.112,259.277 245.279,252.443 242,244.5C 240.663,238.522 241.997,237.855 246,242.5C 248.531,250.737 253.365,257.237 260.5,262C 270.651,262.508 274.817,257.675 273,247.5C 269.76,237.911 263.26,232.411 253.5,231C 252.315,229.647 250.981,228.48 249.5,227.5C 252.446,226.345 255.446,226.179 258.5,227C 266.768,231.773 272.768,238.606 276.5,247.5 Z"/></g>
<g><path style="opacity:1" fill="#f3f4f3" d="M 288.5,260.5 C 289.833,261.167 289.833,261.167 288.5,260.5 Z"/></g>
<g><path style="opacity:1" fill="#f6f7f6" d="M 290.5,260.5 C 291.833,261.167 291.833,261.167 290.5,260.5 Z"/></g>
<g><path style="opacity:1" fill="#e6e7e5" d="M 287.5,261.5 C 288.512,263.1 288.012,264.434 286,265.5C 285.617,264.944 285.117,264.611 284.5,264.5C 285.167,263.167 286.167,262.167 287.5,261.5 Z"/></g>
<g><path style="opacity:1" fill="#f5f6f5" d="M 11.5,263.5 C 12.8333,264.167 12.8333,264.167 11.5,263.5 Z"/></g>
<g><path style="opacity:1" fill="#d5d5d5" d="M 13.5,262.5 C 14.9063,262.973 15.573,263.973 15.5,265.5C 14.0937,265.027 13.427,264.027 13.5,262.5 Z"/></g>
<g><path style="opacity:1" fill="#f5f6f5" d="M 12.5,265.5 C 13.8333,266.167 13.8333,266.167 12.5,265.5 Z"/></g>
<g><path style="opacity:1" fill="#f6f7f6" d="M 15.5,266.5 C 14.8333,267.167 14.8333,267.167 15.5,266.5 Z"/></g>
<g><path style="opacity:1" fill="#f5f6f5" d="M 282.5,268.5 C 283.833,269.167 283.833,269.167 282.5,268.5 Z"/></g>
<g><path style="opacity:1" fill="#f6f7f6" d="M 16.5,269.5 C 17.8333,270.167 17.8333,270.167 16.5,269.5 Z"/></g>
<g><path style="opacity:1" fill="#f5f6f5" d="M 281.5,270.5 C 282.833,271.167 282.833,271.167 281.5,270.5 Z"/></g>
<g><path style="opacity:1" fill="#f4f5f4" d="M 17.5,273.5 C 18.8333,274.167 18.8333,274.167 17.5,273.5 Z"/></g>
<g><path style="opacity:1" fill="#f1f2f1" d="M 278.5,274.5 C 279.833,275.167 279.833,275.167 278.5,274.5 Z"/></g>
<g><path style="opacity:1" fill="#e2e1e4" d="M 23.5,274.5 C 24.5,274.833 25.1667,275.5 25.5,276.5C 23.1667,277.5 22.5,276.833 23.5,274.5 Z"/></g>
<g><path style="opacity:1" fill="#f5f6f5" d="M 278.5,275.5 C 277.833,276.167 277.833,276.167 278.5,275.5 Z"/></g>
<g><path style="opacity:1" fill="#f6f7f6" d="M 16.5,276.5 C 17.8333,277.167 17.8333,277.167 16.5,276.5 Z"/></g>
<g><path style="opacity:1" fill="#f4f5f4" d="M 21.5,277.5 C 20.8333,276.167 20.8333,276.167 21.5,277.5 Z"/></g>
<g><path style="opacity:1" fill="#f6f7f6" d="M 277.5,276.5 C 276.833,277.167 276.833,277.167 277.5,276.5 Z"/></g>
<g><path style="opacity:1" fill="#f3f4f3" d="M 21.5,277.5 C 22.8333,278.167 22.8333,278.167 21.5,277.5 Z"/></g>
<g><path style="opacity:1" fill="#f1f1f0" d="M 26.5,277.5 C 27.5,277.833 28.1667,278.5 28.5,279.5C 26.1667,280.5 25.5,279.833 26.5,277.5 Z"/></g>
<g><path style="opacity:1" fill="#adadad" d="M 28.5,279.5 C 30.4044,279.738 31.7377,280.738 32.5,282.5C 31.8333,282.5 31.1667,282.5 30.5,282.5C 29.8333,281.5 29.1667,280.5 28.5,279.5 Z"/></g>
<g><path style="opacity:1" fill="#f6f7f6" d="M 25.5,281.5 C 26.8333,282.167 26.8333,282.167 25.5,281.5 Z"/></g>
<g><path style="opacity:1" fill="#f1f2f1" d="M 30.5,282.5 C 29.8333,283.167 29.8333,283.167 30.5,282.5 Z"/></g>
<g><path style="opacity:1" fill="#f6f7f6" d="M 27.5,283.5 C 28.525,283.897 28.6917,284.563 28,285.5C 27.5357,284.906 27.369,284.239 27.5,283.5 Z"/></g>
<g><path style="opacity:1" fill="#f2f3f2" d="M 32.5,283.5 C 32.5,283.833 32.5,284.167 32.5,284.5C 31.8299,284.019 31.8299,283.685 32.5,283.5 Z"/></g>
<g><path style="opacity:1" fill="#f6f7f6" d="M 32.5,284.5 C 33.1667,284.5 33.5,284.833 33.5,285.5C 33.1667,285.167 32.8333,284.833 32.5,284.5 Z"/></g>
<g><path style="opacity:1" fill="#f6f7f6" d="M 268.5,284.5 C 269.833,285.167 269.833,285.167 268.5,284.5 Z"/></g>
<g><path style="opacity:1" fill="#f2f3f2" d="M 33.5,285.5 C 34.8333,286.167 34.8333,286.167 33.5,285.5 Z"/></g>
<g><path style="opacity:1" fill="#f6f7f6" d="M 268.5,285.5 C 267.833,286.167 267.833,286.167 268.5,285.5 Z"/></g>
<g><path style="opacity:1" fill="#f3f4f3" d="M 260.5,288.5 C 261.833,289.167 261.833,289.167 260.5,288.5 Z"/></g>
<g><path style="opacity:1" fill="#f4f5f4" d="M 42.5,290.5 C 41.8333,291.167 41.8333,291.167 42.5,290.5 Z"/></g>
<g><path style="opacity:1" fill="#f6f7f6" d="M 43.5,292.5 C 44.8333,293.167 44.8333,293.167 43.5,292.5 Z"/></g>
<g><path style="opacity:1" fill="#f5f6f5" d="M 262.5,292.5 C 263.833,293.167 263.833,293.167 262.5,292.5 Z"/></g>
<g><path style="opacity:1" fill="#eaebea" d="M 45.5,293.5 C 46.8333,294.167 46.8333,294.167 45.5,293.5 Z"/></g>
<g><path style="opacity:1" fill="#f6f7f6" d="M 41.5,294.5 C 42.8333,295.167 42.8333,295.167 41.5,294.5 Z"/></g>
<g><path style="opacity:1" fill="#f6f7f6" d="M 43.5,294.5 C 44.8333,295.167 44.8333,295.167 43.5,294.5 Z"/></g>
<g><path style="opacity:1" fill="#f3f4f3" d="M 50.5,296.5 C 51.8333,297.167 51.8333,297.167 50.5,296.5 Z"/></g>
<g><path style="opacity:1" fill="#f6f7f6" d="M 58.5,299.5 C 57.8333,300.167 57.8333,300.167 58.5,299.5 Z"/></g>
<g><path style="opacity:1" fill="#e5e5e5" d="M 243.5,297.5 C 243.206,300.481 241.872,301.148 239.5,299.5C 240.514,298.326 241.847,297.66 243.5,297.5 Z"/></g>
<g><path style="opacity:1" fill="#f2f3f2" d="M 238.5,300.5 C 239.833,301.167 239.833,301.167 238.5,300.5 Z"/></g>
<g><path style="opacity:1" fill="#f4f5f4" d="M 238.5,301.5 C 237.833,302.167 237.833,302.167 238.5,301.5 Z"/></g>
<g><path style="opacity:1" fill="#f5f6f5" d="M 61.5,302.5 C 62.8333,303.167 62.8333,303.167 61.5,302.5 Z"/></g>
<g><path style="opacity:1" fill="#f4f5f4" d="M 67.5,304.5 C 68.8333,305.167 68.8333,305.167 67.5,304.5 Z"/></g>
<g><path style="opacity:1" fill="#bfbfbf" d="M 69.5,303.5 C 71.153,303.66 72.4863,304.326 73.5,305.5C 71.6203,305.771 70.287,305.104 69.5,303.5 Z"/></g>
<g><path style="opacity:1" fill="#f4f5f4" d="M 224.5,307.5 C 225.833,308.167 225.833,308.167 224.5,307.5 Z"/></g>
<g><path style="opacity:1" fill="#f6f7f6" d="M 64.5,308.5 C 65.8333,309.167 65.8333,309.167 64.5,308.5 Z"/></g>
<g><path style="opacity:1" fill="#f6f7f6" d="M 230.5,308.5 C 231.833,309.167 231.833,309.167 230.5,308.5 Z"/></g>
<g><path style="opacity:1" fill="#f5f6f5" d="M 211.5,312.5 C 212.833,313.167 212.833,313.167 211.5,312.5 Z"/></g>
<g><path style="opacity:1" fill="#f3f4f3" d="M 87.5,313.5 C 88.8333,314.167 88.8333,314.167 87.5,313.5 Z"/></g>
<g><path style="opacity:1" fill="#f4f5f4" d="M 211.5,313.5 C 210.833,314.167 210.833,314.167 211.5,313.5 Z"/></g>
<g><path style="opacity:1" fill="#f6f7f6" d="M 107.5,322.5 C 106.833,321.167 106.833,321.167 107.5,322.5 Z"/></g>
<g><path style="opacity:1" fill="#f4f5f4" d="M 107.5,322.5 C 108.239,322.369 108.906,322.536 109.5,323C 108.563,323.692 107.897,323.525 107.5,322.5 Z"/></g>
<g><path style="opacity:1" fill="#f6f7f6" d="M 189.5,322.5 C 190.833,323.167 190.833,323.167 189.5,322.5 Z"/></g>
<g><path style="opacity:1" fill="#eff0ef" d="M 120.5,329.5 C 121.833,330.167 121.833,330.167 120.5,329.5 Z"/></g>
<g><path style="opacity:1" fill="#f4f5f4" d="M 123.5,329.5 C 122.833,330.167 122.833,330.167 123.5,329.5 Z"/></g>
<g><path style="opacity:1" fill="#ececec" d="M 177.5,328.5 C 177.027,329.906 176.027,330.573 174.5,330.5C 174.973,329.094 175.973,328.427 177.5,328.5 Z"/></g>
<g><path style="opacity:1" fill="#f5f6f5" d="M 178.5,329.5 C 179.833,330.167 179.833,330.167 178.5,329.5 Z"/></g>
<g><path style="opacity:1" fill="#adadad" d="M 124.5,329.5 C 126.027,329.427 127.027,330.094 127.5,331.5C 125.973,331.573 124.973,330.906 124.5,329.5 Z"/></g>
<g><path style="opacity:1" fill="#f2f3f2" d="M 120.5,331.5 C 121.833,332.167 121.833,332.167 120.5,331.5 Z"/></g>
<g><path style="opacity:1" fill="#f6f7f6" d="M 123.5,331.5 C 124.833,332.167 124.833,332.167 123.5,331.5 Z"/></g>
<g><path style="opacity:1" fill="#f1f2f1" d="M 173.5,331.5 C 174.833,332.167 174.833,332.167 173.5,331.5 Z"/></g>
<g><path style="opacity:1" fill="#f4f5f4" d="M 176.5,331.5 C 177.833,332.167 177.833,332.167 176.5,331.5 Z"/></g>
<g><path style="opacity:1" fill="#f3f4f3" d="M 166.5,336.5 C 167.833,337.167 167.833,337.167 166.5,336.5 Z"/></g>
<g><path style="opacity:1" fill="#f5f6f5" d="M 163.5,338.5 C 164.167,338.5 164.5,338.833 164.5,339.5C 164.167,339.167 163.833,338.833 163.5,338.5 Z"/></g>
<g><path style="opacity:1" fill="#f6f7f6" d="M 135.5,339.5 C 136.833,340.167 136.833,340.167 135.5,339.5 Z"/></g>
<g><path style="opacity:1" fill="#f6f7f6" d="M 164.5,339.5 C 165.833,340.167 165.833,340.167 164.5,339.5 Z"/></g>
<g><path style="opacity:1" fill="#f5f6f5" d="M 162.5,341.5 C 163.833,342.167 163.833,342.167 162.5,341.5 Z"/></g>
<g><path style="opacity:1" fill="#f3f4f3" d="M 140.5,342.5 C 139.833,343.167 139.833,343.167 140.5,342.5 Z"/></g>
<g><path style="opacity:1" fill="#f4f5f4" d="M 159.5,342.5 C 160.833,343.167 160.833,343.167 159.5,342.5 Z"/></g>
<g><path style="opacity:1" fill="#ecedec" d="M 155.5,345.5 C 156.167,345.5 156.5,345.833 156.5,346.5C 156.167,346.167 155.833,345.833 155.5,345.5 Z"/></g>
<g><path style="opacity:1" fill="#f6f7f6" d="M 157.5,345.5 C 158.833,346.167 158.833,346.167 157.5,345.5 Z"/></g>
<g><path style="opacity:1" fill="#f1f2f1" d="M 156.5,346.5 C 156.833,346.5 157.167,346.5 157.5,346.5C 157.315,347.17 156.981,347.17 156.5,346.5 Z"/></g>
<g><path style="opacity:1" fill="#f5f6f5" d="M 154.5,347.5 C 155.833,348.167 155.833,348.167 154.5,347.5 Z"/></g>
<g><path style="opacity:1" fill="#f4f5f4" d="M 146.5,349.5 C 145.833,348.167 145.833,348.167 146.5,349.5 Z"/></g>
<g><path style="opacity:1" fill="#efefef" d="M 152.5,347.5 C 152.833,348.167 153.167,348.833 153.5,349.5C 152.5,349.5 151.5,349.5 150.5,349.5C 150.833,348.5 151.5,347.833 152.5,347.5 Z"/></g>
</svg>
