<?xml version="1.0" encoding="UTF-8"?>
<!DOCTYPE svg PUBLIC "-//W3C//DTD SVG 1.1//EN" "http://www.w3.org/Graphics/SVG/1.1/DTD/svg11.dtd">
<svg xmlns="http://www.w3.org/2000/svg" version="1.1" width="500px" height="500px" style="shape-rendering:geometricPrecision; text-rendering:geometricPrecision; image-rendering:optimizeQuality; fill-rule:evenodd; clip-rule:evenodd" xmlns:xlink="http://www.w3.org/1999/xlink">
<g><path style="opacity:0.004" fill="#0d0e0d" d="M -0.5,191.5 C -0.5,190.167 -0.5,188.833 -0.5,187.5C 24.1373,107.029 75.8039,51.8624 154.5,22C 175.856,14.1953 197.856,9.86195 220.5,9C 142.097,17.4282 79.9307,53.2615 34,116.5C 19.2102,140.074 7.71022,165.074 -0.5,191.5 Z"/></g>
<g><path style="opacity:0.004" fill="#0d0e0d" d="M 262.5,9.5 C 290.462,10.4021 317.462,16.5688 343.5,28C 407.507,56.3395 452.007,103.173 477,168.5C 481.63,180.693 484.797,193.026 486.5,205.5C 470.921,137.78 434.254,84.9467 376.5,47C 341.405,25.8017 303.405,13.3017 262.5,9.5 Z"/></g>
<g><path style="opacity:0.988" fill="#1a13b8" d="M 232.5,16.5 C 325.649,13.4869 397.816,50.4869 449,127.5C 488.935,196.529 494.268,268.196 465,342.5C 430.648,417.83 372.815,463.996 291.5,481C 201.051,494.156 126.218,466.323 67,397.5C 17.3956,332.137 3.72898,259.803 26,180.5C 49.193,112.305 93.693,63.4713 159.5,34C 183.091,24.5177 207.424,18.6844 232.5,16.5 Z"/></g>
<g><path style="opacity:1" fill="#f7000a" d="M 229.5,25.5 C 318.315,21.4949 388.148,55.4949 439,127.5C 485.414,204.959 487.414,283.625 445,363.5C 395.16,442.176 323.327,479.343 229.5,475C 143.389,464.52 81.5555,420.353 44,342.5C 9.71867,257.551 20.3853,178.884 76,106.5C 116.466,59.3491 167.632,32.3491 229.5,25.5 Z"/></g>
<g><path style="opacity:1" fill="#0e15bf" d="M 229.5,32.5 C 321.072,28.7333 390.905,65.4 439,142.5C 469.777,199.51 475.111,258.843 455,320.5C 431.718,384.115 388.551,428.282 325.5,453C 243.774,480.186 170.108,466.186 104.5,411C 49.2324,357.878 26.0657,293.044 35,216.5C 50.1724,137.005 94.6724,80.838 168.5,48C 188.283,40.1381 208.616,34.9714 229.5,32.5 Z"/></g>
<g><path style="opacity:1" fill="#ececfa" d="M 236.5,52.5 C 240.911,52.021 245.078,52.6876 249,54.5C 251.451,57.0299 250.951,58.3632 247.5,58.5C 245.246,58.0694 243.079,57.4028 241,56.5C 237.917,57.5929 238.083,58.7596 241.5,60C 245.257,60.3581 248.424,61.8581 251,64.5C 251.806,69.0598 249.973,72.2265 245.5,74C 237.977,76.5707 233.644,74.0707 232.5,66.5C 234.604,66.2011 236.604,66.5344 238.5,67.5C 240.464,71.1266 242.464,71.2933 244.5,68C 241.132,66.0959 237.632,64.2626 234,62.5C 233.219,61.2713 232.719,59.938 232.5,58.5C 233.432,56.2345 234.765,54.2345 236.5,52.5 Z"/></g>
<g><path style="opacity:1" fill="#efeffb" d="M 257.5,52.5 C 262.215,52.506 266.882,53.006 271.5,54C 276.738,57.8156 276.738,61.8156 271.5,66C 268.518,66.498 265.518,66.6646 262.5,66.5C 262.5,68.8333 262.5,71.1667 262.5,73.5C 260.5,73.5 258.5,73.5 256.5,73.5C 256.28,66.4567 256.614,59.4567 257.5,52.5 Z"/></g>
<g><path style="opacity:1" fill="#eeeefa" d="M 219.5,54.5 C 222.167,54.5 224.833,54.5 227.5,54.5C 227.5,55.8333 227.5,57.1667 227.5,58.5C 224.193,59.0508 220.86,59.3841 217.5,59.5C 217.238,60.9778 217.571,62.3112 218.5,63.5C 221.421,62.5934 224.421,62.2601 227.5,62.5C 227.5,63.8333 227.5,65.1667 227.5,66.5C 224.482,66.7038 221.482,67.0371 218.5,67.5C 218.5,68.8333 218.5,70.1667 218.5,71.5C 222.5,71.1667 226.5,70.8333 230.5,70.5C 230.5,72.1667 230.5,73.8333 230.5,75.5C 224.466,75.8859 218.466,76.5526 212.5,77.5C 212.163,71.6362 211.496,65.8028 210.5,60C 210.833,58.8333 211.167,57.6667 211.5,56.5C 214.311,55.9204 216.977,55.2537 219.5,54.5 Z"/></g>
<g><path style="opacity:1" fill="#f2f3fc" d="M 284.5,56.5 C 296.119,55.2816 300.953,60.2816 299,71.5C 296.419,78.1873 291.586,80.354 284.5,78C 282.376,76.8783 280.543,75.3783 279,73.5C 278.333,69.8333 278.333,66.1667 279,62.5C 280.36,59.9774 282.193,57.9774 284.5,56.5 Z"/></g>
<g><path style="opacity:1" fill="#2025c4" d="M 263.5,57.5 C 266.95,56.7564 268.616,58.0897 268.5,61.5C 266.833,61.5 265.167,61.5 263.5,61.5C 263.5,60.1667 263.5,58.8333 263.5,57.5 Z"/></g>
<g><path style="opacity:1" fill="#efeffb" d="M 194.5,59.5 C 204.605,60.0024 208.772,65.3358 207,75.5C 206.167,77.6667 204.667,79.1667 202.5,80C 198.469,81.1731 194.469,82.3397 190.5,83.5C 189.303,76.3799 187.637,69.3799 185.5,62.5C 188.855,62.3104 191.855,61.3104 194.5,59.5 Z"/></g>
<g><path style="opacity:1" fill="#ececfa" d="M 307.5,61.5 C 313.267,63.1464 318.767,65.4797 324,68.5C 325.193,73.9432 323.027,77.1099 317.5,78C 319.779,81.2266 320.446,84.7266 319.5,88.5C 317.189,87.7865 315.022,86.7865 313,85.5C 312.502,82.5184 312.335,79.5184 312.5,76.5C 308.684,77.0897 307.017,79.4231 307.5,83.5C 304.684,83.4558 302.351,82.4558 300.5,80.5C 303.125,74.2544 305.458,67.9211 307.5,61.5 Z"/></g>
<g><path style="opacity:1" fill="#2123c3" d="M 287.5,61.5 C 289.722,61.178 291.556,61.8446 293,63.5C 293.744,66.8708 293.244,70.0375 291.5,73C 285.498,73.9931 283.332,71.4931 285,65.5C 285.662,64.0161 286.496,62.6828 287.5,61.5 Z"/></g>
<g><path style="opacity:1" fill="#161dc2" d="M 193.5,65.5 C 196.044,65.1043 198.211,65.771 200,67.5C 200.667,70.1667 200.667,72.8333 200,75.5C 198.644,76.3802 197.144,76.7135 195.5,76.5C 194.992,72.8026 194.326,69.1359 193.5,65.5 Z"/></g>
<g><path style="opacity:1" fill="#2225c4" d="M 312.5,68.5 C 315.588,68.1966 317.254,69.5299 317.5,72.5C 315.5,72.5 313.5,72.5 311.5,72.5C 311.433,71.0413 311.766,69.7079 312.5,68.5 Z"/></g>
<g><path style="opacity:1" fill="#f0f0fb" d="M 330.5,69.5 C 336.676,72.0837 342.343,75.4171 347.5,79.5C 347.566,81.2664 346.732,82.2664 345,82.5C 343.202,81.4962 341.368,80.9962 339.5,81C 337.372,84.7546 335.372,88.5879 333.5,92.5C 330.532,94.088 328.532,93.2546 327.5,90C 329.5,86 331.5,82 333.5,78C 331.825,76.4981 330.159,74.9981 328.5,73.5C 329.18,72.1401 329.847,70.8068 330.5,69.5 Z"/></g>
<g><path style="opacity:1" fill="#eeeefa" d="M 161.5,72.5 C 172.439,73.2647 176.606,78.9314 174,89.5C 165.462,98.3758 158.462,97.3758 153,86.5C 152.245,83.6967 152.578,81.0301 154,78.5C 156.114,75.8792 158.614,73.8792 161.5,72.5 Z"/></g>
<g><path style="opacity:1" fill="#1b1ec2" d="M 160.5,78.5 C 167.417,78.8188 169.751,82.3188 167.5,89C 162.48,89.8315 159.48,87.6648 158.5,82.5C 158.752,80.9271 159.418,79.5938 160.5,78.5 Z"/></g>
<g><path style="opacity:1" fill="#efeffb" d="M 352.5,81.5 C 354.937,81.886 356.937,83.0527 358.5,85C 354.94,89.563 351.773,94.3963 349,99.5C 346.213,102.083 343.713,101.75 341.5,98.5C 345.426,92.9752 349.093,87.3086 352.5,81.5 Z"/></g>
<g><path style="opacity:1" fill="#e7e8f9" d="M 136.5,81.5 C 138.344,82.2039 138.844,83.5372 138,85.5C 135.448,86.1933 133.281,87.5267 131.5,89.5C 130.167,88.1667 130.167,86.8333 131.5,85.5C 133.917,85.0057 135.584,83.6723 136.5,81.5 Z"/></g>
<g><path style="opacity:1" fill="#f1f2fb" d="M 137.5,87.5 C 144.719,90.1853 151.386,94.0186 157.5,99C 155.555,102.317 152.889,103.151 149.5,101.5C 145.604,102.731 143.604,105.397 143.5,109.5C 142.18,111.27 140.68,111.603 139,110.5C 137.011,104.213 135.178,97.8792 133.5,91.5C 134.549,89.7844 135.882,88.4511 137.5,87.5 Z"/></g>
<g><path style="opacity:1" fill="#efeffb" d="M 361.5,87.5 C 363.906,88.399 365.906,89.899 367.5,92C 365.362,96.7393 363.862,101.573 363,106.5C 366.84,102.27 371.34,99.4371 376.5,98C 377.5,99 378.5,100 379.5,101C 373.97,105.597 367.97,109.43 361.5,112.5C 359.158,111.664 357.158,110.33 355.5,108.5C 357.91,101.604 359.91,94.604 361.5,87.5 Z"/></g>
<g><path style="opacity:1" fill="#fafafd" d="M 163.5,379.5 C 164.352,375.485 166.852,373.485 171,373.5C 174.57,373.868 177.737,375.202 180.5,377.5C 181.424,373.682 183.091,370.348 185.5,367.5C 191.234,370.699 197.234,373.365 203.5,375.5C 209.779,378.479 216.446,380.479 223.5,381.5C 225.565,381.517 227.565,381.85 229.5,382.5C 235.936,383.987 242.602,384.654 249.5,384.5C 254.013,384.499 258.347,384.166 262.5,383.5C 276.702,382.199 290.368,378.866 303.5,373.5C 305.19,373.144 306.19,372.144 306.5,370.5C 307.5,370.5 308.5,370.5 309.5,370.5C 310.117,370.611 310.617,370.944 311,371.5C 312.872,369.153 315.039,367.153 317.5,365.5C 317.419,370.407 316.752,375.241 315.5,380C 315.68,382.241 316.513,382.741 318,381.5C 318.61,378.173 319.11,374.839 319.5,371.5C 322.698,372.036 325.365,371.369 327.5,369.5C 327.842,368.662 328.508,368.328 329.5,368.5C 331.829,369.749 333.662,369.082 335,366.5C 335.175,363.843 335.008,361.176 334.5,358.5C 332.62,358.771 331.287,358.104 330.5,356.5C 333.803,355.849 336.47,354.182 338.5,351.5C 340.219,348.781 342.553,346.781 345.5,345.5C 348.959,342.585 351.959,339.252 354.5,335.5C 356.9,333.704 358.567,331.37 359.5,328.5C 366.772,319.955 371.939,310.288 375,299.5C 365.82,305.66 356.654,311.66 347.5,317.5C 342.745,318.744 338.411,320.744 334.5,323.5C 335.167,324.167 335.833,324.833 336.5,325.5C 335.388,326.265 334.721,327.265 334.5,328.5C 333.448,328.351 332.448,328.517 331.5,329C 330.947,330.878 329.947,332.378 328.5,333.5C 326.272,332.623 324.272,331.29 322.5,329.5C 318.755,327.571 316.088,328.571 314.5,332.5C 314.167,332.5 313.833,332.5 313.5,332.5C 313.631,331.624 313.298,330.957 312.5,330.5C 310.202,338.188 308.868,338.188 308.5,330.5C 305.167,330.5 301.833,330.5 298.5,330.5C 298.427,326.519 300.427,324.853 304.5,325.5C 306.384,325.716 308.051,326.383 309.5,327.5C 311.115,326.846 312.782,326.346 314.5,326C 310.105,324.985 305.771,323.818 301.5,322.5C 297.509,320.851 293.509,319.184 289.5,317.5C 286.211,315.842 282.877,314.175 279.5,312.5C 275.147,309.657 270.48,307.323 265.5,305.5C 254.285,300.852 242.618,299.352 230.5,301C 226.381,301.644 222.715,303.144 219.5,305.5C 211.465,309.514 204.132,314.514 197.5,320.5C 194.489,321.669 191.822,323.336 189.5,325.5C 183.194,328.823 176.86,331.823 170.5,334.5C 169.167,334.833 167.833,335.167 166.5,335.5C 162.709,332.882 159.043,330.049 155.5,327C 153.5,326.333 151.5,326.333 149.5,327C 148.944,327.383 148.611,327.883 148.5,328.5C 145.905,329.426 143.905,331.093 142.5,333.5C 137.748,331.733 133.748,332.733 130.5,336.5C 129.5,336.5 128.5,336.5 127.5,336.5C 125.052,335.527 122.385,335.194 119.5,335.5C 91.8302,291.149 86.3302,244.149 103,194.5C 122.569,147.11 156.736,115.277 205.5,99C 264.004,84.4589 315.338,97.4589 359.5,138C 406.184,188.422 417.35,245.922 393,310.5C 363.577,371.654 314.744,403.32 246.5,405.5C 216.303,404.603 188.636,395.937 163.5,379.5 Z"/></g>
<g><path style="opacity:1" fill="#3d3bca" d="M 140.5,94.5 C 142.544,95.0312 144.211,96.1978 145.5,98C 144.646,99.0217 143.646,99.8551 142.5,100.5C 141.232,98.6957 140.565,96.6957 140.5,94.5 Z"/></g>
<g><path style="opacity:1" fill="#ebebfa" d="M 119.5,101.5 C 122.482,101.104 125.149,101.771 127.5,103.5C 125.555,106.55 122.722,108.217 119,108.5C 118.132,112.672 119.632,115.838 123.5,118C 125.367,118.711 126.867,118.211 128,116.5C 127.558,111.544 129.724,109.211 134.5,109.5C 134.74,112.579 134.407,115.579 133.5,118.5C 137.452,121.239 137.452,124.073 133.5,127C 132.584,127.374 131.75,127.874 131,128.5C 130.833,128.167 130.667,127.833 130.5,127.5C 132.124,126.131 132.624,124.464 132,122.5C 131.311,123.357 130.478,124.023 129.5,124.5C 120.159,125.176 114.492,121.009 112.5,112C 112.542,110.033 113.042,108.199 114,106.5C 115.812,104.7 117.645,103.033 119.5,101.5 Z"/></g>
<g><path style="opacity:1" fill="#f1f1fb" d="M 386.5,108.5 C 389.272,109.436 391.272,111.27 392.5,114C 389.906,120.688 386.906,127.188 383.5,133.5C 380.15,131.506 378.65,128.506 379,124.5C 377.412,121.691 375.245,121.025 372.5,122.5C 370.684,121.185 369.017,119.685 367.5,118C 373.894,114.803 380.227,111.636 386.5,108.5 Z"/></g>
<g><path style="opacity:1" fill="#3838c9" d="M 384.5,115.5 C 385.152,117.621 384.485,119.621 382.5,121.5C 381.354,120.855 380.354,120.022 379.5,119C 381.233,117.811 382.9,116.644 384.5,115.5 Z"/></g>
<g><path style="opacity:1" fill="#f3f4fc" d="M 100.5,121.5 C 107.81,123.381 114.81,126.047 121.5,129.5C 120.249,132.489 118.249,133.489 115.5,132.5C 110.977,134.592 109.477,137.925 111,142.5C 109.981,143.687 108.814,144.687 107.5,145.5C 103.581,139.33 99.9141,132.997 96.5,126.5C 97.8569,124.814 99.1902,123.148 100.5,121.5 Z"/></g>
<g><path style="opacity:1" fill="#072dbf" d="M 242.5,116.5 C 242.5,116.167 242.5,115.833 242.5,115.5C 279.087,114.362 311.421,125.362 339.5,148.5C 336.457,150.251 333.457,152.084 330.5,154C 328.845,155.444 328.178,157.278 328.5,159.5C 327.5,159.5 326.5,159.5 325.5,159.5C 326.806,158.533 327.473,157.199 327.5,155.5C 322.668,154.267 317.668,153.433 312.5,153C 311.874,152.25 311.374,151.416 311,150.5C 310.667,150.833 310.333,151.167 310,151.5C 309.598,150.128 309.098,148.795 308.5,147.5C 302.812,146.229 298.146,143.396 294.5,139C 291.895,137.979 289.228,137.145 286.5,136.5C 285.41,135.609 285.41,134.609 286.5,133.5C 285.311,132.571 283.978,132.238 282.5,132.5C 280.833,132.5 279.167,132.5 277.5,132.5C 277.5,131.5 277.5,130.5 277.5,129.5C 271.948,129.423 266.615,128.423 261.5,126.5C 260.97,123.318 259.97,120.318 258.5,117.5C 254.143,117.414 249.81,117.08 245.5,116.5C 244.5,116.5 243.5,116.5 242.5,116.5 Z"/></g>
<g><path style="opacity:1" fill="#3837c9" d="M 103.5,127.5 C 105.255,128.072 106.922,128.906 108.5,130C 109.821,131.545 109.488,132.711 107.5,133.5C 105.722,131.736 104.389,129.736 103.5,127.5 Z"/></g>
<g><path style="opacity:1" fill="#f0f1fb" d="M 406.5,132.5 C 408.922,133.085 410.589,134.585 411.5,137C 405.974,141.36 400.307,145.526 394.5,149.5C 392.397,147.936 391.564,145.936 392,143.5C 397.018,139.97 401.851,136.303 406.5,132.5 Z"/></g>
<g><path style="opacity:1" fill="#efeffb" d="M 88.5,137.5 C 89.552,137.351 90.552,137.517 91.5,138C 96.1667,141.333 100.833,144.667 105.5,148C 106.207,150.691 105.041,152.525 102,153.5C 96.255,150.042 90.755,146.209 85.5,142C 86.3862,140.385 87.3862,138.885 88.5,137.5 Z"/></g>
<g><path style="opacity:1" fill="#efeffb" d="M 407.5,145.5 C 416.925,143.77 422.259,147.603 423.5,157C 422.994,163.542 421.16,164.042 418,158.5C 417.447,150.958 413.947,149.458 407.5,154C 404.502,157.833 405.335,160.666 410,162.5C 410.5,162.167 411,161.833 411.5,161.5C 409.902,159.13 410.402,157.464 413,156.5C 415.123,158.573 416.623,161.073 417.5,164C 415.626,166.288 413.293,168.121 410.5,169.5C 402.256,165.465 399.423,159.131 402,150.5C 403.812,148.7 405.645,147.033 407.5,145.5 Z"/></g>
<g><path style="opacity:1" fill="#8aa5f9" d="M 221.5,118.5 C 220.097,119.931 218.431,121.098 216.5,122C 219.146,122.497 221.813,122.664 224.5,122.5C 224.337,124.857 224.503,127.19 225,129.5C 229.051,134.526 234.218,137.359 240.5,138C 241.516,138.519 242.182,139.353 242.5,140.5C 240.395,146.064 240.228,151.731 242,157.5C 242.98,158.981 244.147,160.315 245.5,161.5C 241.321,164.962 239.321,169.462 239.5,175C 240.227,176.399 240.727,177.899 241,179.5C 246.407,180.473 251.907,180.807 257.5,180.5C 258.833,180.5 260.167,180.5 261.5,180.5C 263.403,180.796 265.07,181.463 266.5,182.5C 254.605,180.577 242.939,181.411 231.5,185C 226.661,186.921 221.994,189.088 217.5,191.5C 216.351,191.209 215.684,190.376 215.5,189C 216.632,185.705 218.966,183.539 222.5,182.5C 223.262,181.372 223.929,180.205 224.5,179C 227.141,179.155 229.807,179.655 232.5,180.5C 233.167,180.167 233.833,179.833 234.5,179.5C 232.108,178.108 230.441,176.108 229.5,173.5C 231.289,170.302 232.789,166.969 234,163.5C 236.91,162.55 238.077,160.55 237.5,157.5C 236.178,157.67 235.011,157.337 234,156.5C 233.774,153.905 233.274,151.405 232.5,149C 234.461,146.037 236.794,143.371 239.5,141C 228.073,141.406 222.407,135.906 222.5,124.5C 218.692,124.837 215.026,124.337 211.5,123C 212.942,122.623 213.942,121.79 214.5,120.5C 216.657,119.593 218.99,118.927 221.5,118.5 Z"/></g>
<g><path style="opacity:1" fill="#ededfa" d="M 80.5,149.5 C 82.924,149.192 85.2573,149.526 87.5,150.5C 85.1128,153.166 82.7794,155.833 80.5,158.5C 81.6058,161.441 83.6058,163.608 86.5,165C 91.3649,164.754 92.6983,162.254 90.5,157.5C 92.2595,154.074 94.4262,153.741 97,156.5C 98.361,163.277 95.861,168.11 89.5,171C 79.8531,171.603 75.0198,167.103 75,157.5C 76.2734,154.403 78.1067,151.736 80.5,149.5 Z"/></g>
<g><path style="opacity:1" fill="#0638e0" d="M 282.5,132.5 C 283.978,132.238 285.311,132.571 286.5,133.5C 285.41,134.609 285.41,135.609 286.5,136.5C 289.228,137.145 291.895,137.979 294.5,139C 298.146,143.396 302.812,146.229 308.5,147.5C 309.098,148.795 309.598,150.128 310,151.5C 310.333,151.167 310.667,150.833 311,150.5C 311.374,151.416 311.874,152.25 312.5,153C 317.668,153.433 322.668,154.267 327.5,155.5C 327.473,157.199 326.806,158.533 325.5,159.5C 325.5,160.833 325.5,162.167 325.5,163.5C 322.687,163.025 320.687,164.025 319.5,166.5C 316.5,166.5 313.5,166.5 310.5,166.5C 306.987,165.657 304.32,163.657 302.5,160.5C 300.232,161.544 297.899,161.711 295.5,161C 294.547,159.045 293.213,157.378 291.5,156C 288.048,154.496 284.881,152.663 282,150.5C 281.985,148.209 281.818,146.042 281.5,144C 283.559,142.815 283.726,141.648 282,140.5C 278.622,143.282 275.788,142.782 273.5,139C 273.759,137.739 274.426,136.739 275.5,136C 278.281,135.478 280.615,134.311 282.5,132.5 Z"/></g>
<g><path style="opacity:1" fill="#4f7cf6" d="M 233.5,117.5 C 233.245,121.493 234.911,124.326 238.5,126C 241.956,125.907 244.956,126.907 247.5,129C 246.167,130.333 246.167,131.667 247.5,133C 251.186,133.559 254.853,134.226 258.5,135C 259.337,136.011 259.67,137.178 259.5,138.5C 258.5,138.5 257.5,138.5 256.5,138.5C 256.122,146.651 257.789,154.318 261.5,161.5C 260.814,163.347 259.814,165.014 258.5,166.5C 258.5,168.833 258.5,171.167 258.5,173.5C 258.919,174.672 259.585,175.672 260.5,176.5C 259.624,177.251 258.624,177.751 257.5,178C 258.858,178.934 260.192,179.768 261.5,180.5C 260.167,180.5 258.833,180.5 257.5,180.5C 256.432,179.566 255.099,179.232 253.5,179.5C 252.148,176.219 251.481,172.719 251.5,169C 251.708,166.509 252.375,164.175 253.5,162C 251.315,160.147 249.482,157.98 248,155.5C 247.504,153.965 247.67,152.465 248.5,151C 246.609,148.101 246.109,144.934 247,141.5C 249.49,141.011 251.324,139.677 252.5,137.5C 249.134,135.982 245.801,135.316 242.5,135.5C 241.197,133.623 239.697,131.957 238,130.5C 237.517,129.552 237.351,128.552 237.5,127.5C 233.628,127.57 231.295,125.737 230.5,122C 232.569,121.676 232.902,120.842 231.5,119.5C 231.855,118.478 232.522,117.811 233.5,117.5 Z"/></g>
<g><path style="opacity:1" fill="#3c6df5" d="M 238.5,115.5 C 239.833,115.5 241.167,115.5 242.5,115.5C 242.5,115.833 242.5,116.167 242.5,116.5C 241.027,117.072 239.693,117.905 238.5,119C 241.598,123.565 245.764,126.732 251,128.5C 251.49,129.793 251.657,131.127 251.5,132.5C 256.142,133.34 260.808,133.507 265.5,133C 266.336,134.243 266.003,135.41 264.5,136.5C 263.264,137.246 261.93,137.579 260.5,137.5C 260.892,140.146 260.892,142.646 260.5,145C 261.833,146.333 263.167,147.667 264.5,149C 262.637,150.418 262.137,152.251 263,154.5C 264.965,157.963 267.465,160.963 270.5,163.5C 269.181,167.053 269.848,170.219 272.5,173C 268.831,174.408 268.831,176.075 272.5,178C 272.167,178.333 271.833,178.667 271.5,179C 273.002,179.583 274.335,180.416 275.5,181.5C 274.975,182.192 274.308,182.692 273.5,183C 275.093,183.949 276.426,185.115 277.5,186.5C 273.648,185.395 269.982,184.062 266.5,182.5C 265.07,181.463 263.403,180.796 261.5,180.5C 260.192,179.768 258.858,178.934 257.5,178C 258.624,177.751 259.624,177.251 260.5,176.5C 259.585,175.672 258.919,174.672 258.5,173.5C 258.5,171.167 258.5,168.833 258.5,166.5C 259.814,165.014 260.814,163.347 261.5,161.5C 257.789,154.318 256.122,146.651 256.5,138.5C 257.5,138.5 258.5,138.5 259.5,138.5C 259.67,137.178 259.337,136.011 258.5,135C 254.853,134.226 251.186,133.559 247.5,133C 246.167,131.667 246.167,130.333 247.5,129C 244.956,126.907 241.956,125.907 238.5,126C 234.911,124.326 233.245,121.493 233.5,117.5C 235.553,117.598 237.22,116.931 238.5,115.5 Z"/></g>
<g><path style="opacity:1" fill="#164cf2" d="M 245.5,116.5 C 249.81,117.08 254.143,117.414 258.5,117.5C 259.97,120.318 260.97,123.318 261.5,126.5C 266.615,128.423 271.948,129.423 277.5,129.5C 277.5,130.5 277.5,131.5 277.5,132.5C 279.167,132.5 280.833,132.5 282.5,132.5C 280.615,134.311 278.281,135.478 275.5,136C 274.426,136.739 273.759,137.739 273.5,139C 275.788,142.782 278.622,143.282 282,140.5C 283.726,141.648 283.559,142.815 281.5,144C 281.818,146.042 281.985,148.209 282,150.5C 284.881,152.663 288.048,154.496 291.5,156C 293.213,157.378 294.547,159.045 295.5,161C 297.899,161.711 300.232,161.544 302.5,160.5C 304.32,163.657 306.987,165.657 310.5,166.5C 308.782,167.224 306.948,167.891 305,168.5C 304.444,166.405 303.944,166.238 303.5,168C 304.333,170.5 305.833,171 308,169.5C 308.667,170.833 309.667,171.833 311,172.5C 311.018,174.797 310.851,177.131 310.5,179.5C 304.794,179.829 299.128,179.495 293.5,178.5C 290.92,176.044 290.92,173.544 293.5,171C 289.288,171.292 286.788,169.459 286,165.5C 281.935,164.415 279.435,161.749 278.5,157.5C 277.5,156.833 276.5,156.167 275.5,155.5C 274.372,151.889 273.038,148.389 271.5,145C 271.957,144.586 272.291,144.086 272.5,143.5C 270.441,142.433 268.608,141.1 267,139.5C 266.376,137.536 266.876,135.869 268.5,134.5C 267.833,133.167 267.167,131.833 266.5,130.5C 259.583,131.338 254.583,128.505 251.5,122C 247.874,121.722 245.874,119.888 245.5,116.5 Z"/></g>
<g><path style="opacity:1" fill="#698ef7" d="M 238.5,115.5 C 237.22,116.931 235.553,117.598 233.5,117.5C 232.522,117.811 231.855,118.478 231.5,119.5C 232.902,120.842 232.569,121.676 230.5,122C 231.295,125.737 233.628,127.57 237.5,127.5C 237.351,128.552 237.517,129.552 238,130.5C 239.697,131.957 241.197,133.623 242.5,135.5C 245.801,135.316 249.134,135.982 252.5,137.5C 251.324,139.677 249.49,141.011 247,141.5C 246.109,144.934 246.609,148.101 248.5,151C 247.67,152.465 247.504,153.965 248,155.5C 249.482,157.98 251.315,160.147 253.5,162C 252.375,164.175 251.708,166.509 251.5,169C 251.481,172.719 252.148,176.219 253.5,179.5C 255.099,179.232 256.432,179.566 257.5,180.5C 251.907,180.807 246.407,180.473 241,179.5C 240.727,177.899 240.227,176.399 239.5,175C 239.321,169.462 241.321,164.962 245.5,161.5C 244.147,160.315 242.98,158.981 242,157.5C 240.228,151.731 240.395,146.064 242.5,140.5C 242.182,139.353 241.516,138.519 240.5,138C 234.218,137.359 229.051,134.526 225,129.5C 224.503,127.19 224.337,124.857 224.5,122.5C 221.813,122.664 219.146,122.497 216.5,122C 218.431,121.098 220.097,119.931 221.5,118.5C 227.061,116.962 232.727,115.962 238.5,115.5 Z"/></g>
<g><path style="opacity:1" fill="#2e62f6" d="M 242.5,116.5 C 243.5,116.5 244.5,116.5 245.5,116.5C 245.874,119.888 247.874,121.722 251.5,122C 254.583,128.505 259.583,131.338 266.5,130.5C 267.167,131.833 267.833,133.167 268.5,134.5C 266.876,135.869 266.376,137.536 267,139.5C 268.608,141.1 270.441,142.433 272.5,143.5C 272.291,144.086 271.957,144.586 271.5,145C 273.038,148.389 274.372,151.889 275.5,155.5C 276.5,156.167 277.5,156.833 278.5,157.5C 279.435,161.749 281.935,164.415 286,165.5C 286.788,169.459 289.288,171.292 293.5,171C 290.92,173.544 290.92,176.044 293.5,178.5C 299.128,179.495 304.794,179.829 310.5,179.5C 310.851,177.131 311.018,174.797 311,172.5C 309.667,171.833 308.667,170.833 308,169.5C 305.833,171 304.333,170.5 303.5,168C 303.944,166.238 304.444,166.405 305,168.5C 306.948,167.891 308.782,167.224 310.5,166.5C 313.5,166.5 316.5,166.5 319.5,166.5C 319.5,167.5 319.5,168.5 319.5,169.5C 318.167,169.5 316.833,169.5 315.5,169.5C 314.679,173.284 313.679,176.951 312.5,180.5C 309.09,180.457 305.757,180.957 302.5,182C 298.497,184.797 297.831,187.964 300.5,191.5C 305.907,193.326 305.574,194.326 299.5,194.5C 299.715,196.179 299.048,197.179 297.5,197.5C 290.798,193.818 284.132,190.151 277.5,186.5C 276.426,185.115 275.093,183.949 273.5,183C 274.308,182.692 274.975,182.192 275.5,181.5C 274.335,180.416 273.002,179.583 271.5,179C 271.833,178.667 272.167,178.333 272.5,178C 268.831,176.075 268.831,174.408 272.5,173C 269.848,170.219 269.181,167.053 270.5,163.5C 267.465,160.963 264.965,157.963 263,154.5C 262.137,152.251 262.637,150.418 264.5,149C 263.167,147.667 261.833,146.333 260.5,145C 260.892,142.646 260.892,140.146 260.5,137.5C 261.93,137.579 263.264,137.246 264.5,136.5C 266.003,135.41 266.336,134.243 265.5,133C 260.808,133.507 256.142,133.34 251.5,132.5C 251.657,131.127 251.49,129.793 251,128.5C 245.764,126.732 241.598,123.565 238.5,119C 239.693,117.905 241.027,117.072 242.5,116.5 Z"/></g>
<g><path style="opacity:1" fill="#eeeefa" d="M 426.5,167.5 C 429.541,167.379 431.208,168.879 431.5,172C 427.504,174.664 423.171,176.831 418.5,178.5C 416.448,183.617 418.115,185.45 423.5,184C 426.612,182.694 429.779,181.528 433,180.5C 435.431,181.686 436.597,183.686 436.5,186.5C 431.179,188.162 425.846,189.829 420.5,191.5C 417.729,191.244 415.562,189.91 414,187.5C 409.834,181.35 410.667,176.183 416.5,172C 420.061,170.768 423.394,169.268 426.5,167.5 Z"/></g>
<g><path style="opacity:1" fill="#f4f4fc" d="M 70.5,172.5 C 84.2067,172.007 88.7067,178.007 84,190.5C 76.6625,196.404 70.3292,195.404 65,187.5C 63.5128,181.163 65.3462,176.163 70.5,172.5 Z"/></g>
<g><path style="opacity:1" fill="#e9e3fc" d="M 202.5,124.5 C 201.92,131.575 205.254,134.575 212.5,133.5C 214.112,141.112 218.779,144.445 226.5,143.5C 226.649,144.552 226.483,145.552 226,146.5C 219.678,149.975 219.512,154.141 225.5,159C 222.461,160.705 220.128,163.039 218.5,166C 219.703,168.317 221.037,170.65 222.5,173C 218.416,173.231 214.416,173.898 210.5,175C 208.722,177.135 208.055,179.635 208.5,182.5C 205.91,182.604 203.577,181.937 201.5,180.5C 199.675,181.651 197.675,182.318 195.5,182.5C 195.707,185.127 194.54,186.793 192,187.5C 190.146,185.977 188.646,184.144 187.5,182C 186.391,181.362 185.225,180.862 184,180.5C 180.468,181.516 176.968,182.516 173.5,183.5C 173.201,180.358 171.534,178.191 168.5,177C 164.833,177.333 161.167,177.667 157.5,178C 160.753,173.009 159.753,169.009 154.5,166C 152.339,165.415 150.339,164.582 148.5,163.5C 151.079,159.25 154.412,155.583 158.5,152.5C 160.307,153.395 161.64,154.728 162.5,156.5C 161.179,158.332 160.179,160.332 159.5,162.5C 162.315,163.126 164.815,164.46 167,166.5C 166.667,168.5 166.333,170.5 166,172.5C 171.652,170.086 175.485,171.753 177.5,177.5C 180.713,176.573 183.88,175.573 187,174.5C 189.794,178.428 193.294,178.595 197.5,175C 195.405,174.444 195.238,173.944 197,173.5C 198.95,174.283 200.783,175.283 202.5,176.5C 203.167,176.167 203.833,175.833 204.5,175.5C 203.48,173.568 203.313,171.568 204,169.5C 207.076,168.712 210.242,168.212 213.5,168C 211.903,165.974 210.903,163.641 210.5,161C 211.619,159.124 213.286,158.291 215.5,158.5C 215.38,156.801 215.046,155.135 214.5,153.5C 215.167,151.833 215.833,150.167 216.5,148.5C 214.355,144.226 211.688,140.226 208.5,136.5C 205.961,135.885 203.461,135.218 201,134.5C 200.333,131.5 200.333,128.5 201,125.5C 201.383,124.944 201.883,124.611 202.5,124.5 Z"/></g>
<g><path style="opacity:1" fill="#4a6dde" d="M 357.5,167.5 C 362.655,174.467 367.322,181.8 371.5,189.5C 367.397,193.216 362.731,195.883 357.5,197.5C 355.94,197.519 354.44,197.852 353,198.5C 351.674,197.201 350.34,195.868 349,194.5C 347.192,196.396 345.025,196.896 342.5,196C 339.352,195.064 336.518,193.564 334,191.5C 332.779,192.272 331.779,193.272 331,194.5C 327.863,192.258 324.53,190.258 321,188.5C 320.94,185.518 322.274,183.185 325,181.5C 330.16,179.752 335.327,178.419 340.5,177.5C 340.679,175.394 341.679,173.728 343.5,172.5C 347.159,171.899 350.826,171.233 354.5,170.5C 355.548,169.452 356.548,168.452 357.5,167.5 Z"/></g>
<g><path style="opacity:1" fill="#2324c3" d="M 71.5,178.5 C 75.9541,178.06 79.2875,179.727 81.5,183.5C 78.631,189.755 74.7977,190.088 70,184.5C 69.2516,182.16 69.7516,180.16 71.5,178.5 Z"/></g>
<g><path style="opacity:1" fill="#e2e0f9" d="M 316.5,181.5 C 314.73,182.856 313.397,184.689 312.5,187C 310.564,187.813 308.564,188.313 306.5,188.5C 306.5,189.5 306.5,190.5 306.5,191.5C 304.5,191.5 302.5,191.5 300.5,191.5C 297.831,187.964 298.497,184.797 302.5,182C 305.757,180.957 309.09,180.457 312.5,180.5C 313.679,176.951 314.679,173.284 315.5,169.5C 316.833,169.5 318.167,169.5 319.5,169.5C 319.5,168.5 319.5,167.5 319.5,166.5C 320.687,164.025 322.687,163.025 325.5,163.5C 326.404,162.791 326.737,161.791 326.5,160.5C 327.833,160.5 329.167,160.5 330.5,160.5C 330.5,158.833 330.5,157.167 330.5,155.5C 333.187,155.664 335.854,155.497 338.5,155C 339.071,153.795 339.738,152.628 340.5,151.5C 343.317,153.817 345.984,156.317 348.5,159C 345.98,160.763 343.647,162.763 341.5,165C 336.329,167.28 330.996,168.946 325.5,170C 321.001,172.682 318.001,176.515 316.5,181.5 Z"/></g>
<g><path style="opacity:1" fill="#b2bffb" d="M 210.5,121.5 C 210.056,123.113 209.056,124.28 207.5,125C 211.069,127.523 215.069,128.856 219.5,129C 221.471,137.485 226.804,141.985 235.5,142.5C 232.283,144.605 230.95,147.605 231.5,151.5C 231.081,154.747 232.081,157.414 234.5,159.5C 232.289,161.415 230.122,163.415 228,165.5C 226.312,169.089 226.145,172.756 227.5,176.5C 223.71,175.899 220.544,176.899 218,179.5C 217.667,179.167 217.333,178.833 217,178.5C 215.812,179.563 215.312,180.897 215.5,182.5C 214.5,182.5 213.5,182.5 212.5,182.5C 212.799,184.604 212.466,186.604 211.5,188.5C 209.568,187.48 207.568,187.313 205.5,188C 201.348,191.107 197.015,193.94 192.5,196.5C 190.82,194.991 188.986,193.657 187,192.5C 184.146,193.258 181.313,192.925 178.5,191.5C 175.987,191.705 173.32,191.872 170.5,192C 169.745,189.825 168.912,187.659 168,185.5C 165.124,186.389 162.624,185.556 160.5,183C 157.854,182.503 155.187,182.336 152.5,182.5C 153.203,176.609 151.203,171.943 146.5,168.5C 145.478,168.855 144.811,169.522 144.5,170.5C 143.833,170.5 143.167,170.5 142.5,170.5C 143.167,169.5 143.833,168.5 144.5,167.5C 146.017,167.489 147.184,166.823 148,165.5C 153.681,168.863 156.181,173.863 155.5,180.5C 161.158,179.673 166.158,181.007 170.5,184.5C 171.246,185.736 171.579,187.07 171.5,188.5C 177.221,187.45 182.388,187.45 187,188.5C 188.453,190.431 190.12,192.098 192,193.5C 193.838,191.721 195.505,189.721 197,187.5C 201.154,185 205.654,184 210.5,184.5C 210.343,183.127 210.51,181.793 211,180.5C 213.333,179.587 215.166,178.087 216.5,176C 219.146,175.503 221.813,175.336 224.5,175.5C 222.495,168.816 224.495,163.483 230.5,159.5C 229.653,158.155 228.487,157.155 227,156.5C 226.333,154.5 226.333,152.5 227,150.5C 228.786,147.92 230.286,145.253 231.5,142.5C 227.727,142.737 224.06,142.237 220.5,141C 218.612,138.225 217.278,135.225 216.5,132C 212.384,131.675 208.384,130.841 204.5,129.5C 203.548,127.955 203.215,126.288 203.5,124.5C 205.509,122.935 207.843,121.935 210.5,121.5 Z"/></g>
<g><path style="opacity:1" fill="#c7cdfb" d="M 202.5,124.5 C 202.833,124.5 203.167,124.5 203.5,124.5C 203.215,126.288 203.548,127.955 204.5,129.5C 208.384,130.841 212.384,131.675 216.5,132C 217.278,135.225 218.612,138.225 220.5,141C 224.06,142.237 227.727,142.737 231.5,142.5C 230.286,145.253 228.786,147.92 227,150.5C 226.333,152.5 226.333,154.5 227,156.5C 228.487,157.155 229.653,158.155 230.5,159.5C 224.495,163.483 222.495,168.816 224.5,175.5C 221.813,175.336 219.146,175.503 216.5,176C 215.166,178.087 213.333,179.587 211,180.5C 210.51,181.793 210.343,183.127 210.5,184.5C 205.654,184 201.154,185 197,187.5C 195.505,189.721 193.838,191.721 192,193.5C 190.12,192.098 188.453,190.431 187,188.5C 182.388,187.45 177.221,187.45 171.5,188.5C 171.579,187.07 171.246,185.736 170.5,184.5C 166.158,181.007 161.158,179.673 155.5,180.5C 156.181,173.863 153.681,168.863 148,165.5C 147.184,166.823 146.017,167.489 144.5,167.5C 145.5,165.833 146.833,164.5 148.5,163.5C 150.339,164.582 152.339,165.415 154.5,166C 159.753,169.009 160.753,173.009 157.5,178C 161.167,177.667 164.833,177.333 168.5,177C 171.534,178.191 173.201,180.358 173.5,183.5C 176.968,182.516 180.468,181.516 184,180.5C 185.225,180.862 186.391,181.362 187.5,182C 188.646,184.144 190.146,185.977 192,187.5C 194.54,186.793 195.707,185.127 195.5,182.5C 197.675,182.318 199.675,181.651 201.5,180.5C 203.577,181.937 205.91,182.604 208.5,182.5C 208.055,179.635 208.722,177.135 210.5,175C 214.416,173.898 218.416,173.231 222.5,173C 221.037,170.65 219.703,168.317 218.5,166C 220.128,163.039 222.461,160.705 225.5,159C 219.512,154.141 219.678,149.975 226,146.5C 226.483,145.552 226.649,144.552 226.5,143.5C 218.779,144.445 214.112,141.112 212.5,133.5C 205.254,134.575 201.92,131.575 202.5,124.5 Z"/></g>
<g><path style="opacity:1" fill="#a1b4fb" d="M 214.5,120.5 C 213.942,121.79 212.942,122.623 211.5,123C 215.026,124.337 218.692,124.837 222.5,124.5C 222.407,135.906 228.073,141.406 239.5,141C 236.794,143.371 234.461,146.037 232.5,149C 233.274,151.405 233.774,153.905 234,156.5C 235.011,157.337 236.178,157.67 237.5,157.5C 238.077,160.55 236.91,162.55 234,163.5C 232.789,166.969 231.289,170.302 229.5,173.5C 230.441,176.108 232.108,178.108 234.5,179.5C 233.833,179.833 233.167,180.167 232.5,180.5C 229.807,179.655 227.141,179.155 224.5,179C 223.929,180.205 223.262,181.372 222.5,182.5C 218.966,183.539 216.632,185.705 215.5,189C 215.684,190.376 216.351,191.209 217.5,191.5C 216.205,192.488 214.872,193.488 213.5,194.5C 213.5,193.5 213.5,192.5 213.5,191.5C 207.62,191.345 202.12,192.679 197,195.5C 196.667,197.167 196.333,198.833 196,200.5C 192.908,202.182 190.741,201.349 189.5,198C 184.532,197.978 179.699,198.145 175,198.5C 172.423,197.729 169.923,196.729 167.5,195.5C 163.716,187.561 157.382,183.894 148.5,184.5C 149.093,182.618 149.76,180.785 150.5,179C 148.645,175.993 146.645,173.159 144.5,170.5C 144.811,169.522 145.478,168.855 146.5,168.5C 151.203,171.943 153.203,176.609 152.5,182.5C 155.187,182.336 157.854,182.503 160.5,183C 162.624,185.556 165.124,186.389 168,185.5C 168.912,187.659 169.745,189.825 170.5,192C 173.32,191.872 175.987,191.705 178.5,191.5C 181.313,192.925 184.146,193.258 187,192.5C 188.986,193.657 190.82,194.991 192.5,196.5C 197.015,193.94 201.348,191.107 205.5,188C 207.568,187.313 209.568,187.48 211.5,188.5C 212.466,186.604 212.799,184.604 212.5,182.5C 213.5,182.5 214.5,182.5 215.5,182.5C 215.312,180.897 215.812,179.563 217,178.5C 217.333,178.833 217.667,179.167 218,179.5C 220.544,176.899 223.71,175.899 227.5,176.5C 226.145,172.756 226.312,169.089 228,165.5C 230.122,163.415 232.289,161.415 234.5,159.5C 232.081,157.414 231.081,154.747 231.5,151.5C 230.95,147.605 232.283,144.605 235.5,142.5C 226.804,141.985 221.471,137.485 219.5,129C 215.069,128.856 211.069,127.523 207.5,125C 209.056,124.28 210.056,123.113 210.5,121.5C 211.833,121.167 213.167,120.833 214.5,120.5 Z"/></g>
<g><path style="opacity:1" fill="#708ded" d="M 353.5,163.5 C 355.167,164.5 356.5,165.833 357.5,167.5C 356.548,168.452 355.548,169.452 354.5,170.5C 350.826,171.233 347.159,171.899 343.5,172.5C 341.679,173.728 340.679,175.394 340.5,177.5C 335.327,178.419 330.16,179.752 325,181.5C 322.274,183.185 320.94,185.518 321,188.5C 324.53,190.258 327.863,192.258 331,194.5C 331.779,193.272 332.779,192.272 334,191.5C 336.518,193.564 339.352,195.064 342.5,196C 345.025,196.896 347.192,196.396 349,194.5C 350.34,195.868 351.674,197.201 353,198.5C 354.44,197.852 355.94,197.519 357.5,197.5C 356.71,198.401 355.71,199.068 354.5,199.5C 350.278,199.263 346.111,199.596 342,200.5C 335.584,198.916 329.084,197.916 322.5,197.5C 322.5,196.167 322.5,194.833 322.5,193.5C 320.473,193.662 318.473,193.495 316.5,193C 315.978,192.439 315.645,191.772 315.5,191C 318.117,186.153 319.95,180.986 321,175.5C 323.877,173.596 327.044,172.596 330.5,172.5C 330.408,176.071 332.074,177.238 335.5,176C 336.5,174.333 337.5,172.667 338.5,171C 343.956,169.811 349.289,168.311 354.5,166.5C 353.873,165.583 353.539,164.583 353.5,163.5 Z"/></g>
<g><path style="opacity:1" fill="#8da8fa" d="M 142.5,170.5 C 143.167,170.5 143.833,170.5 144.5,170.5C 146.645,173.159 148.645,175.993 150.5,179C 149.76,180.785 149.093,182.618 148.5,184.5C 157.382,183.894 163.716,187.561 167.5,195.5C 169.923,196.729 172.423,197.729 175,198.5C 179.699,198.145 184.532,197.978 189.5,198C 190.741,201.349 192.908,202.182 196,200.5C 196.333,198.833 196.667,197.167 197,195.5C 202.12,192.679 207.62,191.345 213.5,191.5C 213.5,192.5 213.5,193.5 213.5,194.5C 206.75,199.076 200.417,204.242 194.5,210C 189.934,212.782 185.267,215.282 180.5,217.5C 180.5,216.5 180.5,215.5 180.5,214.5C 183.738,214.651 186.071,213.318 187.5,210.5C 187.192,209.692 186.692,209.025 186,208.5C 182.943,208.684 179.943,208.684 177,208.5C 173.322,207.709 169.822,206.543 166.5,205C 163.05,199.752 158.717,195.419 153.5,192C 149.538,190.304 145.538,190.137 141.5,191.5C 141.993,188.188 142.993,185.021 144.5,182C 142.515,179.965 141.348,177.465 141,174.5C 140.617,175.056 140.117,175.389 139.5,175.5C 140.075,173.589 141.075,171.922 142.5,170.5 Z"/></g>
<g><path style="opacity:1" fill="#131ac1" d="M 261.5,191.5 C 265.145,192.987 268.812,194.487 272.5,196C 285.344,234.537 297.344,273.37 308.5,312.5C 304.312,312.714 300.479,311.38 297,308.5C 295.148,299.281 292.315,290.447 288.5,282C 281.584,278.864 274.584,276.03 267.5,273.5C 267.831,280.863 267.497,288.197 266.5,295.5C 263.382,294.441 260.382,293.108 257.5,291.5C 257.167,288.167 256.833,284.833 256.5,281.5C 258.416,251.51 260.083,221.51 261.5,191.5 Z"/></g>
<g><path style="opacity:1" fill="#161bc1" d="M 379.5,190.5 C 380.496,190.414 381.329,190.748 382,191.5C 385.333,210.833 388.667,230.167 392,249.5C 393.56,260.243 392.227,270.576 388,280.5C 381.258,290.788 371.758,295.621 359.5,295C 353.11,291.42 349.277,285.92 348,278.5C 343.311,257.823 339.478,236.99 336.5,216C 336.61,213.745 337.61,212.078 339.5,211C 341.833,209.833 344.167,208.667 346.5,207.5C 346.833,208 347.167,208.5 347.5,209C 351.292,230.586 355.458,252.086 360,273.5C 361.266,276.635 363.599,278.302 367,278.5C 376.72,276.251 381.22,270.085 380.5,260C 377.547,239.449 374.214,218.949 370.5,198.5C 370.57,197.228 370.903,196.062 371.5,195C 374.391,193.726 377.058,192.226 379.5,190.5 Z"/></g>
<g><path style="opacity:1" fill="#161bc1" d="M 233.5,193.5 C 234.5,193.5 235.5,193.5 236.5,193.5C 239.557,212.84 242.723,232.173 246,251.5C 247.974,263.289 245.974,274.289 240,284.5C 232.905,292.983 224.071,296.149 213.5,294C 209.743,290.579 207.243,286.412 206,281.5C 201.574,260.78 197.741,239.947 194.5,219C 194.559,217.564 194.892,216.231 195.5,215C 198.329,213.753 200.995,212.253 203.5,210.5C 203.833,210.833 204.167,211.167 204.5,211.5C 208.009,232.218 211.842,252.884 216,273.5C 218.913,278.689 223.08,279.856 228.5,277C 233.447,272.67 235.781,267.17 235.5,260.5C 232.168,240.517 228.835,220.517 225.5,200.5C 225.608,199.558 225.941,198.725 226.5,198C 229.239,196.974 231.572,195.474 233.5,193.5 Z"/></g>
<g><path style="opacity:1" fill="#efeffb" d="M 417.5,195.5 C 425.147,196.365 432.814,197.031 440.5,197.5C 441.449,200.208 441.449,202.874 440.5,205.5C 434.833,209.5 429.167,213.5 423.5,217.5C 421.128,214.426 421.295,211.759 424,209.5C 424.537,206.813 424.037,204.313 422.5,202C 421.207,201.51 419.873,201.343 418.5,201.5C 418.167,199.5 417.833,197.5 417.5,195.5 Z"/></g>
<g><path style="opacity:1" fill="#b7bff3" d="M 316.5,181.5 C 314.786,185.014 313.952,188.68 314,192.5C 315.171,193.893 316.671,194.727 318.5,195C 320.02,196.885 321.02,199.051 321.5,201.5C 323.29,203.316 325.29,204.649 327.5,205.5C 325.473,205.662 323.473,205.495 321.5,205C 320.373,203.247 319.373,201.413 318.5,199.5C 315.196,197.526 312.196,195.193 309.5,192.5C 307.253,193.406 305.253,194.739 303.5,196.5C 304.313,197.814 305.313,198.981 306.5,200C 303.142,200.314 300.142,199.48 297.5,197.5C 299.048,197.179 299.715,196.179 299.5,194.5C 305.574,194.326 305.907,193.326 300.5,191.5C 302.5,191.5 304.5,191.5 306.5,191.5C 306.5,190.5 306.5,189.5 306.5,188.5C 308.564,188.313 310.564,187.813 312.5,187C 313.397,184.689 314.73,182.856 316.5,181.5 Z"/></g>
<g><path style="opacity:1" fill="#f0f0fb" d="M 62.5,197.5 C 63.8333,197.5 65.1667,197.5 66.5,197.5C 66.1667,199.5 65.8333,201.5 65.5,203.5C 62.5299,203.746 61.1966,205.412 61.5,208.5C 62.675,208.719 63.675,208.386 64.5,207.5C 65.9705,204.864 67.6372,202.364 69.5,200C 77.836,198.673 81.0026,202.173 79,210.5C 78.1107,215.866 74.944,218.199 69.5,217.5C 69.8333,215.5 70.1667,213.5 70.5,211.5C 75.3461,211.047 76.3461,209.047 73.5,205.5C 71.0077,208.163 68.6744,210.996 66.5,214C 58.6682,214.821 55.8349,211.321 58,203.5C 59.2775,201.253 60.7775,199.253 62.5,197.5 Z"/></g>
<g><path style="opacity:1" fill="#90a3f1" d="M 339.5,148.5 C 344.894,152.892 349.561,157.892 353.5,163.5C 353.539,164.583 353.873,165.583 354.5,166.5C 349.289,168.311 343.956,169.811 338.5,171C 337.5,172.667 336.5,174.333 335.5,176C 332.074,177.238 330.408,176.071 330.5,172.5C 327.044,172.596 323.877,173.596 321,175.5C 319.95,180.986 318.117,186.153 315.5,191C 315.645,191.772 315.978,192.439 316.5,193C 318.473,193.495 320.473,193.662 322.5,193.5C 322.5,194.833 322.5,196.167 322.5,197.5C 329.084,197.916 335.584,198.916 342,200.5C 346.111,199.596 350.278,199.263 354.5,199.5C 346.21,204.153 337.21,206.153 327.5,205.5C 325.29,204.649 323.29,203.316 321.5,201.5C 321.02,199.051 320.02,196.885 318.5,195C 316.671,194.727 315.171,193.893 314,192.5C 313.952,188.68 314.786,185.014 316.5,181.5C 318.001,176.515 321.001,172.682 325.5,170C 330.996,168.946 336.329,167.28 341.5,165C 343.647,162.763 345.98,160.763 348.5,159C 345.984,156.317 343.317,153.817 340.5,151.5C 339.738,152.628 339.071,153.795 338.5,155C 335.854,155.497 333.187,155.664 330.5,155.5C 330.5,157.167 330.5,158.833 330.5,160.5C 329.167,160.5 327.833,160.5 326.5,160.5C 326.737,161.791 326.404,162.791 325.5,163.5C 325.5,162.167 325.5,160.833 325.5,159.5C 326.5,159.5 327.5,159.5 328.5,159.5C 328.178,157.278 328.845,155.444 330.5,154C 333.457,152.084 336.457,150.251 339.5,148.5 Z"/></g>
<g><path style="opacity:1" fill="#161bc1" d="M 287.5,200.5 C 295.051,205.108 303.051,208.941 311.5,212C 317.423,213.304 323.423,213.804 329.5,213.5C 331.149,220.062 332.149,226.729 332.5,233.5C 327.468,233.366 322.635,232.366 318,230.5C 321.497,258.475 324.997,286.475 328.5,314.5C 324.793,314.208 321.293,313.208 318,311.5C 314.894,283.758 311.227,256.092 307,228.5C 301.584,226.361 296.251,224.028 291,221.5C 289.97,214.452 288.803,207.452 287.5,200.5 Z"/></g>
<g><path style="opacity:1" fill="#2327c4" d="M 428.5,202.5 C 436.081,202.138 436.247,203.471 429,206.5C 428.51,205.207 428.343,203.873 428.5,202.5 Z"/></g>
<g><path style="opacity:1" fill="#5a87fa" d="M 170.5,222.5 C 165.769,223.354 161.102,224.52 156.5,226C 150.984,226.817 145.65,226.651 140.5,225.5C 145.214,225.827 149.88,225.493 154.5,224.5C 151.985,223.8 151.318,222.467 152.5,220.5C 150.28,217.389 147.614,214.723 144.5,212.5C 143.652,210.591 143.318,208.591 143.5,206.5C 139.611,207.695 136.611,206.362 134.5,202.5C 133.224,201.355 131.891,201.355 130.5,202.5C 129.201,201.91 128.368,200.91 128,199.5C 127.676,202.706 126.176,205.039 123.5,206.5C 125.656,200.196 128.322,194.196 131.5,188.5C 132.88,187.294 134.047,187.627 135,189.5C 136.128,191.345 136.628,193.345 136.5,195.5C 138.527,195.338 140.527,195.505 142.5,196C 144.682,198.518 147.182,199.685 150,199.5C 154.202,203.367 158.035,207.533 161.5,212C 164.5,212.333 167.5,212.667 170.5,213C 171.458,214.147 171.125,215.147 169.5,216C 171.116,216.615 172.449,217.615 173.5,219C 172.29,220.039 171.29,221.206 170.5,222.5 Z"/></g>
<g><path style="opacity:1" fill="#3d70f8" d="M 140.5,225.5 C 133.552,224.462 127.052,222.128 121,218.5C 120.996,214.352 121.83,210.352 123.5,206.5C 126.176,205.039 127.676,202.706 128,199.5C 128.368,200.91 129.201,201.91 130.5,202.5C 131.891,201.355 133.224,201.355 134.5,202.5C 136.611,206.362 139.611,207.695 143.5,206.5C 143.318,208.591 143.652,210.591 144.5,212.5C 147.614,214.723 150.28,217.389 152.5,220.5C 151.318,222.467 151.985,223.8 154.5,224.5C 149.88,225.493 145.214,225.827 140.5,225.5 Z"/></g>
<g><path style="opacity:0.004" fill="#0d0e0d" d="M 486.5,206.5 C 488.088,207.635 488.421,208.969 487.5,210.5C 486.571,209.311 486.238,207.978 486.5,206.5 Z"/></g>
<g><path style="opacity:1" fill="#6c93fb" d="M 180.5,217.5 C 177.14,219.18 173.807,220.847 170.5,222.5C 171.29,221.206 172.29,220.039 173.5,219C 172.449,217.615 171.116,216.615 169.5,216C 171.125,215.147 171.458,214.147 170.5,213C 167.5,212.667 164.5,212.333 161.5,212C 158.035,207.533 154.202,203.367 150,199.5C 147.182,199.685 144.682,198.518 142.5,196C 140.527,195.505 138.527,195.338 136.5,195.5C 136.628,193.345 136.128,191.345 135,189.5C 134.047,187.627 132.88,187.294 131.5,188.5C 133.418,183.657 136.084,179.323 139.5,175.5C 140.117,175.389 140.617,175.056 141,174.5C 141.348,177.465 142.515,179.965 144.5,182C 142.993,185.021 141.993,188.188 141.5,191.5C 145.538,190.137 149.538,190.304 153.5,192C 158.717,195.419 163.05,199.752 166.5,205C 169.822,206.543 173.322,207.709 177,208.5C 179.943,208.684 182.943,208.684 186,208.5C 186.692,209.025 187.192,209.692 187.5,210.5C 186.071,213.318 183.738,214.651 180.5,214.5C 180.5,215.5 180.5,216.5 180.5,217.5 Z"/></g>
<g><path style="opacity:0.004" fill="#0d0e0d" d="M 487.5,211.5 C 489.3,212.895 489.634,214.561 488.5,216.5C 487.548,214.955 487.215,213.288 487.5,211.5 Z"/></g>
<g><path style="opacity:1" fill="#eeedfa" d="M 439.5,216.5 C 441.766,216.141 443.599,216.808 445,218.5C 445.904,224.135 446.404,229.802 446.5,235.5C 444.833,235.5 443.167,235.5 441.5,235.5C 441.5,233.833 441.5,232.167 441.5,230.5C 435.839,230.907 430.172,231.24 424.5,231.5C 424.244,229.208 424.577,227.041 425.5,225C 430.156,224.335 434.823,223.835 439.5,223.5C 439.5,221.167 439.5,218.833 439.5,216.5 Z"/></g>
<g><path style="opacity:0.004" fill="#0d0e0d" d="M 488.5,217.5 C 489.525,217.897 489.692,218.563 489,219.5C 488.536,218.906 488.369,218.239 488.5,217.5 Z"/></g>
<g><path style="opacity:1" fill="#ececfa" d="M 58.5,219.5 C 59.5,219.5 60.5,219.5 61.5,219.5C 61.6621,221.527 61.4955,223.527 61,225.5C 57.2401,226.917 56.7401,228.917 59.5,231.5C 61.1067,227.788 63.1067,224.288 65.5,221C 69.2739,219.817 72.4406,220.651 75,223.5C 75.7907,227.926 75.4573,232.259 74,236.5C 72.103,238.016 69.9363,238.683 67.5,238.5C 67.5,236.5 67.5,234.5 67.5,232.5C 71.0714,232.592 72.2381,230.926 71,227.5C 70.586,227.043 70.086,226.709 69.5,226.5C 67.0768,229.928 64.7434,233.428 62.5,237C 55.0317,236.965 52.1984,233.132 54,225.5C 54.8041,222.854 56.3041,220.854 58.5,219.5 Z"/></g>
<g><path style="opacity:0.004" fill="#0d0e0d" d="M 488.5,220.5 C 489.725,221.152 490.392,222.319 490.5,224C 490.333,225.167 490.167,226.333 490,227.5C 489.338,225.187 488.838,222.854 488.5,220.5 Z"/></g>
<g><path style="opacity:1" fill="#ededfa" d="M 270.5,220.5 C 275.506,233.657 279.839,247.157 283.5,261C 283.167,261.5 282.833,262 282.5,262.5C 278.379,260.356 274.212,258.356 270,256.5C 269.5,244.492 269.667,232.492 270.5,220.5 Z"/></g>
<g><path style="opacity:0.004" fill="#0d0e0d" d="M 489.5,228.5 C 491.465,228.948 491.798,229.948 490.5,231.5C 489.614,230.675 489.281,229.675 489.5,228.5 Z"/></g>
<g><path style="opacity:1" fill="#171bc1" d="M 114.5,227.5 C 118.235,228.301 121.901,229.301 125.5,230.5C 128.398,263.177 131.398,295.844 134.5,328.5C 131.11,328.223 127.943,327.223 125,325.5C 121.423,292.83 117.923,260.163 114.5,227.5 Z"/></g>
<g><path style="opacity:1" fill="#1119c1" d="M 165.5,228.5 C 171.544,228.272 176.377,230.605 180,235.5C 181.5,238.5 183,241.5 184.5,244.5C 181.516,247.985 178.349,251.318 175,254.5C 169.709,244.676 163.376,244.009 156,252.5C 152.146,258.251 150.312,264.585 150.5,271.5C 150.988,283.783 153.822,295.45 159,306.5C 165.226,313.203 171.226,312.869 177,305.5C 182.717,298.868 183.884,291.535 180.5,283.5C 177.167,285.5 173.833,287.5 170.5,289.5C 168.39,285.245 167.057,280.745 166.5,276C 173.362,270.972 180.362,266.138 187.5,261.5C 190.76,272.554 193.093,283.887 194.5,295.5C 191.82,307.696 185.486,317.529 175.5,325C 166.369,329.574 158.535,328.074 152,320.5C 140.426,299.377 137.426,277.044 143,253.5C 146.555,241.453 154.055,233.12 165.5,228.5 Z"/></g>
<g><path style="opacity:0.004" fill="#0d0e0d" d="M 490.5,232.5 C 491.613,233.946 491.78,235.613 491,237.5C 490.506,235.866 490.34,234.199 490.5,232.5 Z"/></g>
<g><path style="opacity:1" fill="#636ad7" d="M 434.5,242.5 C 438.634,241.515 442.968,241.182 447.5,241.5C 447.5,244.167 447.5,246.833 447.5,249.5C 442.5,249.5 437.5,249.5 432.5,249.5C 436.97,248.514 441.637,248.181 446.5,248.5C 446.5,246.5 446.5,244.5 446.5,242.5C 442.5,242.5 438.5,242.5 434.5,242.5 Z"/></g>
<g><path style="opacity:1" fill="#f1f1fb" d="M 434.5,242.5 C 438.5,242.5 442.5,242.5 446.5,242.5C 446.5,244.5 446.5,246.5 446.5,248.5C 441.637,248.181 436.97,248.514 432.5,249.5C 430.353,250.932 430.02,252.765 431.5,255C 436.823,255.499 442.156,255.666 447.5,255.5C 447.5,257.833 447.5,260.167 447.5,262.5C 441.824,262.666 436.157,262.499 430.5,262C 425.845,258.255 424.345,253.422 426,247.5C 427.674,243.911 430.507,242.245 434.5,242.5 Z"/></g>
<g><path style="opacity:1" fill="#eeeefb" d="M 70.5,242.5 C 71.8333,242.5 73.1667,242.5 74.5,242.5C 72.7573,247.171 71.7573,252.171 71.5,257.5C 72.5,257.5 73.5,257.5 74.5,257.5C 74.8076,259.924 74.4742,262.257 73.5,264.5C 66.8622,262.122 60.3622,259.455 54,256.5C 53.5026,253.854 53.3359,251.187 53.5,248.5C 59.5322,247.269 65.1988,245.269 70.5,242.5 Z"/></g>
<g><path style="opacity:1" fill="#3a38c9" d="M 61.5,251.5 C 63.1667,251.5 64.8333,251.5 66.5,251.5C 66.762,252.978 66.4287,254.311 65.5,255.5C 63.4595,254.764 61.4595,253.931 59.5,253C 60.4158,252.722 61.0825,252.222 61.5,251.5 Z"/></g>
<g><path style="opacity:0.004" fill="#0d0e0d" d="M 490.5,279.5 C 491.803,282.355 491.803,285.355 490.5,288.5C 489.932,285.588 489.932,282.588 490.5,279.5 Z"/></g>
<g><path style="opacity:0.004" fill="#0d0e0d" d="M 489.5,289.5 C 490.573,290.251 490.74,291.251 490,292.5C 489.517,291.552 489.351,290.552 489.5,289.5 Z"/></g>
<g><path style="opacity:0.004" fill="#0d0e0d" d="M 488.5,293.5 C 489.497,293.47 490.164,293.97 490.5,295C 489.767,299.236 488.767,303.403 487.5,307.5C 487.167,307.167 486.833,306.833 486.5,306.5C 487.707,302.256 488.374,297.923 488.5,293.5 Z"/></g>
<g><path style="opacity:1" fill="#5ea9fb" d="M 265.5,305.5 C 265.881,306.931 266.881,307.764 268.5,308C 266.833,308.333 265.167,308.667 263.5,309C 264.5,309.333 265.5,309.667 266.5,310C 254.521,311.221 242.521,312.221 230.5,313C 229.09,314.267 227.424,314.267 225.5,313C 223.826,310.102 221.826,307.602 219.5,305.5C 222.715,303.144 226.381,301.644 230.5,301C 242.618,299.352 254.285,300.852 265.5,305.5 Z"/></g>
<g><path style="opacity:0.004" fill="#0d0e0d" d="M 315.5,499.5 C 314.167,499.5 312.833,499.5 311.5,499.5C 389.644,474.832 444.144,424.499 475,348.5C 479.815,335.39 483.815,322.057 487,308.5C 482.208,338.206 471.875,365.873 456,391.5C 422.145,444.165 375.312,480.165 315.5,499.5 Z"/></g>
<g><path style="opacity:1" fill="#70bafb" d="M 219.5,305.5 C 221.826,307.602 223.826,310.102 225.5,313C 227.424,314.267 229.09,314.267 230.5,313C 242.521,312.221 254.521,311.221 266.5,310C 265.5,309.667 264.5,309.333 263.5,309C 265.167,308.667 266.833,308.333 268.5,308C 266.881,307.764 265.881,306.931 265.5,305.5C 270.48,307.323 275.147,309.657 279.5,312.5C 279.082,313.222 278.416,313.722 277.5,314C 269.926,314.644 262.426,315.477 255,316.5C 250.901,315.094 246.901,315.427 243,317.5C 242,317.167 241,316.833 240,316.5C 227.365,318.331 214.699,319.998 202,321.5C 200.293,321.492 198.793,321.158 197.5,320.5C 204.132,314.514 211.465,309.514 219.5,305.5 Z"/></g>
<g><path style="opacity:1" fill="#85c1f6" d="M 359.5,328.5 C 360.889,325.393 362.555,322.393 364.5,319.5C 363.667,319.167 362.833,318.833 362,318.5C 357.592,320.914 353.092,321.08 348.5,319C 347.944,318.617 347.611,318.117 347.5,317.5C 356.654,311.66 365.82,305.66 375,299.5C 371.939,310.288 366.772,319.955 359.5,328.5 Z"/></g>
<g><path style="opacity:1" fill="#7bcbfd" d="M 279.5,312.5 C 282.877,314.175 286.211,315.842 289.5,317.5C 289.238,319.564 288.071,320.897 286,321.5C 285.333,320.833 284.667,320.167 284,319.5C 275.866,320.371 267.699,321.371 259.5,322.5C 258.167,322.167 256.833,321.833 255.5,321.5C 233.865,324.029 212.198,326.029 190.5,327.5C 188.279,327.561 187.946,326.895 189.5,325.5C 191.822,323.336 194.489,321.669 197.5,320.5C 198.793,321.158 200.293,321.492 202,321.5C 214.699,319.998 227.365,318.331 240,316.5C 241,316.833 242,317.167 243,317.5C 246.901,315.427 250.901,315.094 255,316.5C 262.426,315.477 269.926,314.644 277.5,314C 278.416,313.722 279.082,313.222 279.5,312.5 Z"/></g>
<g><path style="opacity:1" fill="#8ddffd" d="M 289.5,317.5 C 293.509,319.184 297.509,320.851 301.5,322.5C 298.442,326.029 294.442,328.029 289.5,328.5C 285.265,327.742 281.098,327.409 277,327.5C 275.874,328.944 274.374,329.61 272.5,329.5C 261.258,329.372 249.758,329.372 238,329.5C 232.839,330.06 227.673,330.56 222.5,331C 222.002,332.158 221.169,332.991 220,333.5C 216.571,333.776 213.071,333.443 209.5,332.5C 197.079,333.212 184.913,335.212 173,338.5C 170.98,337.968 170.147,336.635 170.5,334.5C 176.86,331.823 183.194,328.823 189.5,325.5C 187.946,326.895 188.279,327.561 190.5,327.5C 212.198,326.029 233.865,324.029 255.5,321.5C 256.833,321.833 258.167,322.167 259.5,322.5C 267.699,321.371 275.866,320.371 284,319.5C 284.667,320.167 285.333,320.833 286,321.5C 288.071,320.897 289.238,319.564 289.5,317.5 Z"/></g>
<g><path style="opacity:0.004" fill="#0d0e0d" d="M -0.5,325.5 C 6.23593,345.321 14.4026,364.654 24,383.5C 32.5336,397.923 42.0336,411.589 52.5,424.5C 50.629,424.141 49.129,423.141 48,421.5C 25.7899,394.082 9.62322,363.416 -0.5,329.5C -0.5,328.167 -0.5,326.833 -0.5,325.5 Z"/></g>
<g><path style="opacity:1" fill="#d45436" d="M 148.5,328.5 C 150.857,328.337 153.19,328.503 155.5,329C 169.167,339.5 182.833,350 196.5,360.5C 193.553,361.08 190.886,362.08 188.5,363.5C 186.629,363.859 185.129,364.859 184,366.5C 182.243,369.014 180.743,371.681 179.5,374.5C 168.186,361.351 156.686,348.351 145,335.5C 145.066,332.7 146.233,330.367 148.5,328.5 Z"/></g>
<g><path style="opacity:1" fill="#adecf2" d="M 301.5,322.5 C 305.771,323.818 310.105,324.985 314.5,326C 312.782,326.346 311.115,326.846 309.5,327.5C 308.051,326.383 306.384,325.716 304.5,325.5C 300.427,324.853 298.427,326.519 298.5,330.5C 301.833,330.5 305.167,330.5 308.5,330.5C 308.868,338.188 310.202,338.188 312.5,330.5C 313.298,330.957 313.631,331.624 313.5,332.5C 313.5,334.167 313.5,335.833 313.5,337.5C 309.766,337.677 306.099,337.344 302.5,336.5C 297.039,336.446 292.205,334.779 288,331.5C 286.941,331.63 286.108,332.13 285.5,333C 277.388,333.239 269.388,334.239 261.5,336C 255.639,336.72 249.806,336.554 244,335.5C 241.244,335.424 240.077,336.757 240.5,339.5C 231.805,339.327 223.138,339.66 214.5,340.5C 210.578,337.612 206.911,337.945 203.5,341.5C 195.865,340.429 188.199,340.429 180.5,341.5C 174.822,341.813 170.155,339.813 166.5,335.5C 167.833,335.167 169.167,334.833 170.5,334.5C 170.147,336.635 170.98,337.968 173,338.5C 184.913,335.212 197.079,333.212 209.5,332.5C 213.071,333.443 216.571,333.776 220,333.5C 221.169,332.991 222.002,332.158 222.5,331C 227.673,330.56 232.839,330.06 238,329.5C 249.758,329.372 261.258,329.372 272.5,329.5C 274.374,329.61 275.874,328.944 277,327.5C 281.098,327.409 285.265,327.742 289.5,328.5C 294.442,328.029 298.442,326.029 301.5,322.5 Z"/></g>
<g><path style="opacity:1" fill="#b4edf5" d="M 347.5,317.5 C 347.611,318.117 347.944,318.617 348.5,319C 353.092,321.08 357.592,320.914 362,318.5C 362.833,318.833 363.667,319.167 364.5,319.5C 362.555,322.393 360.889,325.393 359.5,328.5C 358.567,331.37 356.9,333.704 354.5,335.5C 353.432,334.566 352.099,334.232 350.5,334.5C 350.5,335.5 350.5,336.5 350.5,337.5C 344.833,337.5 339.167,337.5 333.5,337.5C 331.899,338.643 331.233,337.976 331.5,335.5C 331.796,333.015 333.129,331.348 335.5,330.5C 335.137,329.817 334.804,329.15 334.5,328.5C 334.721,327.265 335.388,326.265 336.5,325.5C 335.833,324.833 335.167,324.167 334.5,323.5C 338.411,320.744 342.745,318.744 347.5,317.5 Z"/></g>
<g><path style="opacity:1" fill="#d45436" d="M 127.5,336.5 C 137.034,350.392 146.7,364.225 156.5,378C 153.24,377.518 149.907,377.518 146.5,378C 143.271,380.741 139.938,383.241 136.5,385.5C 135.29,380.749 133.29,376.416 130.5,372.5C 128.622,366.413 125.955,360.746 122.5,355.5C 121.29,350.749 119.29,346.416 116.5,342.5C 116.238,341.022 116.571,339.689 117.5,338.5C 120.612,336.816 123.946,336.15 127.5,336.5 Z"/></g>
<g><path style="opacity:1" fill="#506d69" d="M 354.5,335.5 C 351.959,339.252 348.959,342.585 345.5,345.5C 346.389,343.264 347.722,341.264 349.5,339.5C 344.208,338.505 338.875,338.172 333.5,338.5C 333.5,338.167 333.5,337.833 333.5,337.5C 339.167,337.5 344.833,337.5 350.5,337.5C 350.5,336.5 350.5,335.5 350.5,334.5C 352.099,334.232 353.432,334.566 354.5,335.5 Z"/></g>
<g><path style="opacity:1" fill="#40482d" d="M 302.5,336.5 C 301.737,337.268 300.737,337.768 299.5,338C 293.086,338.207 286.753,338.707 280.5,339.5C 279.5,339.5 278.5,339.5 277.5,339.5C 277.5,338.5 277.5,337.5 277.5,336.5C 278.294,335.16 276.294,334.993 271.5,336C 270.643,336.689 269.977,337.522 269.5,338.5C 259.857,340.24 250.19,340.573 240.5,339.5C 240.077,336.757 241.244,335.424 244,335.5C 249.806,336.554 255.639,336.72 261.5,336C 269.388,334.239 277.388,333.239 285.5,333C 286.108,332.13 286.941,331.63 288,331.5C 292.205,334.779 297.039,336.446 302.5,336.5 Z"/></g>
<g><path style="opacity:1" fill="#a7a897" d="M 322.5,329.5 C 321.005,329.415 320.005,330.081 319.5,331.5C 321.766,332.716 323.766,334.216 325.5,336C 323.373,337.586 321.373,339.419 319.5,341.5C 322.058,342.225 324.392,342.225 326.5,341.5C 325.339,343.885 324.339,346.219 323.5,348.5C 321.228,347.559 319.228,346.226 317.5,344.5C 315.981,340.601 314.981,336.601 314.5,332.5C 316.088,328.571 318.755,327.571 322.5,329.5 Z"/></g>
<g><path style="opacity:1" fill="#5e4d58" d="M 119.5,335.5 C 122.385,335.194 125.052,335.527 127.5,336.5C 123.946,336.15 120.612,336.816 117.5,338.5C 116.571,339.689 116.238,341.022 116.5,342.5C 114.727,341.686 114.227,340.352 115,338.5C 116.652,337.601 118.152,336.601 119.5,335.5 Z"/></g>
<g><path style="opacity:1" fill="#6d7e5d" d="M 313.5,332.5 C 313.833,332.5 314.167,332.5 314.5,332.5C 314.5,334.5 314.5,336.5 314.5,338.5C 306.312,338.922 298.145,339.589 290,340.5C 286.648,340.498 283.482,340.165 280.5,339.5C 286.753,338.707 293.086,338.207 299.5,338C 300.737,337.768 301.737,337.268 302.5,336.5C 306.099,337.344 309.766,337.677 313.5,337.5C 313.5,335.833 313.5,334.167 313.5,332.5 Z"/></g>
<g><path style="opacity:1" fill="#375030" d="M 214.5,340.5 C 212.833,341.167 211.167,341.833 209.5,342.5C 208.127,342.343 206.793,342.51 205.5,343C 206.337,344.011 206.67,345.178 206.5,346.5C 204.857,346.52 203.524,345.853 202.5,344.5C 201.452,345.383 200.285,346.05 199,346.5C 198.241,345.354 197.574,344.354 197,343.5C 191.539,344.663 186.039,345.163 180.5,345C 176.506,343.54 176.506,342.373 180.5,341.5C 188.199,340.429 195.865,340.429 203.5,341.5C 206.911,337.945 210.578,337.612 214.5,340.5 Z"/></g>
<g><path style="opacity:1" fill="#425e23" d="M 314.5,332.5 C 314.981,336.601 315.981,340.601 317.5,344.5C 316.503,345.713 315.503,345.546 314.5,344C 304.322,343.401 294.155,343.901 284,345.5C 265.816,345.349 247.65,345.349 229.5,345.5C 230.263,344.732 231.263,344.232 232.5,344C 231.774,342.603 230.607,341.769 229,341.5C 226.425,343.202 223.591,344.536 220.5,345.5C 218.833,345.5 217.167,345.5 215.5,345.5C 215.5,344.5 215.5,343.5 215.5,342.5C 213.5,342.5 211.5,342.5 209.5,342.5C 211.167,341.833 212.833,341.167 214.5,340.5C 223.138,339.66 231.805,339.327 240.5,339.5C 250.19,340.573 259.857,340.24 269.5,338.5C 269.977,337.522 270.643,336.689 271.5,336C 276.294,334.993 278.294,335.16 277.5,336.5C 277.5,337.5 277.5,338.5 277.5,339.5C 278.5,339.5 279.5,339.5 280.5,339.5C 283.482,340.165 286.648,340.498 290,340.5C 298.145,339.589 306.312,338.922 314.5,338.5C 314.5,336.5 314.5,334.5 314.5,332.5 Z"/></g>
<g><path style="opacity:1" fill="#1f2516" d="M 229.5,345.5 C 226.609,346.403 223.609,346.736 220.5,346.5C 220.5,346.167 220.5,345.833 220.5,345.5C 223.591,344.536 226.425,343.202 229,341.5C 230.607,341.769 231.774,342.603 232.5,344C 231.263,344.232 230.263,344.732 229.5,345.5 Z"/></g>
<g><path style="opacity:1" fill="#a48060" d="M 334.5,328.5 C 334.804,329.15 335.137,329.817 335.5,330.5C 333.129,331.348 331.796,333.015 331.5,335.5C 331.233,337.976 331.899,338.643 333.5,337.5C 333.5,337.833 333.5,338.167 333.5,338.5C 333.172,340.391 332.505,341.891 331.5,343C 333.428,345.733 332.761,346.9 329.5,346.5C 328.904,348.398 328.904,350.065 329.5,351.5C 328.699,353.042 328.366,354.708 328.5,356.5C 328.5,357.167 328.167,357.5 327.5,357.5C 326.167,357.5 324.833,357.5 323.5,357.5C 323.46,354.575 324.293,351.909 326,349.5C 326.333,350.167 326.667,350.833 327,351.5C 326.927,345.869 328.094,340.535 330.5,335.5C 330.154,334.304 329.654,334.304 329,335.5C 328.536,334.906 328.369,334.239 328.5,333.5C 329.947,332.378 330.947,330.878 331.5,329C 332.448,328.517 333.448,328.351 334.5,328.5 Z"/></g>
<g><path style="opacity:1" fill="#73564e" d="M 148.5,328.5 C 146.233,330.367 145.066,332.7 145,335.5C 156.686,348.351 168.186,361.351 179.5,374.5C 180.743,371.681 182.243,369.014 184,366.5C 185.129,364.859 186.629,363.859 188.5,363.5C 187.5,364.833 186.5,366.167 185.5,367.5C 183.091,370.348 181.424,373.682 180.5,377.5C 177.737,375.202 174.57,373.868 171,373.5C 166.852,373.485 164.352,375.485 163.5,379.5C 162.325,380.974 161.325,382.64 160.5,384.5C 158.684,383.185 157.017,381.685 155.5,380C 151.586,377.82 147.919,378.154 144.5,381C 142.5,383 140.5,385 138.5,387C 137.184,387.528 136.517,387.028 136.5,385.5C 139.938,383.241 143.271,380.741 146.5,378C 149.907,377.518 153.24,377.518 156.5,378C 146.7,364.225 137.034,350.392 127.5,336.5C 128.5,336.5 129.5,336.5 130.5,336.5C 133.748,332.733 137.748,331.733 142.5,333.5C 143.905,331.093 145.905,329.426 148.5,328.5 Z"/></g>
<g><path style="opacity:1" fill="#d45436" d="M 130.5,336.5 C 134.31,334.69 138.31,334.19 142.5,335C 153.167,347 163.833,359 174.5,371C 168.194,370.805 163.861,373.638 161.5,379.5C 160.998,380.521 160.332,380.688 159.5,380C 149.586,365.6 139.919,351.1 130.5,336.5 Z"/></g>
<g><path style="opacity:1" fill="#4f711b" d="M 317.5,344.5 C 319.228,346.226 321.228,347.559 323.5,348.5C 323.737,349.791 323.404,350.791 322.5,351.5C 315.617,350.927 308.951,351.593 302.5,353.5C 281.518,352.563 260.518,351.563 239.5,350.5C 229.627,349.866 219.627,349.032 209.5,348C 213.356,347.823 217.023,347.323 220.5,346.5C 223.609,346.736 226.609,346.403 229.5,345.5C 247.65,345.349 265.816,345.349 284,345.5C 294.155,343.901 304.322,343.401 314.5,344C 315.503,345.546 316.503,345.713 317.5,344.5 Z"/></g>
<g><path style="opacity:1" fill="#828266" d="M 166.5,335.5 C 170.155,339.813 174.822,341.813 180.5,341.5C 176.506,342.373 176.506,343.54 180.5,345C 186.039,345.163 191.539,344.663 197,343.5C 197.574,344.354 198.241,345.354 199,346.5C 200.285,346.05 201.452,345.383 202.5,344.5C 203.524,345.853 204.857,346.52 206.5,346.5C 206.67,345.178 206.337,344.011 205.5,343C 206.793,342.51 208.127,342.343 209.5,342.5C 211.5,342.5 213.5,342.5 215.5,342.5C 215.5,343.5 215.5,344.5 215.5,345.5C 217.167,345.5 218.833,345.5 220.5,345.5C 220.5,345.833 220.5,346.167 220.5,346.5C 217.023,347.323 213.356,347.823 209.5,348C 219.627,349.032 229.627,349.866 239.5,350.5C 222.486,349.858 205.486,349.858 188.5,350.5C 193.455,354.119 198.122,358.119 202.5,362.5C 202.53,363.497 202.03,364.164 201,364.5C 196.999,362.198 192.833,361.865 188.5,363.5C 190.886,362.08 193.553,361.08 196.5,360.5C 182.833,350 169.167,339.5 155.5,329C 153.19,328.503 150.857,328.337 148.5,328.5C 148.611,327.883 148.944,327.383 149.5,327C 151.5,326.333 153.5,326.333 155.5,327C 159.043,330.049 162.709,332.882 166.5,335.5 Z"/></g>
<g><path style="opacity:1" fill="#674e4e" d="M 116.5,342.5 C 119.29,346.416 121.29,350.749 122.5,355.5C 119.71,351.584 117.71,347.251 116.5,342.5 Z"/></g>
<g><path style="opacity:1" fill="#46661e" d="M 333.5,338.5 C 338.875,338.172 344.208,338.505 349.5,339.5C 347.722,341.264 346.389,343.264 345.5,345.5C 342.553,346.781 340.219,348.781 338.5,351.5C 335.5,351.5 332.5,351.5 329.5,351.5C 328.904,350.065 328.904,348.398 329.5,346.5C 332.761,346.9 333.428,345.733 331.5,343C 332.505,341.891 333.172,340.391 333.5,338.5 Z"/></g>
<g><path style="opacity:1" fill="#3d7bb3" d="M 239.5,350.5 C 258.611,352.789 277.944,353.956 297.5,354C 297.818,356.042 297.985,358.209 298,360.5C 299.572,363.107 301.406,365.441 303.5,367.5C 304.306,368.728 305.306,369.728 306.5,370.5C 305.127,370.657 303.793,370.49 302.5,370C 298.773,365.14 293.773,362.64 287.5,362.5C 286.4,361.442 285.066,360.608 283.5,360C 284.16,356.5 282.493,355 278.5,355.5C 278.949,357.977 278.283,359.977 276.5,361.5C 275.5,360.167 274.5,360.167 273.5,361.5C 272.024,358.207 269.524,356.207 266,355.5C 265.547,357.755 264.214,359.089 262,359.5C 256.748,359.391 252.248,357.558 248.5,354C 247.333,353.833 246.167,353.667 245,353.5C 236.634,356.961 227.467,359.961 217.5,362.5C 214.6,361.557 212.267,359.89 210.5,357.5C 207.358,358.72 204.691,360.387 202.5,362.5C 198.122,358.119 193.455,354.119 188.5,350.5C 205.486,349.858 222.486,349.858 239.5,350.5 Z"/></g>
<g><path style="opacity:1" fill="#62879f" d="M 329.5,351.5 C 332.5,351.5 335.5,351.5 338.5,351.5C 336.47,354.182 333.803,355.849 330.5,356.5C 329.833,356.5 329.167,356.5 328.5,356.5C 328.366,354.708 328.699,353.042 329.5,351.5 Z"/></g>
<g><path style="opacity:1" fill="#39271c" d="M 322.5,329.5 C 324.272,331.29 326.272,332.623 328.5,333.5C 328.369,334.239 328.536,334.906 329,335.5C 329.654,334.304 330.154,334.304 330.5,335.5C 328.094,340.535 326.927,345.869 327,351.5C 326.667,350.833 326.333,350.167 326,349.5C 324.293,351.909 323.46,354.575 323.5,357.5C 324.833,357.5 326.167,357.5 327.5,357.5C 328.919,361.015 329.586,364.681 329.5,368.5C 328.508,368.328 327.842,368.662 327.5,369.5C 326.85,369.804 326.183,370.137 325.5,370.5C 323.008,368.508 320.341,366.841 317.5,365.5C 318.167,363.833 318.833,362.167 319.5,360.5C 320.363,358.579 321.029,356.579 321.5,354.5C 322.404,353.791 322.737,352.791 322.5,351.5C 323.404,350.791 323.737,349.791 323.5,348.5C 324.339,346.219 325.339,343.885 326.5,341.5C 324.392,342.225 322.058,342.225 319.5,341.5C 321.373,339.419 323.373,337.586 325.5,336C 323.766,334.216 321.766,332.716 319.5,331.5C 320.005,330.081 321.005,329.415 322.5,329.5 Z"/></g>
<g><path style="opacity:1" fill="#637568" d="M 239.5,350.5 C 260.518,351.563 281.518,352.563 302.5,353.5C 308.951,351.593 315.617,350.927 322.5,351.5C 322.737,352.791 322.404,353.791 321.5,354.5C 321.389,353.883 321.056,353.383 320.5,353C 315.845,352.501 311.179,352.334 306.5,352.5C 306.833,354.5 307.167,356.5 307.5,358.5C 305.856,358.286 304.356,358.62 303,359.5C 302.57,362.192 302.737,364.859 303.5,367.5C 301.406,365.441 299.572,363.107 298,360.5C 297.985,358.209 297.818,356.042 297.5,354C 277.944,353.956 258.611,352.789 239.5,350.5 Z"/></g>
<g><path style="opacity:1" fill="#a2a79e" d="M 321.5,354.5 C 321.029,356.579 320.363,358.579 319.5,360.5C 316.404,361.401 313.07,361.401 309.5,360.5C 308.808,363.77 308.808,367.103 309.5,370.5C 308.5,370.5 307.5,370.5 306.5,370.5C 305.306,369.728 304.306,368.728 303.5,367.5C 302.737,364.859 302.57,362.192 303,359.5C 304.356,358.62 305.856,358.286 307.5,358.5C 307.167,356.5 306.833,354.5 306.5,352.5C 311.179,352.334 315.845,352.501 320.5,353C 321.056,353.383 321.389,353.883 321.5,354.5 Z"/></g>
<g><path style="opacity:1" fill="#763e22" d="M 328.5,356.5 C 329.167,356.5 329.833,356.5 330.5,356.5C 331.287,358.104 332.62,358.771 334.5,358.5C 335.008,361.176 335.175,363.843 335,366.5C 333.662,369.082 331.829,369.749 329.5,368.5C 329.586,364.681 328.919,361.015 327.5,357.5C 328.167,357.5 328.5,357.167 328.5,356.5 Z"/></g>
<g><path style="opacity:1" fill="#2b65a8" d="M 287.5,362.5 C 286.542,362.953 285.708,363.619 285,364.5C 283.559,363.13 281.892,362.13 280,361.5C 278.701,362.98 277.034,363.646 275,363.5C 270.732,362.966 266.565,362.799 262.5,363C 263.833,363.333 265.167,363.667 266.5,364C 267.711,364.893 267.711,365.726 266.5,366.5C 263.895,364.942 261.562,365.275 259.5,367.5C 258.494,367.062 258.494,366.396 259.5,365.5C 258.758,364.713 257.925,364.047 257,363.5C 255.192,365.558 253.025,365.892 250.5,364.5C 249.835,360.14 247.168,358.14 242.5,358.5C 242.5,359.5 242.5,360.5 242.5,361.5C 239.461,363.289 236.128,364.289 232.5,364.5C 226.855,361.59 223.522,363.423 222.5,370C 218.416,369.838 214.916,371.005 212,373.5C 211.5,371.667 210.333,370.5 208.5,370C 210.376,368.983 212.376,368.149 214.5,367.5C 211.914,366.52 209.247,366.187 206.5,366.5C 206.714,368.144 206.38,369.644 205.5,371C 204.256,371.456 203.423,370.956 203,369.5C 202.5,370 202,370.5 201.5,371C 202.267,372.47 202.933,373.97 203.5,375.5C 197.234,373.365 191.234,370.699 185.5,367.5C 186.5,366.167 187.5,364.833 188.5,363.5C 192.833,361.865 196.999,362.198 201,364.5C 202.03,364.164 202.53,363.497 202.5,362.5C 204.691,360.387 207.358,358.72 210.5,357.5C 212.267,359.89 214.6,361.557 217.5,362.5C 227.467,359.961 236.634,356.961 245,353.5C 246.167,353.667 247.333,353.833 248.5,354C 252.248,357.558 256.748,359.391 262,359.5C 264.214,359.089 265.547,357.755 266,355.5C 269.524,356.207 272.024,358.207 273.5,361.5C 274.5,360.167 275.5,360.167 276.5,361.5C 278.283,359.977 278.949,357.977 278.5,355.5C 282.493,355 284.16,356.5 283.5,360C 285.066,360.608 286.4,361.442 287.5,362.5 Z"/></g>
<g><path style="opacity:1" fill="#a97a53" d="M 319.5,360.5 C 318.833,362.167 318.167,363.833 317.5,365.5C 315.039,367.153 312.872,369.153 311,371.5C 310.617,370.944 310.117,370.611 309.5,370.5C 308.808,367.103 308.808,363.77 309.5,360.5C 313.07,361.401 316.404,361.401 319.5,360.5 Z"/></g>
<g><path style="opacity:1" fill="#194f98" d="M 287.5,362.5 C 293.773,362.64 298.773,365.14 302.5,370C 303.793,370.49 305.127,370.657 306.5,370.5C 306.19,372.144 305.19,373.144 303.5,373.5C 301.105,372.186 298.605,372.186 296,373.5C 295.195,371.099 294.362,371.266 293.5,374C 294.706,375.018 294.373,375.518 292.5,375.5C 290.233,375.441 289.567,374.608 290.5,373C 285.826,372.566 281.159,372.066 276.5,371.5C 274.077,371.594 271.744,372.094 269.5,373C 268.167,373.667 268.167,374.333 269.5,375C 268.3,376.031 266.966,376.865 265.5,377.5C 261.643,376.577 257.809,375.577 254,374.5C 252.065,375.343 250.231,375.343 248.5,374.5C 249.025,373.808 249.692,373.308 250.5,373C 247.702,372.439 245.869,373.606 245,376.5C 244.804,374.714 243.971,373.381 242.5,372.5C 241.605,374.307 240.272,375.64 238.5,376.5C 236.431,376.176 236.098,375.342 237.5,374C 234.781,374.185 232.115,373.352 229.5,371.5C 225.037,373.8 220.704,376.3 216.5,379C 219.104,379.39 221.438,380.224 223.5,381.5C 216.446,380.479 209.779,378.479 203.5,375.5C 202.933,373.97 202.267,372.47 201.5,371C 202,370.5 202.5,370 203,369.5C 203.423,370.956 204.256,371.456 205.5,371C 206.38,369.644 206.714,368.144 206.5,366.5C 209.247,366.187 211.914,366.52 214.5,367.5C 212.376,368.149 210.376,368.983 208.5,370C 210.333,370.5 211.5,371.667 212,373.5C 214.916,371.005 218.416,369.838 222.5,370C 223.522,363.423 226.855,361.59 232.5,364.5C 236.128,364.289 239.461,363.289 242.5,361.5C 242.5,360.5 242.5,359.5 242.5,358.5C 247.168,358.14 249.835,360.14 250.5,364.5C 253.025,365.892 255.192,365.558 257,363.5C 257.925,364.047 258.758,364.713 259.5,365.5C 258.494,366.396 258.494,367.062 259.5,367.5C 261.562,365.275 263.895,364.942 266.5,366.5C 267.711,365.726 267.711,364.893 266.5,364C 265.167,363.667 263.833,363.333 262.5,363C 266.565,362.799 270.732,362.966 275,363.5C 277.034,363.646 278.701,362.98 280,361.5C 281.892,362.13 283.559,363.13 285,364.5C 285.708,363.619 286.542,362.953 287.5,362.5 Z"/></g>
<g><path style="opacity:1" fill="#a59788" d="M 317.5,365.5 C 320.341,366.841 323.008,368.508 325.5,370.5C 326.183,370.137 326.85,369.804 327.5,369.5C 325.365,371.369 322.698,372.036 319.5,371.5C 319.11,374.839 318.61,378.173 318,381.5C 316.513,382.741 315.68,382.241 315.5,380C 316.752,375.241 317.419,370.407 317.5,365.5 Z"/></g>
<g><path style="opacity:1" fill="#6b4f4d" d="M 122.5,355.5 C 125.955,360.746 128.622,366.413 130.5,372.5C 127.045,367.254 124.378,361.587 122.5,355.5 Z"/></g>
<g><path style="opacity:1" fill="#644e50" d="M 130.5,372.5 C 133.29,376.416 135.29,380.749 136.5,385.5C 133.71,381.584 131.71,377.251 130.5,372.5 Z"/></g>
<g><path style="opacity:1" fill="#0d357e" d="M 303.5,373.5 C 290.368,378.866 276.702,382.199 262.5,383.5C 251.484,383.583 240.484,383.249 229.5,382.5C 227.565,381.85 225.565,381.517 223.5,381.5C 221.438,380.224 219.104,379.39 216.5,379C 220.704,376.3 225.037,373.8 229.5,371.5C 232.115,373.352 234.781,374.185 237.5,374C 236.098,375.342 236.431,376.176 238.5,376.5C 240.272,375.64 241.605,374.307 242.5,372.5C 243.971,373.381 244.804,374.714 245,376.5C 245.869,373.606 247.702,372.439 250.5,373C 249.692,373.308 249.025,373.808 248.5,374.5C 250.231,375.343 252.065,375.343 254,374.5C 257.809,375.577 261.643,376.577 265.5,377.5C 266.966,376.865 268.3,376.031 269.5,375C 268.167,374.333 268.167,373.667 269.5,373C 271.744,372.094 274.077,371.594 276.5,371.5C 281.159,372.066 285.826,372.566 290.5,373C 289.567,374.608 290.233,375.441 292.5,375.5C 294.373,375.518 294.706,375.018 293.5,374C 294.362,371.266 295.195,371.099 296,373.5C 298.605,372.186 301.105,372.186 303.5,373.5 Z"/></g>
<g><path style="opacity:1" fill="#7182b9" d="M 229.5,382.5 C 240.484,383.249 251.484,383.583 262.5,383.5C 258.347,384.166 254.013,384.499 249.5,384.5C 242.602,384.654 235.936,383.987 229.5,382.5 Z"/></g>
<g><path style="opacity:1" fill="#f2f2fb" d="M 205.5,413.5 C 219.184,412.988 223.684,418.988 219,431.5C 215.318,435.015 211.818,438.682 208.5,442.5C 212.783,443.492 217.116,443.826 221.5,443.5C 221.5,445.5 221.5,447.5 221.5,449.5C 213.5,449.5 205.5,449.5 197.5,449.5C 198.092,446.309 199.259,443.309 201,440.5C 205.701,436.134 210.034,431.467 214,426.5C 215.167,421 213,418.833 207.5,420C 205.963,421.11 205.297,422.61 205.5,424.5C 203.167,424.5 200.833,424.5 198.5,424.5C 198.813,419.526 201.146,415.859 205.5,413.5 Z"/></g>
<g><path style="opacity:1" fill="#efeffb" d="M 233.5,413.5 C 241.933,412.629 247.1,416.295 249,424.5C 250.263,432.18 249.263,439.513 246,446.5C 245.097,447.701 243.931,448.535 242.5,449C 236.013,451.067 231.18,449.234 228,443.5C 226.494,436.567 226.161,429.567 227,422.5C 228.211,418.721 230.377,415.721 233.5,413.5 Z"/></g>
<g><path style="opacity:1" fill="#f2f3fb" d="M 265.5,413.5 C 267.5,413.5 269.5,413.5 271.5,413.5C 271.5,425.5 271.5,437.5 271.5,449.5C 269.167,449.5 266.833,449.5 264.5,449.5C 264.831,441.14 264.498,432.807 263.5,424.5C 261.048,426.393 258.381,427.726 255.5,428.5C 254.872,424.842 256.206,422.342 259.5,421C 262.118,418.894 264.118,416.394 265.5,413.5 Z"/></g>
<g><path style="opacity:1" fill="#f3f4fc" d="M 289.5,413.5 C 296.748,412.578 301.582,415.578 304,422.5C 305.032,430.331 304.365,437.998 302,445.5C 297.909,449.305 293.076,450.472 287.5,449C 284.366,446.612 282.533,443.446 282,439.5C 280.887,432.285 281.554,425.285 284,418.5C 285.73,416.598 287.563,414.931 289.5,413.5 Z"/></g>
<g><path style="opacity:1" fill="#131bc1" d="M 235.5,419.5 C 237.722,419.178 239.556,419.845 241,421.5C 241.667,428.167 241.667,434.833 241,441.5C 238.872,445.376 236.539,445.376 234,441.5C 233.333,435.167 233.333,428.833 234,422.5C 234.513,421.473 235.013,420.473 235.5,419.5 Z"/></g>
<g><path style="opacity:1" fill="#2123c3" d="M 291.5,419.5 C 293.903,419.393 295.736,420.393 297,422.5C 297.667,428.5 297.667,434.5 297,440.5C 294.333,445.833 291.667,445.833 289,440.5C 288.333,434.5 288.333,428.5 289,422.5C 290.045,421.627 290.878,420.627 291.5,419.5 Z"/></g>
<g><path style="opacity:0.004" fill="#0d0e0d" d="M 52.5,424.5 C 85.3455,459.596 124.679,484.596 170.5,499.5C 169.5,499.5 168.5,499.5 167.5,499.5C 131.826,488.165 99.8261,470.332 71.5,446C 64.1922,439.536 57.8589,432.369 52.5,424.5 Z"/></g>
</svg>
