<svg id="Layer_1" data-name="Layer 1" xmlns="http://www.w3.org/2000/svg" viewBox="0 0 500 500"><defs><style>.cls-1{fill:#110396;}.cls-2{fill:#fff;}</style></defs><title>Itabuna</title><path class="cls-1" d="M155.49,4.84c6.13,2.4,12,4.95,18.13,7a89.72,89.72,0,0,0,37.6,4.38A100.3,100.3,0,0,0,247.94,5.41a3.89,3.89,0,0,1,4,0A100.15,100.15,0,0,0,289.09,16.3c18.6,1.58,36.14-2.47,52.79-10.7.69-.34,1.37-.66,2.22-1.06,4.06,4.39,8.15,8.8,12.22,13.22q23.1,25.11,46.24,50.18c1.6,1.72,1.82,3,.94,5.2a155.46,155.46,0,0,0-10.08,34.47c-4.41,28.16,3.55,51.92,25.37,70.71A134.1,134.1,0,0,0,447.68,197c1.25.61,2.05,1.25,2.13,2.8.41,7.83,1.49,15.67,1.31,23.48-.84,36.51-10.85,70.91-25.06,104.22a345.17,345.17,0,0,1-49.69,82.78C351.2,441.21,321.55,466.6,285,483.33a186.66,186.66,0,0,1-33.51,11.78,6.55,6.55,0,0,1-3.08,0c-28.08-7.09-53.33-20-76.32-37.42-34-25.81-60.2-58.37-81.08-95.36a346.36,346.36,0,0,1-36.43-93.09,218.76,218.76,0,0,1-6-47.24c-.06-7.15.79-14.3,1.25-21.45.12-1.86,1-2.94,2.83-3.84,12.92-6.38,24.92-14.13,34.93-24.65C98.25,160.89,105,147.73,107,132.35a89.22,89.22,0,0,0-3-36c-2.33-8.24-5.31-16.3-8.1-24.41a2.53,2.53,0,0,1,.49-3q29-31.38,57.85-62.83C154.7,5.62,155.19,5.14,155.49,4.84ZM54.33,220.25a219.91,219.91,0,0,0,7,51.31c14.62,58,41.77,109.3,82.77,153a248.06,248.06,0,0,0,57.23,45.29c13.28,7.67,27.46,13.32,42.05,18,4.42,1.42,8.58,2,12.9,0a33.76,33.76,0,0,1,3.87-1.29C294,475.86,322.94,457,348.28,432.33a315.06,315.06,0,0,0,60.52-82.41c17.6-34.2,30.48-69.93,35.11-108.34a160,160,0,0,0,.46-37.43,3.6,3.6,0,0,0-2.23-3.24,132.53,132.53,0,0,1-28.42-19c-21.81-19.42-30.4-43.72-26.62-72.5,1.61-12.27,5.18-24,9.7-35.54a3.23,3.23,0,0,0-.71-4Q370,41.6,344,13.23a2.16,2.16,0,0,0-2.93-.64c-3.55,1.54-7.14,3.05-10.79,4.32a99.12,99.12,0,0,1-47,4.77A105,105,0,0,1,252,12a4.26,4.26,0,0,0-4-.07c-4.3,1.91-8.62,3.8-13.07,5.32a97.14,97.14,0,0,1-45.72,4.43,107.6,107.6,0,0,1-30.06-8.94c-1.17-.54-2-.86-3.17.37q-26.07,28.46-52.25,56.81a3.14,3.14,0,0,0-.78,3.6c2.91,9.19,6.07,18.33,8.33,27.68a85.84,85.84,0,0,1,1.06,35.86c-3.24,17.78-12.33,32.26-25.6,44.28A133.3,133.3,0,0,1,57.58,201a3,3,0,0,0-2,2.84C55.24,209.32,54.74,214.78,54.33,220.25Z"/><path class="cls-2" d="M54.33,220.25c.41-5.47.91-10.93,1.2-16.41a3,3,0,0,1,2-2.84,133.3,133.3,0,0,0,29.11-19.65c13.27-12,22.36-26.5,25.6-44.28a85.84,85.84,0,0,0-1.06-35.86c-2.26-9.35-5.42-18.49-8.33-27.68a3.14,3.14,0,0,1,.78-3.6q26.17-28.37,52.25-56.81c1.13-1.23,2-.91,3.17-.37a107.6,107.6,0,0,0,30.06,8.94,97.14,97.14,0,0,0,45.72-4.43c4.45-1.52,8.77-3.41,13.07-5.32a4.26,4.26,0,0,1,4,.07,105,105,0,0,0,31.23,9.67,99.12,99.12,0,0,0,47-4.77c3.65-1.27,7.24-2.78,10.79-4.32a2.16,2.16,0,0,1,2.93.64q26,28.35,52.12,56.61a3.23,3.23,0,0,1,.71,4c-4.52,11.49-8.09,23.27-9.7,35.54-3.78,28.78,4.81,53.08,26.62,72.5a132.53,132.53,0,0,0,28.42,19,3.6,3.6,0,0,1,2.23,3.24,160,160,0,0,1-.46,37.43C439.28,280,426.4,315.72,408.8,349.92a315.06,315.06,0,0,1-60.52,82.41C322.94,457,294,475.86,260.11,486.59a33.76,33.76,0,0,0-3.87,1.29c-4.32,2-8.48,1.43-12.9,0-14.59-4.69-28.77-10.34-42.05-18a248.06,248.06,0,0,1-57.23-45.29c-41-43.73-68.15-95-82.77-153A219.91,219.91,0,0,1,54.33,220.25ZM259.09,469.64c1.28-.38,2.15-.59,3-.89,23.57-8.49,44.49-21.46,63.48-37.67,22.34-19.07,40.63-41.64,56.29-66.34a323.2,323.2,0,0,0,39.67-91c5.05-19.16,8.26-38.58,7.68-58.5a5.08,5.08,0,0,0-3-4.91c-13.1-7.57-24.94-16.76-34.61-28.48-18.6-22.52-24.25-48.46-19.94-77a156.57,156.57,0,0,1,7-27.88,2.78,2.78,0,0,0-.68-3.24c-2.59-2.69-5.05-5.52-7.58-8.27-10.06-11-20.17-21.88-30.17-32.9-1.25-1.38-2.24-1.5-3.9-.9a115.23,115.23,0,0,1-38,6.95,115.09,115.09,0,0,1-36.67-5.61c-.76-.24-1.53-.44-2.48-.72v6.5c0,13.13,0,26.27,0,39.4,0,1.78-.44,2.47-2.3,2.33-2.13-.15-4.27,0-6.41,0H243v-49c-1,.31-1.7.52-2.41.76a117.31,117.31,0,0,1-37,6.39A113.45,113.45,0,0,1,164,31.83c-2.22-.8-3.36-.32-4.81,1.29-6.53,7.27-13.18,14.42-19.79,21.61C133.61,61,127.89,67.21,122.12,73.4a3.26,3.26,0,0,0-.85,3.87c1,2.48,1.69,5.06,2.43,7.61,4.86,16.7,7.32,33.61,4.93,51-2.77,20.21-11.69,37.33-25.73,51.92a134.17,134.17,0,0,1-29.84,22.88c-1.49.87-2.43,1.72-2.35,3.66.16,3.95,0,7.92.07,11.88A203.15,203.15,0,0,0,77,268.66a327.35,327.35,0,0,0,36,87.9c16.53,28.23,36.61,53.57,61.54,74.94A202.63,202.63,0,0,0,233,467c3.23,1.26,6.51,2.36,10.16,3.67v-51h15.94Z"/><path class="cls-1" d="M259.09,469.64v-50H243.15v51c-3.65-1.31-6.93-2.41-10.16-3.67a202.63,202.63,0,0,1-58.46-35.48c-24.93-21.37-45-46.71-61.54-74.94a327.35,327.35,0,0,1-36-87.9,203.15,203.15,0,0,1-6.25-42.41c-.12-4,.09-7.93-.07-11.88-.08-1.94.86-2.79,2.35-3.66a134.17,134.17,0,0,0,29.84-22.88c14-14.59,23-31.71,25.73-51.92,2.39-17.42-.07-34.33-4.93-51-.74-2.55-1.47-5.13-2.43-7.61a3.26,3.26,0,0,1,.85-3.87c5.77-6.19,11.49-12.44,17.23-18.67,6.61-7.19,13.26-14.34,19.79-21.61,1.45-1.61,2.59-2.09,4.81-1.29a113.45,113.45,0,0,0,39.66,6.84,117.31,117.31,0,0,0,37-6.39c.71-.24,1.43-.45,2.41-.76v49h7.43c2.14,0,4.28-.12,6.41,0,1.86.14,2.31-.55,2.3-2.33-.06-13.13,0-26.27,0-39.4v-6.5c.95.28,1.72.48,2.48.72a115.09,115.09,0,0,0,36.67,5.61,115.23,115.23,0,0,0,38-6.95c1.66-.6,2.65-.48,3.9.9,10,11,20.11,21.94,30.17,32.9,2.53,2.75,5,5.58,7.58,8.27a2.78,2.78,0,0,1,.68,3.24,156.57,156.57,0,0,0-7,27.88c-4.31,28.5,1.34,54.44,19.94,77,9.67,11.72,21.51,20.91,34.61,28.48a5.08,5.08,0,0,1,3,4.91c.58,19.92-2.63,39.34-7.68,58.5a323.2,323.2,0,0,1-39.67,91c-15.66,24.7-34,47.27-56.29,66.34-19,16.21-39.91,29.18-63.48,37.67C261.24,469.05,260.37,469.26,259.09,469.64ZM240.17,133.79a145.46,145.46,0,0,0-43.59,6.31c-30.05,9.46-53,27.62-67.55,55.8-11.78,22.86-15.38,47.18-11.52,72.58a112.11,112.11,0,0,0,26.73,58.18,110.75,110.75,0,0,0,48,31.9c24.55,8.48,49.72,9.31,75.18,5.84a271.71,271.71,0,0,0,55.7-14.13c3.66-1.32,7.34-2.56,11-3.8,1.77-.6,3,0,3.39,1.89a35.39,35.39,0,0,0,.83,3.56,85.69,85.69,0,0,0,3.72,10.48c1.53,3.16,3.84,3.29,6.45.87a14.38,14.38,0,0,0,2.85-3.25c2.39-4.15,4.85-8.29,6.86-12.63q11.83-25.62,23.34-51.39a27.78,27.78,0,0,0,2.09-8.34c.33-3.22-1.49-4.81-4.71-4.74a17.59,17.59,0,0,0-10.29,4q-10.41,7.85-20.56,16c-12.76,10.25-26.64,18.43-42.2,23.69-13.26,4.48-26.92,7.11-40.75,9-10,1.38-20,1.85-30,.17-26.74-4.44-46.26-18.73-58.39-42.86-9-17.82-11.47-36.84-8.8-56.51,3-21.94,12-40.83,29.18-55.26,15.91-13.34,34.72-18.71,55-17.78,12,.55,24,2.86,35.88,5.26,20.11,4.07,38.64,12,55,24.7,8.24,6.39,16.41,12.89,24.7,19.23,3.35,2.57,7.07,4.55,11.47,4.6,3,0,4.77-1.5,4.52-4.45a24.93,24.93,0,0,0-1.84-7.94q-13.52-29.87-27.37-59.58a31.47,31.47,0,0,0-5-7.36c-3.48-3.93-6.35-3.47-8.38,1.44a75.24,75.24,0,0,0-3.2,10.92c-.95,3.85-1.53,4.31-5.36,3-4.4-1.5-8.74-3.15-13.13-4.67C294,139.74,268,133.92,240.17,133.79ZM262.3,242.25v-74.4a80.44,80.44,0,0,0-22.31-.64c-2,.22-2.62.9-2.61,2.95.09,18.48.05,37,.05,55.43,0,4.74,0,9.47,0,14.2,0,1.36-.38,1.84-1.81,1.88-5.07.16-8.7-2.15-11.51-6.19a16.29,16.29,0,0,1,7.79-25c.42-.15,1-.61,1-.94.07-3.93.05-7.86.05-12.15-13.64.44-26.9.83-40.17,1.35A15.94,15.94,0,0,0,188,200c-3.45,1.29-4.37,3.74-2.37,6.83a28.17,28.17,0,0,0,4.61,5.33,4,4,0,0,1,1.52,3.3c0,23.05,0,46.11-.09,69.17a6.24,6.24,0,0,1-1.43,3.3c-1.49,2-3.47,3.68-4.76,5.78-1.76,2.86-.89,5.12,2.29,6.33a20.48,20.48,0,0,0,6,1.32q11.19.63,22.41.9c5.54.14,11.09,0,16.88,0,0-3.8,0-7.6-.06-11.39a1.84,1.84,0,0,0-1.15-1.33c-5.86-1.1-8.41-5.29-9.95-10.45-2-6.75-.17-12.51,4.68-17.36,3-3,6.67-3.65,11-2.81v73.52a71.53,71.53,0,0,0,25-.3V258.67c2.05,0,3.87,0,5.69,0,14.49.31,29,.81,43.47.86a76.26,76.26,0,0,0,14.47-1.8c3.5-.68,4.71-3.14,3.69-6.56a21,21,0,0,0-2.27-5.21c-4.55-7.15-10.77-12.82-16.81-18.64a6.61,6.61,0,0,0-1.54-1c-2.33-1.2-4.13-.46-4.1,2.15a15,15,0,0,0,1.71,6.43c2.22,4.32,1.71,5.73-3,6.51a12.42,12.42,0,0,1-1.81.22c-8.32.21-16.63.44-24.94.58C272.27,242.32,267.48,242.25,262.3,242.25ZM290.16,83.31H209.82v21.47c5.54,0,10.87,0,16.2,0,5.92,0,10.51,3.84,11.11,9.66.38,3.78.23,7.62.3,11.42,0,1.42,0,2.84,0,4.22l24.8,1.11a2.73,2.73,0,0,0,.14-.59c0-4.65,0-9.3,0-14,.08-7.24,4.74-11.86,11.92-11.86h15.83ZM209.74,416.77h80.42V399.9c-.94,0-1.75,0-2.57,0-4.81,0-9.62,0-14.42,0A10.46,10.46,0,0,1,262.8,391a69.28,69.28,0,0,1-.38-9.12c-.06-4.33,0-8.66,0-13l-25,1.21c0,5.92,0,11.79,0,17.66,0,4.46-1.39,8.4-5.51,10.57a15.72,15.72,0,0,1-6.54,1.56c-5.16.22-10.33.07-15.64.07ZM267,208.36c6.94.6,13.77,1.06,20.57,1.82,11.82,1.32,23.5,3.32,34.86,7.09,6.78,2.25,13.69,4.14,20.62,5.92,3.85,1,5.66-1,4.09-4.65-1.67-3.86-3.55-7.87-6.27-11-8.25-9.45-18.71-16.26-29.2-22.93A77,77,0,0,0,303,180a3.48,3.48,0,0,0-3.1.27,3.38,3.38,0,0,0-.51,3c.93,2.28,2.29,4.39,3.42,6.6.7,1.36,1.31,2.77,1.95,4.15-1.41.62-2.82,1.26-4.25,1.84a3.57,3.57,0,0,1-1.14.09l-28.36.85c-1.35,0-2.69.12-4,.19Zm-.13,83.21c0,3.28.12,6.33,0,9.36-.1,1.92.65,2.25,2.37,2.27,8.16.09,16.32.24,24.48.51a62.7,62.7,0,0,1,9.07,1c2.36.44,2.75,1.82,1.41,3.85-.37.57-1,1-1.28,1.6a54.09,54.09,0,0,0-3.55,7.05c-.88,2.44.75,3.93,3.19,3.11a25,25,0,0,0,5-2.24,188.54,188.54,0,0,0,29.92-21.69,33.35,33.35,0,0,0,9.9-15.1c1-3.39-.5-5.16-3.94-4.37a135.67,135.67,0,0,0-15.63,4.17c-16,5.76-32.53,8.4-49.35,9.75C274.59,291.1,270.81,291.31,266.84,291.57Z"/><path class="cls-2" d="M240.17,133.79c27.87.13,53.86,6,79.29,14.71,4.39,1.52,8.73,3.17,13.13,4.67,3.83,1.3,4.41.84,5.36-3a75.24,75.24,0,0,1,3.2-10.92c2-4.91,4.9-5.37,8.38-1.44a31.47,31.47,0,0,1,5,7.36q13.84,29.72,27.37,59.58a24.93,24.93,0,0,1,1.84,7.94c.25,2.95-1.52,4.49-4.52,4.45-4.4,0-8.12-2-11.47-4.6-8.29-6.34-16.46-12.84-24.7-19.23-16.33-12.67-34.86-20.63-55-24.7-11.84-2.4-23.86-4.71-35.88-5.26-20.31-.93-39.12,4.44-55,17.78-17.2,14.43-26.19,33.32-29.18,55.26-2.67,19.67-.16,38.69,8.8,56.51,12.13,24.13,31.65,38.42,58.39,42.86,10.06,1.68,20,1.21,30-.17,13.83-1.9,27.49-4.53,40.75-9,15.56-5.26,29.44-13.44,42.2-23.69q10.14-8.16,20.56-16a17.59,17.59,0,0,1,10.29-4c3.22-.07,5,1.52,4.71,4.74a27.78,27.78,0,0,1-2.09,8.34q-11.5,25.77-23.34,51.39c-2,4.34-4.47,8.48-6.86,12.63a14.38,14.38,0,0,1-2.85,3.25c-2.61,2.42-4.92,2.29-6.45-.87a85.69,85.69,0,0,1-3.72-10.48,35.39,35.39,0,0,1-.83-3.56c-.41-1.93-1.62-2.49-3.39-1.89-3.68,1.24-7.36,2.48-11,3.8a271.71,271.71,0,0,1-55.7,14.13c-25.46,3.47-50.63,2.64-75.18-5.84a110.75,110.75,0,0,1-48-31.9,112.11,112.11,0,0,1-26.73-58.18c-3.86-25.4-.26-49.72,11.52-72.58,14.51-28.18,37.5-46.34,67.55-55.8A145.46,145.46,0,0,1,240.17,133.79Z"/><path class="cls-2" d="M262.3,242.25c5.18,0,10,.07,14.76,0,8.31-.14,16.62-.37,24.94-.58a12.42,12.42,0,0,0,1.81-.22c4.71-.78,5.22-2.19,3-6.51a15,15,0,0,1-1.71-6.43c0-2.61,1.77-3.35,4.1-2.15a6.61,6.61,0,0,1,1.54,1c6,5.82,12.26,11.49,16.81,18.64a21,21,0,0,1,2.27,5.21c1,3.42-.19,5.88-3.69,6.56a76.26,76.26,0,0,1-14.47,1.8c-14.49-.05-29-.55-43.47-.86-1.82,0-3.64,0-5.69,0v73.45a71.53,71.53,0,0,1-25,.3V258.9c-4.31-.84-8-.16-11,2.81-4.85,4.85-6.69,10.61-4.68,17.36,1.54,5.16,4.09,9.35,9.95,10.45a1.84,1.84,0,0,1,1.15,1.33c.1,3.79.06,7.59.06,11.39-5.79,0-11.34.11-16.88,0q-11.2-.27-22.41-.9a20.48,20.48,0,0,1-6-1.32c-3.18-1.21-4.05-3.47-2.29-6.33,1.29-2.1,3.27-3.78,4.76-5.78a6.24,6.24,0,0,0,1.43-3.3c.08-23.06,0-46.12.09-69.17a4,4,0,0,0-1.52-3.3,28.17,28.17,0,0,1-4.61-5.33c-2-3.09-1.08-5.54,2.37-6.83a15.94,15.94,0,0,1,4.85-1.18c13.27-.52,26.53-.91,40.17-1.35,0,4.29,0,8.22-.05,12.15,0,.33-.61.79-1,.94a16.29,16.29,0,0,0-7.79,25c2.81,4,6.44,6.35,11.51,6.19,1.43,0,1.83-.52,1.81-1.88,0-4.73,0-9.46,0-14.2,0-18.47,0-37-.05-55.43,0-2,.62-2.73,2.61-2.95a80.44,80.44,0,0,1,22.31.64Z"/><path class="cls-2" d="M290.16,83.31v21.46H274.33c-7.18,0-11.84,4.62-11.92,11.86,0,4.66,0,9.31,0,14a2.73,2.73,0,0,1-.14.59l-24.8-1.11c0-1.38,0-2.8,0-4.22-.07-3.8.08-7.64-.3-11.42-.6-5.82-5.19-9.65-11.11-9.66-5.33,0-10.66,0-16.2,0V83.31Z"/><path class="cls-2" d="M209.74,416.77V399.9c5.31,0,10.48.15,15.64-.07a15.72,15.72,0,0,0,6.54-1.56c4.12-2.17,5.49-6.11,5.51-10.57,0-5.87,0-11.74,0-17.66l25-1.21c0,4.34-.05,8.67,0,13a69.28,69.28,0,0,0,.38,9.12,10.46,10.46,0,0,0,10.37,8.9c4.8.09,9.61,0,14.42,0,.82,0,1.63,0,2.57,0v16.87Z"/><path class="cls-2" d="M267,208.36V197c1.36-.07,2.7-.15,4-.19l28.36-.85a3.57,3.57,0,0,0,1.14-.09c1.43-.58,2.84-1.22,4.25-1.84-.64-1.38-1.25-2.79-1.95-4.15-1.13-2.21-2.49-4.32-3.42-6.6a3.38,3.38,0,0,1,.51-3A3.48,3.48,0,0,1,303,180a77,77,0,0,1,8.63,4.64c10.49,6.67,20.95,13.48,29.2,22.93,2.72,3.13,4.6,7.14,6.27,11,1.57,3.65-.24,5.64-4.09,4.65-6.93-1.78-13.84-3.67-20.62-5.92-11.36-3.77-23-5.77-34.86-7.09C280.74,209.42,273.91,209,267,208.36Z"/><path class="cls-2" d="M266.84,291.57c4-.26,7.75-.47,11.53-.77,16.82-1.35,33.37-4,49.35-9.75a135.67,135.67,0,0,1,15.63-4.17c3.44-.79,5,1,3.94,4.37a33.35,33.35,0,0,1-9.9,15.1A188.54,188.54,0,0,1,307.47,318a25,25,0,0,1-5,2.24c-2.44.82-4.07-.67-3.19-3.11a54.09,54.09,0,0,1,3.55-7.05c.32-.59.91-1,1.28-1.6,1.34-2,.95-3.41-1.41-3.85a62.7,62.7,0,0,0-9.07-1c-8.16-.27-16.32-.42-24.48-.51-1.72,0-2.47-.35-2.37-2.27C267,297.9,266.84,294.85,266.84,291.57Z"/></svg>