<?xml version="1.0" encoding="utf-8"?>
<!-- Generator: Adobe Illustrator 28.0.0, SVG Export Plug-In . SVG Version: 6.00 Build 0)  -->
<svg version="1.1" id="Layer_1" xmlns="http://www.w3.org/2000/svg" xmlns:xlink="http://www.w3.org/1999/xlink" x="0px" y="0px"
	 viewBox="0 0 800 800" style="enable-background:new 0 0 800 800;" xml:space="preserve">
<style type="text/css">
	.st0{fill:#FFFFFF;}
	.st1{fill:#1B1D69;}
	.st2{fill:#1E2073;}
	.st3{fill:#FEB006;}
	.st4{fill:#1E1F70;}
	.st5{fill:#C1252D;}
	.st6{fill:#FDFDFD;}
</style>
<g>
	<g>
		<path class="st0" d="M666.4,621.4L666.4,621.4c0-1.6,0-3,0-4.5c0-118.5,0-236.9,0-355.4c0-0.3,0-0.6,0-0.9c0-0.2,0-0.3,0-0.5
			c0-1.3,0.2-2.5-0.4-3.7c0.1-1.9,0.3-3.8,0.3-5.6c0-50.7,0-101.4,0-152.1c0-6.7,0-6.6-6.6-7.6c-48.2-7.4-94.3-21-137.5-44
			c-19.1-10.1-38.6-19.3-59-26.6c-37-13.3-74.5-17-113-7c-28.1,7.3-54.4,19-79.9,32.5c-43.5,23-89.4,38.3-138.2,44.6
			c-5.3,0.7-6.5,2.2-6.5,7.4c0.1,173.9,0.1,347.8,0.1,521.7c0,8,1.8,15.3,5.3,22.3c7,14.3,17.6,25.7,29.4,36.2
			c26.2,23.2,56.5,39.4,88.6,52.8c8.7,4.2,17.6,7.8,26.6,11.2c8,4.1,16.4,7,24.7,10.3c8.6,4.2,17.6,7.4,26.4,10.9
			c10.4,4.4,20.9,8.7,31.3,13.1c8.2,3.5,16.4,7.1,24.5,10.6c2.3,1.2,4.8,2.1,7,3.5c4.1,2.6,7.9,2.2,12.3,0.4
			c49.6-20.4,99.4-40.3,148.3-62.3c33.2-15,64.7-32.9,90.2-59.7c2-2.1,4.3-4.1,6.1-6.4c8.8-10.7,16.4-22.1,19.6-35.8
			C666.8,624.9,666.4,623.1,666.4,621.4z"/>
		<path class="st1" d="M395.6,797.4c-2.7,0-5.7-0.7-8.7-2.6c-1.1-0.7-2.4-1.3-3.7-1.9c-0.9-0.4-1.8-0.8-2.8-1.3
			c-2.9-1.2-5.8-2.5-8.6-3.8c-5.2-2.3-10.4-4.5-15.7-6.8c-5.2-2.2-10.4-4.4-15.7-6.6c-5.2-2.2-10.4-4.3-15.6-6.5
			c-2.1-0.8-4.3-1.7-6.4-2.5c-6.6-2.6-13.5-5.2-20.1-8.4c-2-0.8-3.9-1.5-5.9-2.3c-6.2-2.4-12.6-4.9-18.8-8
			c-10.8-4.1-19-7.5-26.6-11.2c-37.9-15.8-66.4-32.9-89.9-53.6c-10-8.9-22.5-21.2-30.6-37.7c-3.9-7.8-5.8-15.8-5.8-24.5
			c0-171,0-347.8-0.1-521.7c0-7.8,3.1-11.3,10.8-12.4c46.7-6,92.6-20.9,136.5-44.1c30.1-15.9,55.8-26.4,81-32.9
			c37.5-9.8,75.5-7.4,115.9,7.1c18.6,6.6,37.5,15.2,59.6,26.9c40.2,21.4,84.6,35.6,135.9,43.5l0.3,0c8.8,1.3,10.6,3.4,10.6,12.5
			v152.1c0,1.4-0.1,2.7-0.2,4c0,0.3,0,0.6-0.1,0.9c0.4,1.5,0.4,2.9,0.4,3.8c0,0.2,0,0.4,0,0.6v361.3c0,0.3,0,0.7,0,1
			c0.1,1.5,0.2,3.6-0.7,5.9c-3.7,15.6-12.9,28.2-20.5,37.4c-1.4,1.8-2.9,3.3-4.4,4.8c-0.7,0.7-1.3,1.3-2,2
			c-28.6,30.1-64.1,48.3-91.8,60.8c-39.7,17.8-80.5,34.6-120,50.7c-9.5,3.9-18.9,7.8-28.4,11.6C401.5,796.5,398.7,797.4,395.6,797.4
			z M130.7,96c-0.1,0.3-0.1,0.9-0.1,2c0.1,173.9,0.1,350.7,0.1,521.7c0,7.1,1.6,13.6,4.8,20.1c5.7,11.7,14.4,22.4,28.3,34.7
			c22.6,20,50.3,36.5,87.2,51.9l0.2,0.1c7.4,3.6,15.5,7,26.2,11l0.5,0.2c5.8,3,11.8,5.3,18.1,7.7c2.1,0.8,4.1,1.6,6.2,2.4l0.3,0.2
			c6.3,3.1,13,5.7,19.5,8.2c2.2,0.9,4.4,1.7,6.6,2.6l0.1,0c5.2,2.2,10.4,4.4,15.6,6.5c5.3,2.2,10.5,4.4,15.7,6.6
			c5.3,2.2,10.5,4.5,15.7,6.8c2.9,1.3,5.9,2.6,8.8,3.8l0.3,0.2c0.8,0.4,1.6,0.8,2.5,1.2c1.6,0.7,3.3,1.5,4.9,2.5
			c2,1.2,3.8,1.6,7.7,0c9.5-3.9,18.9-7.8,28.4-11.6c39.4-16.1,80.2-32.8,119.7-50.6c26.9-12.1,61.2-29.8,88.6-58.6
			c0.7-0.7,1.4-1.5,2.2-2.2c1.3-1.3,2.6-2.6,3.6-3.8l0.1-0.1c7.4-9,15.4-20,18.6-33.8l0.1-0.4l0.2-0.4c0.2-0.4,0.1-1.1,0.1-1.9
			c0-0.5-0.1-1-0.1-1.6V260.1c0-0.3,0-0.6,0-0.9c0-0.2,0-0.5,0-0.7l-0.5-1l0.1-1.3c0-0.7,0.1-1.4,0.1-2c0.1-1.2,0.2-2.3,0.2-3.3
			V98.7c0-0.8,0-1.6,0-2.3c-0.6-0.1-1.4-0.2-2-0.3l-0.3,0C606.5,88,561,73.4,519.9,51.5c-21.7-11.5-40.2-19.8-58.3-26.3
			C423,11.4,387,9.1,351.5,18.3C327,24.7,302,34.9,272.6,50.4c-45,23.8-92,39-139.9,45.1C131.6,95.7,131,95.9,130.7,96z"/>
	</g>
	<g>
		<path class="st2" d="M296.8,462.8c2.8-10.9,5.6-20.7,7.8-30.7c0.7-3.2,2.1-4,5.1-3.8c5.4,0.2,10.7,0.1,16.1,0c2,0,2.8,0.5,2.7,2.6
			c-0.1,17.2,0.6,34.5-0.4,51.6c-0.3,5.8-6.9,1.3-10.4,2.5c-2.3,0.8-3.6-0.2-3.6-3.1c0.2-12.5,0.1-24.9-0.6-37.5
			c-3,11.7-5.9,23.4-9,35c-0.5,1.9,0.2,5.1-2.6,5.5c-3.7,0.5-7.6,0.2-11.3-0.2c-1.2-0.1-1-2.1-1.3-3.3c-3.2-12.3-6.3-24.6-10.2-36.8
			c0,12.1-0.2,24.2,0.1,36.2c0.1,3.6-0.9,4.4-4.4,4.4c-9.9-0.2-9.9,0-9.9-10.2c0-14.4,0.1-28.7-0.1-43.1c0-2.8,0.5-3.9,3.6-3.7
			c5.4,0.3,10.7,0.2,16.1,0c2.5-0.1,3.6,0.7,4.2,3.2C291.2,441.6,293.9,451.7,296.8,462.8z"/>
	</g>
	<g>
		<path class="st2" d="M481.1,452.7c0-8.1,0.2-16.1-0.1-24.2c-0.1-3.4,1-4.2,4.2-4.1c7.9,0.2,15.8,0,23.7,0.1
			c13.2,0.3,21,7.2,23.5,20.2c0.8,4.4,0.9,8.8,0.6,13.2c-1.1,14.1-9.2,22.4-23.2,23.3c-8.7,0.5-17.4,0.1-26,0.2
			c-2.6,0.1-2.7-1.2-2.7-3.2C481.2,469.8,481.1,461.3,481.1,452.7z"/>
	</g>
	<g>
		<path class="st0" d="M494.4,453.1c0-4,0.1-7.9,0-11.9c-0.1-1.7,0.5-2.1,2.1-2c3.9,0.1,7.8,0,11.7,0.1c6.5,0.1,10.4,3.5,11.6,9.9
			c0.4,2.2,0.5,4.3,0.3,6.5c-0.6,6.9-4.5,11-11.4,11.4c-4.3,0.2-8.5,0-12.8,0.1c-1.3,0-1.3-0.6-1.3-1.6
			C494.4,461.5,494.4,457.3,494.4,453.1z"/>
	</g>
	<g>
		<path class="st2" d="M487.4,298.4c0-7.4,0.2-14.7-0.1-22.1c-0.1-3.8,0.7-5.2,4.8-5.1c10.5,0.3,10.5,0.1,10.5,10.7
			c0,12.5-0.1,24.9,0.1,37.4c0,3.2-1,3.6-4,4c-8.3,1.1-13.8-1.5-17.8-9.1c-3.4-6.5-8.1-12.2-13.1-19.5c0,9.2-0.1,17.1,0.1,24.8
			c0.1,2.9-0.7,3.7-3.6,3.7c-11.6,0-11.6,0.1-11.6-11.3c0-12.3,0.1-24.6-0.1-36.9c0-2.8,0.8-3.4,3.6-3.8c8.3-1.2,13.8,1.5,17.8,9.1
			c3.4,6.5,8.2,12.2,12.4,18.3C486.8,298.5,487.1,298.5,487.4,298.4z"/>
	</g>
	<g>
		<path class="st3" d="M356.8,76.2c8.8,0,17.5-0.2,26.3,0.1c2.9,0.1,4.2-0.8,5-3.5c2.5-8,5.3-15.8,8.4-25c2.6,7.5,4.8,13.9,7,20.3
			c2.8,8.1,2.7,8.1,11.1,8.1c7.3,0,14.5,0,22,0c-0.2,2-2,2.3-3.1,3.1c-5.7,4-11.3,8-17.2,11.7c-3,1.9-3.9,3.7-2.5,7.2
			c2.9,7.4,5.3,15.1,7.1,23.2c-6.9-4.8-14-9.5-20.8-14.5c-2.6-1.9-4.4-1.9-7,0c-6.9,5.1-14.1,9.8-22.1,15.4
			c3.1-8.9,5.7-16.8,8.6-24.6c1.2-3.1,0.5-4.7-2.2-6.4c-7.1-4.6-13.9-9.5-20.9-14.3C356.5,76.8,356.7,76.5,356.8,76.2z"/>
	</g>
	<g>
		<path class="st2" d="M318.2,325.1c-9.8,0.2-19.1-3.3-23.7-14.1c-4.8-11.5-4.5-23.1,3-33.7c8.1-11.4,37.6-13.9,45,4.8
			c1.1,2.7,0.9,4-2.2,4.3c-1.7,0.1-3.4,0.6-5.1,1.1c-3.4,0.9-5.8,1.7-8.5-2.6c-3.9-6.4-14.5-4.3-17.1,3.1
			c-2.1,6.1-1.9,12.5,0.1,18.6c1.3,4.1,4.7,5.8,8.8,5.9c4.6,0.1,8.3-1.8,9.5-6.2c1.1-4,2.9-4.6,6.3-2.9c0.8,0.4,1.8,0.6,2.7,0.9
			c8,2.4,8.3,3.2,3.8,10.6C336.1,322.7,328.4,325.1,318.2,325.1z"/>
	</g>
	<g>
		<g>
			<path class="st4" d="M603.2,450.3c-1.1-0.6-1.3,0.3-1.7,0.9c-3.2,15.6-9.7,29.5-20.2,41.5c-5.4,6.2-11.5,11.7-18.2,16.4
				c-2.3,1.6-3.5,2.6-0.5,4.9c4,3.2,5.7,7.8,5.8,12.9c0.1,6.6-1.6,12.7-5.4,18.2c-7.7,10.9-16.5,20.6-27.4,28.5
				c-0.4,2.9,1.9,3.9,3.6,5.4c5.1,4.1,9.3,9.2,14.2,13.5c1.3,1.1,2.3,2.6,4.3,2.1c2.5-1.8,5.6-3,6.6-6.3c4.1-4.3,8.4-8.5,12.2-13.1
				c8.4-9.9,14.6-21.1,19.8-33.8c3.2,6.9,6.1,13.1,9.3,20.1c3.5-12.3,5.4-24.1,6.1-36C613.4,500,609.7,474.9,603.2,450.3z"/>
		</g>
		<g>
			<path class="st4" d="M257.3,571.5c-11.4-8.9-21.4-19.2-29.7-31c-6.8-9.7-8.8-25.1,3-32.1c-23.4-20.4-31.6-32.8-41-62.4
				c-9.9,17.4-13.2,92.8-4.6,107.6c2.5-4.6,4.3-9.5,7.7-13.6c1.5-1.8,2.8-2.5,4,0.4c1.1,2.4,2.5,4.7,3.8,7.1
				c9.2,16.6,19.2,32.7,34.1,44.9c1.7,0.5,2.5-0.9,3.6-1.6c5.9-4.2,10.4-10,15.8-14.7C255.4,574.7,257.9,574.2,257.3,571.5z"/>
		</g>
		<g>
			<path class="st4" d="M371.3,448.2c-0.3-0.1-0.7-0.2-1-0.3c-0.8,6.2-1.2,12.5-1,18.8c2.2-1.8,4.4-3.6,6.6-5.4
				c4.2-4.8,4.2-4.8-0.6-9.2C373.9,450.9,372.2,450,371.3,448.2z"/>
		</g>
		<g>
			<path class="st4" d="M414.8,461.7c0.9,0.5,1.7,1,2.6,1.5c-0.1-4-0.2-8.1-0.4-12.1C409.5,456.6,409.4,457,414.8,461.7z"/>
		</g>
		<g>
			<path class="st4" d="M533.8,601.2c-4.7-5.2-10.5-9.2-15.4-14.3c-1.1-1.1-2.4-2.1-4-2c-1.9,0.1-3.6,1.2-5.3,1.9
				c-18.6,7.2-36.5,6.1-53.2-5.3c-9.3-6.4-16.1-15-22.2-24.4c-7.1-10.9-12.9-22.2-13.4-35.9c-0.4-9.3,0.1-18.6-1.7-27.8
				c-0.4-2.1-1.9-3.6-3.4-5c-3.2-2.7-6.5-5.4-9.4-8.5c-2.4-2.3-4.7-4.6-7-6.9s-4.6-2.3-7,0c-2,1.9-4,4-6,5.9
				c-6.6,6-13.2,12-19.3,18.5c-0.6,0.8-1,1.6-1.2,2.6c0,9.2-1.4,18.2-3.2,27.2c-3.4,17-8.8,33.3-20.8,46.4
				c-10.6,11.6-23.7,17.1-39.7,15.8c-8.3-0.7-16-3.3-23.7-6.2c-1.5-0.1-2.7,0.6-3.7,1.6c-3.6,3.8-8,6.7-11.6,10.6
				c-2.6,3.5-7,5.4-8.2,10c10.1,6.2,21.1,10.4,32.5,13.7c9.7,2.8,19.3,5.7,28.9,8.4c27.1,7.7,48.2,23.8,64.8,46.2
				c1.6,1.9,3.1,3.8,4.7,5.7c0,0.3,0,0.6,0,1c1.8,1.5,2.9,3.6,3.8,5.7c0.9,1.7,1.9,3.4,2.8,5c1.4,2.1,2.7,2.7,3.9-0.2
				c0.3-0.8,1.1-1.5,1.7-2.2c1.2-0.5,1.9-1.6,2.6-2.6c1.4-2.3,3-4.5,4.7-6.5c1.9-2.7,3.2-5.9,5.7-8.3c1.2-2.4,3.8-3.9,4.8-6.5h0.1
				c0.5,0,0.9-0.1,1.3-0.2c3.8-2.8,6.8-6.5,10.5-9.6c9.7-9.4,21.2-16.3,33.5-21.8c11.7-5.3,24.3-7.8,36.6-10.9
				c10-2.6,20-5.2,29.6-9.3c3.7-1.6,7.7-2.7,10.4-6.1C537.7,604.2,535.2,603,533.8,601.2z"/>
		</g>
		<g>
			<path class="st4" d="M335.9,252.5c-0.1,3,0.6,4.3,3.9,4.1c3.3-0.3,6.6-0.1,9.9,0c18.8,0.5,28.8,11,28.2,29.7
				c-0.2,8.2-0.6,16.4-0.9,24.6c-0.3,6.6-0.6,13.3-0.9,19.9c0,1.9-0.1,3.8-0.1,5.7c-0.6,4.7-1,9.4-0.8,14.2c0,0.6,0,1.3,0,1.9
				c-0.1,2.5-0.2,5.1-0.2,7.6l0,0c-0.9,3.4-0.8,6.9-0.7,10.4c-0.3,6.6-0.6,13.3-1,19.9c0,0.3,0,0.6,0,1c-0.3,5.7-0.6,11.3-0.9,17
				c0-0.7,0.1-1.3,0.2-1.8c-0.1,0.6-0.1,1.1-0.2,1.8c-0.1,2.2-0.1,4.4-0.2,6.7l0,0l0,0c-0.4,1.6-0.7,3.2-1.1,4.7
				c-0.6,3.9,1.7,5.2,5,5.4c5.9,4.5,11.1,9.8,16.1,15.2c1.9,2,3.1,2.5,5.2,0.3c2.3-2.5,5.2-4.5,7.8-6.8c4.9-2.1,7.5-6.7,11.5-9.8
				c0.5-0.4,0.5-1.1,0.1-1.7c-0.1-2.4-0.2-4.8-0.3-7.2c0.1-14.9,0.3-29.7-0.6-44.6c0.4-3.5,0.3-7-0.1-10.4c0-2.5,0-5.1-0.1-7.6
				c0-2.8,0-5.7-0.1-8.5c0-2.5,0-5.1,0-7.6c0-2.2,0-4.4,0-6.6c0.5-1.3-1.1-2.5,0-3.8c0.4-12.9-0.6-25.9-0.8-38.8
				c-0.2-16.7,11.8-29.5,28.5-30.5c4.1-0.2,8.2-0.3,12.3-0.1c3.5,0.2,5.1-0.6,4.9-4.6c-0.4-5.8-0.3-11.7,0-17.5
				c0.2-3.5-0.7-4.6-4.4-4.5c-12.3,0.2-24.6,0.1-36.9,0.1c-1.3,0-2.9,0.6-3.9-1c-1.8-3,0.4-10.8,3.6-12.7
				c14.5-8.5,22.1-24.2,19.7-40.9c-2.5-17.7-16.9-32.1-34.3-34.3c-18.8-2.4-36.5,7.9-43.3,25.1s-1.3,37.2,13.9,47.5
				c4.8,3.2,6.1,6.6,5.9,11.8c-0.1,3.6-1,4.5-4.5,4.4c-12-0.2-24,0.1-36-0.2c-3.7-0.1-4.5,1.1-4.4,4.5
				C336.1,240.5,336.1,246.5,335.9,252.5z"/>
		</g>
	</g>
	<g>
		<path class="st5" d="M432,436c6-5.1,11.7-10.4,17-16.1c6.3-5.9,12.6-11.8,18.9-17.8c5.4-4.4,10.7-8.9,16.1-13.3
			c7.7-5.7,15.3-11.5,23-17.2l0,0c7-4.5,13.8-9.3,20.3-14.4c6.9-4.4,13.6-9.1,19.9-14.2c6.7-4.2,12.8-9.2,19-14.1
			c16.6-13.2,32.4-27.3,44-45.3c7.6-11.8,12.7-24.6,14.1-38.7c0.2-2.4-0.2-3.3-2.9-3.3c-23.7,0.2-47.4,0.3-71.1,0.4
			c-2.5,0-3.2,1-3.3,3.3c-0.2,3.5-0.6,6.9-1.2,10.3c-4,26.8-16.4,49.8-32.7,70.9c-3.7,4.8-7.6,9.5-11.4,14.3l0,0l0,0
			c-4.4,4.2-8.7,8.4-12.3,13.3c-5.3,5.2-10.6,10.3-16,15.5c-5.4,5-10.7,10.1-16.1,15.1c-5.1,4.7-10.1,9.5-15.2,14.2
			c-6.3,6-12.7,11.9-19,17.9c-2.1,1.8-4.3,3.6-6.4,5.5c-3.8,3.8-7.6,7.5-11.4,11.3c-3,0-4.9,2.5-6.7,4.3c-3.2,3.2-5.4,2.4-8-0.5
			c-3-3.4-6.3-6.5-9.6-9.6c-1.5-1.5-3.2-2.7-5.3-2.7c-1.9-1.5-4.3-2.5-4.8-5.2c-7.2-6.5-14.5-13.1-21.7-19.6
			c-1.4-2.6-4.3-3.8-6.2-5.9c-3.5-3.8-7-7.9-11.7-10.5c-0.9-0.9-1.8-1.7-2.6-2.6c-5.6-6.3-11.6-12.1-18.2-17.3
			c-7-7.5-13.9-15-20.9-22.5c-3.7-3.4-6.2-7.8-9.2-11.7c-18.9-24.3-32.7-50.8-34.7-82.3c-0.2-3.2-1.8-3.3-4.3-3.3
			c-22.4-0.1-44.8-0.3-67.2-0.5c-6.7,0-6.7,0-5.6,6.9c2.3,15,8.4,28.3,17.3,40.4c15.9,21.4,36.4,37.8,58,53
			c10.4,8.1,21.2,15.7,32.2,22.9c8.6,6.2,17.1,12.5,25.7,18.7c6.7,5.4,13.3,10.7,20,16.1c9.1,8.5,18.3,17.1,27.4,25.6
			c7,6.9,13.9,13.7,20.9,20.6c0.2,0.3,0.5,0.6,0.9,0.7c-0.4,1.4,0.7,2.3,1.7,2.9c4.1,2.4,5.6,5.4,3,9.8c-3.3,0.3-5.1,2.7-6.6,5.4
			c-3.2,3.2-6.4,6.5-9.6,9.7l0,0l0,0c-6.9,6.4-13.8,12.8-20.8,19.2c-7.3,6.9-15,13.3-21.9,20.7c-6.9,6.4-13.8,12.8-20.7,19.2
			c-6.7,6.3-13.3,12.5-20,18.8c-6.4,5.8-12.7,11.5-19.1,17.3c-1.2,1.2-2.4,2.5-3.6,3.7c-6.5,5.5-12.1,12.1-19,17.1
			c0,0.3,0,0.5,0,0.8c-4.9,4.9-10.8,8.7-15.2,14.2c-6,5.6-12.6,10.7-18,17c-6.9,6-13.6,12.2-20,18.7c-3.5,3.2-6.9,6.4-10.5,9.4
			c-1.6,1.3-1.5,2.3-0.2,3.8c3.9,4.6,7.6,9.2,11.3,13.9c1.3,1.7,2.1,1.6,3.6,0.2c8.5-8.3,17.2-16.6,25.7-24.8l0,0
			c7.1-6,13.7-12.6,20.2-19.1c5.8-4.9,11.2-10.2,16.5-15.7c2.1-1.8,4.3-3.5,6.4-5.3c2.9-3.1,5.9-6.1,8.8-9.2l0,0
			c4.6-4.1,9.3-8.3,13.9-12.4c2.3-1,4.4-2.3,4.9-4.9c0.7-0.2,1.4-0.5,2-0.9c6.9-5.3,12.9-11.4,18.8-17.7c0.8-0.8,1.4-1.8,1.2-2.8
			h0.1c0.5,0,1,0.1,1.4-0.2c7-4.5,12.2-10.9,17.8-16.8c0.6-0.6,0.8-1.3,0.6-1.9c0.1,0,0.1,0,0.2,0.1c2.1,0.8,3.2-0.8,4.4-2
			c5.1-4.9,10-10.1,15.1-14.9c0.5-0.4,1.2-0.9,1.1-1.6c1.7-0.3,2.9-1.6,4.2-2.8c5.2-4.9,9.7-10.3,15.4-14.7c1.2-0.9,1.7-2.3,2.2-3.6
			c0.3-0.5,0.6-0.9,0.9-1.4c6.3-6,12.6-12,18.9-18l0,0c2.2-2,4.5-3.8,6.5-6c1.8-1.9,3.2-1.9,5,0c2.4,2.4,5,4.6,7.5,6.9
			c4.2,4.2,8.4,8.4,12.6,12.6c1.9,2.8,3.3,6.1,7.4,6.4c0,0,0,0,0.1,0c-1.4,2.1,1.2,3.4,2.4,4.4c6.3,5.2,11.7,11.3,17.7,16.9
			c2,1.9,3.9,4.1,7,4.4c0.1,0,0.2,0,0.2-0.1c-0.8,1.7,1,2.8,2,3.9c8.2,8.9,17.8,16.4,26.1,25.1c0.9,0.9,1.9,1.6,3.1,1.9
			c-0.2,0.9,0.5,1.6,1.2,2.1c6.5,5.3,11.8,11.8,18,17.3c2.5,2.1,4.7,4.7,8.1,5.6c1.4,1.5,2.7,3,4.1,4.5c6,5.4,12,10.9,18,16.3l0,0
			c1.4,1.6,2.8,3.2,4.3,4.8c0.5,0.5,1.1,1,1.6,1.5c1.2,1.1,2.4,2.3,3.6,3.4c0.6,1,1.2,1.9,2.6,1.8l0,0c-0.1,0.6,0.1,1.2,0.4,1.7
			c0.7,1.1,1.4,2.3,2.3,3.3c0.7,0.6,1.4,1,2.3,0.8c1.4,0.3,2.2,1.4,2.9,2.5c0.6,0.4,1.2,0.8,1.8,1.1l0,0c0,0.8,0.2,1.5,1,1.9
			c0.6-0.2,0.9,0.1,1,0.6c0.1,0.6,0.4,0.9,1,0.9c1,1,2.1,2,3.1,3c0.5,0.4,1,0.9,1.5,1.3c0.5,0.3,1.1,0.6,1.6,0.9
			c0.4,0.6,0.8,1.2,1.2,1.9c0.6,0.6,1.3,1.2,1.9,1.8c1.3,0.5,1.9,1.4,2.1,2.8c0.9,0.7,1.8,1.4,2.7,2.1c0.6,0.3,1.3,0.5,1.9,0.8
			c-0.2,1.7,1.6,2.4,2.1,3.7c0.7-0.1,1.4-0.1,1.8,0.7c1.2,0.7,2.4,1.6,2.8,3.1c0.6,0.3,1.3,0.7,1.9,1l-0.1,0.4
			c1.3,0.5,2.2,1.5,2.9,2.6c0.6,0.6,1.3,1.2,1.9,1.8c0.3,0.3,0.6,0.6,1,0.9c1,1.3,2,2.5,3,3.8c0.3,0.3,0.6,0.5,0.8,0.8l0.5,0.1h0.5
			l0,0l0,0c0.6,0.7,1.2,1.4,1.8,2.1c1.5,0.1,2.2,1.4,3,2.4c1.2,1.2,2.4,2.3,3.6,3.5c1.6,0.2,1.6,2.2,2.8,2.8c1,0.1,1.5,0.8,1.9,1.7
			c0.3,0.3,0.6,0.6,1,0.9c0.3,0.3,0.6,0.6,1,0.9c3.4-0.4,3.7-4.3,6.3-5.7c2.4-3.1,4.8-6.2,7.2-9.2c1-1.2,2.3-2.3,0.8-4
			c-1.6-1.3-3.2-2.5-4.8-3.8c-0.1-0.3-0.1-0.6-0.2-0.9c-2.1-1.9-4.2-3.9-6.3-5.8c-1.3-1-2.5-1.9-3.8-2.9l0,0
			c-0.7-0.9-1.4-1.8-2.2-2.7c-1.6-0.9-2.9-2.2-3.9-3.7c-2.2-0.1-2.9-2.2-4.3-3.4l0,0c-0.3-0.5-0.6-1-0.9-1.5c-2.3-1.6-4.3-3.4-6-5.6
			c-1-0.6-2-1.3-3-1.9c-0.7-0.9-1.3-1.8-2-2.8c-2-1.6-4.1-3.3-6.1-4.9c-0.1-0.3-0.1-0.6-0.2-0.9c-1.9-1.2-3.6-2.8-4.9-4.7
			c-1.3-1-2.6-1.9-3.9-2.9c0-0.3,0-0.6,0-0.8c-1.5-1.3-2.9-2.6-4.4-3.9c-1.4-0.5-2.2-1.6-2.9-2.8c-1.3-0.9-2.5-1.9-3.8-2.8
			c-0.4-0.6-0.8-1.3-1.3-1.9c-1.6-0.1-2.3-1.4-3.3-2.4c-4.7-4.6-9.1-9.6-14.5-13.5l0,0c-1.4-1.5-2.7-3.1-4.1-4.6
			c-1.4-1.2-2.9-2.4-4.3-3.6c-6.4-5.8-12.7-11.6-19.1-17.3c-10.4-10.4-21.2-20.5-32.2-30.3c-8.6-8.5-17.3-16.9-26.6-24.7
			c-7.2-6.7-13.7-14.3-21.8-20.1c-4.3-5.4-9.8-9.5-14.5-14.5c-0.6-1.4-1.5-2.2-2.9-2c-2.1-3.2-1.8-6.1,1.5-8.6
			c0.5-0.3,0.5-1.1,1-1.5c0.7-1,1.5-1.9,2.2-2.9l0,0l0,0C423.7,444.3,428.2,440.5,432,436z"/>
	</g>
	<g>
		<path class="st6" d="M421.5,181.3c0.1,12.6-10,22.9-22.6,23.2c-12.6,0.2-23.1-10.3-23.1-23.1c0-12.6,10.3-22.9,22.8-22.9
			C411.1,158.4,421.4,168.7,421.5,181.3z"/>
	</g>
</g>
</svg>
