<?xml version="1.0" encoding="utf-8"?>
<!-- Generator: Adobe Illustrator 28.1.0, SVG Export Plug-In . SVG Version: 6.00 Build 0)  -->
<svg version="1.1" id="Layer_1" xmlns="http://www.w3.org/2000/svg" xmlns:xlink="http://www.w3.org/1999/xlink" x="0px" y="0px"
	 viewBox="0 0 500 500" style="enable-background:new 0 0 500 500;" xml:space="preserve">
<style type="text/css">
	.st0{fill:#040101;}
	.st1{fill:#FC0000;}
	.st2{fill:#FDFDFD;}
</style>
<g>
	<path class="st0" d="M248.2,2.5c37.7-0.1,75.2,10.6,111,28c4.4,2.1,10.6,3.4,12.6,7c2,3.5-0.1,9.5-0.3,14.3
		c-0.6,14.7,1.4,28.7,9.8,41.4c5.3,8,12.6,13.2,21,17.1c14.3,6.5,29.7,8.6,45.2,9.5c2.7,0.2,3.6,0.7,4.1,3.3
		c5.2,26.5,8.9,53.2,8.9,80.3c0,57.7-13.9,111.7-44.6,160.9c-32.8,52.7-78.3,91.5-133.1,120c-8.4,4.4-17.1,8.2-25.7,12.3
		c-2,1-3.9,1.5-6.4,0.5c-38.7-15.3-74.5-35.3-106.1-62.5C89.3,386.9,55.9,327.1,43.9,255.3c-7.3-43.6-5.3-86.9,4-130.1
		c0.9-4.1,2.8-5,6.3-5.2c14.7-0.8,29-3.4,42.4-9.9c20.1-9.6,29.7-26.1,31.2-47.9c0.5-7.4,0.4-14.8-0.6-22.1c-0.3-2.3,0-3.5,2.1-4.6
		C165.8,16,204.1,3.2,248.2,2.5z M331.2,435.9c-0.3-0.6-0.6-1.4-1-2.2c-16.8-35-33.5-69.9-50.2-104.9c-1.5-3.1-3.3-2.9-5.9-2.3
		c-16.5,4.3-33.1,4.3-49.7,0.1c-2.7-0.7-4.1-0.1-5.4,2.4c-17.6,34.9-35.3,69.9-53,104.7c-1.3,2.5-0.9,3.9,1.3,5.6
		c25.2,19.4,52.5,34.9,82.4,45.7c2,0.7,3.6,0.8,5.5-0.1c26.5-12.3,50.8-28.1,73.9-46.1C330.1,438.2,331.4,437.7,331.2,435.9z
		 M248.9,143c-46.9,0.1-84.9,38.3-84.7,84.9c0.2,46.9,38.2,84.7,85,84.6c46.8-0.1,84.9-38.3,84.7-84.9
		C333.8,180.9,295.6,142.9,248.9,143z M252.8,16.2c-27.1,0.1-49.9,3.9-69.5,10.5c-2.9,1-4.4,1.7-3,5.4
		c12.4,31.6,24.7,63.4,36.9,95.1c0.9,2.4,1.9,3.2,4.6,2.5c18.2-5.1,36.6-5,54.8,0.1c3.2,0.9,4.3,0,5.4-2.8
		c12.2-31.6,24.4-63.1,36.7-94.6c1.3-3.4,0.5-4.5-2.8-5.5C293.6,20.3,270.9,16.3,252.8,16.2z M51.6,200.3
		c1.1,36.5,7.5,70.4,17.6,103.6c1,3.2,1.8,4.4,5.3,2.4c25-14.2,50-28.3,75.1-42.3c2.4-1.3,3.2-2.6,2.4-5.4
		c-4-12.7-5.7-25.8-4.3-39.1c0.3-3-0.7-4.3-3.5-5.3c-10.6-3.8-21.1-7.9-31.7-11.9c-18.5-7-37-13.9-55.3-21.1c-4.7-1.9-5.8-0.7-5.5,4
		C51.9,190.8,51.6,196.4,51.6,200.3z M445.6,201.6c0-5.6-0.2-11.3,0.1-16.9c0.2-3.8-0.6-5-4.7-3.4c-28.6,11-57.3,21.8-86,32.5
		c-3.7,1.4-4.6,3.3-4.3,7c1.1,12.8-0.4,25.4-4.4,37.5c-1.2,3.7-0.4,5.2,2.9,6.9c24.9,13.2,49.7,26.5,74.5,40c4,2.2,5,1.3,6.2-2.7
		C439.6,269.6,445.1,236,445.6,201.6z M355.2,416.9c-0.5-1-1.2-2.3-1.8-3.6c-15.1-29.3-30.2-58.6-45.3-87.9
		c-5.4-10.5-5.3-10.3-15.7-5.5c-3.3,1.5-3.9,2.8-2.3,6.2c8.2,17.3,16.2,34.8,24.3,52.3c7.6,16.3,15.2,32.6,22.7,48.9
		c1.5,3.4,2.7,3.8,5.4,1.3c3.4-3.1,7.1-5.8,10.7-8.7C354,419.3,355.3,418.7,355.2,416.9z M210.2,323.9c0.3-1.7-0.8-2.1-1.7-2.6
		c-2.2-1.1-4.7-1.8-6.6-3.3c-4.2-3.2-5.9-1.3-8,2.6c-14.9,28.2-30.1,56.2-45.1,84.4c-2.3,4.3-7,8.7-6,13.1c1,4.6,7.3,6.7,10.9,10.3
		c2.9,3,4.3,2.7,6.2-1.2c16.2-33.5,32.6-66.8,49-100.2C209.3,325.9,209.8,324.8,210.2,323.9z M299.2,138.9c1.4,0.3,1.9-0.7,2.3-1.7
		c1.2-2.3,2.4-4.7,3.7-7c14.8-28.6,29.5-57.3,44.4-85.8c1.8-3.4,1.9-5.2-2.2-6.4c-4.5-1.4-8.9-3.2-13.3-5.1c-2.6-1.1-3.7-0.5-4.7,2
		c-2.7,7.2-5.7,14.4-8.6,21.6c-9.8,24.3-19.6,48.6-29.3,73c-0.6,1.6-2.8,3.6-0.6,5.1C293.3,136.4,296.3,137.5,299.2,138.9z
		 M445.1,165c-0.3-5.1-0.9-9.5-0.8-13.9c0.1-4.9-1.4-5-5.4-3.1c-29,14.1-58,28.1-87.1,41.8c-4.9,2.3-6.7,4.3-4.9,10.1
		c1.6,5,3.4,5.2,7.7,3.6c28.4-10.5,56.8-20.8,85.3-31C444.2,171,446.5,169.1,445.1,165z M167,32.6c-4.5,2-8.9,4.2-13.5,5.9
		c-3.8,1.4-4.5,3-2.5,6.8c14.5,28.8,28.8,57.7,43.2,86.5c3.8,7.7,3.7,7.5,11.5,4c3.1-1.4,3.7-2.8,2.3-5.9
		c-3.7-8.4-6.9-16.9-10.4-25.4C188.4,81.7,179.2,59,170,36.3C169.4,34.9,169.6,32.6,167,32.6z M52.3,166.9c-0.8,2.5,1.1,4,4.5,5
		c4.4,1.3,8.6,3.1,12.9,4.6c25.2,9.1,50.3,18.3,75.5,27.4c1.4,0.5,3.4,2.2,4.2,0.6c1.5-2.9,2.4-6.3,2.7-9.6c0.2-2.6-2.9-2.7-4.6-3.6
		c-28.7-14.2-57.5-28.3-86.3-42.5c-1.3-0.6-2.6-1.1-3.8-1.8c-2-1.1-2.8-0.5-3,1.7C53.9,154.4,53.2,160,52.3,166.9z M425,317.6
		c0.3-2.8-2.2-3-3.7-3.8c-24.2-12.7-48.4-25.3-72.7-37.9c-7.4-3.8-7.2-3.7-11.7,3.4c-2,3.1-1.6,4.6,1.5,6.6
		c13.5,8.7,26.8,17.6,40.2,26.5c11.8,7.8,23.5,15.6,35.4,23.2c1.3,0.8,3.2,3.7,4.6,0.4C421,330,422.9,323.7,425,317.6z M81.8,336.7
		c1-0.7,2.2-1.4,3.4-2.2c23.7-15.6,47.3-31.2,70.9-46.8c6.9-4.6,6.6-4.4,3.1-12.1c-1.9-4-3.5-3.9-6.9-2
		c-21.2,11.8-42.6,23.3-63.9,35c-4.9,2.7-12.4,4.1-13.8,8.7c-1.6,5.1,3.2,11.1,5,16.8c0.2,0.5,0.4,1,0.6,1.5
		C80.3,336.3,80.7,336.7,81.8,336.7z"/>
	<path class="st1" d="M331.2,435.9c0.1,1.8-1.1,2.3-2,3.1c-23,17.9-47.4,33.7-73.9,46.1c-1.9,0.9-3.6,0.8-5.5,0.1
		c-29.9-10.8-57.3-26.3-82.4-45.7c-2.3-1.7-2.6-3.1-1.3-5.6c17.7-34.9,35.4-69.8,53-104.7c1.3-2.5,2.7-3.1,5.4-2.4
		c16.5,4.2,33.1,4.2,49.7-0.1c2.6-0.7,4.5-0.8,5.9,2.3c16.7,35,33.4,70,50.2,104.9C330.7,434.5,331,435.3,331.2,435.9z"/>
	<path class="st2" d="M248.9,143c46.7-0.1,84.9,37.8,85,84.6c0.2,46.6-38,84.9-84.7,84.9c-46.8,0.1-84.8-37.8-85-84.6
		C164.1,181.3,202.1,143.2,248.9,143z M292.9,276.7c-1.8-1.8-3.2-0.3-4.4,0.8c-1.7,1.6,0.4,2.4,0.9,3.5c0.2,0.5,0.7,0.8,0.9,1.3
		c1,2.6,6.1,4.8,2.3,7.7c-3.5,2.7-4.5-2.4-6.5-4.1c-0.8-0.7-1.3-1.6-1.9-2.5c-1.2-1.7-2.2-0.8-3.4,0.1c-1.2,0.9-1.7,1.7-0.6,3
		c1.4,1.8,2.7,3.7,4.2,5.4c3.6,4.3,6.6,4.7,10.9,1.5c4.2-3.1,4.7-6.3,1.8-10.9c-0.8-1.2-2.6-2-2-3.9c3.8,0.1,5.4,3.7,8.2,5.3
		c1.2,0.7,2.1,2.2,3.5,0.4c2-2.6,4.6-5,5.9-8c3-7.1-6.5-4.6-7.7-9.3c-0.4-1.8-3.5-1.4-5,0.2C297.1,270.1,294,272.7,292.9,276.7z
		 M322.7,199.7c-2.8,2.1-5.6,4.2-8.3,6.5c-10.4,8.8-22,11.2-35,6.9c-2.9-1-6.2-1.7-8.7,0.2c-4.4,3.3-5,0.5-6.2-2.9
		c-3-8.2-5-9.5-13.5-9.5c-4.9,0-9.9,0-14.8,0c-2.6,0-5.6,0.4-6.5,2.8c-2.6,7.6-8.5,8.1-15.2,9.5c-12,2.5-22.7,1.8-32.5-6
		c-3.4-2.7-6.8-5.3-11.3-8.7c1.8,8.4,2.1,16.1,5.2,22.3c3.3,6.6,5.5,14.7,13,18.6c0.5,0.3,0.7,1.1,1,1.7c1.5,3.7,4.5,5.7,7.9,7.4
		c1,0.5,2.6,0.2,3,1.8c2,7.3,9.7,6.5,14.6,9.5c2.4,1.5,6,1.8,8.7,4.2c1.8,1.6,2.1,3.5,3.1,5.2c1.9,3.1,4,6.3,8.1,5.6
		c5.5-0.9,11-0.8,16.3-0.4c6.3,0.5,10-1.9,12.1-7.6c0.4-1.1,0.7-3.2,1.9-2.8c4.9,1.6,7.9-4.5,12.7-2.9c0.7,0.2,2.2-0.5,2.8-1.2
		c3.6-4.5,10.3-4.2,13.9-10.1c2.1-3.4,6.9-6.8,10.6-9.7c6.4-5.1,8.9-12.1,12.7-18.4C322.3,215.4,321,207.3,322.7,199.7z
		 M227.2,157.3c-8.8-0.1-16,5.2-17.8,13.1c-1.9,8.1,2.2,16.3,9.8,19.6c7.8,3.4,16.1,0.9,21.3-6.5c2.6-3.6,10.9-3.7,13.5-0.2
		c5.3,7.1,13.9,9.3,21.6,5.6c7.5-3.7,11.2-11.9,8.9-19.9c-2.3-8.2-9.5-13.1-18.5-12.2c-2.6,0.3-3.9-0.2-5.5-2.4
		c-7.3-10.1-21-10-28.1,0.2C230.9,156.6,229.8,158.5,227.2,157.3z M198.6,279.9c0,0.7,0.1,1.3,0,1.8c-1.6,6.4-0.4,9.5,4.5,11.8
		c4.4,2.1,7.2,1.1,11.1-4.8c1.1-1.6,1.7-1.8,3.2-0.9c1.4,0.8,2.9,1.3,1.7,3.5c-1.2,2.1-2.1,4.5-3.2,6.7c-1,2-0.1,2.8,1.6,3.6
		c1.9,1,2.5-0.3,3.1-1.6c0.8-1.7,1.5-3.6,2.5-5.2c0.7-1.3,0.5-3.7,3.5-2.6c2.6,1,2.2,2.4,1.7,4.5c-0.9,4.1-0.4,7.9,3.9,9.8
		c3.6,1.6,7.4,1.9,10.2-1.3c2.7-3,3.2-6.8,1.5-10.4c-1.8-3.6-5.3-4.2-9-4.3c-1.4,0-2.4,1.7-4.5,0.1c-4-3.2-8.3-6.6-14.1-5.7
		c-1.2,0.2-1.3-0.8-1.6-1.6c-2.2-4.3-5.4-6.7-10.6-5.9c-1.8,0.3-2.5-0.8-1.4-1.6c3.4-2.4,0-3.5-0.8-4.9c-1.2-2.4-2.9-0.9-4.5-0.4
		c-1.4,0.4-2.5,2-4.5,0.9c0.8-1.2,1.5-2.5,2.4-3.5c2.5-2.5,1-4.2-0.7-6.2c-2.2-2.7-3.3-0.1-4.7,0.8c-2,1.4-3.9,3-5.8,4.6
		c-4,3.2-4,3.2,0.8,5.4c0.4,0.2,1.1,0.7,1,0.9c-2,6.6,2.6,4.5,5.7,4.1c0.8,2.4-3.9,4.1-0.6,5.9C194.2,284.8,195.3,280.1,198.6,279.9
		z M260.9,307c2.5-0.2,5.2-0.5,6.9-2.9c0.8-1.1,2-2.6,0.6-3.7c-1.1-0.9-3-1.4-4,0.5c-1.1,2.1-2.7,3.1-4.6,1.5
		c-1.9-1.5-2.3-4-1.4-6.3c1-2.5,2.8-2.7,5.1-1.2c1.5,1,3.3,0.3,3.9-1.2c0.5-1.2-0.9-2.2-2-2.7c-3.5-1.6-6.9-1.3-9.9,1.1
		c-3.2,2.6-3,6.1-1.8,9.7C254.8,305.1,257.2,306.9,260.9,307z M271.2,287.2c-1.5,0.6-3.6,0.8-2.5,3.4c0.7,1.6,1.3,3.3,1.9,4.9
		c3.2,8.5,3.2,8.6,11.8,5c1.4-0.6,3.9-0.6,2.6-3.4c-1.1-2.5-2.8-1-3.9-0.4c-3.6,2-5,0.4-5.8-2.9c-0.4-1.7-1.1-3.3-1.8-4.9
		C273.1,287.9,272.7,286.8,271.2,287.2z"/>
	<path class="st1" d="M252.8,16.2c18.1,0.1,40.8,4.1,63.1,10.6c3.3,1,4.1,2.1,2.8,5.5c-12.3,31.5-24.6,63-36.7,94.6
		c-1.1,2.8-2.1,3.7-5.4,2.8c-18.2-5.1-36.5-5.1-54.8-0.1c-2.7,0.8-3.7-0.1-4.6-2.5c-12.2-31.7-24.5-63.4-36.9-95.1
		c-1.5-3.7,0.1-4.4,3-5.4C202.9,20.1,225.7,16.3,252.8,16.2z"/>
	<path class="st1" d="M51.6,200.3c0-3.8,0.2-9.5-0.1-15.1c-0.2-4.7,0.8-5.8,5.5-4c18.4,7.2,36.9,14.1,55.3,21.1
		c10.5,4,21.1,8.1,31.7,11.9c2.8,1,3.9,2.3,3.5,5.3c-1.4,13.3,0.3,26.4,4.3,39.1c0.9,2.8,0,4.1-2.4,5.4
		c-25.1,14-50.1,28.1-75.1,42.3c-3.5,2-4.3,0.8-5.3-2.4C59.1,270.7,52.8,236.8,51.6,200.3z"/>
	<path class="st1" d="M445.6,201.6c-0.5,34.4-6.1,68-15.8,100.9c-1.2,4-2.1,4.9-6.2,2.7c-24.7-13.5-49.6-26.8-74.5-40
		c-3.3-1.7-4.1-3.2-2.9-6.9c4-12.2,5.5-24.8,4.4-37.5c-0.3-3.7,0.6-5.6,4.3-7c28.7-10.7,57.4-21.5,86-32.5c4.1-1.6,4.8-0.4,4.7,3.4
		C445.5,190.3,445.6,195.9,445.6,201.6z"/>
	<path class="st1" d="M355.2,416.9c0.1,1.8-1.1,2.3-2.1,3.1c-3.5,2.9-7.3,5.6-10.7,8.7c-2.8,2.5-3.9,2.1-5.4-1.3
		c-7.4-16.4-15.1-32.6-22.7-48.9c-8.1-17.4-16-34.9-24.3-52.3c-1.6-3.4-1-4.7,2.3-6.2c10.4-4.9,10.4-5,15.7,5.5
		c15.1,29.3,30.2,58.6,45.3,87.9C354,414.6,354.6,415.9,355.2,416.9z"/>
	<path class="st1" d="M210.2,323.9c-0.4,0.8-0.9,2-1.5,3.1c-16.3,33.4-32.8,66.7-49,100.2c-1.9,3.9-3.2,4.2-6.2,1.2
		c-3.6-3.6-9.8-5.7-10.9-10.3c-1-4.4,3.7-8.7,6-13.1c15-28.1,30.2-56.2,45.1-84.4c2.1-4,3.8-5.8,8-2.6c1.9,1.5,4.4,2.2,6.6,3.3
		C209.4,321.8,210.5,322.2,210.2,323.9z"/>
	<path class="st1" d="M299.2,138.9c-2.8-1.4-5.9-2.5-8.4-4.3c-2.2-1.5,0-3.5,0.6-5.1c9.7-24.4,19.5-48.7,29.3-73
		c2.9-7.2,5.9-14.3,8.6-21.6c1-2.6,2.1-3.2,4.7-2c4.3,1.9,8.8,3.7,13.3,5.1c4.2,1.3,4,3,2.2,6.4c-14.9,28.6-29.6,57.2-44.4,85.8
		c-1.2,2.3-2.4,4.7-3.7,7C301,138.2,300.6,139.3,299.2,138.9z"/>
	<path class="st1" d="M445.1,165c1.5,4.1-0.9,6-5.2,7.6c-28.5,10.2-56.9,20.5-85.3,31c-4.3,1.6-6.1,1.4-7.7-3.6
		c-1.8-5.8,0-7.8,4.9-10.1c29.1-13.7,58.1-27.7,87.1-41.8c4-1.9,5.5-1.8,5.4,3.1C444.1,155.5,444.7,159.9,445.1,165z"/>
	<path class="st1" d="M167,32.6c2.6,0,2.5,2.3,3,3.7c9.2,22.7,18.4,45.4,27.5,68.1c3.4,8.5,6.7,17.1,10.4,25.4
		c1.4,3.2,0.8,4.5-2.3,5.9c-7.7,3.5-7.7,3.7-11.5-4c-14.4-28.9-28.7-57.7-43.2-86.5c-1.9-3.8-1.3-5.4,2.5-6.8
		C158.1,36.8,162.5,34.6,167,32.6z"/>
	<path class="st1" d="M52.3,166.9c0.8-6.9,1.6-12.5,2.2-18.1c0.2-2.2,1-2.8,3-1.7c1.2,0.7,2.6,1.2,3.8,1.8
		c28.8,14.1,57.5,28.3,86.3,42.5c1.8,0.9,4.9,1.1,4.6,3.6c-0.3,3.3-1.3,6.6-2.7,9.6c-0.8,1.6-2.8-0.1-4.2-0.6
		c-25.2-9.1-50.3-18.2-75.5-27.4c-4.3-1.6-8.5-3.4-12.9-4.6C53.4,171,51.6,169.4,52.3,166.9z"/>
	<path class="st1" d="M425,317.6c-2.1,6.1-4.1,12.4-6.5,18.4c-1.3,3.3-3.3,0.4-4.6-0.4c-11.8-7.7-23.6-15.5-35.4-23.2
		c-13.4-8.8-26.7-17.8-40.2-26.5c-3.1-2-3.5-3.4-1.5-6.6c4.5-7.2,4.3-7.3,11.7-3.4c24.2,12.6,48.5,25.2,72.7,37.9
		C422.8,314.6,425.3,314.8,425,317.6z"/>
	<path class="st1" d="M81.8,336.7c-1,0-1.5-0.4-1.7-1.1c-0.2-0.5-0.4-1-0.6-1.5c-1.7-5.7-6.5-11.7-5-16.8c1.4-4.6,9-6,13.8-8.7
		c21.3-11.7,42.7-23.2,63.9-35c3.4-1.9,5.1-2,6.9,2c3.6,7.6,3.9,7.5-3.1,12.1c-23.6,15.6-47.3,31.2-70.9,46.8
		C84,335.3,82.8,336,81.8,336.7z"/>
	<path class="st0" d="M322.7,199.7c-1.6,7.6-0.4,15.8-4.2,22.1c-3.8,6.3-6.3,13.3-12.7,18.4c-3.7,2.9-8.5,6.3-10.6,9.7
		c-3.6,5.9-10.2,5.6-13.9,10.1c-0.6,0.7-2.1,1.5-2.8,1.2c-4.8-1.6-7.8,4.5-12.7,2.9c-1.2-0.4-1.5,1.7-1.9,2.8
		c-2.1,5.7-5.8,8.1-12.1,7.6c-5.4-0.5-10.9-0.5-16.3,0.4c-4.1,0.6-6.2-2.5-8.1-5.6c-1.1-1.7-1.4-3.7-3.1-5.2
		c-2.7-2.4-6.3-2.8-8.7-4.2c-4.9-3-12.6-2.2-14.6-9.5c-0.4-1.6-1.9-1.3-3-1.8c-3.4-1.6-6.4-3.7-7.9-7.4c-0.3-0.6-0.5-1.5-1-1.7
		c-7.6-3.9-9.7-12-13-18.6c-3.1-6.3-3.4-13.9-5.2-22.3c4.4,3.4,7.9,6,11.3,8.7c9.8,7.8,20.5,8.5,32.5,6c6.7-1.4,12.6-1.9,15.2-9.5
		c0.8-2.4,3.9-2.8,6.5-2.8c4.9,0,9.9,0,14.8,0c8.5,0,10.5,1.2,13.5,9.5c1.2,3.4,1.8,6.2,6.2,2.9c2.5-1.9,5.8-1.1,8.7-0.2
		c13,4.3,24.6,1.9,35-6.9C317.1,203.8,319.9,201.8,322.7,199.7z M177.7,208.6c-0.2-0.4-0.5-1-1-0.5c-0.2,0.2,0.1,0.9,0.1,1.3
		c0.7,4.7,3.5,8,7.7,10c2.2,1,4.7,1.5,6.9,2.4c1.7,0.6,4.9,0.3,4.4,2.7c-0.7,3-3.5,0.9-5.4,0.5c-2.9-0.7-5.7-1.7-8.5-2.6
		c-0.4-0.6-0.7-1-1.4-0.3c0,0,0.5,0.6,0.8,0.8c0.4,0.6,0.7,1.3,1.2,1.7c4.3,3.5,9.5,5.2,14.6,7.2c1.3,0.5,3,1,2.1,2.9
		c-0.7,1.4-2.1,0.8-3.3,0.4c-3.4-1.3-6.8-2.6-10.7-4.1c3.8,5.6,5.1,6.4,17.4,9.8c1.2,0.3,2.8,0.5,2.8,1.9c0.1,1.9-1.7,1.2-2.8,1.3
		c-1.2,0.1-2.5-0.1-2.8,1.8c0.4,0.1,0.9,0.4,1.3,0.4c3.2,0,6.3,0,9.5-0.1c1.2,0,2.8-0.3,3.1,1.2c0.3,2-1.5,1.9-2.9,2.1
		c-2,0.3-4.2-0.1-6.2,1.1c3.4,3.4,7.1,3.6,14,1.1c1.5-0.6,3.3-2.5,4.7-0.9c1,1.1,1.5,2.3,3.1,1.2c1.2-0.8,0.7-2.2,0.6-3.4
		c-0.2-1.9-0.6-3.9-0.5-5.8c0.1-2.6-1.3-3.3-3.4-4.8c-6.2-4.3-11.5-10.1-19.3-11.7c-0.5-0.1-1-0.9-1.3-1.5c-0.4-0.7,0.1-1.9,0.4-1.7
		c4.1,1.9,8.3,1.4,12.6,0.6c0.1,0,0.4,0.6,0.4,0.9c0.2,3.3,2.1,1.9,3.5,1.2c1.3-0.6,2.4-3,3.9-1.3c1.6,1.9-0.7,3-1.9,4.1
		c-0.5,0.5-1.2,0.8-0.7,1.9c2-0.2,5.3,1.3,5.9-1.1c0.9-3,1.5-6.7-0.7-9.6c-2.4-3.1-5.4-5.5-9.9-3.7c-1.9,0.8-4,1.2-6.1,1.6
		C197.9,219.9,187.4,215.8,177.7,208.6z M317.2,208.9c-0.5,0.2-1,0.2-1.4,0.5c-11.3,9.3-23.9,11.4-37.7,6.9
		c-1.9-0.6-3.8-0.8-5.7-0.1c-4.5,1.5-5.9,5.7-4.1,11.9c1,3.6,3.5,1.8,6.5,1.9c-1.5-1.3-2.3-2-3-2.7c-0.9-0.9-1.9-2-0.9-3.2
		c1.1-1.3,2.1-0.1,3.2,0.6c1.8,1.2,3.8,3.5,4.6-1c0.2-1.3,1.6-1.3,2.6-0.6c2.6,1.9,5.1,1.9,7.7-0.1c0.8-0.7,2.1-1.1,2.8,0
		c0.9,1.3-0.1,2.3-1.2,3c-1.4,1.1-3,1.8-4.8,2c-3.5,0.4-6.2,2.2-8.5,4.8c-1.3,1.4-2.4,3.7-4,4.1c-5,1.1-5,4.5-4.8,8.3
		c0,1.2-0.2,2.5-0.3,3.7c-0.8,6.6,4.2,10.4,11.2,7.9c-1.1-0.4-1.9-0.7-2.7-1c-2.4-1.1-7.1-1.3-6-4.2c1.1-3.2,4.4,0.5,6.7,0.9
		c4.4,0.8,8.7,2.2,13.6-1.9c-2.7-0.3-4.2-0.3-5.7-0.7c-1.7-0.4-4.8,0.4-4.5-2.2c0.3-2.5,3.2-1.3,5-1.2c4,0.3,8,0.8,12.1-2.5
		c-1.6,0-2.5,0-3.3,0c-1.9,0-4.9,2.2-5.3-0.8c-0.4-2.5,3.1-2,5-2.6c4.6-1.4,9.4-2.4,12.9-6.7c-3-1.5-5,0.5-7.2,0.9
		c-1.6,0.3-3.7,2.2-4.6-0.1c-0.9-2.4,1.9-2.4,3.4-3.1c1.9-0.9,4-1.5,5.9-2.4c2.7-1.3,6-2.1,7.9-5.8c-4.2,1-7.7,1.9-11.2,2.7
		c-1,0.2-2.3,0.3-2.6-1.1c-0.3-1.3,0.8-1.9,1.8-2.2c3.6-0.9,7.3-1.4,10.5-3.5c3.7-2.5,7.3-5.2,6.3-10.6c0.2,0,0.5,0.1,0.7,0.1
		c0-0.2-0.1-0.4-0.1-0.6C317.5,208.5,317.4,208.7,317.2,208.9z M253,269c0.3,0.1,0.7,0.1,1,0.2c0.6-1.2,1.4-2.3,1.7-3.5
		c4.4-19,3.6-38-0.1-56.9c-0.2-1.2-0.7-3.1-1.9-2.7c-3.8,1.5-7.6-1.5-11.3,0.4c1,3.1,2.2,6.1,2.8,9.1c3.5,17,3.7,33.9-1.8,50.6
		c-0.3,0.8-1.4,2-0.1,2.7c1.6,0.8,2.1-0.7,2.4-1.9c0.8-2.9,1.6-5.9,2.7-10.2c1.4,4.1-0.3,6.4-0.5,8.9c-0.1,1.2-1.7,2.8,0.6,3.3
		c1.9,0.5,2.3-1,2.7-2.4c0.2-0.8-0.3-2.1,1.4-2.4C252.7,266,252.8,267.5,253,269z M233.9,269.8c4.5-2.3,5-6,5.9-9.2
		c3.2-12.3,3.2-24.8,1.6-37.3c-0.6-4.7-1.6-9.4-3.8-13.7c-0.7-1.3-1.3-3.3-3.2-2.9c-2.2,0.4-1.9,2.5-2.2,4.3
		c-0.8,5.1,2.8,8.2,4.5,12.3c4,9.8,4.4,20.9-0.1,30.4C234,259,234.5,263.7,233.9,269.8z M258.3,212.9c0.7,5.8,1.6,11.3,1.9,16.7
		c0.6,10.4,0.5,20.7-1.9,30.9c-0.2,0.9-0.6,1.8,0.5,2.1c1.1,0.3,1.5-0.6,1.7-1.5c0.2-0.7,0.4-1.3,0.6-2c3.2-14.1,3.3-28.2,0.1-42.4
		C260.8,215.4,261,213.5,258.3,212.9z M228.4,255c-2,1.6-4.6,1.4-4.1,4.1c0.3,1.4,2.1,1.6,3,1.2C229.5,259.5,228.1,257.5,228.4,255z
		"/>
	<path class="st0" d="M227.2,157.3c2.6,1.1,3.7-0.7,5.1-2.8c7.2-10.2,20.9-10.3,28.1-0.2c1.6,2.2,3,2.7,5.5,2.4
		c9-0.9,16.2,4,18.5,12.2c2.2,8-1.5,16.3-8.9,19.9c-7.6,3.7-16.3,1.5-21.6-5.6c-2.6-3.5-10.9-3.4-13.5,0.2
		c-5.3,7.4-13.6,9.9-21.3,6.5c-7.6-3.3-11.7-11.5-9.8-19.6C211.2,162.6,218.4,157.2,227.2,157.3z M279.4,174.4
		c0-6.6-4.4-11.5-10.2-12c-3.3-0.3-6,0.1-5.9,4.5c0,2.7-1.4,5-2.9,7.2c-3.1,4.3-2.6,6.7,2,9.3c3.6,2.1,7.4,2.2,11.1,0.2
		C277.3,181.5,279.3,178.2,279.4,174.4z M226,185.7c1.8,0,3.5-0.3,5.1-1.1c5.3-2.7,5.8-5.2,2.1-9.7c-2.1-2.5-3.6-5.4-3.7-8.6
		c-0.2-3.1-1.9-3.3-4.2-3.2c-6,0.3-10.9,5.6-10.7,11.6C214.9,180.9,219.9,185.7,226,185.7z M248,175.3c1.3,0,3-0.6,3.1-3.5
		c0.1-3.1,1.3-5.8,3.1-8.3c3.1-4.3,2.5-6.7-2-9.3c-4.9-2.9-11.3-1.6-14.7,2.8c-1.3,1.7-2,3.1,0.2,4.8c3.2,2.7,5.1,6.3,5.3,10.5
		C243.2,175.4,245,175.4,248,175.3z"/>
	<path class="st0" d="M198.6,279.9c-3.3,0.2-4.4,4.8-7.5,3.1c-3.3-1.8,1.4-3.5,0.6-5.9c-3.1,0.5-7.7,2.5-5.7-4.1
		c0.1-0.2-0.6-0.7-1-0.9c-4.8-2.2-4.8-2.1-0.8-5.4c1.9-1.5,3.8-3.2,5.8-4.6c1.3-0.9,2.5-3.5,4.7-0.8c1.7,2,3.2,3.8,0.7,6.2
		c-1,0.9-1.6,2.2-2.4,3.5c2,1.1,3.1-0.4,4.5-0.9c1.6-0.5,3.3-2,4.5,0.4c0.7,1.5,4.2,2.5,0.8,4.9c-1.1,0.8-0.4,1.9,1.4,1.6
		c5.2-0.8,8.3,1.6,10.6,5.9c0.4,0.7,0.4,1.8,1.6,1.6c5.8-0.9,10.1,2.5,14.1,5.7c2,1.6,3-0.1,4.5-0.1c3.7,0.1,7.2,0.7,9,4.3
		c1.7,3.6,1.2,7.4-1.5,10.4c-2.9,3.2-6.7,2.9-10.2,1.3c-4.4-1.9-4.9-5.7-3.9-9.8c0.5-2,0.9-3.5-1.7-4.5c-2.9-1.1-2.7,1.4-3.5,2.6
		c-1,1.7-1.7,3.5-2.5,5.2c-0.6,1.3-1.2,2.5-3.1,1.6c-1.7-0.8-2.6-1.6-1.6-3.6c1.1-2.2,2-4.5,3.2-6.7c1.2-2.2-0.2-2.6-1.7-3.5
		c-1.5-0.9-2.1-0.7-3.2,0.9c-3.9,5.9-6.7,6.9-11.1,4.8c-4.9-2.3-6-5.4-4.5-11.8C198.7,281.2,198.6,280.7,198.6,279.9z M206.7,281.3
		c-2.8,0.9-4.3,2.9-4.4,5.7c-0.1,1.8,1.4,3.1,3.1,2.9c3-0.3,4.4-2.7,4.7-5.4C210.4,282.5,208.8,281.5,206.7,281.3z M239.7,298.7
		c0-2-0.3-4.1-3.1-4.3c-2.8-0.2-3.4,2-3.7,4.1c-0.3,2.2,0,4.4,2.7,4.7C238.8,303.7,239.1,301.2,239.7,298.7z M193.1,277
		c-0.1-0.1-0.2-0.2-0.4-0.3c-0.1,0.2-0.3,0.4-0.3,0.6c0,0.1,0.2,0.2,0.3,0.3C192.9,277.4,193,277.2,193.1,277z"/>
	<path class="st0" d="M292.9,276.7c1.1-4,4.1-6.6,6.9-9.5c1.5-1.6,4.6-1.9,5-0.2c1.1,4.6,10.7,2.1,7.7,9.3c-1.3,3-3.8,5.4-5.9,8
		c-1.4,1.7-2.3,0.3-3.5-0.4c-2.8-1.7-4.4-5.2-8.2-5.3l0.1,0.2c0.7-1.5,0.1-1.7-1.2-1.2l0.1,0.1c0.7-1.5-0.2-1.4-1.2-1.2L292.9,276.7
		z"/>
	<path class="st0" d="M294.9,278.6c-0.6,1.9,1.2,2.7,2,3.9c2.9,4.6,2.4,7.8-1.8,10.9c-4.3,3.1-7.3,2.8-10.9-1.5
		c-1.5-1.7-2.8-3.6-4.2-5.4c-1.1-1.3-0.6-2.1,0.6-3c1.2-0.8,2.2-1.8,3.4-0.1c0.6,0.9,1.1,1.8,1.9,2.5c2,1.7,3,6.8,6.5,4.1
		c3.9-2.9-1.2-5.1-2.3-7.7c-0.2-0.5-0.7-0.8-0.9-1.3c-0.5-1.1-2.6-1.9-0.9-3.5c1.2-1.2,2.6-2.6,4.4-0.8c0,0-0.2-0.2-0.2-0.2
		c0.1,0.7,0.3,1.3,1.2,1.2l-0.1-0.1c0,0.8,0,1.5,1.2,1.2L294.9,278.6z"/>
	<path class="st0" d="M260.9,307c-3.7-0.1-6.1-1.9-7.3-5.2c-1.2-3.5-1.4-7.1,1.8-9.7c2.9-2.4,6.4-2.7,9.9-1.1c1.1,0.5,2.6,1.5,2,2.7
		c-0.6,1.5-2.4,2.2-3.9,1.2c-2.3-1.5-4.1-1.3-5.1,1.2c-0.9,2.2-0.4,4.7,1.4,6.3c1.9,1.6,3.5,0.6,4.6-1.5c1-1.9,2.9-1.4,4-0.5
		c1.4,1.1,0.1,2.6-0.6,3.7C266.1,306.5,263.4,306.7,260.9,307z"/>
	<path class="st0" d="M271.2,287.2c1.5-0.4,1.9,0.7,2.3,1.7c0.6,1.6,1.4,3.3,1.8,4.9c0.8,3.3,2.2,4.9,5.8,2.9
		c1.1-0.6,2.8-2.1,3.9,0.4c1.3,2.8-1.2,2.8-2.6,3.4c-8.6,3.6-8.6,3.6-11.8-5c-0.6-1.6-1.2-3.3-1.9-4.9
		C267.6,288,269.7,287.8,271.2,287.2z"/>
	<path class="st2" d="M317.1,208.7c1,5.4-2.6,8.1-6.3,10.6c-3.1,2.1-6.9,2.6-10.5,3.5c-1,0.3-2.1,0.8-1.8,2.2
		c0.3,1.3,1.6,1.3,2.6,1.1c3.5-0.8,7-1.7,11.2-2.7c-2,3.8-5.2,4.5-7.9,5.8c-1.9,0.9-3.9,1.5-5.9,2.4c-1.4,0.7-4.3,0.7-3.4,3.1
		c0.9,2.3,3,0.4,4.6,0.1c2.2-0.4,4.3-2.5,7.2-0.9c-3.5,4.3-8.3,5.3-12.9,6.7c-1.9,0.6-5.4,0-5,2.6c0.4,3,3.4,0.8,5.3,0.8
		c0.8,0,1.7,0,3.3,0c-4.1,3.4-8.1,2.8-12.1,2.5c-1.8-0.1-4.7-1.3-5,1.2c-0.3,2.6,2.8,1.9,4.5,2.2c1.5,0.3,3,0.4,5.7,0.7
		c-4.9,4.1-9.2,2.7-13.6,1.9c-2.3-0.4-5.5-4.2-6.7-0.9c-1,2.9,3.7,3.1,6,4.2c0.7,0.4,1.5,0.6,2.7,1c-7,2.5-12-1.3-11.2-7.9
		c0.1-1.2,0.3-2.5,0.3-3.7c-0.1-3.8-0.1-7.2,4.8-8.3c1.5-0.3,2.7-2.6,4-4.1c2.3-2.5,5-4.4,8.5-4.8c1.8-0.2,3.4-0.9,4.8-2
		c1-0.8,2-1.7,1.2-3c-0.7-1.1-2-0.6-2.8,0c-2.6,2-5.1,2-7.7,0.1c-0.9-0.7-2.3-0.7-2.6,0.6c-0.8,4.5-2.8,2.1-4.6,1
		c-1-0.7-2-1.9-3.2-0.6c-1,1.2-0.1,2.3,0.9,3.2c0.7,0.7,1.5,1.3,3,2.7c-3-0.1-5.5,1.7-6.5-1.9c-1.8-6.3-0.3-10.4,4.1-11.9
		c1.9-0.7,3.9-0.5,5.7,0.1c13.8,4.5,26.4,2.4,37.7-6.9c0.4-0.3,0.9-0.3,1.4-0.5L317.1,208.7z"/>
	<path class="st2" d="M182,222.3c2.8,0.9,5.6,1.9,8.5,2.6c1.8,0.4,4.6,2.4,5.4-0.5c0.6-2.3-2.7-2-4.4-2.7c-2.3-0.9-4.7-1.3-6.9-2.4
		c-4.2-2-7-5.2-7.7-10c0.3-0.3,0.6-0.5,0.9-0.8c9.7,7.2,20.2,11.3,32.5,8.8c2.1-0.4,4.2-0.9,6.1-1.6c4.5-1.8,7.5,0.5,9.9,3.7
		c2.2,2.9,1.6,6.6,0.7,9.6c-0.7,2.3-3.9,0.9-5.9,1.1c-0.5-1.1,0.3-1.4,0.7-1.9c1.2-1.1,3.5-2.2,1.9-4.1c-1.5-1.7-2.6,0.7-3.9,1.3
		c-1.5,0.7-3.3,2-3.5-1.2c0-0.3-0.3-0.9-0.4-0.9c-4.2,0.8-8.4,1.3-12.6-0.6c-0.3-0.2-0.8,1.1-0.4,1.7c0.3,0.6,0.8,1.4,1.3,1.5
		c7.9,1.7,13.1,7.4,19.3,11.7c2.1,1.4,3.5,2.2,3.4,4.8c-0.1,1.9,0.3,3.9,0.5,5.8c0.1,1.2,0.6,2.6-0.6,3.4c-1.6,1.1-2.1-0.1-3.1-1.2
		c-1.5-1.6-3.2,0.4-4.7,0.9c-6.9,2.5-10.6,2.3-14-1.1c1.9-1.1,4.1-0.7,6.2-1.1c1.4-0.2,3.2-0.2,2.9-2.1c-0.2-1.6-1.8-1.3-3.1-1.2
		c-3.2,0-6.3,0.1-9.5,0.1c-0.4,0-0.9-0.2-1.3-0.4c0.2-1.9,1.5-1.7,2.8-1.8c1.1-0.1,2.9,0.6,2.8-1.3c-0.1-1.4-1.6-1.5-2.8-1.9
		c-12.3-3.4-13.6-4.1-17.4-9.8c3.9,1.5,7.3,2.8,10.7,4.1c1.2,0.4,2.6,1,3.3-0.4c0.9-1.9-0.9-2.4-2.1-2.9c-5.1-2-10.3-3.7-14.6-7.2
		c-0.5-0.4-0.8-1.1-1.2-1.7C181.6,222.7,181.8,222.5,182,222.3z"/>
	<path class="st2" d="M253,269c-0.1-1.5-0.2-3-0.4-4.7c-1.7,0.3-1.1,1.6-1.4,2.4c-0.4,1.4-0.7,2.9-2.7,2.4c-2.4-0.6-0.8-2.2-0.6-3.3
		c0.2-2.5,1.9-4.8,0.5-8.9c-1.1,4.3-1.9,7.2-2.7,10.2c-0.3,1.2-0.8,2.6-2.4,1.9c-1.3-0.6-0.2-1.8,0.1-2.7
		c5.5-16.7,5.3-33.6,1.8-50.6c-0.6-3.1-1.9-6-2.8-9.1c3.7-1.9,7.6,1.1,11.3-0.4c1.2-0.5,1.7,1.5,1.9,2.7c3.7,19,4.5,38,0.1,56.9
		c-0.3,1.2-1.1,2.3-1.7,3.5C253.7,269.2,253.3,269.1,253,269z M253.2,219.6c0.3,9.1,0.9,18.2,1.3,27.3
		C256,241,255.4,224.1,253.2,219.6z M250.5,228.1c0.1,9.4-0.6,18.8-1.4,28.2C252.2,247,251.5,237.6,250.5,228.1z"/>
	<path class="st2" d="M233.9,269.8c0.6-6,0.1-10.8,2.7-16.2c4.5-9.5,4.1-20.5,0.1-30.4c-1.7-4.1-5.3-7.2-4.5-12.3
		c0.3-1.7,0-3.8,2.2-4.3c2-0.4,2.6,1.6,3.2,2.9c2.2,4.3,3.1,9,3.8,13.7c1.6,12.5,1.6,25-1.6,37.3C239,263.8,238.4,267.4,233.9,269.8
		z"/>
	<path class="st2" d="M258.3,212.9c2.7,0.6,2.5,2.5,2.9,3.9c3.2,14.1,3.1,28.3-0.1,42.4c-0.2,0.7-0.4,1.4-0.6,2
		c-0.3,0.9-0.6,1.8-1.7,1.5c-1.1-0.3-0.7-1.2-0.5-2.1c2.4-10.2,2.5-20.6,1.9-30.9C259.8,224.2,259,218.7,258.3,212.9z"/>
	<path class="st2" d="M228.4,255c-0.3,2.5,1.2,4.5-1,5.3c-0.9,0.4-2.7,0.2-3-1.2C223.8,256.4,226.3,256.5,228.4,255z"/>
	<path class="st2" d="M176.8,209.4c0-0.4-0.3-1.1-0.1-1.3c0.5-0.4,0.8,0.1,1,0.5C177.4,208.8,177.1,209.1,176.8,209.4z"/>
	<path class="st2" d="M317.2,208.9c0.2-0.2,0.3-0.4,0.5-0.6c0,0.2,0.1,0.4,0.1,0.6c-0.2,0-0.5-0.1-0.7-0.2
		C317.1,208.7,317.2,208.9,317.2,208.9z"/>
	<path class="st2" d="M181.5,222.8c-0.3-0.3-0.8-0.8-0.8-0.8c0.6-0.7,1-0.2,1.4,0.3C181.8,222.5,181.6,222.7,181.5,222.8z"/>
	<path class="st2" d="M279.4,174.4c-0.1,3.8-2.1,7.2-6,9.2c-3.7,2-7.4,1.9-11.1-0.2c-4.6-2.6-5.1-5-2-9.3c1.5-2.2,3-4.6,2.9-7.2
		c-0.1-4.4,2.6-4.8,5.9-4.5C275,162.9,279.4,167.8,279.4,174.4z"/>
	<path class="st2" d="M226,185.7c-6.1,0-11.2-4.9-11.3-11c-0.2-6.1,4.7-11.3,10.7-11.6c2.3-0.1,4,0,4.2,3.2c0.2,3.2,1.6,6.1,3.7,8.6
		c3.7,4.5,3.1,7-2.1,9.7C229.5,185.4,227.8,185.7,226,185.7z"/>
	<path class="st2" d="M248,175.3c-3,0-4.8,0-5-2.9c-0.3-4.2-2.1-7.8-5.3-10.5c-2.1-1.8-1.5-3.1-0.2-4.8c3.4-4.4,9.9-5.7,14.7-2.8
		c4.5,2.7,5.1,5.1,2,9.3c-1.8,2.5-3,5.2-3.1,8.3C251,174.8,249.3,175.4,248,175.3z"/>
	<path class="st2" d="M206.7,281.3c2,0.2,3.6,1.2,3.4,3.2c-0.3,2.7-1.7,5.1-4.7,5.4c-1.6,0.2-3.1-1.1-3.1-2.9
		C202.5,284.2,204,282.2,206.7,281.3z"/>
	<path class="st2" d="M239.7,298.7c-0.6,2.4-1,5-4.1,4.5c-2.7-0.4-3-2.6-2.7-4.7c0.3-2.1,0.9-4.3,3.7-4.1
		C239.4,294.6,239.7,296.8,239.7,298.7z"/>
	<path class="st2" d="M193.1,277c-0.1,0.2-0.2,0.4-0.4,0.6c-0.1-0.1-0.3-0.2-0.3-0.3c0.1-0.2,0.2-0.4,0.3-0.6
		C192.9,276.8,193,276.9,193.1,277z"/>
	<path class="st2" d="M295,278.8c-1.2,0.4-1.2-0.4-1.2-1.2C295.1,277.1,295.7,277.3,295,278.8z"/>
	<path class="st2" d="M293.9,277.7c-0.9,0.1-1.1-0.5-1.2-1.2C293.7,276.3,294.7,276.2,293.9,277.7z"/>
	<path class="st0" d="M253.2,219.6c2.2,4.5,2.8,21.4,1.3,27.3C254.1,237.8,253.5,228.7,253.2,219.6z"/>
	<path class="st0" d="M250.5,228.1c0.9,9.5,1.7,18.9-1.4,28.2C249.9,246.9,250.7,237.5,250.5,228.1z"/>
	
		<ellipse transform="matrix(0.7245 -0.6893 0.6893 0.7245 -106.7268 287.4154)" class="st2" cx="306.2" cy="277.2" rx="2.6" ry="1.5"/>
	
		<ellipse transform="matrix(0.7245 -0.6893 0.6893 0.7245 -105.6298 283.4605)" class="st2" cx="301.8" cy="273.9" rx="2.6" ry="1.5"/>
</g>
</svg>
