<?xml version="1.0" encoding="utf-8"?>
<svg xmlns="http://www.w3.org/2000/svg" version="1.1" width="240" height="304.386" viewBox="0 0 446.27 566">
<title>Olaria Atlético Clube </title>
<g fill="#fff">
<path fill="#0c1a6f" d="m351.66,48.282c-7.071-8.29-18.066-13.583-28.322-14.401-2.672-0.213-5.295-0.21-8.333-0.206-8.036,0.01-19.042,0.025-39.173-4.383-12.72-2.784-23.44-8.088-30.18-12.047-7.05-4.135-14.7-10.607-14.78-10.672l-7.75-6.573-7.75,6.577c-13.345,11.344-28.888,19.198-44.948,22.715-20.131,4.407-31.138,4.393-39.175,4.383-3.038-0.004-5.66-0.008-8.332,0.205-10.255,0.818-21.251,6.113-28.324,14.402,0-0.708-37.865-22.741-65.802,6.744-18.432,19.452-3.922,43.531-3.922,43.531h-18.743v66.508s32.547,1.412,32.547,47.058c0,45.65-38.686,66.52-38.686,152.87,0,34.349,20.333,113.96,120.1,143.68,56.94,17.335,81.525,24.079,103.04,57.333,21.513-33.254,46.093-39.998,103.04-57.333,99.764-29.723,120.1-109.33,120.1-143.68,0-86.349-38.691-107.22-38.691-152.86,0-45.646,32.55-47.058,32.55-47.058v-66.514h-18.746s14.515-24.079-3.917-43.531c-27.941-29.484-65.804-7.451-65.804-6.743z"/>
<path d="m396.6,216.26c-3.636-25.663,9.278-47.683,30.488-60.104v-47.644c-5.725,0.251-17.417,0.822-27.168,0.066,12.499-7.326,22.881-20.808,7.833-44.248-14.62-22.789-43.47-11.583-61.03-1.16-2.3-13.439-17.46-16.826-24.33-17.374-8.73-0.694-20.55,1.428-49.12-4.827-18.54-4.061-35.73-13.044-50.13-25.287-14.41,12.242-31.6,21.226-50.14,25.287-28.571,6.255-40.39,4.133-49.116,4.827-6.873,0.548-22.028,3.935-24.327,17.374-17.56-10.423-46.415-21.628-61.041,1.152-15.048,23.439-4.665,36.922,7.833,44.248-9.751,0.755-21.443,0.185-27.168-0.066v47.644c21.21,12.421,34.124,34.442,30.488,60.104-8.109,57.252-37.546,78.964-37.546,144.49,0,65.867,44.445,115.96,103.76,134.62,36.574,11.507,84.343,21.446,107.26,57.11,22.915-35.664,70.685-45.603,107.26-57.11,59.313-18.664,103.76-68.753,103.76-134.62,0-65.522-29.437-87.234-37.546-144.49z"/>
<path fill="#0c1a6f" d="M326.97,484.48c-51.31,16.14-85.87,27.11-103.83,47.94-17.97-20.83-52.54-31.8-103.84-47.94-55.352-17.42-95.769-63.63-95.769-123.73,0-34.216,6.818-53.162,14.835-71.696,19.76-45.688,43.278-103.55-7.776-139.25v-29.436c4.651,0.089,38.862,1.042,38.862-10.833v-4.39c-17.104-4.53-36.307-11.323-21.337-34.64,15.327-23.873,52.319,5.523,67.535,10.542-4.178-13.349-13.188-22.08,9.136-23.857,9-0.716,21.182,1.396,50.649-5.055,22.957-5.026,40.42-16.379,47.699-21.723,7.278,5.345,24.742,16.697,47.699,21.723,29.467,6.451,41.649,4.339,50.649,5.055,22.325,1.778,13.314,10.508,9.136,23.857,15.215-5.018,52.208-34.415,67.535-10.542,14.97,23.316-4.233,30.108-21.336,34.644v4.39c0,11.875,34.211,10.922,38.862,10.833v29.436c-51.055,35.7-27.536,93.562-7.776,139.25,8.017,18.534,14.835,37.479,14.835,71.696,0,60.099-40.418,106.32-95.77,123.74z"/>
<path d="m217.17,233.35c4.01-0.435,8.006-0.447,11.932-0.025v-18.922c-4.42,3.935-8.389,7.912-11.932,11.975v6.972z"/>
<path d="m224.8,201.19c-1.713-0.101-3.435-0.166-5.172-0.166-0.826,0-1.643,0.04-2.464,0.062v6.92c1.974-1.863,4.021-3.71,6.167-5.542,0.497-0.426,0.98-0.845,1.469-1.266z"/>
<path d="m336.57,369.72c3.083,1.232,11.931,4.761,11.931,4.761l-1.126,1.682c-1.06,1.59-26.375,38.928-60.814,38.928-30.729,0-47.229-7.634-55.821-14.398-3.628,0.353-7.302,0.538-11.021,0.538-1.594,0-3.176-0.042-4.753-0.107-8.741,6.653-25.192,13.967-55.265,13.967-2.854,0-5.64-0.277-8.359-0.748-3.341,5.348-6.414,10.264-9.16,14.658,7.726,4.136,16.636,7.964,26.918,11.211,7.689,2.667,14.675,4.598,20.838,6.308,15.074,4.176,26.171,7.352,33.192,17.208,7.021-9.856,18.122-13.036,33.195-17.208,6.164-1.71,13.149-3.642,20.88-6.322,63.365-20.001,74.869-62.101,74.98-62.525l0.485-1.896s8.49,3.865,11.674,5.314c-0.287-4.365-2.031-30.59-2.4-36.137-3.976,3.883-22.477,21.939-25.374,24.766z"/>
<path d="m256.27,469.3-5.842,2.167c2.224,6.059,3.187,9.514,3.245,9.718,0.599,2.215,2.438,2.559,3.824,2.177,0.801-0.221,1.493-0.702,1.897-1.324,0.448-0.695,0.544-1.538,0.275-2.514-0.026-0.102-1.039-3.779-3.399-10.224z"/>
<path d="m253.32,461.66-5.631,2.712c0.772,1.917,1.459,3.687,2.068,5.302l5.845-2.163c-0.668-1.778-1.425-3.729-2.282-5.851z"/>
<path d="m249.19,451.96c-2.111,0.626-4.101,1.259-5.98,1.92,1.338,2.98,2.512,5.711,3.508,8.124,0.086,0.209,0.165,0.405,0.25,0.61l5.63-2.713c-1.012-2.456-2.144-5.106-3.408-7.941z"/>
<path d="M138.64,410.53c-23.26-10.01-38.92-33.12-39.75-34.36l-1.124-1.682s8.845-3.528,11.929-4.761c-2.897-2.827-21.396-20.883-25.372-24.767-0.368,5.547-2.112,31.772-2.405,36.137,3.187-1.453,11.675-5.312,11.675-5.312l0.488,1.894c0.083,0.32,6.663,24.37,37.128,44.755,2.264-3.625,4.754-7.61,7.436-11.901z"/>
<path d="m215.99,120.8,1.18,0.346v22.76h-1.642-23.75v6.228h25.392v25.06c0.85-0.019,1.701-0.033,2.555-0.033,3.158,0,6.284,0.137,9.377,0.393v-25.42h27.003v-6.228h-27.003v-22.76l1.18-0.346c5.708-1.671,10.487-5.298,13.726-10.001-1.516-1.26-3.113-2.735-4.576-4.34-3.378,5.469-9.411,9.134-16.296,9.134-10.564,0-19.16-8.596-19.16-19.161s8.595-19.161,19.16-19.161c3.683,0,7.114,1.063,10.038,2.872,0.579-0.433,1.223-0.775,1.906-1.002,1.511-0.503,3.229-0.409,4.751,0.253,0.222-0.474,0.476-0.925,0.728-1.378-4.552-4.308-10.676-6.972-17.422-6.972-13.999,0-25.389,11.39-25.389,25.388,0,11.203,7.501,21.226,18.242,24.368z"/>
<path d="m234.62,92.792c-1.527-1.632-2.919-3.635-3.518-5.597-0.098-0.296-0.17-0.584-0.229-0.87-0.316,0.928-0.676,1.832-1.109,2.686l3.128,6.688c0.662-0.797,1.214-1.766,1.728-2.907z"/>
<path d="m207.26,96.437c0,0.762,0.072,1.505,0.176,2.239,1.723-0.438,3.585-0.672,5.604-0.747l1.837-6.2c-2.551,0.013-4.895,0.219-7.063,0.616-0.35,1.308-0.554,2.675-0.554,4.092z"/>
<path d="m228.02,91.604-0.283,0.311-0.397,0.136c-0.196,0.068-0.42,0.094-0.633,0.136l-1.934,6.332c3.06,0.048,5.123-0.44,6.641-1.473l-2.854-6.108c-0.173,0.228-0.346,0.454-0.54,0.666z"/>
<path d="m222.16,92.121c-1.857-0.194-3.624-0.315-5.31-0.366l-1.821,6.148c2.012,0.021,4.167,0.17,6.484,0.412,0.46,0.048,0.879,0.077,1.306,0.108l1.86-6.088c-0.743-0.027-1.479-0.1-2.109-0.169l-0.41-0.045z"/>
<path d="m184.57,134.23c0.989,0.653,2.364,0.737,3.424,0.207,0.659-0.328,1.465-1.042,1.558-2.585,0.012-0.191,0.226-3.444,1.09-7.909l-5.672-3.293c-1.329,6.039-1.63,10.769-1.633,10.829-0.094,1.539,0.618,2.344,1.233,2.751z"/>
<path d="m192.13,117.73c0.625-2.154,1.293-4.083,2.006-5.822l-4.212-5.763c-1.44,2.822-2.684,6.092-3.775,9.848-0.268,0.921-0.507,1.83-0.729,2.721l5.626,3.268c0.302-1.355,0.658-2.784,1.084-4.252z"/>
<path d="m196.56,107.03c-1.004-2.452-1.662-5.06-1.937-7.762-1.354,1.448-2.576,3.127-3.691,5.033l4.087,5.593c0.491-1.035,1.005-1.987,1.541-2.864z"/>
<path d="m263.71,123.59c2.114,2.736,3.912,5.611,5.357,8.486l4.433-4.611c-1.938-2.881-4.182-5.645-6.554-8.254l-3.236,4.379z"/>
<path d="m199.33,343.12-4.359,1.411c-0.387,0.619-0.773,1.236-1.158,1.853,0.783,2.355,1.589,4.673,2.411,6.946l5.859-2.197c-0.943-2.614-1.862-5.291-2.753-8.013z"/>
<path d="m262.48,122.06,3.151-4.263c-3.116-3.297-6.385-6.324-9.425-9.003l-1.476,5.751c2.88,2.228,5.475,4.783,7.75,7.515z"/>
<path d="m258.43,181.99c1.242-1.362,2.442-2.708,3.593-4.035l-5.281-3.379c-1.517,1.73-3.094,3.485-4.772,5.281,2.18,0.649,4.337,1.356,6.46,2.133z"/>
<path d="m215.13,223.71-4.922-3.774c-3.037,3.482-5.799,7.036-8.29,10.678l6.133,1.972c2.151-3.012,4.508-5.966,7.079-8.876z"/>
<path d="m198.74,341.31c-0.199-0.623-0.391-1.25-0.586-1.876-0.54,0.865-1.078,1.727-1.617,2.589l2.203-0.713z"/>
<path d="m273,144,6.835-0.943c-0.553-4.816-2.514-9.51-5.271-13.949l-4.623,4.809c1.578,3.498,2.622,6.945,3.059,10.083z"/>
<path d="m202.74,352.92-5.865,2.199c1.298,3.522,2.627,6.92,3.956,10.178l5.253-3.696c-1.123-2.791-2.243-5.69-3.344-8.681z"/>
<path d="m277.41,156.29h-7.057c-1.341,2.341-2.966,4.841-4.898,7.498l6.069,2.154c2.444-3.472,4.429-6.711,5.886-9.652z"/>
<path d="m258.01,173.13,5.27,3.372c2.644-3.107,5.015-6.1,7.097-8.952l-6.119-2.171c-1.868,2.482-3.939,5.065-6.248,7.751z"/>
<path d="m272.09,153.04c-0.209,0.435-0.463,0.896-0.697,1.346h6.902c1.182-2.889,1.712-5.771,1.712-8.616,0-0.273-0.018-0.544-0.027-0.816l-6.785,0.936c0.169,2.759-0.176,5.213-1.105,7.15z"/>
<path d="m201.57,367.11c1.06,2.554,2.114,5.009,3.149,7.351,2.393,0.413,4.815,0.73,7.27,0.945-1.661-3.656-3.411-7.673-5.174-11.985l-5.245,3.689z"/>
<path d="m206.91,234.22-6.095-1.959c-1.658,2.523-3.192,5.091-4.6,7.708,3.062-1.7,6.287-3.106,9.647-4.2,0.341-0.52,0.696-1.035,1.048-1.549z"/>
<path d="m229.51,209.69c2.683-2.291,5.283-4.58,7.813-6.861-2.612-0.539-5.271-0.947-7.961-1.247-1.28,1.123-2.575,2.248-3.894,3.374-5.179,4.422-9.835,8.927-13.997,13.554l4.932,3.781c3.894-4.271,8.252-8.455,13.107-12.601z"/>
<path d="m237.55,96.607c0.354,3.365,3.495,7.146,7.016,10.33l1.275-7.222c-0.399-0.4-0.722-0.757-0.99-1.088-2.611-0.617-5.073-1.712-7.289-3.268-0.053,0.402-0.059,0.817-0.012,1.248z"/>
<path d="m247.5,101.27-1.256,7.122c1.885,1.563,3.773,2.913,5.311,3.901,0.517,0.332,1.025,0.675,1.527,1.028l1.519-5.93c-1.235-1.071-2.419-2.081-3.519-3.017-1.447-1.232-2.623-2.244-3.582-3.104z"/>
<path d="m270.52,217.44c-1.686-1.211-3.407-2.375-5.178-3.467-4.839,7.744-10.236,16.381-16.025,25.646,1.815,0.983,3.583,2.078,5.3,3.272,5.729-9.169,11.083-17.738,15.903-25.451z"/>
<path d="m289.78,174.86-0.589,0.944s-3.755,6.011-10.137,16.224c1.768,1.095,3.503,2.237,5.206,3.425,6.788-10.864,10.804-17.291,10.804-17.291l1.096,0.2c5.521,1.004,11.506-1.97,14.906-7.402,0,0,33.864-54.198,34.922-55.889-0.94-1.496-12.987-20.671-15.26-24.293-2.598,4.17-41.466,66.557-41.466,66.557-1.722,2.755-2.588,5.834-2.588,8.787,0,2.869,0.814,5.619,2.449,7.842l0.657,0.896z"/>
<path d="m159.29,383.68c-21.675,34.688-37.439,59.915-37.963,60.753,1.508,0.942,3.773,2.36,5.281,3.303,0.523-0.84,16.313-26.107,38.031-60.865-1.814-1.017-3.598-2.08-5.349-3.191z"/>
<path d="m243.16,339.87c6.309,8.94,12.385,17.55,17.927,25.404,1.836-0.993,3.62-2.067,5.373-3.186-5.417-7.677-11.354-16.089-17.526-24.834-1.867,0.984-3.797,1.851-5.774,2.616z"/>
<path d="m288.19,403.69c1.454-1.027,3.635-2.564,5.088-3.589-0.356-0.506-4.926-6.981-12.069-17.104-1.741,1.134-3.512,2.225-5.318,3.264,7.274,10.307,11.939,16.919,12.299,17.429z"/>
<path d="m156.66,242.14c1.781-0.176,3.527-0.657,5.229-1.378-2.684-2.683-5.264-5.264-7.748-7.748l-1.858-0.217c-1.986,2.402-3.834,4.919-5.558,7.526,2.119,0.975,4.271,1.598,6.415,1.813,0-0.001,3.518,0.004,3.52,0.004z"/>
<path d="m169.49,224.61-0.392,2.578l0.456,0.456,0.453-2.974,3.187,0.372s-1.112,1.22-3.64,2.602c2.229,2.228,4.52,4.52,6.88,6.879-1.122-1.589-1.743-2.469-1.743-2.469l1.103-0.975c1.471-1.296,2.702-2.758,3.661-4.344l1.549-3.316c0.655-1.911,0.989-3.969,0.989-6.118v-0.101l-0.31-3.609c-0.19-1.143-0.466-2.299-0.821-3.462-1.812,0.901-3.574,1.885-5.312,2.907,0.082,0.633,0.068,1.157,0.068,1.157l-1.687-0.196c-0.191,0.119-0.391,0.226-0.581,0.345l2.317,0.269,0.111,1.341c0.237,2.877-0.363,5.476-1.78,7.721l-0.551,0.873-3.363-0.391,1.285-8.449,0.017-0.104c-0.193,0.128-0.394,0.247-0.586,0.377l-1.232,8.114-4.035-0.471,0.595,0.595,3.362,0.393z"/>
<path d="m179.66,322.52-24.626,24.626c1.825,2.004,3.744,3.922,5.745,5.75l24.378-24.377c-1.972-1.859-3.809-3.862-5.497-5.999z"/>
<path d="m263.31,250.36,20.828-20.828c-1.827-2.002-3.745-3.92-5.75-5.745l-21.092,21.093c2.153,1.694,4.16,3.524,6.014,5.48z"/>
<path d="m137.02,365.16-12.535,12.533-0.579,0.062c-2.125,0.224-4.232,1.281-5.937,2.984-3.364,3.367-4.037,8.174-1.496,10.713,1.001,1.003,2.385,1.531,3.997,1.531,2.345,0,4.791-1.102,6.714-3.024,1.678-1.678,2.768-3.842,2.988-5.934l0.059-0.582,12.536-12.535c-1.983-1.847-3.9-3.764-5.747-5.748z"/>
<path d="m302.43,211.24,12.149-12.15,0.641-0.024c2.262-0.086,4.605-1.188,6.438-3.023,1.926-1.926,3.028-4.375,3.028-6.721,0-1.612-0.529-2.991-1.528-3.991-2.539-2.541-7.347-1.869-10.713,1.497-1.543,1.544-2.575,3.456-2.912,5.387l-0.084,0.513-12.766,12.766c1.984,1.845,3.9,3.762,5.747,5.746z"/>
<path d="m332.76,288.2c0,1.361-0.033,2.715-0.081,4.065h17.241l0.471,0.436c1.651,1.533,4.092,2.411,6.685,2.411,4.758,0,8.629-2.924,8.629-6.514,0-3.594-3.871-6.517-8.629-6.517-2.184,0.002-4.268,0.625-5.875,1.755l-0.427,0.3h-18.096c0.05,1.349,0.082,2.703,0.082,4.064z"/>
<path d="m167.94,284.14h-35.564c-0.068,1.411-0.108,2.829-0.108,4.257,0,1.299,0.042,2.587,0.098,3.873h35.573c-0.199-2.727-0.197-5.442,0.001-8.13z"/>
<path d="m306.89,284.14h-28.665c0.211,2.726,0.222,5.441,0.036,8.129h28.638c0.056-1.285,0.098-2.574,0.098-3.873,0-1.427-0.04-2.845-0.107-4.256z"/>
<path d="m88.641,292.63,0.452-0.365h17.676c-0.048-1.35-0.081-2.704-0.081-4.065s0.033-2.715,0.081-4.064h-17.677l-0.452-0.367c-1.656-1.343-3.897-2.084-6.307-2.084-4.76,0-8.634,2.923-8.634,6.516,0,3.59,3.874,6.514,8.634,6.514,2.412-0.002,4.653-0.742,6.307-2.085z"/>
<path d="M315.23,377.96,302.43,365.16c-1.847,1.983-3.763,3.899-5.746,5.746l12.366,12.365,0.033,0.625c0.125,2.212,1.225,4.508,3.018,6.298,3.366,3.366,8.172,4.038,10.713,1.496,2.54-2.539,1.866-7.35-1.499-10.711-1.594-1.59-3.566-2.636-5.554-2.939l-0.533-0.081z"/>
<path d="m257.46,331.68,21.127,21.126c1.998-1.83,3.916-3.749,5.737-5.755l-20.891-20.891c-1.865,1.997-3.861,3.839-5.973,5.52z"/>
<path d="m130.43,193.16-0.056-0.59c-0.198-2.119-1.29-4.312-2.994-6.017-1.925-1.925-4.374-3.027-6.717-3.027-1.613,0-2.992,0.528-3.995,1.53-1.001,1.002-1.53,2.382-1.53,3.994,0,2.344,1.103,4.792,3.028,6.718,1.678,1.679,3.757,2.737,5.854,2.979l0.567,0.065,12.432,12.432c1.847-1.984,3.765-3.901,5.749-5.748l-12.338-12.336z"/>
<path d="m185.26,247.99-24.282-24.283c-2.008,1.822-3.926,3.74-5.757,5.739l24.542,24.541c1.7-2.149,3.536-4.15,5.497-5.997z"/>
<path d="m219.72,178.45c-60.517,0-109.75,49.234-109.75,109.75,0,60.519,49.235,109.75,109.75,109.75,60.517,0,109.75-49.234,109.75-109.75,0-60.518-49.234-109.75-109.75-109.75zm-0.091,200.59c-49.985,0-90.649-40.664-90.649-90.647,0-49.984,40.665-90.649,90.649-90.649,49.987,0,90.653,40.665,90.653,90.649,0,49.983-40.666,90.647-90.653,90.647z"/>
<path d="m264.64,319.64c0.345-0.458,0.668-0.925,0.996-1.391-0.791-0.738-1.564-1.573-2.315-2.51l-2.88,2.25-1.172-1.5,2.909-2.276c-0.871-1.244-1.711-2.623-2.506-4.11l-3.186,1.77-0.924-1.661,3.245-1.801c-0.666-1.385-1.301-2.846-1.897-4.385l-3.385,1.372-0.711-1.763,3.436-1.391c-0.513-1.455-0.993-2.968-1.429-4.526l-3.482,1.064-0.558-1.814,3.545-1.089c-0.384-1.508-0.73-3.058-1.038-4.629l-3.558,0.756-0.398-1.859,3.616-0.77c-0.127-0.789-0.257-1.583-0.365-2.378-0.109-0.769-0.206-1.542-0.294-2.309l-3.59,0.506-0.271-1.881,3.668-0.517c-0.141-1.6-0.238-3.182-0.283-4.738l-3.64,0.192-0.103-1.899,3.705-0.197c-0.012-1.617,0.033-3.203,0.123-4.745l-3.642-0.125,0.064-1.9,3.718,0.127c0.142-1.64,0.348-3.225,0.603-4.739l-3.597-0.57,0.296-1.877,3.66,0.576c0.353-1.647,0.775-3.2,1.27-4.639l-3.456-1.121,0.589-1.808,3.534,1.146c0.685-1.659,1.474-3.127,2.364-4.373l-2.91-2.19,1.141-1.52,2.976,2.234c0.07-0.075,0.145-0.137,0.216-0.209-1.367-1.28-2.803-2.5-4.319-3.644-11.101-8.365-24.792-11.905-38.554-9.972-1.272,0.179-2.526,0.417-3.77,0.685l-1.931,2.031c1.531,1.408,3.011,2.906,4.437,4.492l2.449-2.094,1.237,1.446-2.437,2.082c1.343,1.583,2.636,3.25,3.868,5l2.607-1.798,1.08,1.567-2.613,1.802c1.15,1.724,2.242,3.526,3.279,5.405l2.812-1.54,0.915,1.668-2.829,1.549c0.963,1.853,1.871,3.774,2.72,5.765l3.021-1.331,0.764,1.741-3.06,1.348c0.766,1.917,1.477,3.895,2.13,5.934l3.27-1.055,0.583,1.811-3.296,1.062c0.597,1.991,1.135,4.041,1.616,6.145l3.463-0.795,0.423,1.855-3.482,0.796c0.423,2.012,0.795,4.076,1.109,6.186l3.603-0.442,0.231,1.885-3.571,0.436c0.289,2.161,0.506,4.289,0.66,6.378l3.567-0.192,0.101,1.897-3.552,0.192c0.123,2.155,0.167,4.277,0.142,6.354l3.463,0.11-0.064,1.904-3.437-0.108c-0.065,2.134-0.205,4.23-0.417,6.282l3.321,0.456-0.257,1.885-3.277-0.448c-0.261,2.147-0.608,4.243-1.025,6.294l3.148,0.706-0.42,1.849-3.136-0.698c-0.474,2.083-1.032,4.122-1.661,6.096l3.008,1.013-0.603,1.801-3.007-1.013c-0.706,2.02-1.485,3.981-2.345,5.872l2.922,1.334-0.606,1.328c13.484-2.068,25.411-9.179,33.636-20.095z"/>
<path d="m266.73,316.64c6.844-10.519,9.645-23.003,7.879-35.551-1.407-10.015-5.601-19.186-12.053-26.667l-0.792,1.049-2.923-2.201c-0.762,1.071-1.46,2.348-2.076,3.807l3.417,1.107-0.584,1.809-3.513-1.139c-0.462,1.333-0.866,2.787-1.205,4.349l3.577,0.564-0.294,1.879-3.649-0.577c-0.25,1.43-0.448,2.937-0.588,4.51l3.622,0.125-0.064,1.901-3.699-0.126c-0.089,1.474-0.128,3.004-0.123,4.579l3.629-0.193,0.103,1.9-3.693,0.195c0.051,1.49,0.141,3.015,0.281,4.573l3.592-0.507,0.262,1.883-3.661,0.517c0.083,0.763,0.186,1.532,0.294,2.312,0.104,0.755,0.218,1.5,0.347,2.244l3.545-0.757,0.398,1.86-3.61,0.769c0.295,1.532,0.628,3.026,0.988,4.475l3.468-1.064,0.558,1.815-3.538,1.09c0.421,1.512,0.883,2.974,1.377,4.366l3.371-1.366,0.713,1.763-3.424,1.392c0.57,1.474,1.173,2.866,1.808,4.174l3.167-1.763,0.923,1.66-3.225,1.795c0.751,1.404,1.539,2.692,2.354,3.847l2.853-2.231,1.173,1.5-2.884,2.256c0.624,0.773,1.259,1.461,1.899,2.077z"/>
<path d="m195.82,327.72c2.133-1.25,4.118-2.681,5.94-4.271l-2.521-2.603,1.367-1.326,2.558,2.646c1.77-1.699,3.358-3.551,4.743-5.52l-3.095-1.859,0.979-1.628,3.167,1.897c1.3-2.07,2.381-4.264,3.219-6.546l-3.464-1.058,0.555-1.82,3.517,1.076c0.704-2.307,1.164-4.685,1.355-7.115h-3.602l-0.002-1.898,3.699-0.006c0.035-1.737-0.067-3.494-0.316-5.263-0.093-0.667-0.207-1.328-0.339-1.982l-3.498,0.937-0.494-1.834,3.559-0.955c-0.627-2.372-1.508-4.64-2.616-6.773l-3.1,1.865-0.981-1.629,3.156-1.899c-1.237-2.085-2.697-4.031-4.348-5.814l-2.456,2.637-1.392-1.294,2.518-2.704c-1.736-1.687-3.651-3.205-5.716-4.535l-1.752,3.164-1.664-0.922,1.789-3.231c-2.092-1.205-4.323-2.221-6.655-3.031l-0.999,3.487-1.829-0.522,1.015-3.543c-2.309-0.679-4.712-1.156-7.177-1.414l-0.189,3.624-1.898-0.098,0.19-3.68c-0.321-0.019-0.648-0.01-0.971-0.02-5.833,10.028-8.142,21.638-6.502,33.305,1.991,14.174,9.553,26.219,20.158,34.238,0.826-0.364,1.641-0.745,2.431-1.16l-1.87-3.102,1.63-0.981,1.901,3.16z"/>
<path d="m181.2,257.5-0.158,3.038c2.61,0.268,5.153,0.771,7.602,1.489l1.004-3.507,1.827,0.523-1.017,3.56c2.471,0.849,4.833,1.921,7.054,3.194l1.761-3.18,1.664,0.92-1.796,3.247c2.2,1.404,4.242,3.014,6.093,4.805l2.472-2.656,1.393,1.297-2.532,2.718c1.778,1.904,3.35,3.988,4.68,6.23l3.119-1.877,0.982,1.63-3.174,1.91c1.194,2.281,2.145,4.711,2.817,7.263l3.518-0.948,0.494,1.839-3.577,0.962c0.15,0.725,0.277,1.468,0.382,2.211,0.262,1.859,0.371,3.706,0.337,5.527h3.628v1.897l-3.717,0.007c-0.193,2.621-0.684,5.192-1.442,7.673l3.487,1.058-0.554,1.82-3.536-1.077c-0.887,2.43-2.035,4.764-3.414,6.969l3.114,1.867-0.98,1.634-3.184-1.911c-1.474,2.11-3.168,4.09-5.058,5.905l2.537,2.622-1.367,1.327-2.573-2.661c-1.926,1.68-4.03,3.199-6.284,4.526l1.878,3.123-1.521,0.915c8.231,4.75,17.796,7.299,27.793,6.934,0.414-0.758,0.82-1.525,1.204-2.31l-3.731-1.705,0.791-1.731,3.752,1.712c0.827-1.834,1.586-3.731,2.269-5.688l-3.941-1.326,0.606-1.809,3.938,1.327c0.608-1.91,1.147-3.878,1.614-5.904l-4.023-0.911,0.419-1.852,4.002,0.903c0.411-1.993,0.744-4.039,1.001-6.136l-3.993-0.538,0.259-1.885,3.944,0.532c0.199-1.987,0.333-4.02,0.397-6.09l-3.887-0.122,0.062-1.905,3.866,0.122c0.018-2.019-0.026-4.083-0.142-6.187l-3.769,0.206-0.102-1.897,3.748-0.206c-0.148-2.046-0.358-4.129-0.641-6.245l-3.708,0.455-0.23-1.891,3.669-0.45c-0.302-2.044-0.661-4.041-1.071-5.989l-3.663,0.839-0.423-1.853,3.683-0.845c-0.469-2.052-0.994-4.047-1.57-5.988l-3.683,1.185-0.584-1.809,3.706-1.193c-0.631-1.976-1.319-3.893-2.059-5.749l-3.646,1.606-0.766-1.741,3.688-1.625c-0.824-1.94-1.708-3.815-2.645-5.62l-3.606,1.973-0.913-1.669,3.62-1.979c-1.003-1.821-2.063-3.567-3.177-5.24l-3.423,2.362-1.079-1.564,3.428-2.368c-1.196-1.695-2.448-3.311-3.749-4.845l-3.138,2.683-1.235-1.446,3.119-2.668c-1.383-1.537-2.818-2.988-4.301-4.348l-2.76,2.902-1.378-1.31,2.717-2.857c-0.265-0.228-0.538-0.438-0.805-0.66-9.937,3.293-18.639,9.5-25.074,18.039-0.114,0.161-0.222,0.325-0.339,0.485z"/>
<path d="m262.65,92.156-4.561-4.106,0.15-0.167c-1.479,0.632-3.071,1.098-4.587,1.368-1.208,0.217-2.325,0.245-3.419,0.222l1.937,6.364c2.415-0.24,4.875-0.886,7.294-1.965,1.125-0.502,2.19-1.081,3.186-1.716z"/>
<path d="m270.49,81.79-6.336,0.604c-0.456,1.908-2.136,3.502-4.288,4.697l4.383,3.945c3.455-2.636,5.774-5.991,6.241-9.246z"/>
<path d="m256.85,76.434c0.455-0.126,0.907-0.194,1.356-0.212l-0.896-5.363,1.877-0.313,0.991,5.957c0.502,0.166,0.992,0.397,1.459,0.708,1.622,1.077,2.285,2.256,2.519,3.272l6.391-0.608c-0.26-2.93-2.116-5.62-5.454-7.846-2.683-1.789-7.416-2.029-11.778-0.598-1.097,0.36-2.496,0.953-3.96,1.876l3.506,5.551c1.2-1.117,2.541-2.023,3.989-2.424z"/>
<path d="m251.51,80.265-3.703-5.863c-1.505,1.188-2.99,2.758-4.207,4.814l6.004,3.555c0.557-0.828,1.196-1.687,1.906-2.506z"/>
<path d="m236.12,82.258c-0.092,0.03-0.255,0.092-0.448,0.188l3.164,0.091c-0.912-0.556-2.001-0.515-2.716-0.279z"/>
<path d="m247.89,85.6c0.196-0.362,0.431-0.777,0.694-1.222l-5.863-3.47c-0.101,0.219-0.205,0.431-0.299,0.659,0.196,0.295,0.352,0.633,0.509,0.978,1.049,0.847,2.921,1.991,4.959,3.055z"/>
<path d="m240.19,84.478-6.099-0.174c-0.122,0.51-0.111,1.131,0.143,1.893,0.667,2.181,2.876,4.731,4.715,6.123,3.22,2.434,7.139,3.649,11.275,3.623l-1.974-6.476-0.37-0.177c-0.229-0.109-0.33-0.189-0.549-0.294-2.879-0.583-5.366-1.738-6.735-3.927,0,0-0.115-0.207-0.229-0.403-0.069-0.067-0.114-0.124-0.177-0.188z"/>
<path d="m127.9,222.36c1.236-1.72,2.521-3.401,3.849-5.046l-4.839-5.505-2.75-3.129v0.004l-7.748-8.814-2.432-2.764v0.001l-8.065-9.175c-1.601-1.821-5.622-6.529-6.009-12.095-0.013-0.179-0.024-0.542-0.024-0.542-0.015-0.53,0.01-1.067,0.069-1.609l5.553,0.646-1.598,10.488,8.51,0.99c0.061-0.169,0.128-0.335,0.198-0.5l-8.108-0.946,1.278-8.406,0.237-1.567,11.213,1.307-0.843,5.542c0.184-0.095,0.375-0.176,0.566-0.257l0.557-3.657,0.237-1.566,11.213,1.303-0.879,5.787c0.159,0.118,0.318,0.233,0.474,0.359l0.687-4.518,0.236-1.565,11.213,1.303-1.517,9.976-7.038-0.821c0.093,0.183,0.175,0.37,0.26,0.555l6.7,0.782-1.091,7.173,0.458,0.458,0.914-6.006,0.237-1.567,11.213,1.308-1.445,9.496c0.202-0.16,0.399-0.325,0.602-0.484l1.123-7.387,0.238-1.566,9.897,1.154c0.247-0.149,0.497-0.292,0.745-0.44l-10.563-1.227,1.276-8.408,0.237-1.568,3.906,0.457,3.588,6.032c0.355,0.598,0.655,1.102,0.882,1.483l1.596,2.684c1.811-1.056,3.65-2.068,5.522-3.025l-1.958-3.32-0.001-0.001c-2.588-4.84-13.005-22.037-13.005-22.037s-1.179-1.876-1.266-2.05c-0.208-0.416-0.889-1.565-2.916-4.645-3.712-5.638-12.826-18.173-31.405-6.594s-35.19,23.013-13.969,46.242l23.985,27.277zm-10.586-47.181-11.214-1.303,1.298-8.529,0.238-1.566,11.212,1.302-1.534,10.096zm11.73,1.365-11.213-1.302,1.299-8.53,0.236-1.566,11.213,1.303-1.535,10.095zm-9.602-11.914,1.28-8.409,0.237-1.566,11.213,1.308-1.516,9.971-11.214-1.304zm10.119,11.978,1.298-8.531,0.237-1.566,11.213,1.303-1.536,10.096-11.212-1.302zm21.351,13.159-11.213-1.307,1.277-8.405,0.236-1.566,11.215,1.303-1.515,9.975zm2.774-14.786c0.946,1.592,1.908,3.211,2.827,4.755l-3.489-0.405,0.662-4.35zm-0.42-0.699-0.762,4.997-11.212-1.308,1.299-8.528,0.237-1.566,7.12,0.828,3.318,5.577zm-6.267-10.535,2.613,4.394-6.704-0.782,0.58-3.824,0.647-4.277c0.942,1.328,1.894,2.806,2.864,4.489zm-3.299-5.093-1.312,8.644-11.213-1.303,1.277-8.408,0.237-1.568,9.864,1.151c0.381,0.468,0.763,0.961,1.147,1.484zm-10.194-7.994c2.816,0.662,5.644,2.479,8.581,5.933l-9.319-1.089,0.512-3.355,0.226-1.489zm-10.046,1.757,0.145-0.071c3.21-1.577,6.297-2.374,9.391-1.8l-0.744,4.899-11.762-1.368c1.002-0.612,1.992-1.173,2.97-1.66zm-15.437,10.113c0.018-0.012,0.036-0.024,0.054-0.036l9.375-6.184,3.033-2-1.558,10.259-7.424-0.865-4.468-0.466-1.451,10.578-5.567-0.651c0.499-3.549,2.678-7.135,8.006-10.635z"/>
<path d="m217.17,343.32v32.379c0.821,0.023,1.638,0.063,2.464,0.063,3.2,0,6.357-0.185,9.468-0.521v-31.945c-4.04,0.442-8.036,0.444-11.932,0.024z"/>
<path fill="#0c1a6f" d="m248.14,276.29c2.212-3.214,5.02-4.821,8.43-4.822,4.571,0,7.905,2.155,10.021,6.464,1.166,2.42,1.788,4.848,1.877,7.285h-5.674c-0.366-1.871-0.84-3.283-1.417-4.238-1.032-1.696-2.558-2.544-4.584-2.544-2.065,0-3.693,1.202-4.878,3.603-1.192,2.385-1.789,5.769-1.789,10.147,0,4.379,0.628,7.668,1.878,9.855,1.262,2.172,2.866,3.263,4.808,3.263,1.988,0,3.5-0.936,4.546-2.809,0.578-1.013,1.058-2.52,1.436-4.533h5.616c-0.494,4.258-1.75,7.719-3.776,10.387-2.013,2.667-4.597,4-7.751,4-3.903,0-6.969-1.801-9.206-5.404-2.231-3.622-3.354-8.584-3.354-14.893,0.001-6.815,1.277-12.069,3.817-15.761z"/>
<path fill="#0c1a6f" d="m220.21,296.51h6.885l-3.386-15.368-3.499,15.368zm0.352-24.296h6.407l9.616,39.048h-6.156l-1.749-8.025h-9.997l-1.879,8.025h-5.928l9.686-39.048z"/>
<path fill="#0c1a6f" d="m195.32,301.86c1.325-2.384,1.989-5.769,1.989-10.167,0-4.385-0.664-7.765-1.989-10.15-1.313-2.401-3.094-3.602-5.339-3.603-2.247,0-4.039,1.192-5.377,3.577-1.339,2.384-2.007,5.778-2.007,10.176s0.668,7.783,2.007,10.167c1.338,2.385,3.13,3.578,5.377,3.578,2.245,0,4.025-1.193,5.339-3.578zm3.553,5.937c-2.048,3.039-5.014,4.558-8.892,4.558-3.881,0-6.844-1.52-8.894-4.558-2.751-3.725-4.125-9.097-4.125-16.104,0-7.157,1.374-12.525,4.125-16.111,2.05-3.037,5.013-4.555,8.894-4.556,3.878,0,6.844,1.519,8.892,4.556,2.738,3.586,4.106,8.955,4.106,16.111,0,7.007-1.369,12.379-4.106,16.104z"/>
<path d="m196.08,336.55c-1.814-1.019-3.563-2.141-5.249-3.353-6.168,9.873-12.229,19.572-18.045,28.88,1.748,1.116,3.526,2.188,5.356,3.18,4.286-6.858,16.465-26.349,17.938-28.707z"/>
<path d="m227.18,340.19c0.379,0,2.536-0.259,3.047-0.332l-2.348-1.068-0.699,1.4z"/>
<path d="m195.14,330.27s-0.976,0.557-1.632,0.821c0,0,2.051,1.407,3.439,2.188l-1.807-3.009z"/>
</g>
</svg>
