<?xml version="1.0" encoding="UTF-8"?>
<!DOCTYPE svg PUBLIC "-//W3C//DTD SVG 1.1//EN" "http://www.w3.org/Graphics/SVG/1.1/DTD/svg11.dtd">
<svg xmlns="http://www.w3.org/2000/svg" version="1.1" width="176px" height="196px" style="shape-rendering:geometricPrecision; text-rendering:geometricPrecision; image-rendering:optimizeQuality; fill-rule:evenodd; clip-rule:evenodd" xmlns:xlink="http://www.w3.org/1999/xlink">
<g><path style="opacity:0.907" fill="#47833d" d="M 86.5,-0.5 C 87.5,-0.5 88.5,-0.5 89.5,-0.5C 100.965,9.10142 114.298,13.7681 129.5,13.5C 134.855,13.1317 140.189,12.965 145.5,13C 155.672,22.3389 165.672,31.8389 175.5,41.5C 175.5,42.5 175.5,43.5 175.5,44.5C 165.422,53.0025 160.422,64.0025 160.5,77.5C 162.675,91.8658 165.009,106.199 167.5,120.5C 166.746,142.069 157.08,158.235 138.5,169C 124,174.945 109.667,181.278 95.5,188C 92.2608,189.736 89.9274,192.236 88.5,195.5C 87.8333,195.5 87.1667,195.5 86.5,195.5C 84.3472,191.183 81.0139,188.016 76.5,186C 65.3949,180.781 54.0615,176.114 42.5,172C 16.2452,159.377 5.07849,138.544 9,109.5C 13.1013,96.7926 14.768,83.7926 14,70.5C 12.8061,59.4397 7.97272,50.4397 -0.5,43.5C -0.5,42.8333 -0.5,42.1667 -0.5,41.5C 9.32824,31.8389 19.3282,22.3389 29.5,13C 45.387,15.173 60.7203,13.173 75.5,7C 79.5796,4.97149 83.2463,2.47149 86.5,-0.5 Z"/></g>
<g><path style="opacity:1" fill="#fdfdfc" d="M 85.5,10.5 C 94.2099,14.5129 103.21,18.0129 112.5,21C 122.478,22.6659 132.478,22.9993 142.5,22C 149.542,28.8421 156.542,35.6754 163.5,42.5C 153.084,56.1686 149.584,71.5019 153,88.5C 155.263,98.6112 157.096,108.778 158.5,119C 158.489,136.694 151.156,150.361 136.5,160C 127.076,164.586 117.409,168.586 107.5,172C 100.676,175.245 94.0089,178.745 87.5,182.5C 81.6581,179.079 75.6581,175.912 69.5,173C 57.1737,169.007 45.507,163.674 34.5,157C 22.7706,147.707 16.7706,135.541 16.5,120.5C 17.5378,110.682 19.3711,101.016 22,91.5C 25.9968,73.4546 22.4968,57.1213 11.5,42.5C 18.6523,35.848 25.6523,29.0147 32.5,22C 46.8978,23.8454 60.8978,22.1788 74.5,17C 78.5599,15.3109 82.2266,13.1442 85.5,10.5 Z"/></g>
<g><path style="opacity:1" fill="#f5bcb2" d="M 115.5,52.5 C 96.9924,52.1698 78.6591,52.5032 60.5,53.5C 59.9569,53.44 59.6236,53.1067 59.5,52.5C 78.329,51.1724 96.9957,51.1724 115.5,52.5 Z"/></g>
<g><path style="opacity:1" fill="#e44326" d="M 60.5,53.5 C 78.6591,52.5032 96.9924,52.1698 115.5,52.5C 110.861,56.9678 106.028,61.3011 101,65.5C 100.503,68.146 100.336,70.8127 100.5,73.5C 103.5,73.5 106.5,73.5 109.5,73.5C 109.5,79.1667 109.5,84.8333 109.5,90.5C 113.846,90.6657 118.179,90.499 122.5,90C 127.079,85.9262 131.079,81.4262 134.5,76.5C 135.497,94.6591 135.83,112.992 135.5,131.5C 131.032,126.861 126.699,122.028 122.5,117C 105.532,112.317 98.3656,118.483 101,135.5C 105.833,139.667 110.667,143.833 115.5,148C 96.8333,148.667 78.1667,148.667 59.5,148C 64.3333,143.833 69.1667,139.667 74,135.5C 76.6344,118.483 69.4678,112.317 52.5,117C 48.2882,121.707 44.2882,126.54 40.5,131.5C 39.1667,113.167 39.1667,94.8333 40.5,76.5C 44.3751,81.0624 48.3751,85.5624 52.5,90C 56.8206,90.499 61.1539,90.6657 65.5,90.5C 65.5,84.8333 65.5,79.1667 65.5,73.5C 68.5,73.5 71.5,73.5 74.5,73.5C 74.6641,70.8127 74.4974,68.146 74,65.5C 69.5624,61.3751 65.0624,57.3751 60.5,53.5 Z"/></g>
<g><path style="opacity:1" fill="#fef6f4" d="M 91.5,77.5 C 95.6344,78.4849 99.9677,78.8182 104.5,78.5C 104.5,85.8333 104.5,93.1667 104.5,100.5C 110.833,100.5 117.167,100.5 123.5,100.5C 123.5,102.833 123.5,105.167 123.5,107.5C 117.132,107.17 110.798,107.504 104.5,108.5C 102.912,115.422 98.5787,119.089 91.5,119.5C 91.5,125.167 91.5,130.833 91.5,136.5C 88.8333,136.5 86.1667,136.5 83.5,136.5C 83.5,130.833 83.5,125.167 83.5,119.5C 76.8735,118.379 72.5402,114.546 70.5,108C 64.1754,107.5 57.8421,107.334 51.5,107.5C 51.5,104.833 51.5,102.167 51.5,99.5C 57.8333,99.5 64.1667,99.5 70.5,99.5C 70.5,92.1667 70.5,84.8333 70.5,77.5C 74.8333,77.5 79.1667,77.5 83.5,77.5C 83.5,73.1667 83.5,68.8333 83.5,64.5C 86.1667,64.5 88.8333,64.5 91.5,64.5C 91.5,68.8333 91.5,73.1667 91.5,77.5 Z"/></g>
<g><path style="opacity:1" fill="#faded6" d="M 40.5,76.5 C 39.1667,94.8333 39.1667,113.167 40.5,131.5C 40.44,132.043 40.1067,132.376 39.5,132.5C 38.1667,113.5 38.1667,94.5 39.5,75.5C 40.1067,75.6236 40.44,75.9569 40.5,76.5 Z"/></g>
<g><path style="opacity:1" fill="#f3ac9c" d="M 134.5,76.5 C 134.56,75.9569 134.893,75.6236 135.5,75.5C 135.833,85 136.167,94.5 136.5,104C 136.513,113.909 136.18,123.076 135.5,131.5C 135.83,112.992 135.497,94.6591 134.5,76.5 Z"/></g>
<g><path style="opacity:1" fill="#f2a18d" d="M 91.5,77.5 C 96.1667,77.5 100.833,77.5 105.5,77.5C 105.5,84.8333 105.5,92.1667 105.5,99.5C 111.69,99.1771 117.69,99.5104 123.5,100.5C 117.167,100.5 110.833,100.5 104.5,100.5C 104.5,93.1667 104.5,85.8333 104.5,78.5C 99.9677,78.8182 95.6344,78.4849 91.5,77.5 Z"/></g>
<g><path style="opacity:1" fill="#e5492c" d="M 96.5,82.5 C 100.304,83.9247 101.971,86.758 101.5,91C 101.519,93.9989 100.852,96.8322 99.5,99.5C 98.3112,100.429 96.9778,100.762 95.5,100.5C 95.8204,103.898 95.487,107.232 94.5,110.5C 93.3349,102.187 93.1683,93.8533 94,85.5C 95.045,84.6266 95.8783,83.6266 96.5,82.5 Z"/></g>
<g><path style="opacity:1" fill="#fde8e2" d="M 96.5,86.5 C 98.7351,87.2858 99.7351,88.9524 99.5,91.5C 99.7981,94.6034 98.4648,96.27 95.5,96.5C 95.2529,93.0613 95.5863,89.728 96.5,86.5 Z"/></g>
<g><path style="opacity:1" fill="#e44022" d="M 90.5,110.5 C 90.5,107.5 90.5,104.5 90.5,101.5C 88.8333,101.5 87.1667,101.5 85.5,101.5C 85.5,104.5 85.5,107.5 85.5,110.5C 84.176,106.893 83.5093,102.893 83.5,98.5C 83.6667,94.5 83.8333,90.5 84,86.5C 86.0008,81.8109 88.3341,81.4776 91,85.5C 91.8232,94.0104 91.6566,102.344 90.5,110.5 Z"/></g>
<g><path style="opacity:1" fill="#f0907c" d="M 86.5,88.5 C 86.5,91.5 86.5,94.5 86.5,97.5C 87.5,97.5 88.5,97.5 89.5,97.5C 89.5,94.8333 89.5,92.1667 89.5,89.5C 90.4767,92.2869 90.81,95.2869 90.5,98.5C 88.8333,98.5 87.1667,98.5 85.5,98.5C 85.1872,94.9581 85.5206,91.6248 86.5,88.5 Z"/></g>
<g><path style="opacity:1" fill="#fefaf9" d="M 89.5,89.5 C 89.5,92.1667 89.5,94.8333 89.5,97.5C 88.5,97.5 87.5,97.5 86.5,97.5C 86.5,94.5 86.5,91.5 86.5,88.5C 87.8597,85.9845 88.8597,86.3178 89.5,89.5 Z"/></g>
<g><path style="opacity:1" fill="#e64e30" d="M 80.5,110.5 C 80.5,107.5 80.5,104.5 80.5,101.5C 78.8333,101.5 77.1667,101.5 75.5,101.5C 75.5,104.5 75.5,107.5 75.5,110.5C 74.1768,107.062 73.5102,103.229 73.5,99C 73.6667,95.1667 73.8333,91.3333 74,87.5C 76.0998,81.3454 78.7665,81.012 82,86.5C 82.1667,90.5 82.3333,94.5 82.5,98.5C 82.4907,102.893 81.824,106.893 80.5,110.5 Z"/></g>
<g><path style="opacity:1" fill="#f3a391" d="M 79.5,88.5 C 80.4794,91.6248 80.8128,94.9581 80.5,98.5C 78.8333,98.5 77.1667,98.5 75.5,98.5C 75.19,95.2869 75.5233,92.2869 76.5,89.5C 76.5,92.1667 76.5,94.8333 76.5,97.5C 77.5,97.5 78.5,97.5 79.5,97.5C 79.5,94.5 79.5,91.5 79.5,88.5 Z"/></g>
<g><path style="opacity:1" fill="#fefaf9" d="M 79.5,88.5 C 79.5,91.5 79.5,94.5 79.5,97.5C 78.5,97.5 77.5,97.5 76.5,97.5C 76.5,94.8333 76.5,92.1667 76.5,89.5C 77.1403,86.3178 78.1403,85.9845 79.5,88.5 Z"/></g>
<g><path style="opacity:1" fill="#f3a392" d="M 80.5,110.5 C 79.5269,108.052 79.1936,105.385 79.5,102.5C 78.5,102.5 77.5,102.5 76.5,102.5C 76.8064,105.385 76.4731,108.052 75.5,110.5C 75.5,107.5 75.5,104.5 75.5,101.5C 77.1667,101.5 78.8333,101.5 80.5,101.5C 80.5,104.5 80.5,107.5 80.5,110.5 Z"/></g>
<g><path style="opacity:1" fill="#f09381" d="M 90.5,110.5 C 89.5269,108.052 89.1936,105.385 89.5,102.5C 88.5,102.5 87.5,102.5 86.5,102.5C 86.8064,105.385 86.4731,108.052 85.5,110.5C 85.5,107.5 85.5,104.5 85.5,101.5C 87.1667,101.5 88.8333,101.5 90.5,101.5C 90.5,104.5 90.5,107.5 90.5,110.5 Z"/></g>
</svg>
