<svg xmlns="http://www.w3.org/2000/svg" viewBox="0 0 540.55 734.88"><defs><style>.cls-1{fill:#f4c144;}.cls-2{fill:#17294e;}.cls-3{fill:#fff;}.cls-4{fill:#feffff;}.cls-5{fill:#fefeff;}.cls-6{fill:#fdfefe;}.cls-7{fill:#fdfdfd;}.cls-8{fill:#182b4f;}.cls-9{fill:#18294e;}.cls-10{fill:#1a2b4e;}.cls-11{fill:#192b50;}</style></defs><title>real brasilia</title><g id="Layer_2" data-name="Layer 2"><g id="Layer_1-2" data-name="Layer 1"><path class="cls-1" d="M5.83,94.83H69.61c14.48,0,41.09-6.26,62.22-23.48S189.91,0,270.24,0,384.61,51.78,410.83,72.52s49.69,22.31,61.43,22.31h62.61s5.61,144.65,5.61,176c0,88.18,5.87,193.57-87.52,314.61-65.22,84.53-174.4,149.49-182.72,149.49-11.37,0-149.63-80.62-223.72-211.58C-.07,441,0,336,0,288,0,204,5.83,94.83,5.83,94.83Z"/><path class="cls-2" d="M28.58,118.28H86.87c13.24,0,37.56-5.72,56.87-21.46s53.09-65.2,126.5-65.2S374.77,78.94,398.73,97.9s45.42,20.38,56.15,20.38H512.1s5.13,132.21,5.13,160.82c0,80.59,5.36,176.91-80,287.54-59.61,77.25-159.39,136.62-167,136.62-10.39,0-136.75-73.68-204.47-193.37-42.58-75.26-42.51-171.18-42.51-215C23.26,218.06,28.58,118.28,28.58,118.28Z"/><rect class="cls-3" x="57.6" y="242.78" width="154.96" height="45.78"/><path class="cls-3" d="M212.56,419.65H63.86S73.65,486.56,119,541.73c52,63.24,93.52,90.79,93.52,90.79Z"/><polygon class="cls-3" points="84.41 340.21 66.99 340.21 57.6 349.41 66.99 359 84.41 359 76.39 349.6 84.41 340.21"/><polygon class="cls-1" points="211.46 340.31 105.05 340.31 95.66 349.51 105.05 359.09 211.46 359.09 203.44 349.7 211.46 340.31"/><polygon class="cls-1" points="278.3 242.78 261.08 242.78 261.08 281.91 269.97 273.5 278.3 281.91 278.3 242.78"/><polygon class="cls-3" points="235.25 349.7 269.69 314.97 304.52 349.7 269.69 384.82 235.25 349.7"/><polygon class="cls-3" points="259.68 587.92 259.68 605.34 268.88 614.73 278.47 605.34 278.47 587.92 269.07 595.95 259.68 587.92"/><polygon class="cls-1" points="259.78 420.87 259.78 567.28 268.98 576.67 278.56 567.28 278.56 420.87 269.17 428.89 259.78 420.87"/><rect class="cls-3" x="325.99" y="242.78" width="154.96" height="45.78"/><path class="cls-3" d="M326,419.65h148.7s-9.78,66.91-55.17,122.08C367.49,605,326,632.52,326,632.52Z"/><polygon class="cls-3" points="456.15 341.46 473.56 341.46 482.95 350.65 473.56 360.24 456.15 360.24 464.17 350.85 456.15 341.46"/><polygon class="cls-1" points="329.09 341.56 435.5 341.56 444.9 350.75 435.5 360.34 329.09 360.34 337.11 350.95 329.09 341.56"/><path class="cls-3" d="M95.89,176.4a17.61,17.61,0,0,1,6.27,4.74c3.81,4.68,3.9,10,2.43,15.44-1.93,7.19-7.7,11.71-15.46,12.11-4.39.23-8.79.12-13.18.14H60.13c-1.86,0-1.89,0-1.89-1.78q0-29.61,0-59.21c0-1-.06-1.87,1.44-1.83,8.86.19,17.73-.28,26.59.28a19.17,19.17,0,0,1,4,.72c7.08,2,11.15,7.09,11.61,14.66.33,5.55-1,10.46-5.54,14.12A2.83,2.83,0,0,0,95.89,176.4Z"/><path class="cls-3" d="M169.79,208.83c-5.76,0-11,0-16.28,0-1.31,0-1.55-.88-1.94-1.73-2.78-5.92-5.52-11.86-8.33-17.77-1.59-3.35-.55-2.67-4.35-2.78-1.44,0-2.88,0-4.31-.07S133,187,133,188.16c0,6.23,0,12.46,0,18.69,0,2,0,2-2,2-3.59,0-7.19,0-10.78,0-1.1,0-1.62-.29-1.53-1.49s0-2.4,0-3.59V148.64c0-2.62-.39-2.62,2.56-2.61h24.2a24.25,24.25,0,0,1,6.4.8,17.73,17.73,0,0,1,13.37,16,24.46,24.46,0,0,1-.2,7.4A16.54,16.54,0,0,1,157,181.56c-1.55.91-1.56.94-.76,2.48q4.86,9.35,9.73,18.69A47.09,47.09,0,0,0,169.79,208.83Z"/><path class="cls-3" d="M174.65,208.63a5.5,5.5,0,0,1,.83-2.49q12.35-28.81,24.74-57.61l.65-1.55a1.42,1.42,0,0,1,1.47-1c3.28,0,6.55,0,9.83,0,1,0,1.29.69,1.6,1.46,1.13,2.81,2.3,5.61,3.44,8.42Q227.5,181,237.78,206.17a5,5,0,0,1,.74,2.66c-4.72,0-9.42,0-14.12,0-1.06,0-1.31-.67-1.6-1.43q-2.13-5.47-4.28-10.92c-.94-2.36-.39-2.12-3-2.12q-9,0-18,0c-2.75,0-2.11-.36-3.19,2.23-1.51,3.6-3,7.21-4.45,10.85-.36.92-.78,1.42-1.88,1.4-4.23-.06-8.47,0-12.7,0A2.48,2.48,0,0,1,174.65,208.63Z"/><path class="cls-3" d="M482.25,208.83c-4.67,0-9.36,0-14.06,0-1.08,0-1.32-.69-1.61-1.43-1.42-3.64-2.83-7.29-4.26-10.93-.83-2.12-.83-2.13-3-2.13H441.11c-2.36,0-1.94-.26-2.88,2-1.54,3.68-3,7.38-4.53,11.08-.3.73-.55,1.42-1.62,1.41-4.39-.06-8.78,0-13.18-.06-.13,0-.25-.15-.4-.23-.14-.86.4-1.52.7-2.23Q431.59,177.4,444,148.49c.22-.51.48-1,.67-1.53a1.35,1.35,0,0,1,1.49-.93c3.19,0,6.39,0,9.58,0a1.65,1.65,0,0,1,1.75,1.27c.61,1.64,1.32,3.25,2,4.87q11.1,27.12,22.19,54.26A3.35,3.35,0,0,1,482.25,208.83Z"/><path class="cls-3" d="M277.87,163.35a5.42,5.42,0,0,1-2-1.55,16.79,16.79,0,0,0-8.2-4.22,8.78,8.78,0,0,0-4.49.26,5,5,0,0,0-3.52,4.14,4.53,4.53,0,0,0,2.16,4.93,25.33,25.33,0,0,0,4.94,2.4c2.16.83,4.35,1.58,6.51,2.41a29.68,29.68,0,0,1,7.46,4.25c10.75,8.2,9,27.16-4.93,32.36C266,212,252,210.69,243.5,199c-1.16-1.6-1.17-1.61.33-2.76q3.53-2.7,7.08-5.35c1.38-1,1.41-1,2.55.37a16.74,16.74,0,0,0,13.81,6.45,8.15,8.15,0,0,0,3.69-.88,5.27,5.27,0,0,0,1.52-8.62,15.22,15.22,0,0,0-4.1-2.87,69.49,69.49,0,0,0-6.82-2.91,37.72,37.72,0,0,1-8.43-4.49c-7-5.12-8.36-13.47-6.61-20.12A17.71,17.71,0,0,1,262,145c9.32-1.06,17.14,1.91,23.33,9,1.21,1.38,1.22,1.41-.09,2.63C282.77,158.88,280.29,161.13,277.87,163.35Z"/><path class="cls-3" d="M334.2,177.42V148.9c0-.56,0-1.12,0-1.68,0-.78.31-1.19,1.12-1.19h12.46c.78,0,1.21.27,1.18,1.1,0,.56,0,1.12,0,1.68v43.86c0,.56,0,1.12,0,1.68,0,.72.33,1,1,1s1.12,0,1.68,0l25.4.07c.56,0,1.12,0,1.68,0a1,1,0,0,1,1.18,1.13c0,3.76,0,7.51,0,11.27a.89.89,0,0,1-1,1H336.71c-2.88,0-2.51.07-2.51-2.65Q334.19,191.81,334.2,177.42Z"/><path class="cls-1" d="M226.79,120.49c-3.16,0-6.35,0-9.54,0a2.18,2.18,0,0,1-2.36-1.5c-1.72-3.85-3.65-7.63-5.31-11.52a3.1,3.1,0,0,0-3.41-2.15c-3.68.05-3.69,0-3.69,3.59,0,3.27,0,6.55,0,9.82,0,1.68,0,1.71-1.76,1.73-2.23,0-4.47,0-6.71,0-.91,0-1.33-.35-1.27-1.27,0-.48,0-1,0-1.44V80.66c0-.48,0-1,0-1.44-.05-1,.35-1.45,1.4-1.42,1.91,0,3.83,0,5.75,0,3.75,0,7.5,0,11.25,0a15.41,15.41,0,0,1,5.17.9c6,2.14,8.52,7.33,8.17,13.69a11,11,0,0,1-5.62,9.46c-1.05.61-1,1.19-.47,2.12,2.84,5.17,5.25,10.58,8.39,15.59C226.9,119.75,227.07,120,226.79,120.49Z"/><path class="cls-3" d="M316.69,177.53v28.3a11.53,11.53,0,0,0,0,1.44c.19,1.35-.51,1.61-1.68,1.58-2.4-.06-4.8,0-7.19,0-1.6,0-3.2,0-4.8,0-.8,0-1.18-.31-1.12-1.13,0-.48,0-1,0-1.44q0-28.77,0-57.55c0-2.87-.36-2.68,2.72-2.68,3.36,0,6.71,0,10.07,0,2,0,2,0,2,2Q316.71,162.79,316.69,177.53Z"/><path class="cls-3" d="M407.94,177.52v29c0,2.39.3,2.29-2.35,2.29-3.52,0-7,0-10.55,0-1.83,0-1.86,0-1.87-1.83,0-4.8,0-9.6,0-14.39V149c0-.56,0-1.12,0-1.68-.05-.95.43-1.26,1.31-1.26,4.07,0,8.15,0,12.23,0,.92,0,1.26.38,1.25,1.29,0,2.56,0,5.12,0,7.67Z"/><path class="cls-1" d="M235.35,99.06q0-9.48,0-18.94c0-2.29,0-2.31,2.14-2.31q12.7,0,25.41,0c2.05,0,2.06,0,2.08,2.13,0,1.51,0,3,0,4.55,0,2.25,0,2.26-2.19,2.28l-14.14.1c-.56,0-1.12,0-1.68,0-1.19-.11-1.75.28-1.68,1.59a49.64,49.64,0,0,1,0,5c-.06,1.24.38,1.67,1.62,1.68,3.28,0,6.55.12,9.82.21,2.08.05,2.08.05,2.1,2.11,0,1.6-.06,3.2,0,4.8.06,1.18-.44,1.49-1.54,1.49-3.36,0-6.71.1-10.07.15-2.09,0-1.94.19-1.93,2,0,1.28.06,2.56,0,3.84s.33,1.74,1.61,1.68c1.67-.08,3.35,0,5,0,4.23,0,8.47,0,12.7,0,1.7,0,1.72.07,1.75,1.78,0,1.91-.05,3.84,0,5.75.05,1.19-.44,1.51-1.55,1.49-2.71-.05-5.43,0-8.14,0q-9.6,0-19.18,0c-2.17,0-2.18,0-2.18-2.26Q235.34,108.65,235.35,99.06Z"/><path class="cls-1" d="M314.23,120.49c-3,0-6,0-9,0a1.62,1.62,0,0,1-1.74-1.25c-.84-2.24-1.78-4.45-2.56-6.71a2.29,2.29,0,0,0-2.56-1.86c-4,.12-8,.08-12,0a1.94,1.94,0,0,0-2.13,1.43c-.9,2.39-1.92,4.74-2.87,7.11-.29.71-.59,1.26-1.51,1.25-2.94,0-5.88,0-8.81,0a3.63,3.63,0,0,1,.57-2.2c5.47-12.78,11-25.54,16.4-38.33.69-1.63,1.52-2.41,3.35-2.18a22.13,22.13,0,0,0,4.07,0,2,2,0,0,1,2.28,1.55c2.2,5.57,4.51,11.09,6.78,16.64q4.59,11.19,9.17,22.39A3.64,3.64,0,0,1,314.23,120.49Z"/><path class="cls-1" d="M321.18,99.13q0-9.72,0-19.42c0-1.86,0-1.88,1.83-1.9,2.24,0,4.48,0,6.71,0,1.16,0,1.57.4,1.51,1.53s0,2.4,0,3.6v25.41c0,.56,0,1.13,0,1.68-.09,1.08.46,1.41,1.44,1.34.47,0,1,0,1.43,0,5.44,0,10.87,0,16.3,0,1.83,0,1.85,0,1.87,1.86,0,2,0,4,0,6,0,.92-.35,1.28-1.27,1.27-2.07,0-4.15,0-6.23,0q-10.67,0-21.33,0c-2.23,0-2.25,0-2.25-2.18Q321.17,108.71,321.18,99.13Z"/><path class="cls-3" d="M304.37,644.18c-1.73-2.55-4-3.43-6.59-2.52s-3.61,3.14-4.06,6.09c2.18-1.38,4.22-2.27,6.58-2.07a11.15,11.15,0,0,1,2.81.52c2.59.93,4.43,2.53,4.66,5.45.24,3.13-.79,5.72-3.7,7.17-6,3-14.28-.3-14.64-8.34a13.83,13.83,0,0,1,1.86-8,9.73,9.73,0,0,1,12.25-4.07l.22.1c1.38.68,3,1.48,3.12,3C307,642.54,305.41,643.19,304.37,644.18Z"/><path class="cls-4" d="M251.57,648.59a10.87,10.87,0,0,1,11.1-11c5.88.13,10.53,5.19,10.48,11.42a10.74,10.74,0,0,1-10.82,11A11,11,0,0,1,251.57,648.59Z"/><path class="cls-5" d="M237,655.83c3,0,6.05,0,9.08,0,1.06,0,1.35.37,1.37,1.39.05,2.37.09,2.39-2.27,2.4-4.15,0-8.3,0-12.45,0-1.71,0-1.62-.05-1.78-1.69a4.15,4.15,0,0,1,1.58-3.77,31.5,31.5,0,0,1,6-3.9,17,17,0,0,0,3.63-2.3,4.26,4.26,0,0,0,1.24-4.56c-.55-1.3-2.13-2.07-4-2a5,5,0,0,0-3.88,2.06c-.44.55-.79,1.17-1.2,1.78a5.89,5.89,0,0,1-.7-.26c-2.82-1.47-2.9-2-.74-4.44a9.77,9.77,0,0,1,12.26-1.41c3.23,2.31,3.6,7.18.8,10.4a15.29,15.29,0,0,1-4.46,3.17C239.85,653.53,238.14,654.19,237,655.83Z"/><path class="cls-6" d="M323.74,130.93c-3.94,4.14-7.45,7.83-10.94,11.54a2.13,2.13,0,0,1-1.73.61c-2.07,0-4.14,0-6.16,0-.48-.74.1-1.14.34-1.57,1.75-3.14,3.55-6.25,5.31-9.38a1.87,1.87,0,0,1,1.82-1.22C316,131,319.55,130.93,323.74,130.93Z"/><path class="cls-7" d="M280.37,642.79l-3.28.62c-1,.2-1.48-.14-1.45-1.24.08-2.25-.16-2.31,2-2.77,1.82-.4,3.37-1.73,5.46-1.42,1,.16,1.56.26,1.55,1.49q-.09,9.35,0,18.69c0,1.22-.49,1.55-1.57,1.45a5.35,5.35,0,0,0-1.2,0c-1.15.13-1.52-.36-1.5-1.5,0-4.56,0-9.11,0-13.67Z"/><path class="cls-2" d="M72.1,189.64c0-2,0-4,0-6,0-.75.2-1.23,1.07-1.2,3.74.13,7.5-.29,11.24.28a9.23,9.23,0,0,1,2.94,1,6.54,6.54,0,0,1,3.71,6.9,6.84,6.84,0,0,1-5,6.07,10.85,10.85,0,0,1-2.59.41c-3.28,0-6.55,0-9.83,0-1.11,0-1.59-.3-1.55-1.48C72.15,193.64,72.1,191.64,72.1,189.64Z"/><path class="cls-2" d="M72.1,164.52c0-1.67,0-3.34,0-5,0-.91.29-1.28,1.23-1.26,2.94.06,5.9-.06,8.83.1,3.73.21,6.16,2.62,6.28,5.93s-2.09,5.95-5.67,6.61c-3.16.57-6.35.14-9.53.26-.81,0-1.14-.34-1.13-1.13C72.12,168.18,72.1,166.35,72.1,164.52Z"/><path class="cls-2" d="M133.15,165.78c0-2,0-4,0-6,0-1,.26-1.44,1.34-1.43,3.36.06,6.72-.07,10.07.07a6.83,6.83,0,0,1,6.78,6.48c.41,4.07-1.44,6.83-5.27,8a15.07,15.07,0,0,1-4.28.41q-3.47,0-7,0c-1.63,0-1.65,0-1.67-1.76C133.13,169.61,133.15,167.7,133.15,165.78Z"/><path class="cls-8" d="M213.06,182.47H199.92l6.68-16.32C208.85,171.83,210.88,177,213.06,182.47Z"/><path class="cls-8" d="M456.86,182.48H443.79c2-5.41,4.3-10.57,6.6-16.31C452.62,171.78,454.67,177,456.86,182.48Z"/><path class="cls-9" d="M207.2,86.31c1.12,0,2.24-.06,3.35,0,2.45.18,4,1.73,4.33,4.31a4.68,4.68,0,0,1-3.12,5.3,11.24,11.24,0,0,1-4.5.45c-1.48-.09-3.34.68-4.36-.38s-.25-2.74-.29-4.16,0-2.88,0-4.31c0-.92.35-1.3,1.26-1.26,1.12,0,2.24,0,3.35,0Z"/><path class="cls-10" d="M288.15,102.56c1.45-3.59,2.85-7,4.43-10.92,1.76,3.74,3,7.26,4.44,10.92Z"/><path class="cls-11" d="M299.18,656.29a6.57,6.57,0,0,1-2.74-.61,3.16,3.16,0,0,1-2.07-2.71,3.06,3.06,0,0,1,1.62-3,6,6,0,0,1,5.94-.33,3.08,3.08,0,0,1,1.91,3.27,3.28,3.28,0,0,1-2.27,3.06A7,7,0,0,1,299.18,656.29Z"/><path class="cls-2" d="M255.75,649.14c0-7.42,6.16-8.93,9.62-7a8.09,8.09,0,0,1,3.12,10.05,6.14,6.14,0,0,1-5.25,4,6.27,6.27,0,0,1-6.06-2.64A7.08,7.08,0,0,1,255.75,649.14Z"/></g></g></svg>