<?xml version="1.0" encoding="UTF-8"?>
<!DOCTYPE svg PUBLIC "-//W3C//DTD SVG 1.1//EN" "http://www.w3.org/Graphics/SVG/1.1/DTD/svg11.dtd">
<svg xmlns="http://www.w3.org/2000/svg" version="1.1" width="1312px" height="1312px" style="shape-rendering:geometricPrecision; text-rendering:geometricPrecision; image-rendering:optimizeQuality; fill-rule:evenodd; clip-rule:evenodd" xmlns:xlink="http://www.w3.org/1999/xlink">
<g><path style="opacity:0.432" fill="#cea343" d="M 476.5,-0.5 C 478.167,-0.5 479.833,-0.5 481.5,-0.5C 478.804,1.60654 475.971,3.60654 473,5.5C 472.5,5.33333 472,5.16667 471.5,5C 473.201,3.1606 474.868,1.32727 476.5,-0.5 Z"/></g>
<g><path style="opacity:0.325" fill="#cea343" d="M 819.5,1.5 C 821.088,2.63526 821.421,3.96859 820.5,5.5C 818.358,4.56289 818.024,3.22955 819.5,1.5 Z"/></g>
<g><path style="opacity:0.979" fill="#cfa243" d="M 645.5,13.5 C 664.208,11.0795 681.042,15.4128 696,26.5C 704.675,39.1613 702.508,49.6613 689.5,58C 732.329,60.6375 773.996,68.9708 814.5,83C 837.254,91.439 857.087,104.272 874,121.5C 889.789,142.366 889.123,162.699 872,182.5C 862.104,192.566 850.937,200.899 838.5,207.5C 824.548,234.572 810.215,261.405 795.5,288C 701.832,288.833 608.165,288.667 514.5,287.5C 500,261.167 485.5,234.833 471,208.5C 454.946,200.778 441.613,189.778 431,175.5C 416.399,150.703 420.232,129.203 442.5,111C 464.795,94.5558 489.461,82.8892 516.5,76C 551.274,66.7598 586.608,60.7598 622.5,58C 606.353,45.344 606.687,33.0107 623.5,21C 630.578,17.3637 637.911,14.8637 645.5,13.5 Z M 622.5,124.5 C 605.65,109.702 587.984,108.702 569.5,121.5C 584.411,95.4243 606.411,78.591 635.5,71C 628.892,88.2641 624.559,106.097 622.5,124.5 Z M 746.5,123.5 C 740.499,119.833 734.165,116.666 727.5,114C 714.658,110.192 702.658,112.025 691.5,119.5C 689.059,102.743 685.226,86.4093 680,70.5C 709.48,79.1619 731.646,96.8285 746.5,123.5 Z M 491.5,124.5 C 485.435,115.969 477.102,111.969 466.5,112.5C 475.789,103.175 486.789,96.3415 499.5,92C 516.303,85.465 533.636,81.465 551.5,80C 530.063,87.7826 511.563,99.9493 496,116.5C 494.223,119.059 492.723,121.726 491.5,124.5 Z M 760.5,79.5 C 784.336,81.9586 807.002,88.4586 828.5,99C 834.294,102.309 839.627,106.142 844.5,110.5C 839.725,111.219 835.392,113.052 831.5,116C 828.268,119.062 825.268,122.229 822.5,125.5C 813.59,111.092 801.59,99.9255 786.5,92C 777.864,87.5134 769.197,83.3467 760.5,79.5 Z"/></g>
<g><path style="opacity:1" fill="#f60c01" d="M 648.5,24.5 C 658.417,23.4805 667.751,25.3138 676.5,30C 685.421,39.5421 683.755,46.8754 671.5,52C 659.522,55.8717 647.855,55.205 636.5,50C 634.667,48.1667 632.833,46.3333 631,44.5C 628.925,37.4895 631.092,32.3228 637.5,29C 641.157,27.1776 644.824,25.6776 648.5,24.5 Z"/></g>
<g><path style="opacity:0.992" fill="#f60b01" d="M 844.5,110.5 C 860.98,123.477 865.147,139.81 857,159.5C 842.024,187.81 820.524,209.31 792.5,224C 806.427,208.989 816.927,191.822 824,172.5C 829.027,156.615 828.527,140.949 822.5,125.5C 825.268,122.229 828.268,119.062 831.5,116C 835.392,113.052 839.725,111.219 844.5,110.5 Z"/></g>
<g><path style="opacity:0.995" fill="#f60800" d="M 746.5,123.5 C 746.5,124.167 746.833,124.5 747.5,124.5C 759.991,147.119 763.491,171.119 758,196.5C 749.101,218.724 732.601,230.89 708.5,233C 698.383,233.994 688.383,233.328 678.5,231C 677.572,230.612 676.905,229.945 676.5,229C 690.697,193.786 695.697,157.286 691.5,119.5C 702.658,112.025 714.658,110.192 727.5,114C 734.165,116.666 740.499,119.833 746.5,123.5 Z"/></g>
<g><path style="opacity:0.993" fill="#f60b01" d="M 466.5,112.5 C 477.102,111.969 485.435,115.969 491.5,124.5C 483.603,139.271 482.436,154.604 488,170.5C 494.284,189.762 504.284,206.762 518,221.5C 518.688,222.332 518.521,222.998 517.5,223.5C 494.989,209.824 476.155,192.157 461,170.5C 454.084,159.429 451.084,147.429 452,134.5C 453.449,129.601 455.449,124.935 458,120.5C 460.047,116.952 462.88,114.285 466.5,112.5 Z"/></g>
<g><path style="opacity:0.995" fill="#f60700" d="M 622.5,124.5 C 619.492,160.783 624.825,195.783 638.5,229.5C 610.961,238.761 586.794,233.428 566,213.5C 559.892,206.28 556.225,197.947 555,188.5C 551.927,164.815 556.427,142.815 568.5,122.5C 569.167,122.5 569.5,122.167 569.5,121.5C 587.984,108.702 605.65,109.702 622.5,124.5 Z"/></g>
<g><path style="opacity:0.309" fill="#cea343" d="M 958.5,128.5 C 962.433,130.909 962.266,132.909 958,134.5C 957.82,132.512 957.986,130.512 958.5,128.5 Z"/></g>
<g><path style="opacity:1" fill="#f51502" d="M 518.5,141.5 C 530.416,140.835 534.083,146.002 529.5,157C 521.116,161.614 515.783,159.28 513.5,150C 514.137,146.537 515.803,143.704 518.5,141.5 Z"/></g>
<g><path style="opacity:1" fill="#f51202" d="M 786.5,141.5 C 795.825,140.327 799.992,144.327 799,153.5C 796.647,158.426 792.814,160.26 787.5,159C 782.268,156.367 780.435,152.201 782,146.5C 783.366,144.638 784.866,142.972 786.5,141.5 Z"/></g>
<g><path style="opacity:1" fill="#f51703" d="M 528.5,189.5 C 538.094,189.706 541.594,194.373 539,203.5C 533.667,208.833 528.333,208.833 523,203.5C 520.676,197.153 522.51,192.487 528.5,189.5 Z"/></g>
<g><path style="opacity:1" fill="#f51202" d="M 778.5,189.5 C 788.102,189.727 791.602,194.394 789,203.5C 785.95,207.13 782.117,208.297 777.5,207C 772.845,204.103 771.345,199.937 773,194.5C 774.406,192.256 776.239,190.59 778.5,189.5 Z"/></g>
<g><path style="opacity:1" fill="#f60c01" d="M 650.5,246.5 C 667.339,245.501 673.839,253.168 670,269.5C 664.151,277.75 656.651,279.583 647.5,275C 640.777,269.495 638.943,262.661 642,254.5C 644.157,251.024 646.99,248.357 650.5,246.5 Z"/></g>
<g><path style="opacity:1" fill="#f50e01" d="M 520.5,249.5 C 532.179,248.68 537.679,254.014 537,265.5C 532.731,274.386 526.231,276.552 517.5,272C 510.232,263.374 511.232,255.874 520.5,249.5 Z"/></g>
<g><path style="opacity:1" fill="#f51002" d="M 586.5,249.5 C 600.917,249.4 605.75,256.067 601,269.5C 592.526,276.813 585.193,275.813 579,266.5C 577.181,258.813 579.681,253.146 586.5,249.5 Z"/></g>
<g><path style="opacity:1" fill="#f51102" d="M 717.5,249.5 C 729.816,248.649 734.983,254.316 733,266.5C 728.293,274.624 721.793,276.457 713.5,272C 705.938,262.868 707.272,255.368 717.5,249.5 Z"/></g>
<g><path style="opacity:1" fill="#f50e01" d="M 780.5,249.5 C 794.938,249.419 799.772,256.085 795,269.5C 786.048,277.078 778.714,275.745 773,265.5C 772.333,262.833 772.333,260.167 773,257.5C 775.028,254.308 777.528,251.641 780.5,249.5 Z"/></g>
<g><path style="opacity:0.982" fill="#043821" d="M 241.5,307.5 C 517.167,307.5 792.833,307.5 1068.5,307.5C 1068.67,474.167 1068.5,640.834 1068,807.5C 1036.37,1044.1 908.536,1202.93 684.5,1284C 674.707,1287.38 664.874,1290.54 655,1293.5C 566.06,1267.45 485.227,1226.28 412.5,1170C 306.376,1080.58 249.542,966.082 242,826.5C 241.5,653.5 241.333,480.5 241.5,307.5 Z"/></g>
<g><path style="opacity:1" fill="#867c37" d="M 1035.5,347.5 C 781.833,347.5 528.167,347.5 274.5,347.5C 274.5,503.833 274.5,660.167 274.5,816.5C 273.5,660.001 273.167,503.334 273.5,346.5C 527.667,346.167 781.667,346.5 1035.5,347.5 Z"/></g>
<g><path style="opacity:1" fill="#cea345" d="M 1035.5,347.5 C 1035.67,501.5 1035.5,655.5 1035,809.5C 1006.11,1022.02 891.608,1166.19 691.5,1242C 679.255,1246.47 666.922,1250.64 654.5,1254.5C 568.143,1229.33 490.476,1188.5 421.5,1132C 327.881,1048.13 278.881,942.961 274.5,816.5C 274.5,660.167 274.5,503.833 274.5,347.5C 528.167,347.5 781.833,347.5 1035.5,347.5 Z"/></g>
<g><path style="opacity:1" fill="#fefefe" d="M 290.5,366.5 C 533.167,366.5 775.833,366.5 1018.5,366.5C 1018.67,514.167 1018.5,661.834 1018,809.5C 991.436,1008.35 885.269,1144.85 699.5,1219C 684.568,1224.88 669.401,1230.05 654,1234.5C 580.005,1212.42 512.172,1178.59 450.5,1133C 348.906,1051.65 295.739,945.479 291,814.5C 290.5,665.167 290.333,515.834 290.5,366.5 Z"/></g>
<g><path style="opacity:1" fill="#063922" d="M 645.5,414.5 C 653.324,414.032 660.991,414.865 668.5,417C 673.519,419.694 676.686,423.861 678,429.5C 678.932,451.204 678.598,472.87 677,494.5C 675.092,500.74 670.925,504.573 664.5,506C 656.436,506.863 648.436,506.53 640.5,505C 634.442,502.062 630.942,497.229 630,490.5C 629.333,470.167 629.333,449.833 630,429.5C 632.455,421.543 637.621,416.543 645.5,414.5 Z"/></g>
<g><path style="opacity:1" fill="#073a23" d="M 852.5,414.5 C 861.112,413.795 869.445,414.962 877.5,418C 880.762,420.592 883.262,423.759 885,427.5C 885.5,434.158 885.666,440.825 885.5,447.5C 878.5,447.5 871.5,447.5 864.5,447.5C 864.666,441.158 864.5,434.825 864,428.5C 862,427.167 860,427.167 858,428.5C 857.333,433.167 857.333,437.833 858,442.5C 866.248,450.816 874.581,459.15 883,467.5C 892.36,497.47 881.527,510.303 850.5,506C 842.886,504.053 838.386,499.22 837,491.5C 836.5,484.842 836.334,478.175 836.5,471.5C 843.5,471.5 850.5,471.5 857.5,471.5C 857.334,478.508 857.5,485.508 858,492.5C 860,493.833 862,493.833 864,492.5C 864.667,487.167 864.667,481.833 864,476.5C 855.721,468.221 847.387,459.887 839,451.5C 836.565,443.691 835.898,435.691 837,427.5C 840.258,420.73 845.425,416.397 852.5,414.5 Z"/></g>
<g><path style="opacity:1" fill="#073923" d="M 753.5,414.5 C 761.337,413.968 769.003,414.801 776.5,417C 781.4,418.902 784.567,422.402 786,427.5C 786.667,449.5 786.667,471.5 786,493.5C 784.111,501.035 779.278,505.201 771.5,506C 763.754,506.896 756.087,506.563 748.5,505C 743.419,502.257 740.253,498.09 739,492.5C 738.333,471.167 738.333,449.833 739,428.5C 741.089,420.91 745.922,416.243 753.5,414.5 Z"/></g>
<g><path style="opacity:1" fill="#2f5946" d="M 341.5,416.5 C 341.5,445.833 341.5,475.167 341.5,504.5C 348.167,504.5 354.833,504.5 361.5,504.5C 354.687,505.491 347.687,505.825 340.5,505.5C 340.169,475.662 340.502,445.995 341.5,416.5 Z"/></g>
<g><path style="opacity:1" fill="#053922" d="M 341.5,416.5 C 351.506,416.334 361.506,416.5 371.5,417C 379.514,417.082 385.348,420.582 389,427.5C 389.667,433.833 389.667,440.167 389,446.5C 386.158,453.344 380.992,456.844 373.5,457C 380.843,456.749 386.01,459.916 389,466.5C 389.206,478.878 389.706,491.212 390.5,503.5C 384.021,504.491 377.354,504.824 370.5,504.5C 369.815,502.586 369.315,500.586 369,498.5C 368.667,488.167 368.333,477.833 368,467.5C 366.491,465.081 364.325,464.081 361.5,464.5C 361.5,477.833 361.5,491.167 361.5,504.5C 354.833,504.5 348.167,504.5 341.5,504.5C 341.5,475.167 341.5,445.833 341.5,416.5 Z"/></g>
<g><path style="opacity:1" fill="#4d7161" d="M 395.5,416.5 C 395.5,445.833 395.5,475.167 395.5,504.5C 408.167,504.5 420.833,504.5 433.5,504.5C 420.677,505.495 407.677,505.829 394.5,505.5C 394.169,475.662 394.502,445.995 395.5,416.5 Z"/></g>
<g><path style="opacity:1" fill="#043821" d="M 395.5,416.5 C 408.167,416.5 420.833,416.5 433.5,416.5C 433.5,420.5 433.5,424.5 433.5,428.5C 427.5,428.5 421.5,428.5 415.5,428.5C 415.5,435.5 415.5,442.5 415.5,449.5C 421.167,449.5 426.833,449.5 432.5,449.5C 432.5,453.5 432.5,457.5 432.5,461.5C 426.642,461.178 420.975,461.511 415.5,462.5C 415.5,472.167 415.5,481.833 415.5,491.5C 421.5,491.5 427.5,491.5 433.5,491.5C 433.5,495.833 433.5,500.167 433.5,504.5C 420.833,504.5 408.167,504.5 395.5,504.5C 395.5,475.167 395.5,445.833 395.5,416.5 Z"/></g>
<g><path style="opacity:1" fill="#073a23" d="M 492.5,504.5 C 485.5,504.5 478.5,504.5 471.5,504.5C 471.737,503.209 471.404,502.209 470.5,501.5C 469.946,494.847 469.612,488.18 469.5,481.5C 465.833,481.5 462.167,481.5 458.5,481.5C 457.999,489.369 456.999,497.036 455.5,504.5C 449.074,505.12 443.074,504.453 437.5,502.5C 442.515,473.774 447.848,445.107 453.5,416.5C 462.5,416.5 471.5,416.5 480.5,416.5C 484.78,445.791 488.78,475.124 492.5,504.5 Z"/></g>
<g><path style="opacity:1" fill="#4d7161" d="M 497.5,416.5 C 497.5,445.833 497.5,475.167 497.5,504.5C 510.167,504.5 522.833,504.5 535.5,504.5C 522.677,505.495 509.677,505.829 496.5,505.5C 496.169,475.662 496.502,445.995 497.5,416.5 Z"/></g>
<g><path style="opacity:1" fill="#043821" d="M 497.5,416.5 C 504.167,416.5 510.833,416.5 517.5,416.5C 517.5,441.5 517.5,466.5 517.5,491.5C 523.5,491.5 529.5,491.5 535.5,491.5C 535.5,495.833 535.5,500.167 535.5,504.5C 522.833,504.5 510.167,504.5 497.5,504.5C 497.5,475.167 497.5,445.833 497.5,416.5 Z"/></g>
<g><path style="opacity:1" fill="#053922" d="M 605.5,459.5 C 605.944,466.217 606.777,472.883 608,479.5C 607.657,458.515 607.491,437.515 607.5,416.5C 612.833,416.5 618.167,416.5 623.5,416.5C 623.5,446.167 623.5,475.833 623.5,505.5C 615.248,505.816 607.081,505.482 599,504.5C 593.818,481.925 589.152,459.259 585,436.5C 584.501,440.152 584.335,443.818 584.5,447.5C 584.5,466.5 584.5,485.5 584.5,504.5C 579.167,504.5 573.833,504.5 568.5,504.5C 568.5,475.167 568.5,445.833 568.5,416.5C 578.167,416.5 587.833,416.5 597.5,416.5C 600.424,430.785 603.09,445.118 605.5,459.5 Z"/></g>
<g><path style="opacity:1" fill="#2f5946" d="M 685.5,416.5 C 685.5,445.833 685.5,475.167 685.5,504.5C 692.167,504.5 698.833,504.5 705.5,504.5C 698.687,505.491 691.687,505.825 684.5,505.5C 684.169,475.662 684.502,445.995 685.5,416.5 Z"/></g>
<g><path style="opacity:1" fill="#053922" d="M 685.5,416.5 C 695.506,416.334 705.506,416.5 715.5,417C 728.342,417.337 734.342,423.837 733.5,436.5C 735.04,448.785 729.707,455.619 717.5,457C 724.843,456.749 730.01,459.916 733,466.5C 733.226,478.866 733.726,491.199 734.5,503.5C 728.021,504.491 721.354,504.824 714.5,504.5C 713.91,503.234 713.41,501.901 713,500.5C 712.667,489.5 712.333,478.5 712,467.5C 710.491,465.081 708.325,464.081 705.5,464.5C 705.5,477.833 705.5,491.167 705.5,504.5C 698.833,504.5 692.167,504.5 685.5,504.5C 685.5,475.167 685.5,445.833 685.5,416.5 Z"/></g>
<g><path style="opacity:1" fill="#94aaa0" d="M 793.5,416.5 C 793.5,445.833 793.5,475.167 793.5,504.5C 806.167,504.5 818.833,504.5 831.5,504.5C 831.5,500.167 831.5,495.833 831.5,491.5C 832.486,495.97 832.819,500.637 832.5,505.5C 819.167,505.5 805.833,505.5 792.5,505.5C 792.169,475.662 792.502,445.995 793.5,416.5 Z"/></g>
<g><path style="opacity:1" fill="#063922" d="M 793.5,416.5 C 806.167,416.5 818.833,416.5 831.5,416.5C 831.5,420.5 831.5,424.5 831.5,428.5C 825.5,428.5 819.5,428.5 813.5,428.5C 813.5,435.5 813.5,442.5 813.5,449.5C 819.5,449.5 825.5,449.5 831.5,449.5C 831.5,453.833 831.5,458.167 831.5,462.5C 825.833,462.5 820.167,462.5 814.5,462.5C 814.5,472.167 814.5,481.833 814.5,491.5C 820.167,491.5 825.833,491.5 831.5,491.5C 831.5,495.833 831.5,500.167 831.5,504.5C 818.833,504.5 806.167,504.5 793.5,504.5C 793.5,475.167 793.5,445.833 793.5,416.5 Z"/></g>
<g><path style="opacity:1" fill="#043821" d="M 935.5,416.5 C 935.5,420.5 935.5,424.5 935.5,428.5C 930.968,428.182 926.634,428.515 922.5,429.5C 922.5,454.5 922.5,479.5 922.5,504.5C 915.833,504.5 909.167,504.5 902.5,504.5C 902.831,479.328 902.498,454.328 901.5,429.5C 897.167,429.5 892.833,429.5 888.5,429.5C 888.5,425.167 888.5,420.833 888.5,416.5C 904.167,416.5 919.833,416.5 935.5,416.5 Z"/></g>
<g><path style="opacity:1" fill="#043821" d="M 940.5,416.5 C 953.167,416.5 965.833,416.5 978.5,416.5C 978.5,420.5 978.5,424.5 978.5,428.5C 972.5,428.5 966.5,428.5 960.5,428.5C 960.5,435.5 960.5,442.5 960.5,449.5C 966.5,449.5 972.5,449.5 978.5,449.5C 978.5,453.5 978.5,457.5 978.5,461.5C 972.5,461.5 966.5,461.5 960.5,461.5C 960.173,471.681 960.506,481.681 961.5,491.5C 967.167,491.5 972.833,491.5 978.5,491.5C 978.5,495.833 978.5,500.167 978.5,504.5C 965.833,504.5 953.167,504.5 940.5,504.5C 940.5,475.167 940.5,445.833 940.5,416.5 Z"/></g>
<g><path style="opacity:1" fill="#f9fafa" d="M 651.5,427.5 C 653.467,427.261 655.301,427.594 657,428.5C 657.667,449.833 657.667,471.167 657,492.5C 654.67,494.032 652.67,493.698 651,491.5C 650.179,470.094 650.346,448.76 651.5,427.5 Z"/></g>
<g><path style="opacity:1" fill="#f4f6f5" d="M 760.5,427.5 C 762.467,427.261 764.301,427.594 766,428.5C 766.667,449.5 766.667,470.5 766,491.5C 764.267,493.602 762.267,493.935 760,492.5C 759.179,470.761 759.345,449.094 760.5,427.5 Z"/></g>
<g><path style="opacity:1" fill="#f8faf9" d="M 361.5,427.5 C 363.936,427.317 366.103,427.984 368,429.5C 368.667,436.167 368.667,442.833 368,449.5C 366.211,451.229 364.044,451.896 361.5,451.5C 361.5,443.5 361.5,435.5 361.5,427.5 Z"/></g>
<g><path style="opacity:1" fill="#f8faf9" d="M 705.5,427.5 C 707.936,427.317 710.103,427.984 712,429.5C 712.667,436.167 712.667,442.833 712,449.5C 710.211,451.229 708.044,451.896 705.5,451.5C 705.5,443.5 705.5,435.5 705.5,427.5 Z"/></g>
<g><path style="opacity:1" fill="#93a99f" d="M 831.5,416.5 C 832.485,420.634 832.818,424.968 832.5,429.5C 826.5,429.5 820.5,429.5 814.5,429.5C 814.5,435.833 814.5,442.167 814.5,448.5C 820.358,448.178 826.025,448.511 831.5,449.5C 825.5,449.5 819.5,449.5 813.5,449.5C 813.5,442.5 813.5,435.5 813.5,428.5C 819.5,428.5 825.5,428.5 831.5,428.5C 831.5,424.5 831.5,420.5 831.5,416.5 Z"/></g>
<g><path style="opacity:1" fill="#819b90" d="M 935.5,416.5 C 936.485,420.634 936.818,424.968 936.5,429.5C 931.833,429.5 927.167,429.5 922.5,429.5C 926.634,428.515 930.968,428.182 935.5,428.5C 935.5,424.5 935.5,420.5 935.5,416.5 Z"/></g>
<g><path style="opacity:1" fill="#bfcdc6" d="M 433.5,428.5 C 428.025,429.489 422.358,429.822 416.5,429.5C 416.5,435.833 416.5,442.167 416.5,448.5C 422.358,448.178 428.025,448.511 433.5,449.5C 433.167,449.5 432.833,449.5 432.5,449.5C 426.833,449.5 421.167,449.5 415.5,449.5C 415.5,442.5 415.5,435.5 415.5,428.5C 421.5,428.5 427.5,428.5 433.5,428.5 Z"/></g>
<g><path style="opacity:1" fill="#3d6553" d="M 901.5,429.5 C 902.498,454.328 902.831,479.328 902.5,504.5C 909.167,504.5 915.833,504.5 922.5,504.5C 915.687,505.491 908.687,505.825 901.5,505.5C 901.5,480.167 901.5,454.833 901.5,429.5 Z"/></g>
<g><path style="opacity:1" fill="#aebfb7" d="M 978.5,428.5 C 973.025,429.489 967.358,429.822 961.5,429.5C 961.5,435.833 961.5,442.167 961.5,448.5C 967.358,448.178 973.025,448.511 978.5,449.5C 972.5,449.5 966.5,449.5 960.5,449.5C 960.5,442.5 960.5,435.5 960.5,428.5C 966.5,428.5 972.5,428.5 978.5,428.5 Z"/></g>
<g><path style="opacity:1" fill="#e2e8e6" d="M 463.5,429.5 C 464.805,431.397 465.471,433.731 465.5,436.5C 466.357,447.159 467.023,457.826 467.5,468.5C 465.167,468.5 462.833,468.5 460.5,468.5C 461.971,455.536 462.971,442.536 463.5,429.5 Z"/></g>
<g><path style="opacity:1" fill="#597b6c" d="M 584.5,447.5 C 585.497,466.659 585.83,485.993 585.5,505.5C 579.642,505.822 573.975,505.489 568.5,504.5C 573.833,504.5 579.167,504.5 584.5,504.5C 584.5,485.5 584.5,466.5 584.5,447.5 Z"/></g>
<g><path style="opacity:1" fill="#c0cdc7" d="M 607.5,416.5 C 607.491,437.515 607.657,458.515 608,479.5C 606.777,472.883 605.944,466.217 605.5,459.5C 606.167,445.167 606.833,430.833 607.5,416.5 Z"/></g>
<g><path style="opacity:1" fill="#638476" d="M 432.5,449.5 C 432.833,449.5 433.167,449.5 433.5,449.5C 433.5,453.833 433.5,458.167 433.5,462.5C 427.5,462.5 421.5,462.5 415.5,462.5C 420.975,461.511 426.642,461.178 432.5,461.5C 432.5,457.5 432.5,453.5 432.5,449.5 Z"/></g>
<g><path style="opacity:1" fill="#9db2a9" d="M 978.5,461.5 C 973.025,462.489 967.358,462.822 961.5,462.5C 961.5,472.167 961.5,481.833 961.5,491.5C 960.506,481.681 960.173,471.681 960.5,461.5C 966.5,461.5 972.5,461.5 978.5,461.5 Z"/></g>
<g><path style="opacity:1" fill="#759285" d="M 390.5,503.5 C 391.043,503.56 391.376,503.893 391.5,504.5C 384.344,505.819 377.344,505.819 370.5,504.5C 377.354,504.824 384.021,504.491 390.5,503.5 Z"/></g>
<g><path style="opacity:1" fill="#769386" d="M 437.5,502.5 C 443.074,504.453 449.074,505.12 455.5,504.5C 449.355,505.49 443.022,505.823 436.5,505.5C 436.263,504.209 436.596,503.209 437.5,502.5 Z"/></g>
<g><path style="opacity:1" fill="#6d8c7f" d="M 470.5,501.5 C 471.404,502.209 471.737,503.209 471.5,504.5C 478.5,504.5 485.5,504.5 492.5,504.5C 485.352,505.492 478.019,505.825 470.5,505.5C 470.5,504.167 470.5,502.833 470.5,501.5 Z"/></g>
<g><path style="opacity:1" fill="#759285" d="M 734.5,503.5 C 735.043,503.56 735.376,503.893 735.5,504.5C 728.344,505.819 721.344,505.819 714.5,504.5C 721.354,504.824 728.021,504.491 734.5,503.5 Z"/></g>
<g><path style="opacity:1" fill="#749184" d="M 940.5,416.5 C 940.5,445.833 940.5,475.167 940.5,504.5C 953.167,504.5 965.833,504.5 978.5,504.5C 978.5,500.167 978.5,495.833 978.5,491.5C 979.486,495.97 979.819,500.637 979.5,505.5C 966.167,505.5 952.833,505.5 939.5,505.5C 939.169,475.662 939.502,445.995 940.5,416.5 Z"/></g>
<g><path style="opacity:1" fill="#cca246" d="M 773.5,536.5 C 774.5,536.5 775.5,536.5 776.5,536.5C 775.485,562.408 779.651,587.408 789,611.5C 802.015,634.436 821.848,646.269 848.5,647C 858.85,647.638 869.183,647.471 879.5,646.5C 878.207,762.466 855.707,874.133 812,981.5C 806.03,995.44 799.53,1009.11 792.5,1022.5C 781.269,1012.43 769.602,1002.93 757.5,994C 740.851,984.332 725.184,985.665 710.5,998C 699.137,1009.03 688.137,1020.36 677.5,1032C 665.649,1041.15 654.316,1040.48 643.5,1030C 635.628,1021.8 628.128,1013.3 621,1004.5C 600.783,982.711 578.95,980.878 555.5,999C 548.656,1004.51 541.822,1010.01 535,1015.5C 498.628,957.075 471.961,894.409 455,827.5C 443.396,767.738 438.896,707.404 441.5,646.5C 454.837,646.667 468.171,646.5 481.5,646C 516.26,645.409 537.093,628.243 544,594.5C 546.774,576.271 547.941,557.938 547.5,539.5C 586.585,550.542 626.418,556.875 667,558.5C 703.772,556.792 739.272,549.459 773.5,536.5 Z"/></g>
<g><path style="opacity:1" fill="#0b3821" d="M 764.5,547.5 C 765.833,547.5 767.167,547.5 768.5,547.5C 767.889,573.742 773.056,598.742 784,622.5C 796.373,641.28 813.873,651.78 836.5,654C 848.495,654.5 860.495,654.667 872.5,654.5C 871.475,778.68 844.142,896.68 790.5,1008.5C 789.998,1009.52 789.332,1009.69 788.5,1009C 777.192,997.021 764.192,987.355 749.5,980C 737.04,975.889 725.04,976.889 713.5,983C 708.882,985.95 704.548,989.284 700.5,993C 691.972,1003.71 682.972,1014.04 673.5,1024C 666.355,1029.36 659.022,1029.69 651.5,1025C 640.066,1012.14 628.399,999.477 616.5,987C 597.208,974.377 577.875,974.377 558.5,987C 551.359,991.974 544.359,997.14 537.5,1002.5C 470.29,896.327 440.956,780.327 449.5,654.5C 471.707,655.55 493.373,652.717 514.5,646C 532.476,638.024 543.976,624.524 549,605.5C 553.669,587.133 555.836,568.467 555.5,549.5C 598.663,561.517 642.663,567.017 687.5,566C 713.927,562.476 739.593,556.309 764.5,547.5 Z"/></g>
<g><path style="opacity:1" fill="#f60701" d="M 566.5,565.5 C 628.54,584.364 690.874,585.364 753.5,568.5C 758.523,632.19 792.856,665.857 856.5,669.5C 857.632,780.741 834.132,886.407 786,986.5C 785.667,986.833 785.333,987.167 785,987.5C 771.616,974.059 755.45,966.392 736.5,964.5C 719.576,965.379 705.409,972.046 694,984.5C 687.873,992.295 681.373,999.795 674.5,1007C 666.47,1012.93 658.47,1012.93 650.5,1007C 643.959,1000.13 637.793,992.961 632,985.5C 610.272,962.273 585.772,958.773 558.5,975C 552.478,978.678 546.811,982.845 541.5,987.5C 497.247,913.905 471.08,834.238 463,748.5C 460.965,722.54 460.131,696.54 460.5,670.5C 531.784,671.549 567.117,636.549 566.5,565.5 Z"/></g>
<g><path style="opacity:1" fill="#d0a447" d="M 397.5,592.5 C 399.75,598.508 401.25,604.841 402,611.5C 402.667,619.167 402.667,626.833 402,634.5C 397.958,643.896 391.958,651.896 384,658.5C 382.061,670.1 381.394,681.767 382,693.5C 382.534,689.232 383.867,685.232 386,681.5C 392.584,671.334 398.918,661 405,650.5C 407.274,665.242 406.941,679.909 404,694.5C 398.039,702.795 391.039,710.128 383,716.5C 383.307,726.155 383.973,735.822 385,745.5C 385.957,741.044 387.29,736.711 389,732.5C 397.05,722.785 404.716,712.785 412,702.5C 412.409,715.667 411.076,728.667 408,741.5C 407.333,742.833 406.667,744.167 406,745.5C 400.035,751.535 393.869,757.201 387.5,762.5C 389.474,773.871 391.641,785.204 394,796.5C 394.333,792.167 394.667,787.833 395,783.5C 400.333,772.833 405.667,762.167 411,751.5C 413.973,763.339 414.973,775.339 414,787.5C 410.187,795.321 404.853,801.987 398,807.5C 397.833,808.667 397.667,809.833 397.5,811C 400.236,821.779 402.736,832.612 405,843.5C 405.173,838.416 405.839,833.416 407,828.5C 411.39,819.331 415.39,809.997 419,800.5C 423.119,812.111 424.786,824.111 424,836.5C 420.54,844.295 415.874,851.295 410,857.5C 422.065,908.199 442.565,955.199 471.5,998.5C 467.878,999.659 464.211,999.825 460.5,999C 439.546,962.928 422.546,925.094 409.5,885.5C 401.091,883.712 393.924,879.712 388,873.5C 384.214,865.155 381.881,856.488 381,847.5C 388,853.833 395,860.167 402,866.5C 400.488,858.117 398.488,849.783 396,841.5C 385.534,837.605 376.2,831.938 368,824.5C 362.121,811.635 358.121,798.302 356,784.5C 368.387,795.468 379.887,805.801 390.5,815.5C 389.549,809.127 388.382,802.794 387,796.5C 377.193,791.365 368.526,784.698 361,776.5C 356.576,762.866 354.576,748.866 355,734.5C 363,743.833 371,753.167 379,762.5C 380,764.5 381,766.5 382,768.5C 381.387,758.475 380.22,748.475 378.5,738.5C 368.525,733.025 360.692,725.359 355,715.5C 351.941,702.991 350.941,690.325 352,677.5C 359.952,688.453 368.285,699.12 377,709.5C 377.667,701.167 377.667,692.833 377,684.5C 368.471,677.748 362.138,669.414 358,659.5C 356.875,645.359 357.708,631.359 360.5,617.5C 367.089,631.012 373.922,644.345 381,657.5C 380.635,647.848 380.635,638.181 381,628.5C 386.788,616.593 392.288,604.593 397.5,592.5 Z"/></g>
<g><path style="opacity:1" fill="#d0a548" d="M 922.5,592.5 C 929.113,604.393 935.28,616.726 941,629.5C 941.431,638.521 941.431,647.521 941,656.5C 947.907,643.688 954.573,630.688 961,617.5C 963.815,631.359 964.815,645.359 964,659.5C 959.525,668.808 953.358,676.808 945.5,683.5C 944.335,691.813 944.168,700.147 945,708.5C 953.715,698.12 962.048,687.453 970,676.5C 970.469,690.745 968.803,704.745 965,718.5C 962.925,722.579 960.092,726.079 956.5,729C 952.088,732.29 947.588,735.456 943,738.5C 941.469,747.81 940.469,757.143 940,766.5C 949,755.5 958,744.5 967,733.5C 967.797,749.177 965.13,764.177 959,778.5C 951.235,785.601 942.901,791.934 934,797.5C 932.712,804.85 931.712,812.183 931,819.5C 931.806,816.554 933.139,813.888 935,811.5C 945.298,802.87 955.298,793.87 965,784.5C 963.249,798.761 959.249,812.427 953,825.5C 945.065,832.718 935.899,837.718 925.5,840.5C 923.16,849.523 920.994,858.523 919,867.5C 925.978,860.191 933.311,853.191 941,846.5C 939.931,855.436 937.598,864.103 934,872.5C 931.718,875.568 928.884,878.068 925.5,880C 921.088,882.077 916.754,884.244 912.5,886.5C 898.755,925.324 881.755,962.657 861.5,998.5C 857.541,999.66 853.541,999.827 849.5,999C 878.322,956.01 899.322,909.343 912.5,859C 906.477,852.642 901.644,845.475 898,837.5C 896.801,824.892 898.135,812.559 902,800.5C 906.325,810.132 910.659,819.799 915,829.5C 916.073,833.084 916.74,836.75 917,840.5C 919.345,830.119 921.845,819.786 924.5,809.5C 921.516,806.015 918.349,802.682 915,799.5C 912.148,795.796 909.815,791.796 908,787.5C 907.086,776.426 907.586,765.426 909.5,754.5C 909.833,753.833 910.167,753.167 910.5,752.5C 915.922,762.343 921.089,772.343 926,782.5C 926.333,787.5 926.667,792.5 927,797.5C 929.914,785.271 931.914,772.938 933,760.5C 928.564,757.697 924.397,754.531 920.5,751C 916.007,747.166 913.174,742.333 912,736.5C 910.008,725.235 909.341,713.901 910,702.5C 917.423,713.012 925.09,723.345 933,733.5C 934.125,736.784 935.125,740.117 936,743.5C 938.029,734.222 938.529,724.888 937.5,715.5C 927.962,709.134 920.795,700.801 916,690.5C 915.167,677.154 915.334,663.821 916.5,650.5C 924.515,663.196 932.015,676.196 939,689.5C 939.333,679.489 939,669.489 938,659.5C 929.263,652.112 922.93,643.112 919,632.5C 918.854,619.071 920.021,605.737 922.5,592.5 Z"/></g>
<g><path style="opacity:1" fill="#fffbfb" d="M 751.5,888.5 C 743.826,888.334 736.159,888.5 728.5,889C 729.745,889.791 731.078,890.291 732.5,890.5C 748.514,894.435 764.514,894.435 780.5,890.5C 778.942,896.783 775.942,902.283 771.5,907C 765.476,907.698 759.476,907.532 753.5,906.5C 743.24,904.602 733.24,902.102 723.5,899C 734.904,909.026 748.237,914.36 763.5,915C 757.671,918.543 751.338,920.71 744.5,921.5C 729.649,915.404 715.982,907.237 703.5,897C 702.5,896.333 701.5,896.333 700.5,897C 685.007,908.246 668.007,916.579 649.5,922C 645.885,924.733 644.052,928.233 644,932.5C 645.982,935.81 648.315,938.81 651,941.5C 651.836,945.156 651.169,948.49 649,951.5C 648.237,948.53 646.737,946.03 644.5,944C 635.613,940.204 626.613,936.704 617.5,933.5C 615.143,934.095 612.977,935.095 611,936.5C 610.731,933.72 611.898,931.554 614.5,930C 610.647,929.413 606.98,929.746 603.5,931C 605.836,926.657 609.336,923.824 614,922.5C 619.448,925.594 625.281,927.594 631.5,928.5C 631.5,926.5 631.5,924.5 631.5,922.5C 626.183,922.117 621.183,920.617 616.5,918C 612.048,917.14 608.548,918.64 606,922.5C 603.361,926.639 600.528,930.639 597.5,934.5C 604.523,937.721 611.69,940.721 619,943.5C 621.122,948.652 620.789,953.652 618,958.5C 618.022,954.048 616.522,950.214 613.5,947C 604.135,943.934 594.802,940.767 585.5,937.5C 581.285,938.878 578.119,941.545 576,945.5C 575.525,940.93 577.025,937.096 580.5,934C 576.189,934.074 572.689,935.907 570,939.5C 570.409,933.403 573.575,929.237 579.5,927C 585.816,925.574 590.983,927.407 595,932.5C 605.046,919.576 615.213,906.742 625.5,894C 627.768,892.448 630.268,891.615 633,891.5C 637.649,892.328 642.149,893.661 646.5,895.5C 643.554,898.725 641.721,902.392 641,906.5C 645.532,901.633 650.366,897.133 655.5,893C 641.105,887.974 628.105,880.64 616.5,871C 609.117,866.54 601.783,866.54 594.5,871C 592.932,873.304 591.765,875.804 591,878.5C 590.667,874.833 590.333,871.167 590,867.5C 587.333,870.833 584.667,874.167 582,877.5C 580.86,881.389 581.693,884.722 584.5,887.5C 579.558,888.453 576.058,886.453 574,881.5C 573.078,877.299 573.578,873.299 575.5,869.5C 572.278,859.896 574.444,851.562 582,844.5C 582.333,841.5 582.667,838.5 583,835.5C 586.538,845.751 589.205,845.418 591,834.5C 592.715,837.397 595.215,838.731 598.5,838.5C 598.181,836.25 598.681,834.25 600,832.5C 601.117,834.124 602.617,835.124 604.5,835.5C 615.953,832.695 627.453,830.361 639,828.5C 664.464,771.846 675.798,712.513 673,650.5C 670.266,633.195 662.433,618.695 649.5,607C 666.81,610.627 679.976,620.127 689,635.5C 692.98,642.442 695.98,649.776 698,657.5C 699.069,653.085 699.569,648.585 699.5,644C 699.687,638.834 699.02,633.834 697.5,629C 710.219,631.857 721.885,637.19 732.5,645C 743.624,655.076 748.791,667.576 748,682.5C 742.409,700.679 734.909,718.013 725.5,734.5C 725.667,734.833 725.833,735.167 726,735.5C 737.43,725.405 747.43,714.072 756,701.5C 757.495,715.158 756.162,728.491 752,741.5C 741.868,753.966 730.701,765.466 718.5,776C 729.689,771.987 740.189,766.487 750,759.5C 748.532,773.367 744.865,786.7 739,799.5C 724.322,814.42 707.489,826.254 688.5,835C 704.172,832.754 718.672,827.254 732,818.5C 727.272,830.982 722.772,843.649 718.5,856.5C 706.752,857.904 695.086,857.737 683.5,856C 710.251,870.532 736.584,869.865 762.5,854C 768.687,849.313 774.02,843.813 778.5,837.5C 781.258,843.161 781.925,848.994 780.5,855C 766.668,866.082 751.001,873.082 733.5,876C 752.004,877.555 768.671,872.722 783.5,861.5C 785.094,868.456 784.261,875.123 781,881.5C 771.561,885.422 761.727,887.755 751.5,888.5 Z"/></g>
<g><path style="opacity:1" fill="#fffbfb" d="M 563.5,645.5 C 584.682,644.85 602.849,652.183 618,667.5C 620.014,674.558 622.181,681.558 624.5,688.5C 625.806,687.088 626.64,685.421 627,683.5C 628.469,672.967 627.302,662.8 623.5,653C 644.676,659.178 658.176,673.011 664,694.5C 664.167,697.5 664.333,700.5 664.5,703.5C 661.326,730.202 656.16,756.535 649,782.5C 645.163,795.853 641.329,809.186 637.5,822.5C 633.5,823.5 629.5,824.5 625.5,825.5C 621.757,778.366 611.591,732.699 595,688.5C 590.198,677.39 584.198,667.056 577,657.5C 572.906,652.898 568.406,648.898 563.5,645.5 Z"/></g>
<g><path style="opacity:1" fill="#f82014" d="M 679.5,644.5 C 683.343,650.868 685.509,657.868 686,665.5C 687.589,694.635 684.589,723.302 677,751.5C 670.599,777.104 663.266,802.437 655,827.5C 653.989,828.337 652.822,828.67 651.5,828.5C 662.143,795.733 670.643,762.399 677,728.5C 680.058,710.261 682.225,691.927 683.5,673.5C 683.575,663.622 682.242,653.956 679.5,644.5 Z"/></g>
<g><path style="opacity:1" fill="#f82114" d="M 586.5,658.5 C 595.055,667.914 601.888,678.58 607,690.5C 624.048,729.785 631.048,770.785 628,813.5C 625.835,758.564 612.002,706.898 586.5,658.5 Z"/></g>
<g><path style="opacity:1" fill="#f82619" d="M 719.5,653.5 C 717.444,678.314 708.611,700.647 693,720.5C 691.487,717.976 690.82,715.309 691,712.5C 705.834,695.497 715.334,675.83 719.5,653.5 Z"/></g>
<g><path style="opacity:1" fill="#f8271a" d="M 736.5,666.5 C 737.139,667.097 737.472,667.93 737.5,669C 730.595,695.974 718.762,720.474 702,742.5C 697,748.833 692,755.167 687,761.5C 686.333,758.167 686.333,754.833 687,751.5C 710.186,727.138 726.686,698.805 736.5,666.5 Z"/></g>
<g><path style="opacity:1" fill="#d1a64c" d="M 890.5,853.5 C 893.951,861.076 897.451,868.743 901,876.5C 901.431,883.254 900.765,889.92 899,896.5C 885.411,884.464 882.577,870.131 890.5,853.5 Z"/></g>
<g><path style="opacity:1" fill="#d0a549" d="M 429.5,853.5 C 438.294,869.635 435.96,883.969 422.5,896.5C 420.75,889.588 420.25,882.588 421,875.5C 424.685,868.468 427.519,861.135 429.5,853.5 Z"/></g>
<g><path style="opacity:1" fill="#f82215" d="M 582.5,855.5 C 583.254,858.023 583.92,860.689 584.5,863.5C 582.999,864.752 581.332,865.752 579.5,866.5C 578.386,865.277 578.219,863.944 579,862.5C 580.18,860.14 581.347,857.807 582.5,855.5 Z"/></g>
<g><path style="opacity:1" fill="#fc7d78" d="M 630.5,873.5 C 629.244,873.539 628.244,873.039 627.5,872C 628.998,871.415 629.998,871.915 630.5,873.5 Z"/></g>
<g><path style="opacity:1" fill="#f82719" d="M 630.5,873.5 C 637.795,877.309 645.462,880.309 653.5,882.5C 654.167,882.333 654.833,882.167 655.5,882C 653.844,880.171 651.844,878.837 649.5,878C 660.265,874.421 670.931,874.921 681.5,879.5C 682.231,876.486 681.564,873.653 679.5,871C 679.833,870.833 680.167,870.667 680.5,870.5C 687.838,877.503 696.172,883.003 705.5,887C 699.437,887.062 693.937,885.228 689,881.5C 689.135,884.22 689.468,886.886 690,889.5C 681.091,883.481 671.258,880.648 660.5,881C 662.461,883.963 664.794,886.629 667.5,889C 653.502,887.664 641.169,882.497 630.5,873.5 Z"/></g>
<g><path style="opacity:1" fill="#feb5b3" d="M 751.5,888.5 C 745.167,889.167 738.833,889.833 732.5,890.5C 731.078,890.291 729.745,889.791 728.5,889C 736.159,888.5 743.826,888.334 751.5,888.5 Z"/></g>
<g><path style="opacity:1" fill="#f8291c" d="M 690.5,895.5 C 691.239,895.369 691.906,895.536 692.5,896C 683.941,904.449 673.941,910.616 662.5,914.5C 662.5,912.833 662.5,911.167 662.5,909.5C 657.314,911.924 652.647,915.091 648.5,919C 647.833,919.667 647.167,919.667 646.5,919C 654.085,910.88 662.751,904.214 672.5,899C 673.483,898.409 674.15,898.743 674.5,900C 673.971,901.559 673.304,903.059 672.5,904.5C 672.833,904.833 673.167,905.167 673.5,905.5C 679.724,902.896 685.391,899.563 690.5,895.5 Z"/></g>
<g><path style="opacity:1" fill="#d1a64b" d="M 577.5,1008.5 C 618.583,1006.77 644.083,1025.77 654,1065.5C 656.126,1103.35 639.293,1128.18 603.5,1140C 574.483,1145.55 550.983,1136.72 533,1113.5C 522.799,1097.98 519.132,1080.98 522,1062.5C 529.573,1033.09 548.073,1015.09 577.5,1008.5 Z"/></g>
<g><path style="opacity:1" fill="#d1a64b" d="M 732.5,1008.5 C 774.25,1006.77 800.083,1026.1 810,1066.5C 811.788,1100.77 796.955,1124.6 765.5,1138C 736.067,1146.63 711.234,1139.47 691,1116.5C 676.982,1096.54 673.648,1074.87 681,1051.5C 691.098,1028.56 708.265,1014.22 732.5,1008.5 Z"/></g>
<g><path style="opacity:1" fill="#fefdfb" d="M 594.5,1012.5 C 609.828,1013.25 622.661,1019.25 633,1030.5C 633.833,1032.17 634.667,1033.83 635.5,1035.5C 627.791,1038.97 620.791,1038.14 614.5,1033C 610.065,1030.45 605.399,1028.45 600.5,1027C 597.958,1022.75 595.291,1018.58 592.5,1014.5C 593.243,1013.82 593.909,1013.15 594.5,1012.5 Z"/></g>
<g><path style="opacity:1" fill="#fefdfb" d="M 750.5,1012.5 C 765.545,1013.77 778.378,1019.77 789,1030.5C 789.833,1032.17 790.667,1033.83 791.5,1035.5C 782.936,1039.24 775.269,1038.07 768.5,1032C 764.371,1029.68 760.037,1027.85 755.5,1026.5C 753.675,1022.18 751.342,1018.18 748.5,1014.5C 749.243,1013.82 749.909,1013.15 750.5,1012.5 Z"/></g>
<g><path style="opacity:1" fill="#fefdfc" d="M 572.5,1013.5 C 577.844,1013.33 583.177,1013.5 588.5,1014C 592.72,1017.6 594.887,1022.1 595,1027.5C 589.912,1030.58 585.412,1034.42 581.5,1039C 572.397,1039.03 563.397,1039.86 554.5,1041.5C 551.232,1040.19 549.232,1037.69 548.5,1034C 551.349,1029.16 554.183,1024.32 557,1019.5C 562.106,1017.11 567.273,1015.11 572.5,1013.5 Z"/></g>
<g><path style="opacity:1" fill="#fefdfc" d="M 728.5,1013.5 C 734.29,1013.1 739.956,1013.6 745.5,1015C 747.727,1017.56 749.561,1020.4 751,1023.5C 751.781,1024.94 751.614,1026.28 750.5,1027.5C 745.721,1030.78 741.388,1034.61 737.5,1039C 728.081,1039.06 718.748,1039.89 709.5,1041.5C 706.1,1039.03 704.6,1035.7 705,1031.5C 707.697,1027.48 710.364,1023.48 713,1019.5C 717.894,1016.5 723.06,1014.5 728.5,1013.5 Z"/></g>
<g><path style="opacity:1" fill="#f8f1e4" d="M 550.5,1022.5 C 551.239,1022.37 551.906,1022.54 552.5,1023C 549.727,1025.38 547.561,1028.22 546,1031.5C 541.7,1034.8 537.7,1038.46 534,1042.5C 534.824,1039.2 536.49,1036.2 539,1033.5C 542.729,1029.6 546.562,1025.94 550.5,1022.5 Z"/></g>
<g><path style="opacity:1" fill="#faf4ea" d="M 707.5,1021.5 C 708.239,1021.37 708.906,1021.54 709.5,1022C 705.908,1024.92 703.075,1028.42 701,1032.5C 697.667,1035.17 694.333,1037.83 691,1040.5C 691.398,1038.37 692.398,1036.37 694,1034.5C 698.395,1029.94 702.895,1025.6 707.5,1021.5 Z"/></g>
<g><path style="opacity:1" fill="#fefdfb" d="M 626.5,1039.5 C 630.182,1039.33 633.848,1039.5 637.5,1040C 648.62,1051.93 651.453,1065.76 646,1081.5C 642.063,1083.3 637.896,1084.3 633.5,1084.5C 633.035,1080.94 631.868,1077.61 630,1074.5C 626.952,1069.56 623.785,1064.73 620.5,1060C 621.977,1053.59 622.644,1047.09 622.5,1040.5C 624.099,1040.77 625.432,1040.43 626.5,1039.5 Z"/></g>
<g><path style="opacity:1" fill="#fefdfc" d="M 780.5,1039.5 C 784.846,1039.33 789.179,1039.5 793.5,1040C 796.719,1043.55 799.552,1047.39 802,1051.5C 804.103,1062.22 803.936,1072.89 801.5,1083.5C 797.445,1083.82 793.445,1083.49 789.5,1082.5C 786.585,1074.99 782.418,1068.33 777,1062.5C 776.333,1060.17 776.333,1057.83 777,1055.5C 777.657,1049.92 778.824,1044.58 780.5,1039.5 Z"/></g>
<g><path style="opacity:1" fill="#fefefd" d="M 560.5,1042.5 C 567.175,1042.33 573.842,1042.5 580.5,1043C 585.252,1049.34 588.752,1056.17 591,1063.5C 586.833,1071.83 582.667,1080.17 578.5,1088.5C 570.547,1090.35 562.547,1090.69 554.5,1089.5C 548.764,1082.19 544.764,1074.03 542.5,1065C 544.061,1057.44 547.394,1050.77 552.5,1045C 555.31,1044.22 557.977,1043.38 560.5,1042.5 Z"/></g>
<g><path style="opacity:1" fill="#fefdfc" d="M 716.5,1042.5 C 723.175,1042.33 729.842,1042.5 736.5,1043C 740.367,1049.37 744.034,1055.87 747.5,1062.5C 743.167,1071.17 738.833,1079.83 734.5,1088.5C 726.57,1090.19 718.57,1090.69 710.5,1090C 705.178,1083.19 701.011,1075.69 698,1067.5C 699.167,1058.99 702.667,1051.49 708.5,1045C 711.31,1044.22 713.977,1043.38 716.5,1042.5 Z"/></g>
<g><path style="opacity:1" fill="#fbf6ee" d="M 526.5,1056.5 C 528.057,1061.25 527.557,1065.92 525,1070.5C 524.349,1065.71 524.849,1061.04 526.5,1056.5 Z"/></g>
<g><path style="opacity:1" fill="#f8f0e1" d="M 682.5,1055.5 C 684.218,1061.7 683.384,1067.7 680,1073.5C 679.727,1067.36 680.56,1061.36 682.5,1055.5 Z"/></g>
<g><path style="opacity:1" fill="#fefefd" d="M 597.5,1062.5 C 604.508,1062.33 611.508,1062.5 618.5,1063C 623.81,1069.12 627.976,1075.95 631,1083.5C 630.508,1092.33 627.341,1100.16 621.5,1107C 612.09,1110.47 602.424,1111.3 592.5,1109.5C 589,1103.83 585.5,1098.17 582,1092.5C 581.333,1090.83 581.333,1089.17 582,1087.5C 585.833,1079.83 589.667,1072.17 593.5,1064.5C 594.949,1063.83 596.282,1063.16 597.5,1062.5 Z"/></g>
<g><path style="opacity:1" fill="#fefefd" d="M 751.5,1062.5 C 759.174,1062.33 766.841,1062.5 774.5,1063C 780.379,1069.75 784.712,1077.42 787.5,1086C 785.24,1093.52 781.907,1100.52 777.5,1107C 768.096,1110.18 758.429,1111.18 748.5,1110C 744.375,1103.58 740.375,1097.08 736.5,1090.5C 741.02,1080.79 746.02,1071.45 751.5,1062.5 Z"/></g>
<g><path style="opacity:1" fill="#fefdfb" d="M 529.5,1067.5 C 533.106,1067.21 536.606,1067.54 540,1068.5C 543.054,1076.95 547.387,1084.61 553,1091.5C 551.919,1098.39 551.419,1105.39 551.5,1112.5C 547.154,1112.67 542.821,1112.5 538.5,1112C 525.088,1099.01 522.088,1084.18 529.5,1067.5 Z"/></g>
<g><path style="opacity:1" fill="#fefdfb" d="M 685.5,1067.5 C 688.898,1067.18 692.232,1067.51 695.5,1068.5C 698.388,1076.61 702.554,1083.95 708,1090.5C 708.138,1097.74 707.638,1104.91 706.5,1112C 702.5,1112.67 698.5,1112.67 694.5,1112C 680.758,1099.22 677.758,1084.38 685.5,1067.5 Z"/></g>
<g><path style="opacity:1" fill="#f7efde" d="M 806.5,1066.5 C 808.28,1079.2 806.447,1091.53 801,1103.5C 802.793,1091.22 804.626,1078.88 806.5,1066.5 Z"/></g>
<g><path style="opacity:1" fill="#f9f3e7" d="M 650.5,1068.5 C 652.291,1079.78 650.791,1090.78 646,1101.5C 646.972,1090.46 648.472,1079.46 650.5,1068.5 Z"/></g>
<g><path style="opacity:1" fill="#fefdfb" d="M 618.5,1110.5 C 622.903,1112.29 625.07,1115.62 625,1120.5C 617.997,1127.17 610.164,1132.67 601.5,1137C 596.5,1137.67 591.5,1137.67 586.5,1137C 583.022,1133.7 580.022,1130.03 577.5,1126C 583.209,1123.46 587.876,1119.63 591.5,1114.5C 597.472,1113.67 603.472,1113.17 609.5,1113C 612.678,1112.34 615.678,1111.51 618.5,1110.5 Z"/></g>
<g><path style="opacity:1" fill="#fefdfb" d="M 774.5,1110.5 C 775.675,1110.28 776.675,1110.61 777.5,1111.5C 779.485,1113.93 780.651,1116.6 781,1119.5C 774.225,1127.27 766.059,1133.11 756.5,1137C 751.833,1137.67 747.167,1137.67 742.5,1137C 738.938,1133.94 735.938,1130.44 733.5,1126.5C 739.149,1123.5 743.815,1119.33 747.5,1114C 755.523,1113.6 763.523,1112.93 771.5,1112C 772.737,1111.77 773.737,1111.27 774.5,1110.5 Z"/></g>
<g><path style="opacity:1" fill="#fdfcfa" d="M 550.5,1114.5 C 554.933,1114.76 558.6,1116.59 561.5,1120C 565.714,1122.27 570.047,1124.27 574.5,1126C 576.743,1130.25 579.743,1133.91 583.5,1137C 565.515,1137.67 551.182,1130.84 540.5,1116.5C 543.977,1115.83 547.311,1115.17 550.5,1114.5 Z"/></g>
<g><path style="opacity:1" fill="#fdfcfa" d="M 706.5,1114.5 C 711.152,1115.33 715.152,1117.49 718.5,1121C 722.419,1122.86 726.419,1124.53 730.5,1126C 732.591,1129.93 735.258,1133.43 738.5,1136.5C 721.861,1137.27 708.028,1131.27 697,1118.5C 696.517,1117.55 696.351,1116.55 696.5,1115.5C 700.042,1115.81 703.375,1115.48 706.5,1114.5 Z"/></g>
<g><path style="opacity:1" fill="#f9f2e6" d="M 638.5,1111.5 C 639.525,1111.9 639.692,1112.56 639,1113.5C 634.442,1119.69 628.942,1124.86 622.5,1129C 621.241,1129.98 619.908,1130.32 618.5,1130C 625.363,1123.97 632.03,1117.8 638.5,1111.5 Z"/></g>
<g><path style="opacity:1" fill="#f9f2e5" d="M 795.5,1110.5 C 796.525,1110.9 796.692,1111.56 796,1112.5C 790.096,1119.07 783.596,1124.91 776.5,1130C 775.241,1130.98 773.908,1131.32 772.5,1131C 774.5,1129.67 776.5,1128.33 778.5,1127C 784.035,1121.3 789.702,1115.8 795.5,1110.5 Z"/></g>
</svg>
