<?xml version="1.0" encoding="utf-8"?>
<!-- Generator: Adobe Illustrator 23.1.0, SVG Export Plug-In . SVG Version: 6.00 Build 0)  -->
<svg version="1.1" id="Layer_1" xmlns="http://www.w3.org/2000/svg" xmlns:xlink="http://www.w3.org/1999/xlink" x="0px" y="0px"
	 viewBox="0 0 600 600" style="enable-background:new 0 0 600 600;" xml:space="preserve">
<style type="text/css">
	.st0{fill:#020202;}
	.st1{fill:#FDFDFD;}
	.st2{fill:#BC0405;}
</style>
<g>
	<path class="st0" d="M299.1,6.1c26.4-0.6,54.8,1.8,83.2,4.7c9.1,0.9,18.2,1.9,27.2,2.7c2.6,0.2,3.4,1.1,3.6,3.7
		c2.6,32.2,14.9,60.2,37.4,83.4c19.6,20.3,43.3,33.4,71.2,38.6c7.1,1.3,14.2,2.1,21.4,2.5c2,0.1,2.7,0.7,2.8,2.8
		c1.4,30.3,1.5,60.6-0.8,90.9c-3.2,42.6-10.8,84.4-24.3,125c-22.2,66.7-58.2,124.3-111.4,170.6c-30.7,26.7-65,47.8-103.4,61.9
		c-3.6,1.3-6.8,1.3-10.4-0.1c-41.1-16.2-78.7-37.9-111.7-67.4c-40.6-36.2-70.4-80.1-91.6-129.9c-15.7-37-26-75.6-32.2-115.3
		c-5.6-35.9-7.9-72-7.5-108.3c0.1-8.7,0.8-17.3,1.1-26c0.1-3.1,1.2-4.2,4.6-4.4c35.6-1.9,66.2-15.4,91.1-41.2
		c18.9-19.6,30.8-42.8,35.4-69.7c0.9-5.2,2-10.4,1.8-15.7c-0.1-2.4,0.6-3.4,3.1-3.6c8.6-0.6,17.2-1.8,25.9-2.2
		C242.7,7.8,269.7,6.2,299.1,6.1z M289.4,22.2c-27,0.3-52.5,1.6-78,3.4c-9.8,0.7-9.7,0.9-11.4,10.4
		c-10.9,61.5-64.1,112.3-126.4,120.2c-3.8,0.5-4.7,1.7-4.8,5.2c-0.6,30.7,0.1,61.3,3.6,91.9c5.6,48.9,16.9,96.2,36.8,141.3
		c37.7,85.4,99.5,145.9,186.1,181.1c4.2,1.7,7.7,1.7,11.8,0C369.9,550.2,419.7,508.6,458,453c38.5-55.8,58.8-118.4,67.8-185.1
		c4.8-35.4,6-71,4.9-106.7c-0.1-3.4-0.8-4.5-4.4-5c-28.1-3.9-53.2-15-75-33.2c-28.2-23.7-45.8-53.7-52.1-90.1
		c-0.6-3.5-1.7-4.8-5.5-5.1C358.6,24.4,323.4,20.8,289.4,22.2z"/>
	<path class="st1" d="M289.4,22.2c34-1.4,69.2,2.2,104.3,5.6c3.8,0.4,4.9,1.6,5.5,5.1c6.3,36.4,23.9,66.4,52.1,90.1
		c21.8,18.3,46.9,29.3,75,33.2c3.6,0.5,4.3,1.6,4.4,5c1,35.7-0.1,71.3-4.9,106.7c-9.1,66.7-29.4,129.3-67.8,185.1
		c-38.3,55.5-88.1,97.2-150.8,122.8c-4.1,1.7-7.6,1.7-11.8,0c-86.6-35.2-148.4-95.8-186.1-181.1C89.3,349.6,78,302.3,72.5,253.4
		c-3.5-30.6-4.2-61.2-3.6-91.9c0.1-3.5,1-4.8,4.8-5.2c62.3-8,115.5-58.7,126.4-120.2c1.7-9.5,1.7-9.7,11.4-10.4
		C236.9,23.8,262.4,22.5,289.4,22.2z M299.5,203.2c70.8,0,141.7,0,212.5,0c1.9,0,3.9-0.1,5.8,0c2.5,0.2,3.3-0.9,3.3-3.3
		c-0.1-10.3-0.1-20.6,0-30.8c0-2.5-0.6-3.6-3.4-4.1c-7.8-1.2-15.4-3.2-22.7-5.9c-55-20.8-90.1-59.5-104.1-116.9
		c-0.8-3.4-2-5.1-5.8-5.3c-8.8-0.5-17.6-1.3-26.4-2.2c-48.3-4.9-96.6-2.2-144.8,0.8c-2.8,0.2-3.7,1.3-4.3,3.9
		c-13.3,64.1-63.1,113.3-127,125.6c-3.2,0.6-3.9,1.9-3.8,4.7c0.1,9.5,0.2,19-0.1,28.4c-0.1,4.2,1.1,5.3,5.4,5.3
		C155.8,203.2,227.7,203.2,299.5,203.2z M122.5,399.5c4.8,11,10.1,20.7,15.7,30.1c18.9,31.7,42.1,59.6,70.4,83.3
		c26.4,22,55.8,39.1,87.4,52.5c3.6,1.5,7,1.6,10.5,0c6.1-2.8,12.4-5,18.4-8c28.1-14.4,53.9-32.2,76.9-53.8
		c30.3-28.5,54.6-61.5,73.1-98.8c2.6-5.2,2.6-5.2-3.2-5.2c-113,0-225.9,0-338.9,0C129.6,399.5,126.4,399.5,122.5,399.5z
		 M333.3,305.3c9.9-4.3,17.6-10.2,22.5-19.1c13.2-23.8,1.3-52.2-26-59.8c-25.6-7.2-51.6-4.1-77.5-1.1c-2.5,0.3-2.4,1.9-2.4,3.8
		c0,48.5,0,97-0.1,145.5c0,3.2,1.1,3.6,3.9,3.6c9-0.2,18-0.2,27,0c3.2,0.1,4-0.9,4-4c-0.1-14.9-0.1-29.9-0.1-44.8
		c0-12.3,0-12.3,12.2-12c9.6,0.3,16.6,4.5,20,13.7c1.1,2.8,2,5.7,2.7,8.7c3,11.6,5.4,23.4,9.6,34.7c0.8,2.2,1.6,3.8,4.6,3.7
		c9.8-0.2,19.6-0.1,29.4,0c2.3,0,3.2-0.3,2.3-2.9c-4.6-13.3-7.4-27.2-11.2-40.7C350.9,322.6,346.3,311.5,333.3,305.3z"/>
	<path class="st0" d="M299.5,203.2c-71.8,0-143.6,0-215.4,0.1c-4.3,0-5.5-1.1-5.4-5.3c0.3-9.5,0.2-19,0.1-28.4
		c0-2.8,0.6-4.1,3.8-4.7c64-12.3,113.7-61.5,127-125.6c0.5-2.6,1.4-3.7,4.3-3.9c48.3-3,96.5-5.7,144.8-0.8
		c8.8,0.9,17.6,1.7,26.4,2.2c3.8,0.2,5,1.8,5.8,5.3c14,57.4,49.1,96.1,104.1,116.9c7.3,2.8,15,4.7,22.7,5.9c2.7,0.4,3.4,1.5,3.4,4.1
		c-0.1,10.3-0.1,20.6,0,30.8c0,2.5-0.7,3.5-3.3,3.3c-1.9-0.1-3.9,0-5.8,0C441.2,203.2,370.3,203.2,299.5,203.2z"/>
	<path class="st2" d="M122.5,399.5c3.9,0,7.1,0,10.3,0c113,0,225.9,0,338.9,0c5.8,0,5.8,0,3.2,5.2c-18.5,37.3-42.8,70.3-73.1,98.8
		c-23,21.6-48.8,39.4-76.9,53.8c-5.9,3-12.3,5.3-18.4,8c-3.6,1.6-6.9,1.6-10.5,0c-31.6-13.4-61-30.4-87.4-52.5
		c-28.3-23.7-51.6-51.6-70.4-83.3C132.6,420.1,127.3,410.5,122.5,399.5z"/>
	<path class="st0" d="M333.3,305.3c13,6.2,17.6,17.3,21,29.3c3.8,13.6,6.6,27.4,11.2,40.7c0.9,2.6,0,2.9-2.3,2.9
		c-9.8-0.1-19.6-0.2-29.4,0c-3,0.1-3.8-1.5-4.6-3.7c-4.2-11.3-6.6-23.1-9.6-34.7c-0.8-2.9-1.7-5.8-2.7-8.7
		c-3.4-9.2-10.3-13.4-20-13.7c-12.2-0.3-12.2-0.4-12.2,12c0,14.9-0.1,29.9,0.1,44.8c0,3.1-0.8,4.1-4,4c-9-0.2-18-0.2-27,0
		c-2.8,0.1-3.9-0.4-3.9-3.6c0.1-48.5,0.1-97,0.1-145.5c0-1.9-0.1-3.5,2.4-3.8c25.9-3,51.9-6.1,77.5,1.1c27.3,7.7,39.3,36,26,59.8
		C350.8,295.1,343.2,301,333.3,305.3z M284.6,270.7c0,6.1,0,12.2,0,18.3c0,1.3-0.5,3.2,1.9,3.1c9.4-0.2,19,1,27.8-3.5
		c7.9-4,12.3-11.7,11.6-20.4c-0.8-9.6-5.7-15.7-15-18.3c-7.4-2.1-14.9-1.1-22.5-1c-3.1,0.1-4.1,1.3-4,4.4
		C284.8,259.2,284.6,264.9,284.6,270.7z"/>
	<path class="st1" d="M284.6,270.7c0-5.8,0.2-11.6-0.1-17.3c-0.1-3.1,0.8-4.3,4-4.4c7.5-0.2,15.1-1.2,22.5,1
		c9.3,2.6,14.2,8.7,15,18.3c0.7,8.7-3.7,16.4-11.6,20.4c-8.9,4.5-18.4,3.2-27.8,3.5c-2.3,0.1-1.8-1.8-1.9-3.1
		C284.6,282.9,284.6,276.8,284.6,270.7z"/>
</g>
</svg>
