<?xml version="1.0" encoding="UTF-8"?>
<!DOCTYPE svg PUBLIC "-//W3C//DTD SVG 1.1//EN" "http://www.w3.org/Graphics/SVG/1.1/DTD/svg11.dtd">
<svg xmlns="http://www.w3.org/2000/svg" version="1.1" width="278px" height="357px" style="shape-rendering:geometricPrecision; text-rendering:geometricPrecision; image-rendering:optimizeQuality; fill-rule:evenodd; clip-rule:evenodd" xmlns:xlink="http://www.w3.org/1999/xlink">
<g><path style="opacity:0.011" fill="#000001" d="M 127.5,3.5 C 136.324,2.34269 145.324,2.17602 154.5,3C 145.506,3.49977 136.506,3.66644 127.5,3.5 Z"/></g>
<g><path style="opacity:0.009" fill="#000001" d="M 118.5,4.5 C 120.966,3.36594 123.633,3.19927 126.5,4C 123.854,4.49742 121.187,4.66409 118.5,4.5 Z"/></g>
<g><path style="opacity:0.01" fill="#000001" d="M 162.5,4.5 C 160.143,4.66331 157.81,4.49665 155.5,4C 158.039,3.20419 160.372,3.37086 162.5,4.5 Z"/></g>
<g><path style="opacity:0.011" fill="#000001" d="M 118.5,4.5 C 118.5,4.83333 118.5,5.16667 118.5,5.5C 111.833,5.16667 111.833,4.83333 118.5,4.5 Z"/></g>
<g><path style="opacity:0.009" fill="#000206" d="M 162.5,4.5 C 164.527,4.33788 166.527,4.50454 168.5,5C 166.618,5.19808 164.952,5.69808 163.5,6.5C 162.508,6.67158 161.842,6.33825 161.5,5.5C 162.167,5.5 162.5,5.16667 162.5,4.5 Z"/></g>
<g><path style="opacity:0.011" fill="#000001" d="M 108.5,6.5 C 109.601,5.40168 110.934,5.23502 112.5,6C 111.207,6.49001 109.873,6.65668 108.5,6.5 Z"/></g>
<g><path style="opacity:0.009" fill="#010208" d="M 177.5,8.5 C 179.953,7.35493 182.287,7.68827 184.5,9.5C 183.209,9.26269 182.209,9.59603 181.5,10.5C 180.508,10.6716 179.842,10.3382 179.5,9.5C 180.067,8.57982 179.401,8.24649 177.5,8.5 Z"/></g>
<g><path style="opacity:0.007" fill="#030411" d="M 200.5,16.5 C 201.251,15.4265 202.251,15.2599 203.5,16C 208.887,18.3545 213.887,21.1878 218.5,24.5C 217.833,24.5 217.5,24.8333 217.5,25.5C 216.833,25.5 216.5,25.1667 216.5,24.5C 216.167,23.1667 215.833,23.1667 215.5,24.5C 214.833,24.5 214.5,24.1667 214.5,23.5C 214.167,22.1667 213.833,22.1667 213.5,23.5C 212.833,23.5 212.5,23.1667 212.5,22.5C 212.167,21.1667 211.833,21.1667 211.5,22.5C 210.833,22.5 210.5,22.1667 210.5,21.5C 210.167,20.1667 209.833,20.1667 209.5,21.5C 208.833,21.5 208.5,21.1667 208.5,20.5C 208.167,19.1667 207.833,19.1667 207.5,20.5C 206.833,20.5 206.5,20.1667 206.5,19.5C 206.167,18.1667 205.833,18.1667 205.5,19.5C 204.833,19.5 204.5,19.1667 204.5,18.5C 204.167,17.1667 203.833,17.1667 203.5,18.5C 202.508,18.6716 201.842,18.3382 201.5,17.5C 202.557,16.794 202.224,16.4607 200.5,16.5 Z"/></g>
<g><path style="opacity:0.009" fill="#000207" d="M 69.5,20.5 C 69.5,20.8333 69.5,21.1667 69.5,21.5C 69.5,22.1667 69.1667,22.5 68.5,22.5C 68.1667,21.1667 67.8333,21.1667 67.5,22.5C 67.5,23.1667 67.1667,23.5 66.5,23.5C 66.1667,22.1667 65.8333,22.1667 65.5,23.5C 65.5,24.1667 65.1667,24.5 64.5,24.5C 64.1667,23.1667 63.8333,23.1667 63.5,24.5C 63.5,25.1667 63.1667,25.5 62.5,25.5C 61.4019,24.603 61.4019,23.7697 62.5,23C 64.6504,21.5886 66.9837,20.7553 69.5,20.5 Z"/></g>
<g><path style="opacity:0.009" fill="#01030d" d="M 59.5,26.5 C 58.8333,26.5 58.5,26.8333 58.5,27.5C 58.5,28.1667 58.1667,28.5 57.5,28.5C 57.1667,27.1667 56.8333,27.1667 56.5,28.5C 56.5,29.1667 56.1667,29.5 55.5,29.5C 55.1667,28.1667 54.8333,28.1667 54.5,29.5C 54.5,30.1667 54.1667,30.5 53.5,30.5C 53.5,29.8333 53.1667,29.5 52.5,29.5C 54.0894,27.6944 56.0894,26.3611 58.5,25.5C 59.1067,25.6236 59.44,25.9569 59.5,26.5 Z"/></g>
<g><path style="opacity:0.008" fill="#020310" d="M 220.5,26.5 C 220.5,26.1667 220.5,25.8333 220.5,25.5C 221.922,25.7086 223.255,26.2086 224.5,27C 225.598,27.7697 225.598,28.603 224.5,29.5C 223.833,29.5 223.5,29.1667 223.5,28.5C 223.167,27.1667 222.833,27.1667 222.5,28.5C 221.833,28.5 221.5,28.1667 221.5,27.5C 221.5,26.8333 221.167,26.5 220.5,26.5 Z"/></g>
<g><path style="opacity:0.009" fill="#00020a" d="M 52.5,29.5 C 52.5,29.8333 52.5,30.1667 52.5,30.5C 51.8333,30.5 51.5,30.8333 51.5,31.5C 51.5,32.1667 51.1667,32.5 50.5,32.5C 50.1667,31.1667 49.8333,31.1667 49.5,32.5C 49.5,33.1667 49.1667,33.5 48.5,33.5C 48.5,32.8333 48.1667,32.5 47.5,32.5C 48.6594,30.7497 50.326,29.7497 52.5,29.5 Z"/></g>
<g><path style="opacity:0.008" fill="#000002" d="M 252.5,50.5 C 252.351,49.448 252.517,48.448 253,47.5C 253.74,48.7494 253.573,49.7494 252.5,50.5 Z"/></g>
<g><path style="opacity:0.01" fill="#000001" d="M 251.5,50.5 C 251.833,50.5 252.167,50.5 252.5,50.5C 252.768,52.099 252.434,53.4324 251.5,54.5C 251.5,53.1667 251.5,51.8333 251.5,50.5 Z"/></g>
<g><path style="opacity:0.009" fill="#000002" d="M 250.5,54.5 C 250.833,54.5 251.167,54.5 251.5,54.5C 251.768,56.099 251.434,57.4324 250.5,58.5C 250.5,57.1667 250.5,55.8333 250.5,54.5 Z"/></g>
<g><path style="opacity:0.009" fill="#000001" d="M 249.5,58.5 C 249.833,58.5 250.167,58.5 250.5,58.5C 250.167,66.5 249.833,66.5 249.5,58.5 Z"/></g>
<g><path style="opacity:0.009" fill="#000001" d="M 29.5,59.5 C 29.825,67.0191 29.4916,74.3524 28.5,81.5C 28.175,73.9809 28.5084,66.6476 29.5,59.5 Z"/></g>
<g><path style="opacity:0.346" fill="#071c4a" d="M 248.5,61.5 C 247.994,66.6545 247.327,71.6545 246.5,76.5C 246.334,72.1539 246.501,67.8206 247,63.5C 247.278,62.5842 247.778,61.9175 248.5,61.5 Z"/></g>
<g><path style="opacity:0.009" fill="#000001" d="M 28.5,81.5 C 28.6602,83.1992 28.4935,84.8659 28,86.5C 27.2204,84.6131 27.3871,82.9464 28.5,81.5 Z"/></g>
<g><path style="opacity:0.01" fill="#000102" d="M 251.5,97.5 C 251.369,96.7611 251.536,96.0944 252,95.5C 252.692,96.4368 252.525,97.1034 251.5,97.5 Z"/></g>
<g><path style="opacity:0.007" fill="#000104" d="M 265.5,117.5 C 264.833,117.5 264.5,117.167 264.5,116.5C 264.5,115.833 264.167,115.5 263.5,115.5C 263.5,114.833 263.167,114.5 262.5,114.5C 262.5,113.833 262.167,113.5 261.5,113.5C 261.5,112.833 261.167,112.5 260.5,112.5C 260.369,111.761 260.536,111.094 261,110.5C 262.833,112.333 264.667,114.167 266.5,116C 265.944,116.383 265.611,116.883 265.5,117.5 Z"/></g>
<g><path style="opacity:0.01" fill="#000001" d="M 277.5,144.5 C 277.5,146.833 277.5,149.167 277.5,151.5C 277.167,151.5 276.833,151.5 276.5,151.5C 276.198,148.941 276.532,146.607 277.5,144.5 Z"/></g>
<g><path style="opacity:0.01" fill="#000002" d="M 276.5,151.5 C 276.662,153.527 276.495,155.527 276,157.5C 275.211,155.288 275.378,153.288 276.5,151.5 Z"/></g>
<g><path style="opacity:0.013" fill="#000001" d="M -0.5,157.5 C 0.833333,159.167 0.833333,160.833 -0.5,162.5C -0.5,160.833 -0.5,159.167 -0.5,157.5 Z"/></g>
<g><path style="opacity:0.01" fill="#000001" d="M 274.5,158.5 C 275.613,159.946 275.78,161.613 275,163.5C 274.506,161.866 274.34,160.199 274.5,158.5 Z"/></g>
<g><path style="opacity:0.009" fill="#000002" d="M 0.5,163.5 C 1.61295,164.946 1.77961,166.613 1,168.5C 0.506489,166.866 0.339822,165.199 0.5,163.5 Z"/></g>
<g><path style="opacity:0.009" fill="#000101" d="M 273.5,169.5 C 273.34,167.801 273.506,166.134 274,164.5C 274.78,166.387 274.613,168.054 273.5,169.5 Z"/></g>
<g><path style="opacity:0.994" fill="#0e3c9f" d="M 161.5,5.5 C 161.842,6.33825 162.508,6.67158 163.5,6.5C 168.186,7.03733 172.853,7.704 177.5,8.5C 177.842,9.33825 178.508,9.67158 179.5,9.5C 179.842,10.3382 180.508,10.6716 181.5,10.5C 182.791,10.7373 183.791,10.404 184.5,9.5C 187.568,10.0218 190.568,10.8551 193.5,12C 192.396,13.1313 192.729,13.9646 194.5,14.5C 195.768,13.5721 197.101,13.4054 198.5,14C 197.833,14.3333 197.167,14.6667 196.5,15C 197.745,15.7914 199.078,16.2914 200.5,16.5C 200.5,17.1667 200.833,17.5 201.5,17.5C 201.842,18.3382 202.508,18.6716 203.5,18.5C 203.833,18.5 204.167,18.5 204.5,18.5C 204.5,19.1667 204.833,19.5 205.5,19.5C 205.833,19.5 206.167,19.5 206.5,19.5C 206.5,20.1667 206.833,20.5 207.5,20.5C 207.833,20.5 208.167,20.5 208.5,20.5C 208.5,21.1667 208.833,21.5 209.5,21.5C 209.833,21.5 210.167,21.5 210.5,21.5C 210.5,22.1667 210.833,22.5 211.5,22.5C 211.833,22.5 212.167,22.5 212.5,22.5C 212.5,23.1667 212.833,23.5 213.5,23.5C 213.833,23.5 214.167,23.5 214.5,23.5C 214.5,24.1667 214.833,24.5 215.5,24.5C 215.833,24.5 216.167,24.5 216.5,24.5C 216.5,25.1667 216.833,25.5 217.5,25.5C 218.167,25.5 218.5,25.1667 218.5,24.5C 219.492,24.3284 220.158,24.6618 220.5,25.5C 219.167,25.8333 219.167,26.1667 220.5,26.5C 221.167,26.5 221.5,26.8333 221.5,27.5C 221.5,28.1667 221.833,28.5 222.5,28.5C 222.833,28.5 223.167,28.5 223.5,28.5C 223.5,29.1667 223.833,29.5 224.5,29.5C 226.106,30.3591 227.773,30.5258 229.5,30C 234.833,33.6667 240.167,37.3333 245.5,41C 245.381,42.2812 245.881,43.4479 247,44.5C 248.871,43.3322 250.371,43.8322 251.5,46C 251.034,47.2988 251.034,48.7988 251.5,50.5C 250.566,51.5676 250.232,52.901 250.5,54.5C 249.566,55.5676 249.232,56.901 249.5,58.5C 248.596,59.209 248.263,60.209 248.5,61.5C 247.778,61.9175 247.278,62.5842 247,63.5C 246.501,67.8206 246.334,72.1539 246.5,76.5C 247.266,81.7956 248.099,87.1289 249,92.5C 249.374,94.4913 250.207,96.158 251.5,97.5C 253.228,103.293 256.228,108.293 260.5,112.5C 261.167,112.5 261.5,112.833 261.5,113.5C 262.167,113.5 262.5,113.833 262.5,114.5C 263.167,114.5 263.5,114.833 263.5,115.5C 264.167,115.5 264.5,115.833 264.5,116.5C 264.5,117.167 264.833,117.5 265.5,117.5C 266.473,118.791 267.473,118.791 268.5,117.5C 271.357,119.758 274.357,121.758 277.5,123.5C 277.5,123.833 277.5,124.167 277.5,124.5C 276.167,124.833 276.167,125.167 277.5,125.5C 277.5,128.833 277.5,132.167 277.5,135.5C 275.478,146.648 273.812,157.981 272.5,169.5C 271.539,171.265 271.205,173.265 271.5,175.5C 270.549,176.919 270.216,178.585 270.5,180.5C 269.549,181.919 269.216,183.585 269.5,185.5C 268.566,186.568 268.232,187.901 268.5,189.5C 267.549,190.919 267.216,192.585 267.5,194.5C 266.566,195.568 266.232,196.901 266.5,198.5C 265.566,199.568 265.232,200.901 265.5,202.5C 264.076,204.515 263.41,206.848 263.5,209.5C 262.566,210.568 262.232,211.901 262.5,213.5C 261.596,214.209 261.263,215.209 261.5,216.5C 260.566,217.568 260.232,218.901 260.5,220.5C 259.596,221.209 259.263,222.209 259.5,223.5C 258.596,224.209 258.263,225.209 258.5,226.5C 257.596,227.209 257.263,228.209 257.5,229.5C 256.596,230.209 256.263,231.209 256.5,232.5C 254.399,235.797 253.065,239.463 252.5,243.5C 251.662,243.842 251.328,244.508 251.5,245.5C 250.596,246.209 250.263,247.209 250.5,248.5C 249.662,248.842 249.328,249.508 249.5,250.5C 248.069,251.78 247.402,253.447 247.5,255.5C 246.662,255.842 246.328,256.508 246.5,257.5C 245.662,257.842 245.328,258.508 245.5,259.5C 244.662,259.842 244.328,260.508 244.5,261.5C 243.662,261.842 243.328,262.508 243.5,263.5C 242.662,263.842 242.328,264.508 242.5,265.5C 241.662,265.842 241.328,266.508 241.5,267.5C 240.662,267.842 240.328,268.508 240.5,269.5C 239.662,269.842 239.328,270.508 239.5,271.5C 238.662,271.842 238.328,272.508 238.5,273.5C 237.662,273.842 237.328,274.508 237.5,275.5C 236.662,275.842 236.328,276.508 236.5,277.5C 235.167,277.833 235.167,278.167 236.5,278.5C 236.672,279.492 236.338,280.158 235.5,280.5C 235.167,279.167 234.833,279.167 234.5,280.5C 233.662,280.842 233.328,281.508 233.5,282.5C 232.662,282.842 232.328,283.508 232.5,284.5C 231.833,284.5 231.5,284.833 231.5,285.5C 230.662,285.842 230.328,286.508 230.5,287.5C 229.833,287.5 229.5,287.833 229.5,288.5C 228.662,288.842 228.328,289.508 228.5,290.5C 227.833,290.5 227.5,290.833 227.5,291.5C 226.662,291.842 226.328,292.508 226.5,293.5C 225.833,293.5 225.5,293.833 225.5,294.5C 224.662,294.842 224.328,295.508 224.5,296.5C 223.833,296.5 223.5,296.833 223.5,297.5C 222.833,297.5 222.5,297.833 222.5,298.5C 221.662,298.842 221.328,299.508 221.5,300.5C 220.833,300.5 220.5,300.833 220.5,301.5C 219.833,301.5 219.5,301.833 219.5,302.5C 218.662,302.842 218.328,303.508 218.5,304.5C 217.833,304.5 217.5,304.833 217.5,305.5C 216.833,305.5 216.5,305.833 216.5,306.5C 215.833,306.5 215.5,306.833 215.5,307.5C 214.833,307.5 214.5,307.833 214.5,308.5C 213.662,308.842 213.328,309.508 213.5,310.5C 212.833,310.5 212.5,310.833 212.5,311.5C 211.833,311.5 211.5,311.833 211.5,312.5C 210.833,312.5 210.5,312.833 210.5,313.5C 209.833,313.5 209.5,313.833 209.5,314.5C 208.833,314.5 208.5,314.833 208.5,315.5C 207.833,315.5 207.5,315.833 207.5,316.5C 206.833,316.5 206.5,316.833 206.5,317.5C 205.833,317.5 205.5,317.833 205.5,318.5C 204.833,318.5 204.5,318.833 204.5,319.5C 203.833,319.5 203.5,319.833 203.5,320.5C 202.833,320.5 202.5,320.833 202.5,321.5C 201.833,321.5 201.5,321.833 201.5,322.5C 200.833,322.5 200.5,322.833 200.5,323.5C 199.833,323.5 199.5,323.833 199.5,324.5C 198.833,324.5 198.5,324.833 198.5,325.5C 198.167,325.5 197.833,325.5 197.5,325.5C 196.5,325.833 195.833,326.5 195.5,327.5C 194.833,327.5 194.5,327.833 194.5,328.5C 193.833,328.5 193.5,328.833 193.5,329.5C 192.833,329.5 192.5,329.833 192.5,330.5C 191.167,330.833 191.167,331.167 192.5,331.5C 192.027,332.906 191.027,333.573 189.5,333.5C 189.167,332.167 188.833,332.167 188.5,333.5C 187.167,333.833 187.167,334.167 188.5,334.5C 188.027,335.906 187.027,336.573 185.5,336.5C 185.167,335.167 184.833,335.167 184.5,336.5C 183.167,336.833 183.167,337.167 184.5,337.5C 180.677,340.916 176.343,343.582 171.5,345.5C 171.5,344.833 171.167,344.5 170.5,344.5C 169.833,344.5 169.5,344.833 169.5,345.5C 169.167,345.5 168.833,345.5 168.5,345.5C 167.833,345.5 167.5,345.833 167.5,346.5C 167.167,346.5 166.833,346.5 166.5,346.5C 165.833,346.5 165.5,346.833 165.5,347.5C 165.167,347.5 164.833,347.5 164.5,347.5C 163.833,347.5 163.5,347.833 163.5,348.5C 163.167,348.5 162.833,348.5 162.5,348.5C 161.833,348.5 161.5,348.833 161.5,349.5C 161.167,349.5 160.833,349.5 160.5,349.5C 159.833,349.5 159.5,349.833 159.5,350.5C 159.167,350.5 158.833,350.5 158.5,350.5C 157.833,350.5 157.5,350.833 157.5,351.5C 156.508,351.328 155.842,351.662 155.5,352.5C 154.508,352.328 153.842,352.662 153.5,353.5C 152.209,353.263 151.209,353.596 150.5,354.5C 149.508,354.328 148.842,354.662 148.5,355.5C 147.209,355.263 146.209,355.596 145.5,356.5C 143.5,356.5 141.5,356.5 139.5,356.5C 138.791,355.596 137.791,355.263 136.5,355.5C 135.359,354.661 134.026,353.994 132.5,353.5C 131.232,354.428 129.899,354.595 128.5,354C 130.795,353.016 130.461,352.183 127.5,351.5C 125.533,352.684 123.866,352.351 122.5,350.5C 125.167,350.167 125.167,349.833 122.5,349.5C 122.5,348.833 122.167,348.5 121.5,348.5C 121.167,348.5 120.833,348.5 120.5,348.5C 120.5,347.833 120.167,347.5 119.5,347.5C 119.167,347.5 118.833,347.5 118.5,347.5C 118.5,346.833 118.167,346.5 117.5,346.5C 117.5,345.833 117.167,345.5 116.5,345.5C 116.167,345.5 115.833,345.5 115.5,345.5C 115.5,344.833 115.167,344.5 114.5,344.5C 113.833,344.5 113.5,344.833 113.5,345.5C 109.738,343.587 106.071,341.421 102.5,339C 102.619,337.719 102.119,336.552 101,335.5C 100.282,336.451 99.4491,336.617 98.5,336C 98.8671,334.243 98.0338,332.743 96,331.5C 94.1291,332.668 92.6291,332.168 91.5,330C 91.8333,329.667 92.1667,329.333 92.5,329C 89.9638,326.295 87.2971,323.795 84.5,321.5C 84.5,320.833 84.1667,320.5 83.5,320.5C 83.5,319.833 83.1667,319.5 82.5,319.5C 82.5,318.833 82.1667,318.5 81.5,318.5C 81.5,317.833 81.1667,317.5 80.5,317.5C 80.5,316.833 80.1667,316.5 79.5,316.5C 79.5,315.833 79.1667,315.5 78.5,315.5C 75.8046,312.474 73.1379,309.474 70.5,306.5C 70.5,305.833 70.1667,305.5 69.5,305.5C 47.136,278.085 28.8027,246.085 14.5,209.5C 13.7387,205.216 12.4053,201.216 10.5,197.5C 8.3006,189.024 5.96727,180.691 3.5,172.5C 2.47055,164.651 1.13721,156.984 -0.5,149.5C -0.5,141.5 -0.5,133.5 -0.5,125.5C 0.833333,125.167 0.833333,124.833 -0.5,124.5C -0.5,124.167 -0.5,123.833 -0.5,123.5C 10.5009,118.34 19.0009,110.007 25,98.5C 30.3473,85.8208 31.8473,72.8208 29.5,59.5C 29.5307,55.516 28.864,51.6827 27.5,48C 29.1247,47.1475 29.4581,46.1475 28.5,45C 29.5358,43.3831 30.7025,43.2164 32,44.5C 33.1192,43.4479 33.6192,42.2812 33.5,41C 38.0559,37.893 42.7226,35.0597 47.5,32.5C 48.1667,32.5 48.5,32.8333 48.5,33.5C 49.1667,33.5 49.5,33.1667 49.5,32.5C 49.8333,32.5 50.1667,32.5 50.5,32.5C 51.1667,32.5 51.5,32.1667 51.5,31.5C 52.1667,31.5 52.5,31.1667 52.5,30.5C 52.8333,30.5 53.1667,30.5 53.5,30.5C 54.1667,30.5 54.5,30.1667 54.5,29.5C 54.8333,29.5 55.1667,29.5 55.5,29.5C 56.1667,29.5 56.5,29.1667 56.5,28.5C 56.8333,28.5 57.1667,28.5 57.5,28.5C 58.1667,28.5 58.5,28.1667 58.5,27.5C 59.1667,27.5 59.5,27.1667 59.5,26.5C 60.609,26.4431 61.609,26.1098 62.5,25.5C 63.1667,25.5 63.5,25.1667 63.5,24.5C 63.8333,24.5 64.1667,24.5 64.5,24.5C 65.1667,24.5 65.5,24.1667 65.5,23.5C 65.8333,23.5 66.1667,23.5 66.5,23.5C 67.1667,23.5 67.5,23.1667 67.5,22.5C 67.8333,22.5 68.1667,22.5 68.5,22.5C 69.1667,22.5 69.5,22.1667 69.5,21.5C 70.8333,21.1667 70.8333,20.8333 69.5,20.5C 71.435,20.7953 73.435,20.2953 75.5,19C 74.8333,18.6667 74.1667,18.3333 73.5,18C 76.8259,16.0869 80.3259,14.5869 84,13.5C 84.8732,13.7355 85.7065,14.0688 86.5,14.5C 89.7957,13.2347 93.129,12.0681 96.5,11C 95.5,10.6667 94.5,10.3333 93.5,10C 95.3774,9.42425 97.2108,9.59091 99,10.5C 101.774,9.46419 104.607,8.63085 107.5,8C 103.774,6.95685 104.107,6.45685 108.5,6.5C 111.897,7.49377 115.23,7.16044 118.5,5.5C 132.836,4.21582 147.17,4.21582 161.5,5.5 Z"/></g>
<g><path style="opacity:1" fill="#f5f7fc" d="M 125.5,9.5 C 171.187,7.55992 211.187,21.3933 245.5,51C 237.558,73.9323 240.725,95.099 255,114.5C 260.041,119.598 265.541,124.098 271.5,128C 268.638,181.59 254.471,232.09 229,279.5C 208.772,314.058 179.772,338.058 142,351.5C 124.234,345.538 108.4,336.371 94.5,324C 51.4034,281.669 22.9034,230.835 9,171.5C 5.76939,157.326 4.43606,142.993 5,128.5C 31.6462,108.574 41.3129,82.2412 34,49.5C 61.185,28.4971 91.685,15.1638 125.5,9.5 Z"/></g>
<g><path style="opacity:1" fill="#0f41ae" d="M 261.5,143.5 C 262.124,143.917 262.457,144.584 262.5,145.5C 260.507,158.291 258.007,170.957 255,183.5C 225.638,225.362 196.472,267.362 167.5,309.5C 166.959,307.477 167.459,305.477 169,303.5C 200.098,250.303 230.931,196.969 261.5,143.5 Z"/></g>
<g><path style="opacity:1" fill="#1342ae" d="M 200.5,146.5 C 202.983,149.155 205.316,151.988 207.5,155C 205.026,157.801 202.193,160.301 199,162.5C 196.594,160.017 194.427,157.35 192.5,154.5C 194.882,151.452 197.548,148.785 200.5,146.5 Z"/></g>
<g><path style="opacity:1" fill="#0f41ae" d="M 262.5,133.5 C 263.525,133.897 263.692,134.563 263,135.5C 229.568,191.779 196.734,248.445 164.5,305.5C 163.998,306.521 163.332,306.688 162.5,306C 184.129,258.575 205.629,211.075 227,163.5C 239.024,153.635 250.858,143.635 262.5,133.5 Z"/></g>
<g><path style="opacity:1" fill="#0d41ae" d="M 167.5,135.5 C 169.916,136.916 171.916,138.916 173.5,141.5C 168.841,145.99 164.008,150.323 159,154.5C 159.047,156.587 160.047,158.254 162,159.5C 166.964,156.039 171.798,152.373 176.5,148.5C 178.89,149.891 180.557,151.891 181.5,154.5C 176.908,158.047 172.408,161.714 168,165.5C 167.94,168.648 169.44,170.981 172.5,172.5C 177.833,168.167 183.167,163.833 188.5,159.5C 190.555,161.555 192.221,163.888 193.5,166.5C 185.461,174.037 176.961,181.037 168,187.5C 159.643,177.31 151.476,166.977 143.5,156.5C 151.52,149.478 159.52,142.478 167.5,135.5 Z"/></g>
<g><path style="opacity:1" fill="#0e41ae" d="M 210.5,101.5 C 213.518,101.335 216.518,101.502 219.5,102C 221.651,102.265 223.318,103.265 224.5,105C 222.702,108.086 220.536,110.919 218,113.5C 213.847,110.662 210.18,111.328 207,115.5C 206.231,124.544 210.064,130.544 218.5,133.5C 223.266,133.234 225.933,130.734 226.5,126C 225.923,123.863 225.59,121.696 225.5,119.5C 228.573,118.801 231.573,117.801 234.5,116.5C 239.038,125.762 237.038,133.595 228.5,140C 213.235,147.795 202.401,143.628 196,127.5C 193.553,118.57 196.053,111.403 203.5,106C 205.898,104.476 208.231,102.976 210.5,101.5 Z"/></g>
<g><path style="opacity:1" fill="#023fac" d="M 127.5,19.5 C 168.672,18.1118 205.005,30.4452 236.5,56.5C 168.813,111.516 100.813,166.183 32.5,220.5C 19.3591,192.605 12.5258,163.272 12,132.5C 37.0213,112.764 46.688,87.0972 41,55.5C 66.7163,35.8884 95.5496,23.8884 127.5,19.5 Z"/></g>
<g><path style="opacity:1" fill="#0a399c" d="M 53.5,87.5 C 53.3284,88.4916 53.6618,89.1583 54.5,89.5C 62.8523,94.3401 70.8523,99.6734 78.5,105.5C 75.296,114.071 71.9627,122.571 68.5,131C 69.1667,131.667 69.8333,131.667 70.5,131C 78.3299,125.584 86.3299,120.417 94.5,115.5C 102.477,120.166 110.144,125.166 117.5,130.5C 115.932,131.473 114.265,131.64 112.5,131C 107.224,126.528 101.224,123.361 94.5,121.5C 87.8722,124.815 81.5388,128.649 75.5,133C 72.805,133.254 70.305,133.421 68,133.5C 66.4201,130.028 66.0867,126.362 67,122.5C 68.7353,117.794 70.5687,113.127 72.5,108.5C 71.9598,107.252 71.2931,106.085 70.5,105C 64.8333,101.5 59.1667,98 53.5,94.5C 52.2031,92.0268 52.2031,89.6934 53.5,87.5 Z"/></g>
<g><path style="opacity:1" fill="#537463" d="M 104.5,87.5 C 114.855,87.1681 125.188,87.5014 135.5,88.5C 135.376,89.1067 135.043,89.44 134.5,89.5C 124.5,88.8333 114.5,88.1667 104.5,87.5 Z"/></g>
<g><path style="opacity:1" fill="#537463" d="M 53.5,87.5 C 63.8333,87.5 74.1667,87.5 84.5,87.5C 74.5,88.1667 64.5,88.8333 54.5,89.5C 53.6618,89.1583 53.3284,88.4916 53.5,87.5 Z"/></g>
<g><path style="opacity:1" fill="#f8f311" d="M 104.5,87.5 C 114.5,88.1667 124.5,88.8333 134.5,89.5C 126.148,94.3401 118.148,99.6734 110.5,105.5C 113.936,113.977 117.269,122.477 120.5,131C 119.423,131.47 118.423,131.303 117.5,130.5C 110.144,125.166 102.477,120.166 94.5,115.5C 86.3299,120.417 78.3299,125.584 70.5,131C 69.8333,131.667 69.1667,131.667 68.5,131C 71.9627,122.571 75.296,114.071 78.5,105.5C 70.8523,99.6734 62.8523,94.3401 54.5,89.5C 64.5,88.8333 74.5,88.1667 84.5,87.5C 87.5209,79.1127 90.8542,70.7793 94.5,62.5C 98.2235,70.669 101.557,79.0024 104.5,87.5 Z"/></g>
<g><path style="opacity:0.009" fill="#000001" d="M 272.5,169.5 C 272.833,169.5 273.167,169.5 273.5,169.5C 273.795,171.735 273.461,173.735 272.5,175.5C 272.5,173.5 272.5,171.5 272.5,169.5 Z"/></g>
<g><path style="opacity:0.009" fill="#000001" d="M 3.5,172.5 C 3.65668,173.873 3.49001,175.207 3,176.5C 2.23502,174.934 2.40168,173.601 3.5,172.5 Z"/></g>
<g><path style="opacity:1" fill="#0c41ad" d="M 219.5,168.5 C 220.043,168.56 220.376,168.893 220.5,169.5C 200.089,214.577 179.589,259.577 159,304.5C 157.933,303.809 156.766,303.309 155.5,303C 154.978,302.439 154.645,301.772 154.5,301C 165.667,265.5 176.833,230 188,194.5C 198.69,185.969 209.19,177.302 219.5,168.5 Z"/></g>
<g><path style="opacity:0.011" fill="#000001" d="M 271.5,175.5 C 271.833,175.5 272.167,175.5 272.5,175.5C 272.167,180.833 271.833,180.833 271.5,175.5 Z"/></g>
<g><path style="opacity:1" fill="#2348b1" d="M 235.5,64.5 C 236.289,64.7828 236.956,65.2828 237.5,66C 170.833,119.667 104.167,173.333 37.5,227C 36.365,227.749 35.365,227.583 34.5,226.5C 101.543,172.446 168.543,118.446 235.5,64.5 Z"/></g>
<g><path style="opacity:0.009" fill="#000001" d="M 4.5,181.5 C 3.40168,180.399 3.23502,179.066 4,177.5C 4.49001,178.793 4.65668,180.127 4.5,181.5 Z"/></g>
<g><path style="opacity:1" fill="#0a40ad" d="M 117.5,177.5 C 130.239,178.064 134.239,184.231 129.5,196C 136.759,196.629 143.425,198.962 149.5,203C 145.976,206.025 142.309,208.858 138.5,211.5C 133.791,209.43 129.124,207.263 124.5,205C 121.262,204.184 119.762,205.35 120,208.5C 123.025,212.024 125.858,215.691 128.5,219.5C 125.526,222.138 122.526,224.805 119.5,227.5C 111.287,216.909 102.954,206.409 94.5,196C 102.066,189.59 109.732,183.423 117.5,177.5 Z"/></g>
<g><path style="opacity:0.009" fill="#000001" d="M 270.5,180.5 C 271.833,182.167 271.833,183.833 270.5,185.5C 270.5,183.833 270.5,182.167 270.5,180.5 Z"/></g>
<g><path style="opacity:0.01" fill="#000101" d="M 4.5,181.5 C 5.57346,182.251 5.74012,183.251 5,184.5C 4.51722,183.552 4.35055,182.552 4.5,181.5 Z"/></g>
<g><path style="opacity:0.011" fill="#000001" d="M 269.5,185.5 C 269.833,185.5 270.167,185.5 270.5,185.5C 270.768,187.099 270.434,188.432 269.5,189.5C 269.5,188.167 269.5,186.833 269.5,185.5 Z"/></g>
<g><path style="opacity:1" fill="#1342ae" d="M 153.5,184.5 C 154.239,184.369 154.906,184.536 155.5,185C 157.31,187.644 159.31,190.144 161.5,192.5C 159.146,195.688 156.312,198.355 153,200.5C 150.464,197.919 148.298,195.086 146.5,192C 148.97,189.695 151.303,187.195 153.5,184.5 Z"/></g>
<g><path style="opacity:1" fill="#eaeff8" d="M 115.5,188.5 C 118.864,187.873 120.864,189.206 121.5,192.5C 119.914,195.757 117.581,198.424 114.5,200.5C 112.367,198.909 110.701,196.909 109.5,194.5C 111.533,192.493 113.533,190.493 115.5,188.5 Z"/></g>
<g><path style="opacity:0.009" fill="#000001" d="M 268.5,189.5 C 268.833,189.5 269.167,189.5 269.5,189.5C 269.784,191.415 269.451,193.081 268.5,194.5C 268.5,192.833 268.5,191.167 268.5,189.5 Z"/></g>
<g><path style="opacity:0.01" fill="#000001" d="M 267.5,194.5 C 267.833,194.5 268.167,194.5 268.5,194.5C 268.768,196.099 268.434,197.432 267.5,198.5C 267.5,197.167 267.5,195.833 267.5,194.5 Z"/></g>
<g><path style="opacity:0.009" fill="#000001" d="M 10.5,197.5 C 10.6495,198.552 10.4828,199.552 10,200.5C 9.25988,199.251 9.42654,198.251 10.5,197.5 Z"/></g>
<g><path style="opacity:0.01" fill="#000001" d="M 266.5,198.5 C 266.833,198.5 267.167,198.5 267.5,198.5C 267.768,200.099 267.434,201.432 266.5,202.5C 266.5,201.167 266.5,199.833 266.5,198.5 Z"/></g>
<g><path style="opacity:0.012" fill="#000002" d="M 10.5,201.5 C 11.525,201.897 11.6917,202.563 11,203.5C 10.5357,202.906 10.369,202.239 10.5,201.5 Z"/></g>
<g><path style="opacity:1" fill="#0e41ae" d="M 252.5,192.5 C 250.242,205.5 246.742,218.5 242,231.5C 241,233.167 240,234.833 239,236.5C 216.392,262.728 193.559,288.728 170.5,314.5C 170.167,314.167 169.833,313.833 169.5,313.5C 196.93,272.964 224.596,232.631 252.5,192.5 Z"/></g>
<g><path style="opacity:0.01" fill="#000001" d="M 265.5,202.5 C 265.833,202.5 266.167,202.5 266.5,202.5C 266.167,206.5 265.833,206.5 265.5,202.5 Z"/></g>
<g><path style="opacity:1" fill="#0f41ae" d="M 181.5,198.5 C 182.239,198.369 182.906,198.536 183.5,199C 171.994,232.843 161.327,267.01 151.5,301.5C 149.833,301.5 148.167,301.5 146.5,301.5C 150.759,273.097 155.425,244.763 160.5,216.5C 167.758,210.719 174.758,204.719 181.5,198.5 Z"/></g>
<g><path style="opacity:0.009" fill="#000101" d="M 264.5,209.5 C 264.351,208.448 264.517,207.448 265,206.5C 265.74,207.749 265.573,208.749 264.5,209.5 Z"/></g>
<g><path style="opacity:0.012" fill="#000001" d="M 14.5,209.5 C 14.631,210.239 14.4643,210.906 14,211.5C 13.3083,210.563 13.475,209.897 14.5,209.5 Z"/></g>
<g><path style="opacity:0.009" fill="#000001" d="M 263.5,209.5 C 263.833,209.5 264.167,209.5 264.5,209.5C 264.768,211.099 264.434,212.432 263.5,213.5C 263.5,212.167 263.5,210.833 263.5,209.5 Z"/></g>
<g><path style="opacity:0.012" fill="#000102" d="M 14.5,212.5 C 15.525,212.897 15.6917,213.563 15,214.5C 14.5357,213.906 14.369,213.239 14.5,212.5 Z"/></g>
<g><path style="opacity:0.01" fill="#000001" d="M 262.5,213.5 C 262.833,213.5 263.167,213.5 263.5,213.5C 263.737,214.791 263.404,215.791 262.5,216.5C 262.5,215.5 262.5,214.5 262.5,213.5 Z"/></g>
<g><path style="opacity:0.008" fill="#000001" d="M 261.5,216.5 C 261.833,216.5 262.167,216.5 262.5,216.5C 262.768,218.099 262.434,219.432 261.5,220.5C 261.5,219.167 261.5,217.833 261.5,216.5 Z"/></g>
<g><path style="opacity:1" fill="#0e41ae" d="M 67.5,217.5 C 72.3768,216.812 76.7101,217.979 80.5,221C 78.1667,223.333 75.8333,225.667 73.5,228C 71.6739,228.292 69.8405,228.125 68,227.5C 63.3727,227.628 61.5394,229.961 62.5,234.5C 68.0858,233.547 73.4191,231.714 78.5,229C 89.6359,228.136 94.8026,233.303 94,244.5C 89.0463,255.719 80.5463,260.885 68.5,260C 66.5448,259.047 64.8782,257.713 63.5,256C 65.8333,253.667 68.1667,251.333 70.5,249C 72.7573,248.888 74.924,249.388 77,250.5C 82.6083,249.893 84.6083,246.893 83,241.5C 82.1074,240.919 81.1074,240.585 80,240.5C 74.4189,243.194 68.5855,245.194 62.5,246.5C 54.0166,244.556 50.8499,239.223 53,230.5C 56.7851,224.875 61.6184,220.542 67.5,217.5 Z"/></g>
<g><path style="opacity:0.009" fill="#000101" d="M 260.5,220.5 C 260.833,220.5 261.167,220.5 261.5,220.5C 261.737,221.791 261.404,222.791 260.5,223.5C 260.5,222.5 260.5,221.5 260.5,220.5 Z"/></g>
<g><path style="opacity:0.009" fill="#000001" d="M 259.5,223.5 C 259.833,223.5 260.167,223.5 260.5,223.5C 260.737,224.791 260.404,225.791 259.5,226.5C 259.5,225.5 259.5,224.5 259.5,223.5 Z"/></g>
<g><path style="opacity:1" fill="#043fad" d="M 153.5,221.5 C 154.497,221.47 155.164,221.97 155.5,223C 151.047,248.764 147.047,274.598 143.5,300.5C 141.208,300.244 139.041,300.577 137,301.5C 136.333,279.5 136.333,257.5 137,235.5C 142.664,230.934 148.164,226.267 153.5,221.5 Z"/></g>
<g><path style="opacity:1" fill="#1443ae" d="M 104.5,224.5 C 105.552,224.351 106.552,224.517 107.5,225C 109.181,227.344 110.848,229.677 112.5,232C 110.127,234.709 107.46,237.209 104.5,239.5C 101.705,237.249 99.3719,234.582 97.5,231.5C 99.6729,228.932 102.006,226.599 104.5,224.5 Z"/></g>
<g><path style="opacity:0.009" fill="#000001" d="M 258.5,226.5 C 258.833,226.5 259.167,226.5 259.5,226.5C 259.737,227.791 259.404,228.791 258.5,229.5C 258.5,228.5 258.5,227.5 258.5,226.5 Z"/></g>
<g><path style="opacity:0.009" fill="#000001" d="M 257.5,229.5 C 257.833,229.5 258.167,229.5 258.5,229.5C 258.737,230.791 258.404,231.791 257.5,232.5C 257.5,231.5 257.5,230.5 257.5,229.5 Z"/></g>
<g><path style="opacity:0.009" fill="#000001" d="M 256.5,232.5 C 256.833,232.5 257.167,232.5 257.5,232.5C 257.167,236.5 256.833,236.5 256.5,232.5 Z"/></g>
<g><path style="opacity:1" fill="#073fad" d="M 131.5,239.5 C 132.828,260.337 132.828,281.337 131.5,302.5C 130.264,303.246 128.93,303.579 127.5,303.5C 125.376,286.424 122.71,269.424 119.5,252.5C 119.667,251.5 119.833,250.5 120,249.5C 124.026,246.302 127.859,242.968 131.5,239.5 Z"/></g>
<g><path style="opacity:0.012" fill="#000001" d="M 252.5,243.5 C 253.833,244.167 253.833,244.833 252.5,245.5C 252.5,244.833 252.5,244.167 252.5,243.5 Z"/></g>
<g><path style="opacity:0.008" fill="#000001" d="M 251.5,245.5 C 251.833,245.5 252.167,245.5 252.5,245.5C 252.737,246.791 252.404,247.791 251.5,248.5C 251.5,247.5 251.5,246.5 251.5,245.5 Z"/></g>
<g><path style="opacity:0.012" fill="#000002" d="M 250.5,248.5 C 250.833,248.5 251.167,248.5 251.5,248.5C 251.672,249.492 251.338,250.158 250.5,250.5C 250.5,249.833 250.5,249.167 250.5,248.5 Z"/></g>
<g><path style="opacity:0.012" fill="#000001" d="M 249.5,250.5 C 249.833,250.5 250.167,250.5 250.5,250.5C 250.167,253.167 249.833,253.167 249.5,250.5 Z"/></g>
<g><path style="opacity:0.01" fill="#000001" d="M 248.5,255.5 C 248.369,254.761 248.536,254.094 249,253.5C 249.692,254.437 249.525,255.103 248.5,255.5 Z"/></g>
<g><path style="opacity:1" fill="#0d41ae" d="M 234.5,246.5 C 223.096,279.296 202.763,305.629 173.5,325.5C 172.348,322.894 172.182,320.227 173,317.5C 194.083,294.257 214.583,270.59 234.5,246.5 Z"/></g>
<g><path style="opacity:0.012" fill="#000102" d="M 247.5,255.5 C 247.833,255.5 248.167,255.5 248.5,255.5C 248.672,256.492 248.338,257.158 247.5,257.5C 247.5,256.833 247.5,256.167 247.5,255.5 Z"/></g>
<g><path style="opacity:1" fill="#0f42ae" d="M 114.5,252.5 C 116.045,253.23 116.878,254.563 117,256.5C 120.32,273.068 122.654,289.734 124,306.5C 123.586,306.957 123.086,307.291 122.5,307.5C 113.585,294.672 104.919,281.672 96.5,268.5C 102.817,263.516 108.817,258.182 114.5,252.5 Z"/></g>
<g><path style="opacity:1" fill="#2147b0" d="M 255.5,127.5 C 256.376,127.369 257.043,127.702 257.5,128.5C 256.018,130.483 254.351,132.316 252.5,134C 191.022,183.31 129.689,232.81 68.5,282.5C 68.1667,282 67.8333,281.5 67.5,281C 69.4782,279.022 71.4782,277.022 73.5,275C 134.645,226.348 195.312,177.182 255.5,127.5 Z"/></g>
<g><path style="opacity:0.01" fill="#000001" d="M 246.5,257.5 C 246.833,257.5 247.167,257.5 247.5,257.5C 247.672,258.492 247.338,259.158 246.5,259.5C 246.5,258.833 246.5,258.167 246.5,257.5 Z"/></g>
<g><path style="opacity:0.008" fill="#000001" d="M 245.5,259.5 C 245.833,259.5 246.167,259.5 246.5,259.5C 246.672,260.492 246.338,261.158 245.5,261.5C 245.5,260.833 245.5,260.167 245.5,259.5 Z"/></g>
<g><path style="opacity:0.01" fill="#000001" d="M 244.5,261.5 C 244.833,261.5 245.167,261.5 245.5,261.5C 245.672,262.492 245.338,263.158 244.5,263.5C 244.5,262.833 244.5,262.167 244.5,261.5 Z"/></g>
<g><path style="opacity:0.008" fill="#000001" d="M 243.5,263.5 C 243.833,263.5 244.167,263.5 244.5,263.5C 244.672,264.492 244.338,265.158 243.5,265.5C 243.5,264.833 243.5,264.167 243.5,263.5 Z"/></g>
<g><path style="opacity:0.008" fill="#000001" d="M 242.5,265.5 C 242.833,265.5 243.167,265.5 243.5,265.5C 243.672,266.492 243.338,267.158 242.5,267.5C 242.5,266.833 242.5,266.167 242.5,265.5 Z"/></g>
<g><path style="opacity:0.008" fill="#000001" d="M 241.5,267.5 C 241.833,267.5 242.167,267.5 242.5,267.5C 242.672,268.492 242.338,269.158 241.5,269.5C 241.5,268.833 241.5,268.167 241.5,267.5 Z"/></g>
<g><path style="opacity:0.008" fill="#000001" d="M 240.5,269.5 C 240.833,269.5 241.167,269.5 241.5,269.5C 241.672,270.492 241.338,271.158 240.5,271.5C 240.5,270.833 240.5,270.167 240.5,269.5 Z"/></g>
<g><path style="opacity:0.008" fill="#000001" d="M 239.5,271.5 C 239.833,271.5 240.167,271.5 240.5,271.5C 240.672,272.492 240.338,273.158 239.5,273.5C 239.5,272.833 239.5,272.167 239.5,271.5 Z"/></g>
<g><path style="opacity:1" fill="#0c41ad" d="M 91.5,271.5 C 92.675,271.281 93.675,271.614 94.5,272.5C 103.081,284.661 111.414,296.994 119.5,309.5C 117.833,312.167 116.167,314.833 114.5,317.5C 102.516,306.684 90.6829,295.684 79,284.5C 78.3333,283.833 78.3333,283.167 79,282.5C 83.3602,278.968 87.5268,275.301 91.5,271.5 Z"/></g>
<g><path style="opacity:0.01" fill="#000001" d="M 238.5,273.5 C 238.833,273.5 239.167,273.5 239.5,273.5C 239.672,274.492 239.338,275.158 238.5,275.5C 238.5,274.833 238.5,274.167 238.5,273.5 Z"/></g>
<g><path style="opacity:0.008" fill="#000001" d="M 237.5,275.5 C 237.833,275.5 238.167,275.5 238.5,275.5C 238.672,276.492 238.338,277.158 237.5,277.5C 237.5,276.833 237.5,276.167 237.5,275.5 Z"/></g>
<g><path style="opacity:0.012" fill="#000003" d="M 236.5,277.5 C 236.833,277.5 237.167,277.5 237.5,277.5C 237.315,278.17 236.981,278.17 236.5,277.5 Z"/></g>
<g><path style="opacity:0.008" fill="#000001" d="M 234.5,280.5 C 234.833,280.5 235.167,280.5 235.5,280.5C 235.672,281.492 235.338,282.158 234.5,282.5C 234.5,281.833 234.5,281.167 234.5,280.5 Z"/></g>
<g><path style="opacity:0.008" fill="#000001" d="M 233.5,282.5 C 233.833,282.5 234.167,282.5 234.5,282.5C 234.672,283.492 234.338,284.158 233.5,284.5C 233.5,283.833 233.5,283.167 233.5,282.5 Z"/></g>
<g><path style="opacity:0.012" fill="#000003" d="M 232.5,284.5 C 232.833,284.5 233.167,284.5 233.5,284.5C 233.315,285.17 232.981,285.17 232.5,284.5 Z"/></g>
<g><path style="opacity:0.01" fill="#000100" d="M 231.5,285.5 C 231.833,285.5 232.167,285.5 232.5,285.5C 232.672,286.492 232.338,287.158 231.5,287.5C 231.5,286.833 231.5,286.167 231.5,285.5 Z"/></g>
<g><path style="opacity:1" fill="#1543af" d="M 74.5,285.5 C 88.0957,296.924 101.262,308.924 114,321.5C 115.039,323.901 115.206,326.234 114.5,328.5C 98.2488,317.583 84.2488,304.25 72.5,288.5C 73.1925,287.482 73.8592,286.482 74.5,285.5 Z"/></g>
<g><path style="opacity:0.012" fill="#000003" d="M 230.5,287.5 C 230.833,287.5 231.167,287.5 231.5,287.5C 231.315,288.17 230.981,288.17 230.5,287.5 Z"/></g>
<g><path style="opacity:0.008" fill="#000001" d="M 229.5,288.5 C 229.833,288.5 230.167,288.5 230.5,288.5C 230.672,289.492 230.338,290.158 229.5,290.5C 229.5,289.833 229.5,289.167 229.5,288.5 Z"/></g>
<g><path style="opacity:0.012" fill="#000102" d="M 228.5,290.5 C 228.833,290.5 229.167,290.5 229.5,290.5C 229.315,291.17 228.981,291.17 228.5,290.5 Z"/></g>
<g><path style="opacity:0.006" fill="#000001" d="M 227.5,291.5 C 227.833,291.5 228.167,291.5 228.5,291.5C 228.672,292.492 228.338,293.158 227.5,293.5C 227.5,292.833 227.5,292.167 227.5,291.5 Z"/></g>
<g><path style="opacity:0.012" fill="#000003" d="M 226.5,293.5 C 226.833,293.5 227.167,293.5 227.5,293.5C 227.315,294.17 226.981,294.17 226.5,293.5 Z"/></g>
<g><path style="opacity:0.008" fill="#000001" d="M 225.5,294.5 C 225.833,294.5 226.167,294.5 226.5,294.5C 226.672,295.492 226.338,296.158 225.5,296.5C 225.5,295.833 225.5,295.167 225.5,294.5 Z"/></g>
<g><path style="opacity:0.012" fill="#000003" d="M 224.5,296.5 C 224.833,296.5 225.167,296.5 225.5,296.5C 225.315,297.17 224.981,297.17 224.5,296.5 Z"/></g>
<g><path style="opacity:0.016" fill="#000102" d="M 223.5,297.5 C 223.833,297.5 224.167,297.5 224.5,297.5C 224.315,298.17 223.981,298.17 223.5,297.5 Z"/></g>
<g><path style="opacity:0.006" fill="#000001" d="M 222.5,298.5 C 222.833,298.5 223.167,298.5 223.5,298.5C 223.672,299.492 223.338,300.158 222.5,300.5C 222.5,299.833 222.5,299.167 222.5,298.5 Z"/></g>
<g><path style="opacity:0.012" fill="#000003" d="M 221.5,300.5 C 221.833,300.5 222.167,300.5 222.5,300.5C 222.315,301.17 221.981,301.17 221.5,300.5 Z"/></g>
<g><path style="opacity:0.016" fill="#000102" d="M 220.5,301.5 C 220.833,301.5 221.167,301.5 221.5,301.5C 221.315,302.17 220.981,302.17 220.5,301.5 Z"/></g>
<g><path style="opacity:0.008" fill="#000001" d="M 219.5,302.5 C 219.833,302.5 220.167,302.5 220.5,302.5C 220.672,303.492 220.338,304.158 219.5,304.5C 219.5,303.833 219.5,303.167 219.5,302.5 Z"/></g>
<g><path style="opacity:0.008" fill="#000003" d="M 218.5,304.5 C 218.833,304.5 219.167,304.5 219.5,304.5C 219.315,305.17 218.981,305.17 218.5,304.5 Z"/></g>
<g><path style="opacity:0.007" fill="#000001" d="M 69.5,305.5 C 70.1667,305.5 70.5,305.833 70.5,306.5C 70.2533,308.975 69.5866,308.975 68.5,306.5C 68.6236,305.893 68.9569,305.56 69.5,305.5 Z"/></g>
<g><path style="opacity:0.012" fill="#000201" d="M 217.5,305.5 C 217.833,305.5 218.167,305.5 218.5,305.5C 218.315,306.17 217.981,306.17 217.5,305.5 Z"/></g>
<g><path style="opacity:0.016" fill="#000102" d="M 216.5,306.5 C 216.833,306.5 217.167,306.5 217.5,306.5C 217.315,307.17 216.981,307.17 216.5,306.5 Z"/></g>
<g><path style="opacity:0.016" fill="#000001" d="M 215.5,307.5 C 215.833,307.5 216.167,307.5 216.5,307.5C 216.315,308.17 215.981,308.17 215.5,307.5 Z"/></g>
<g><path style="opacity:0.006" fill="#000000" d="M 214.5,308.5 C 214.833,308.5 215.167,308.5 215.5,308.5C 215.672,309.492 215.338,310.158 214.5,310.5C 214.5,309.833 214.5,309.167 214.5,308.5 Z"/></g>
<g><path style="opacity:0.008" fill="#000003" d="M 213.5,310.5 C 213.833,310.5 214.167,310.5 214.5,310.5C 214.315,311.17 213.981,311.17 213.5,310.5 Z"/></g>
<g><path style="opacity:0.012" fill="#000003" d="M 212.5,311.5 C 212.833,311.5 213.167,311.5 213.5,311.5C 213.315,312.17 212.981,312.17 212.5,311.5 Z"/></g>
<g><path style="opacity:0.012" fill="#000003" d="M 211.5,312.5 C 211.833,312.5 212.167,312.5 212.5,312.5C 212.315,313.17 211.981,313.17 211.5,312.5 Z"/></g>
<g><path style="opacity:0.016" fill="#000004" d="M 210.5,313.5 C 210.833,313.5 211.167,313.5 211.5,313.5C 211.315,314.17 210.981,314.17 210.5,313.5 Z"/></g>
<g><path style="opacity:0.016" fill="#000004" d="M 209.5,314.5 C 209.833,314.5 210.167,314.5 210.5,314.5C 210.315,315.17 209.981,315.17 209.5,314.5 Z"/></g>
<g><path style="opacity:0.009" fill="#000001" d="M 78.5,315.5 C 79.1667,315.5 79.5,315.833 79.5,316.5C 80.1667,316.5 80.5,316.833 80.5,317.5C 81.1667,317.5 81.5,317.833 81.5,318.5C 82.1667,318.5 82.5,318.833 82.5,319.5C 83.1667,319.5 83.5,319.833 83.5,320.5C 84.1667,320.5 84.5,320.833 84.5,321.5C 84.1034,322.525 83.4368,322.692 82.5,322C 81,320.5 79.5,319 78,317.5C 77.3083,316.563 77.475,315.897 78.5,315.5 Z"/></g>
<g><path style="opacity:0.016" fill="#000100" d="M 208.5,315.5 C 208.833,315.5 209.167,315.5 209.5,315.5C 209.315,316.17 208.981,316.17 208.5,315.5 Z"/></g>
<g><path style="opacity:0.016" fill="#000100" d="M 207.5,316.5 C 207.833,316.5 208.167,316.5 208.5,316.5C 208.315,317.17 207.981,317.17 207.5,316.5 Z"/></g>
<g><path style="opacity:0.016" fill="#000000" d="M 206.5,317.5 C 206.833,317.5 207.167,317.5 207.5,317.5C 207.315,318.17 206.981,318.17 206.5,317.5 Z"/></g>
<g><path style="opacity:0.016" fill="#000000" d="M 205.5,318.5 C 205.833,318.5 206.167,318.5 206.5,318.5C 206.315,319.17 205.981,319.17 205.5,318.5 Z"/></g>
<g><path style="opacity:0.016" fill="#000000" d="M 204.5,319.5 C 204.833,319.5 205.167,319.5 205.5,319.5C 205.315,320.17 204.981,320.17 204.5,319.5 Z"/></g>
<g><path style="opacity:0.016" fill="#000100" d="M 203.5,320.5 C 203.833,320.5 204.167,320.5 204.5,320.5C 204.315,321.17 203.981,321.17 203.5,320.5 Z"/></g>
<g><path style="opacity:0.016" fill="#000102" d="M 202.5,321.5 C 202.833,321.5 203.167,321.5 203.5,321.5C 203.315,322.17 202.981,322.17 202.5,321.5 Z"/></g>
<g><path style="opacity:0.016" fill="#000203" d="M 201.5,322.5 C 201.833,322.5 202.167,322.5 202.5,322.5C 202.315,323.17 201.981,323.17 201.5,322.5 Z"/></g>
<g><path style="opacity:0.016" fill="#000003" d="M 200.5,323.5 C 200.833,323.5 201.167,323.5 201.5,323.5C 201.315,324.17 200.981,324.17 200.5,323.5 Z"/></g>
<g><path style="opacity:0.012" fill="#000003" d="M 199.5,324.5 C 199.833,324.5 200.167,324.5 200.5,324.5C 200.315,325.17 199.981,325.17 199.5,324.5 Z"/></g>
<g><path style="opacity:0.012" fill="#000102" d="M 198.5,325.5 C 198.833,325.5 199.167,325.5 199.5,325.5C 199.315,326.17 198.981,326.17 198.5,325.5 Z"/></g>
<g><path style="opacity:0.007" fill="#000208" d="M 197.5,325.5 C 197.5,326.167 197.833,326.5 198.5,326.5C 197.738,328.262 196.404,329.262 194.5,329.5C 194.5,329.167 194.5,328.833 194.5,328.5C 195.167,328.5 195.5,328.167 195.5,327.5C 195.833,326.5 196.5,325.833 197.5,325.5 Z"/></g>
<g><path style="opacity:0.016" fill="#000003" d="M 193.5,329.5 C 193.833,329.5 194.167,329.5 194.5,329.5C 194.315,330.17 193.981,330.17 193.5,329.5 Z"/></g>
<g><path style="opacity:0.016" fill="#000003" d="M 192.5,330.5 C 192.833,330.5 193.167,330.5 193.5,330.5C 193.315,331.17 192.981,331.17 192.5,330.5 Z"/></g>
<g><path style="opacity:0.016" fill="#000003" d="M 188.5,333.5 C 188.833,333.5 189.167,333.5 189.5,333.5C 189.315,334.17 188.981,334.17 188.5,333.5 Z"/></g>
<g><path style="opacity:0.012" fill="#000003" d="M 184.5,336.5 C 184.833,336.5 185.167,336.5 185.5,336.5C 185.315,337.17 184.981,337.17 184.5,336.5 Z"/></g>
<g><path style="opacity:0.008" fill="#000106" d="M 114.5,344.5 C 115.167,344.5 115.5,344.833 115.5,345.5C 115.833,346.833 116.167,346.833 116.5,345.5C 117.167,345.5 117.5,345.833 117.5,346.5C 118.167,346.5 118.5,346.833 118.5,347.5C 118.833,347.5 119.167,347.5 119.5,347.5C 120.167,347.5 120.5,347.833 120.5,348.5C 120.833,348.5 121.167,348.5 121.5,348.5C 122.167,348.5 122.5,348.833 122.5,349.5C 122.5,349.833 122.5,350.167 122.5,350.5C 119.008,349.59 116.008,347.924 113.5,345.5C 114.167,345.5 114.5,345.167 114.5,344.5 Z"/></g>
<g><path style="opacity:0.008" fill="#02030e" d="M 170.5,344.5 C 171.167,344.5 171.5,344.833 171.5,345.5C 166.753,349.207 161.419,351.874 155.5,353.5C 155.5,353.167 155.5,352.833 155.5,352.5C 156.492,352.672 157.158,352.338 157.5,351.5C 157.5,350.833 157.833,350.5 158.5,350.5C 158.833,351.833 159.167,351.833 159.5,350.5C 159.5,349.833 159.833,349.5 160.5,349.5C 160.833,350.833 161.167,350.833 161.5,349.5C 161.5,348.833 161.833,348.5 162.5,348.5C 162.833,349.833 163.167,349.833 163.5,348.5C 163.5,347.833 163.833,347.5 164.5,347.5C 164.833,348.833 165.167,348.833 165.5,347.5C 165.5,346.833 165.833,346.5 166.5,346.5C 166.833,347.833 167.167,347.833 167.5,346.5C 167.5,345.833 167.833,345.5 168.5,345.5C 168.833,346.833 169.167,346.833 169.5,345.5C 169.5,344.833 169.833,344.5 170.5,344.5 Z"/></g>
<g><path style="opacity:0.01" fill="#000101" d="M 153.5,354.5 C 153.5,354.167 153.5,353.833 153.5,353.5C 154.167,353.5 154.833,353.5 155.5,353.5C 155.158,354.338 154.492,354.672 153.5,354.5 Z"/></g>
<g><path style="opacity:0.008" fill="#000002" d="M 150.5,355.5 C 150.5,355.167 150.5,354.833 150.5,354.5C 151.5,354.5 152.5,354.5 153.5,354.5C 152.791,355.404 151.791,355.737 150.5,355.5 Z"/></g>
<g><path style="opacity:0.009" fill="#000001" d="M 133.5,356.5 C 134.209,355.596 135.209,355.263 136.5,355.5C 136.5,355.833 136.5,356.167 136.5,356.5C 135.5,356.5 134.5,356.5 133.5,356.5 Z"/></g>
<g><path style="opacity:0.012" fill="#000002" d="M 148.5,356.5 C 148.5,356.167 148.5,355.833 148.5,355.5C 149.167,355.5 149.833,355.5 150.5,355.5C 150.5,355.833 150.5,356.167 150.5,356.5C 149.833,356.5 149.167,356.5 148.5,356.5 Z"/></g>
</svg>
