<svg id="Camada_1" data-name="Camada 1" xmlns="http://www.w3.org/2000/svg" viewBox="0 0 500 500"><defs><style>.cls-1{fill:#fff;}</style></defs><path class="cls-1" d="M250.15,485.4c.51-.76.86-1.31,1.25-1.85,2.48-3.5,4.89-7.06,7.47-10.48a53.42,53.42,0,0,1,22-17.31c5.11-2.17,10.3-4.18,15.49-6.15,8.7-3.31,17.55-6.23,26.11-9.83,25.43-10.69,48.44-25.18,68.37-44.37a162.83,162.83,0,0,0,33.08-44.25,138.06,138.06,0,0,0,14.69-54,133.91,133.91,0,0,0-.26-19.21,147.83,147.83,0,0,0-3.91-24.13,201.53,201.53,0,0,0-25.33-59.46,54.75,54.75,0,0,1-6.2-12.87c-2-6.33-2.47-12.68-.13-19a32.19,32.19,0,0,1,7-10.92,65.34,65.34,0,0,1,15.53-11.82c4.2-2.39,8.42-4.75,12.63-7.13.51-.29,1-.62,1.65-1L384.09,22.14H116.17Q88.41,76.86,60.67,131.57c.63.38,1.13.7,1.65,1l11.85,6.68a75.67,75.67,0,0,1,12.25,8.39,41.25,41.25,0,0,1,9,10.38,26.3,26.3,0,0,1,3.17,18.7A49.05,49.05,0,0,1,91.36,194a203.34,203.34,0,0,0-22.57,49.11c-5.94,19.15-8.58,38.66-6.73,58.7a135.92,135.92,0,0,0,8.28,35.74C77.7,357,88.94,374,103.14,389.1A207.71,207.71,0,0,0,154,428.18a273.86,273.86,0,0,0,42.89,19c7.57,2.66,15.06,5.58,22.49,8.64a52.08,52.08,0,0,1,21.9,17.11c2.66,3.52,5.13,7.18,7.68,10.78C249.3,484.15,249.63,484.65,250.15,485.4Z"/><path d="M250.15,485.4c-.52-.75-.85-1.25-1.2-1.73-2.55-3.6-5-7.26-7.68-10.78a52.08,52.08,0,0,0-21.9-17.11c-7.43-3.06-14.92-6-22.49-8.64a273.86,273.86,0,0,1-42.89-19,207.71,207.71,0,0,1-50.85-39.08C88.94,374,77.7,357,70.34,337.57a135.92,135.92,0,0,1-8.28-35.74c-1.85-20,.79-39.55,6.73-58.7A203.34,203.34,0,0,1,91.36,194a49.05,49.05,0,0,0,7.2-17.31A26.3,26.3,0,0,0,95.39,158a41.25,41.25,0,0,0-9-10.38,75.67,75.67,0,0,0-12.25-8.39l-11.85-6.68c-.52-.29-1-.61-1.65-1q27.78-54.78,55.5-109.43H384.09l55.49,109.41c-.65.39-1.14.72-1.65,1-4.21,2.38-8.43,4.74-12.63,7.13a65.34,65.34,0,0,0-15.53,11.82,32.19,32.19,0,0,0-7,10.92c-2.34,6.35-1.87,12.7.13,19a54.75,54.75,0,0,0,6.2,12.87,201.53,201.53,0,0,1,25.33,59.46,147.83,147.83,0,0,1,3.91,24.13,133.91,133.91,0,0,1,.26,19.21,138.06,138.06,0,0,1-14.69,54,162.83,162.83,0,0,1-33.08,44.25c-19.93,19.19-42.94,33.68-68.37,44.37-8.56,3.6-17.41,6.52-26.11,9.83-5.19,2-10.38,4-15.49,6.15a53.42,53.42,0,0,0-22,17.31c-2.58,3.42-5,7-7.47,10.48C251,484.09,250.66,484.64,250.15,485.4ZM83,124.85c.93.56,1.71,1,2.48,1.48a74.87,74.87,0,0,1,19.79,16.57c9.37,11.51,12.64,24.52,9.4,39.08a65,65,0,0,1-9,20.89,185.76,185.76,0,0,0-22.07,49.51C79,268.66,77.15,285.2,79,302.08a122.5,122.5,0,0,0,15.88,48,153.81,153.81,0,0,0,33.16,39.58,211,211,0,0,0,54.47,33.84c9.43,4.11,19.21,7.28,28.82,10.89a151.47,151.47,0,0,1,24.22,11c5.5,3.25,10.58,7,14.43,12.23.05.07.2.07.13.05,2-2.12,3.84-4.3,5.92-6.19a60.19,60.19,0,0,1,12.5-8.32,187.29,187.29,0,0,1,24.36-10.29c8.35-3,16.76-5.88,24.91-9.44a213.58,213.58,0,0,0,52-31.76c14.7-12.3,27.16-26.49,36.51-43.3a121.73,121.73,0,0,0,15.62-55,119.1,119.1,0,0,0-2.26-28.32A181.73,181.73,0,0,0,395,203.56a71.53,71.53,0,0,1-8.7-18.87c-3.24-11.55-2.48-22.73,3.15-33.45A55.33,55.33,0,0,1,401.56,136a83.15,83.15,0,0,1,13.92-10.09c.6-.36,1.18-.76,1.79-1.15-14.59-28.76-29.07-57.33-43.6-86h-2.42c-25.27.06-50.54.16-75.82.15q-83.43,0-166.87-.17a2.77,2.77,0,0,0-2.89,1.77q-20.82,41.21-41.73,82.35C83.65,123.46,83.38,124.06,83,124.85Z"/><path class="cls-1" d="M83,124.85c.38-.79.65-1.39.94-2q20.88-41.17,41.73-82.35a2.77,2.77,0,0,1,2.89-1.77q83.45.14,166.87.17c25.28,0,50.55-.09,75.82-.15h2.42c14.53,28.65,29,57.22,43.6,86-.61.39-1.19.79-1.79,1.15A83.15,83.15,0,0,0,401.56,136a55.33,55.33,0,0,0-12.15,15.24c-5.63,10.72-6.39,21.9-3.15,33.45a71.53,71.53,0,0,0,8.7,18.87,181.73,181.73,0,0,1,24.69,61.59,119.1,119.1,0,0,1,2.26,28.32,121.73,121.73,0,0,1-15.62,55c-9.35,16.81-21.81,31-36.51,43.3a213.58,213.58,0,0,1-52,31.76c-8.15,3.56-16.56,6.42-24.91,9.44a187.29,187.29,0,0,0-24.36,10.29,60.19,60.19,0,0,0-12.5,8.32c-2.08,1.89-3.91,4.07-5.92,6.19.07,0-.08,0-.13-.05-3.85-5.2-8.93-9-14.43-12.23a151.47,151.47,0,0,0-24.22-11c-9.61-3.61-19.39-6.78-28.82-10.89a211,211,0,0,1-54.47-33.84A153.81,153.81,0,0,1,94.9,350.11a122.5,122.5,0,0,1-15.88-48c-1.87-16.88,0-33.42,4.61-49.7a185.76,185.76,0,0,1,22.07-49.51,65,65,0,0,0,9-20.89c3.24-14.56,0-27.57-9.4-39.08a74.87,74.87,0,0,0-19.79-16.57C84.71,125.86,83.93,125.41,83,124.85ZM250.18,443c1.77-1.21,3.49-2.43,5.26-3.58a182.44,182.44,0,0,1,21.34-11.58c9.14-4.31,18.62-7.75,28.08-11.28a200,200,0,0,0,51-27.55,148.85,148.85,0,0,0,39.3-43.43A107.45,107.45,0,0,0,410.32,293a130,130,0,0,0-6-42,180.8,180.8,0,0,0-21.87-45.64,71.33,71.33,0,0,1-7.9-16.47c-3.46-10.39-4.33-20.95-1.33-31.59,4-14.16,12.52-25,24.55-33.31.94-.64,1.9-1.25,3-2l-36.5-70.26q-114.32-.52-228.38,0L99.35,122c1.25.8,2.4,1.56,3.56,2.31a55.75,55.75,0,0,1,24.28,59.25,61.77,61.77,0,0,1-8.78,20.56A194.53,194.53,0,0,0,99.64,239.9a135.93,135.93,0,0,0-9.8,46.79,117.64,117.64,0,0,0,3.3,30,105.28,105.28,0,0,0,11.32,27.79c9.86,17.27,23.06,31.59,38.78,43.65,16.2,12.43,34.14,21.66,53.21,28.83,7.63,2.87,15.27,5.75,22.76,9a156.73,156.73,0,0,1,29.68,16.26C249.28,442.48,249.71,442.7,250.18,443Z"/><path d="M250.18,443c-.47-.28-.9-.5-1.29-.78a156.73,156.73,0,0,0-29.68-16.26c-7.49-3.21-15.13-6.09-22.76-9-19.07-7.17-37-16.4-53.21-28.83-15.72-12.06-28.92-26.38-38.78-43.65a105.28,105.28,0,0,1-11.32-27.79,117.64,117.64,0,0,1-3.3-30,135.93,135.93,0,0,1,9.8-46.79,194.53,194.53,0,0,1,18.77-35.74,61.77,61.77,0,0,0,8.78-20.56,55.75,55.75,0,0,0-24.28-59.25c-1.16-.75-2.31-1.51-3.56-2.31l36.51-70.27q114.1-.54,228.38,0L400.74,122c-1.07.71-2,1.32-3,2-12,8.27-20.56,19.15-24.55,33.31-3,10.64-2.13,21.2,1.33,31.59a71.33,71.33,0,0,0,7.9,16.47A180.8,180.8,0,0,1,404.32,251a130,130,0,0,1,6,42,107.45,107.45,0,0,1-15.12,52.57A148.85,148.85,0,0,1,355.9,389a200,200,0,0,1-51,27.55c-9.46,3.53-18.94,7-28.08,11.28a182.44,182.44,0,0,0-21.34,11.58C253.67,440.55,252,441.77,250.18,443Zm0-11.42c.34-.2.61-.35.86-.51a207.31,207.31,0,0,1,25.13-13.31c8.42-3.84,17.13-6.93,25.78-10.19a191,191,0,0,0,49-26.66c14.62-11.16,27-24.37,36.23-40.36a91.67,91.67,0,0,0,10.57-25.73,132,132,0,0,0,2.54-17.39,104,104,0,0,0-1.05-27.29,119.75,119.75,0,0,0-9.14-28.39,8.91,8.91,0,0,0-4.15-4.47,277.25,277.25,0,0,0-48.46-20.14,302.16,302.16,0,0,0-74.7-13.52,246.9,246.9,0,0,0-28.27.19,299,299,0,0,0-30.6,3.46,305.25,305.25,0,0,0-59.51,16.22A251.23,251.23,0,0,0,112.91,238a4.53,4.53,0,0,0-2.14,2.32c-1.28,3.06-2.71,6.07-3.92,9.16a103.53,103.53,0,0,0-7.15,31.15,109.61,109.61,0,0,0,.12,15.59,126.82,126.82,0,0,0,2.75,19c2.32,9.93,6.62,19,11.9,27.7,9.55,15.66,22.07,28.56,36.76,39.42,15.58,11.52,32.71,20.09,50.9,26.61,16.54,5.92,32.55,12.95,47.47,22.31A4,4,0,0,0,250.22,431.56Zm-137-313.16c3.44,3.52,6.77,6.77,9.91,10.19a65.22,65.22,0,0,1,8.19,11.51c.55-.18.95-.3,1.33-.45C165.28,127,199.2,120.17,234.1,118a317.13,317.13,0,0,1,34.61-.17,304.35,304.35,0,0,1,36,3.8,293.21,293.21,0,0,1,62.31,17.52c.6.25,1.21.45,1.92.71a79.49,79.49,0,0,1,18.12-21.22L357.94,62.26H356q-106,0-212,0a2.64,2.64,0,0,0-2.77,1.67Q127.68,90.35,114,116.74C113.68,117.33,113.41,117.92,113.18,118.4Zm251,31.11c-.58-.26-1.18-.53-1.78-.78a288.7,288.7,0,0,0-92.34-20.28,318.11,318.11,0,0,0-55,1.83,333,333,0,0,0-43.09,8,286.18,286.18,0,0,0-34.19,10.81c-.65.25-1.28.56-1.95.85.23.71.39,1.22.55,1.74a58.94,58.94,0,0,1,3,16.55c.43,15.13-4.28,28.78-12,41.56-2.28,3.78-4.62,7.52-6.92,11.29a11.49,11.49,0,0,0-.6,1.44c2.13-1,3.93-1.81,5.75-2.62a314.31,314.31,0,0,1,85.27-24.35,299.71,299.71,0,0,1,42.65-2.87,292.89,292.89,0,0,1,30.76,1.76A285.45,285.45,0,0,1,312.88,199a297.08,297.08,0,0,1,65.53,22.37c.46.22.95.4,1.79.75-.44-.85-.67-1.38-1-1.87-1.85-3.05-3.65-6.14-5.6-9.12a83.39,83.39,0,0,1-10.2-22.35,61.39,61.39,0,0,1-1.65-29.58C362.42,156,363.35,152.91,364.21,149.51Z"/><path class="cls-1" d="M250.22,431.56a4,4,0,0,1-.62-.27c-14.92-9.36-30.93-16.39-47.47-22.31-18.19-6.52-35.32-15.09-50.9-26.61C136.54,371.51,124,358.61,114.47,343c-5.28-8.66-9.58-17.77-11.9-27.7a126.82,126.82,0,0,1-2.75-19,109.61,109.61,0,0,1-.12-15.59,103.53,103.53,0,0,1,7.15-31.15c1.21-3.09,2.64-6.1,3.92-9.16a4.53,4.53,0,0,1,2.14-2.32,251.23,251.23,0,0,1,31.58-14.56A305.25,305.25,0,0,1,204,207.25a299,299,0,0,1,30.6-3.46,246.9,246.9,0,0,1,28.27-.19,302.16,302.16,0,0,1,74.7,13.52A277.25,277.25,0,0,1,386,237.26a8.91,8.91,0,0,1,4.15,4.47,119.75,119.75,0,0,1,9.14,28.39,104,104,0,0,1,1.05,27.29,132,132,0,0,1-2.54,17.39,91.67,91.67,0,0,1-10.57,25.73c-9.25,16-21.61,29.2-36.23,40.36a191,191,0,0,1-49,26.66c-8.65,3.26-17.36,6.35-25.78,10.19a207.31,207.31,0,0,0-25.13,13.31C250.83,431.21,250.56,431.36,250.22,431.56Zm86.59-133.24c-1.53-11.08-3-21.84-4.52-32.76-1.58,0-3,0-4.46,0a1.5,1.5,0,0,0-.95.67c-2.79,4.38-6.95,6.1-11.91,5.88a41.14,41.14,0,0,1-7.84-1.3,179.63,179.63,0,0,0-34.73-5.12,205.88,205.88,0,0,0-29.17.75c-.41,0-.82,0-1.22,0-.38-1.69-.34-27.73.07-29.28h1.57c11.79,0,23.58-.06,35.37,0a94.34,94.34,0,0,1,11.38.8c8.64,1.11,15,5.65,19.07,13.38a58.6,58.6,0,0,1,4.08,10.46c.22.74.46,1.47.68,2.14h4.12c-.52-11.94-1-23.75-1.54-35.61H195.43v4.1a11.31,11.31,0,0,0,1.29.16c1.45,0,2.9,0,4.35,0a22.22,22.22,0,0,1,12,3.49,9.7,9.7,0,0,1,4.67,7,50.07,50.07,0,0,1,.67,5.57c.16,6.83.21,13.67.3,20.5,0,.41-.07.83-.12,1.33-.6.17-1.17.35-1.74.5a133.47,133.47,0,0,0-16.7,5.45,80.26,80.26,0,0,0-23,13.65,45.55,45.55,0,0,0-10.06,12.05A30.52,30.52,0,0,0,163.69,324a32.9,32.9,0,0,0,7.64,14.83,58.19,58.19,0,0,0,13.19,11,100.43,100.43,0,0,0,30.61,12.38l3.63.89c-.16,4.87-.22,9.63-1.28,14.32a10.71,10.71,0,0,1-5.48,7.3,22.93,22.93,0,0,1-4.51,1.83c-3.12.95-6.35.74-9.55.76-.82,0-1.64,0-2.49.07v4.09a2.76,2.76,0,0,0,.61.17l68,0c.3,0,.6-.05.9-.08,0,0,.09-.07.14-.12l.08-.08v-4.08c-2.14,0-4.12,0-6.11,0a22.11,22.11,0,0,1-11.8-3.6,9.25,9.25,0,0,1-4.58-6.86c-.37-3.23-.57-6.49-.83-9.74a2.89,2.89,0,0,1,.26-.87c1.4.09,2.72.21,4.05.28a225.3,225.3,0,0,0,33.87-.64,136.23,136.23,0,0,0,27-5.17,93.55,93.55,0,0,0,32.45-17.24c.52-.43,1-.9,1.67-1.49-.81-.29-1.34-.43-1.82-.66a3.76,3.76,0,0,0-4.62.62,16.65,16.65,0,0,1-2,1.3,100.57,100.57,0,0,1-52.58,17.13,178.14,178.14,0,0,1-31.32-1.09c-2.32-.31-4.62-.74-7-1.13V311.48c.58,0,1.05-.11,1.52-.11,9.74,0,19.47,0,29.2,0a37.14,37.14,0,0,1,6.66.68c6.28,1.19,10.34,5,12.24,11a28.82,28.82,0,0,1,1,4.79c.26,2,.36,4.07.54,6.19h4.12V279.19h-4.19l-.47,3a45.06,45.06,0,0,1-2.55,9.62,13.94,13.94,0,0,1-9.82,8.64,32.93,32.93,0,0,1-8.61,1.07H243.74c-.59,0-1.17-.06-1.72-.09-.43-2.09-.35-27.39.08-28.69.16,0,.32-.13.5-.17a109,109,0,0,1,17.65-1.83c5.74-.06,11.48,0,17.21.32a98.23,98.23,0,0,1,24.2,4.36c12.55,3.89,22.89,10.79,30.07,22a1.4,1.4,0,0,0,.31.44,2,2,0,0,0,.91.45C334.14,298.35,335.34,298.32,336.81,298.32Z"/><path class="cls-1" d="M113.18,118.4c.23-.48.5-1.07.8-1.66q13.67-26.42,27.29-52.84A2.64,2.64,0,0,1,144,62.23q106,0,212,0h1.91l29.15,56.37A79.49,79.49,0,0,0,369,139.85c-.71-.26-1.32-.46-1.92-.71a293.21,293.21,0,0,0-62.31-17.52,304.35,304.35,0,0,0-36-3.8,317.13,317.13,0,0,0-34.61.17c-34.9,2.18-68.82,9-101.49,21.66-.38.15-.78.27-1.33.45a65.22,65.22,0,0,0-8.19-11.51C120,125.17,116.62,121.92,113.18,118.4Z"/><path class="cls-1" d="M364.21,149.51c-.86,3.4-1.79,6.53-2.43,9.72a61.39,61.39,0,0,0,1.65,29.58,83.39,83.39,0,0,0,10.2,22.35c1.95,3,3.75,6.07,5.6,9.12.3.49.53,1,1,1.87-.84-.35-1.33-.53-1.79-.75A297.08,297.08,0,0,0,312.88,199a285.45,285.45,0,0,0-28.61-4.63,292.89,292.89,0,0,0-30.76-1.76,299.71,299.71,0,0,0-42.65,2.87,314.31,314.31,0,0,0-85.27,24.35c-1.82.81-3.62,1.65-5.75,2.62a11.49,11.49,0,0,1,.6-1.44c2.3-3.77,4.64-7.51,6.92-11.29,7.7-12.78,12.41-26.43,12-41.56a58.94,58.94,0,0,0-3-16.55c-.16-.52-.32-1-.55-1.74.67-.29,1.3-.6,1.95-.85A286.18,286.18,0,0,1,172,138.24a333,333,0,0,1,43.09-8,318.11,318.11,0,0,1,55-1.83,288.7,288.7,0,0,1,92.34,20.28C363,149,363.63,149.25,364.21,149.51ZM233.84,185c.18-1-.25-1.25-.86-1.33a4.7,4.7,0,0,1-3.11-2c-.53-.67-1.07-1.32-1.57-2q-5.38-7.41-10.75-14.83c-.23-.33-.41-.69-.59-1,.09-.14.11-.21.16-.24.42-.25.83-.49,1.25-.72a11.06,11.06,0,0,0,5.79-8.72,15.56,15.56,0,0,0-.65-6.8c-1.68-5.2-5.54-8.23-11-8.43a58.31,58.31,0,0,0-7.24.2c-4.27.36-8.53.87-12.79,1.32-1.9.21-3.8.45-6.17.72.56.57.77,1,1.05,1,.59.12,1.21,0,1.81.06a3.29,3.29,0,0,1,3.19,2.71,13.62,13.62,0,0,1,.34,1.78c.29,2.52.56,5,.83,7.57q1.38,12.88,2.74,25.78a38.55,38.55,0,0,1,.26,4.16,3.43,3.43,0,0,1-2.91,3.63c-.46.12-.95.17-1.41.3-.65.18-.62.6-.36,1.15a10.86,10.86,0,0,0,1.28,0q8.75-.9,17.48-1.83c.18,0,.4,0,.53-.09s.57-.48.52-.57a1.21,1.21,0,0,0-.66-.64,5.88,5.88,0,0,0-1.26,0c-2.25-.07-3.25-.9-3.76-3.14a14.89,14.89,0,0,1-.28-1.6c-.34-3-.68-5.89-1-8.83-.24-2.21-.43-4.42-.63-6.56,1.76-.76,2.79-.29,3.8,1.13,4.2,6,8.55,11.87,12.78,17.83a2.29,2.29,0,0,0,2.54,1.16c2-.31,4-.44,5.94-.65Zm25-12.71c0-.6.12-1.12.12-1.64q0-11,0-22a3.88,3.88,0,0,0-.05-1.08c-.08-.27-.35-.48-.82-1.09-.18,1-.31,1.67-.4,2.29a18.16,18.16,0,0,1-1.91,6.58,5.35,5.35,0,0,1-6.22,2.71c-.38-2.95-.23-18.23.19-19.45,2.54,0,5.07-.11,7.6,0a7.66,7.66,0,0,1,6.08,3.16,21.21,21.21,0,0,1,2.16,4.53c.39,1,.48,2.13.78,3.17.08.25.5.39.88.67.35-2.74.25-13.06-.11-14.37H234.47l.07,1.11c.38,0,.61.08.85.09,3.39.17,4.51,1.28,4.51,4.73q0,18.06,0,36.11c0,4.07-.66,4.74-4.71,5.3-.64.09-.86.34-.64,1.08H268.5c.58-5.05,1.15-10.06,1.73-15.06-1.14-.33-1.08.46-1.28,1a57.86,57.86,0,0,1-2.34,5.68,10.14,10.14,0,0,1-7.14,5.43,37.51,37.51,0,0,1-7.2.43c-1.6,0-2.47-1-2.69-2.66a10,10,0,0,1-.12-1.44q0-7.89-.06-15.79a2.48,2.48,0,0,1,.22-.69c2.76-.18,4.93.67,6.17,3.23a16.62,16.62,0,0,1,1.14,2.85c.35,1.28.52,2.61.78,3.91C257.81,171.61,257.67,172.28,258.79,172.29ZM354,165.11q1.54-6.74,3.15-13.67c-.61-.18-1-.33-1.4-.42l-29.31-6.74a3.93,3.93,0,0,0-1.06-.18.71.71,0,0,0-.47.44.73.73,0,0,0,.19.61,1.69,1.69,0,0,0,.66.26c3.2,1,3.93,2.26,3.33,5.53,0,.23-.11.47-.16.7-2.17,9.42-4.32,18.85-6.51,28.27-.59,2.58-1.18,5.18-1.93,7.73s-2,3.15-4.52,2.84c-.52-.06-1-.14-1.89-.27.25.6.31,1.06.55,1.21a4.85,4.85,0,0,0,1.39.39l29.66,6.83c.51.12,1,.16,1.67.25,1.66-4.88,3.49-9.57,5-14.38-1.11-.45-1.14.39-1.45.82a52.92,52.92,0,0,1-3.86,5.22,10.79,10.79,0,0,1-9.57,3.32c-1.2-.15-2.38-.42-3.56-.64-3.41-.65-4.44-1.64-3.55-5.62.95-4.24,1.93-8.48,2.9-12.72.21-.93.45-1.86.67-2.78,3.35.44,5,1.92,5.66,5.07a18.15,18.15,0,0,1,.19,6.49c-.08.55-.36,1.29.76,1.27a8.74,8.74,0,0,0,.42-1.15q2.57-11,5.1-22.08a2.82,2.82,0,0,0,.12-1.07c0-.2-.38-.34-.74-.64-.3.78-.51,1.39-.75,2a18.52,18.52,0,0,1-3.15,5.68,5.58,5.58,0,0,1-7,1.45L339,150a48.14,48.14,0,0,1,8.56,2.27,8.13,8.13,0,0,1,5.13,6.55c.26,1.72.22,3.49.31,5.23C353,164.59,352.85,165.24,354,165.11Zm-67.51,18.23c.51-.82.88-1.42,1.27-2q13-19.44,26-38.89c.38-.56,1-1.06.92-1.92l-30.58-3.76c-.89,4.61-1.74,9-2.58,13.48,0,.17.18.38.47.95.4-.83.62-1.34.88-1.83a34.49,34.49,0,0,1,2.47-4.61,9.31,9.31,0,0,1,8.61-4.07c1.93.15,3.84.4,5.76.63.88.1,1.76.23,3,.39L299,147.18c-1.18,1.76-2.36,3.51-3.53,5.27l-3.63,5.43-3.53,5.28c-1.18,1.75-2.35,3.51-3.53,5.27l-3.54,5.27c-1.21,1.81-2.44,3.61-3.63,5.43s-2.41,3.41-3.49,5.44L309.82,189c1.31-5.76,2.55-11.43,3.75-17.42-.6.23-1,.25-1.07.43a7.11,7.11,0,0,0-.52,1.35,19.63,19.63,0,0,1-4.64,7.7,11.63,11.63,0,0,1-9.15,3.64c-2.88-.21-5.76-.57-8.65-.88C288.61,183.67,287.67,183.51,286.47,183.34Zm-125.37,16,.29.35,20-5c-.43-.51-.61-.91-.84-1a4.16,4.16,0,0,0-1.24.17,3.69,3.69,0,0,1-4.63-2.71c-.22-.63-.4-1.27-.56-1.91q-4-15.92-8-31.84l-1.46-5.94c1.7-.38,3.21-.75,4.74-1a4.92,4.92,0,0,1,4,.89,16.15,16.15,0,0,1,3,2.87,28.34,28.34,0,0,1,2.12,3.58c.24.42.41.93,1.31.47-1-4.11-2.05-8.28-3.11-12.57l-34.37,8.58c1.09,4.34,2.12,8.47,3.13,12.53,1,.05,1-.39,1-.94a39.58,39.58,0,0,1,.2-4.87,7,7,0,0,1,2.38-4.75c1.9-1.54,4.2-1.91,6.53-2.34.2.65.35,1.1.47,1.57q4.33,17.4,8.67,34.82c.28,1.12.52,2.24.7,3.37A3.53,3.53,0,0,1,163,198a12.57,12.57,0,0,0-1.53.54C161.28,198.63,161.23,199.07,161.1,199.38Z"/><path d="M336.81,298.32c-1.47,0-2.67,0-3.86,0a2,2,0,0,1-.91-.45,1.4,1.4,0,0,1-.31-.44c-7.18-11.23-17.52-18.13-30.07-22a98.23,98.23,0,0,0-24.2-4.36c-5.73-.3-11.47-.38-17.21-.32a109,109,0,0,0-17.65,1.83c-.18,0-.34.12-.5.17-.43,1.3-.51,26.6-.08,28.69.55,0,1.13.09,1.72.09h27.75a32.93,32.93,0,0,0,8.61-1.07,13.94,13.94,0,0,0,9.82-8.64,45.06,45.06,0,0,0,2.55-9.62l.47-3h4.19V334.1H293c-.18-2.12-.28-4.16-.54-6.19a28.82,28.82,0,0,0-1-4.79c-1.9-6.06-6-9.85-12.24-11a37.14,37.14,0,0,0-6.66-.68c-9.73-.07-19.46,0-29.2,0-.47,0-.94.07-1.52.11v46.59c2.38.39,4.68.82,7,1.13a178.14,178.14,0,0,0,31.32,1.09,100.57,100.57,0,0,0,52.58-17.13,16.65,16.65,0,0,0,2-1.3,3.76,3.76,0,0,1,4.62-.62c.48.23,1,.37,1.82.66-.66.59-1.15,1.06-1.67,1.49a93.55,93.55,0,0,1-32.45,17.24,136.23,136.23,0,0,1-27,5.17,225.3,225.3,0,0,1-33.87.64c-1.33-.07-2.65-.19-4.05-.28a2.89,2.89,0,0,0-.26.87c.26,3.25.46,6.51.83,9.74a9.25,9.25,0,0,0,4.58,6.86,22.11,22.11,0,0,0,11.8,3.6c2,0,4,0,6.11,0v4.08l-.08.08c-.05.05-.09.11-.14.12-.3,0-.6.08-.9.08l-68,0a2.76,2.76,0,0,1-.61-.17v-4.09c.85,0,1.67-.07,2.49-.07,3.2,0,6.43.19,9.55-.76a22.93,22.93,0,0,0,4.51-1.83,10.71,10.71,0,0,0,5.48-7.3c1.06-4.69,1.12-9.45,1.28-14.32l-3.63-.89a100.43,100.43,0,0,1-30.61-12.38,58.19,58.19,0,0,1-13.19-11A32.9,32.9,0,0,1,163.69,324a30.52,30.52,0,0,1,3.46-21.72,45.55,45.55,0,0,1,10.06-12.05,80.26,80.26,0,0,1,23-13.65,133.47,133.47,0,0,1,16.7-5.45c.57-.15,1.14-.33,1.74-.5,0-.5.12-.92.12-1.33-.09-6.83-.14-13.67-.3-20.5a50.07,50.07,0,0,0-.67-5.57,9.7,9.7,0,0,0-4.67-7,22.22,22.22,0,0,0-12-3.49c-1.45,0-2.9,0-4.35,0a11.31,11.31,0,0,1-1.29-.16v-4.1H316.81c.51,11.86,1,23.67,1.54,35.61h-4.12c-.22-.67-.46-1.4-.68-2.14a58.6,58.6,0,0,0-4.08-10.46C305.41,243.68,299,239.14,290.4,238a94.34,94.34,0,0,0-11.38-.8c-11.79-.1-23.58,0-35.37,0h-1.57c-.41,1.55-.45,27.59-.07,29.28.4,0,.81,0,1.22,0a205.88,205.88,0,0,1,29.17-.75,179.63,179.63,0,0,1,34.73,5.12,41.14,41.14,0,0,0,7.84,1.3c5,.22,9.12-1.5,11.91-5.88a1.5,1.5,0,0,1,.95-.67c1.44-.07,2.88,0,4.46,0C333.79,276.48,335.28,287.24,336.81,298.32Zm-118.18-18c-2,1.3-3.69,2.31-5.28,3.47-7.46,5.42-12.87,12.34-15.41,21.34a45.92,45.92,0,0,0-1.65,13.8A32.72,32.72,0,0,0,203,338.3a42.36,42.36,0,0,0,14.67,11.87,7.73,7.73,0,0,0,.95.33Z"/><path d="M233.84,185l-4.69.51c-2,.21-4,.34-5.94.65a2.29,2.29,0,0,1-2.54-1.16c-4.23-6-8.58-11.84-12.78-17.83-1-1.42-2-1.89-3.8-1.13.2,2.14.39,4.35.63,6.56.31,2.94.65,5.88,1,8.83A14.89,14.89,0,0,0,206,183c.51,2.24,1.51,3.07,3.76,3.14a5.88,5.88,0,0,1,1.26,0,1.21,1.21,0,0,1,.66.64c.05.09-.3.42-.52.57s-.35.07-.53.09q-8.73.93-17.48,1.83a10.86,10.86,0,0,1-1.28,0c-.26-.55-.29-1,.36-1.15.46-.13.95-.18,1.41-.3a3.43,3.43,0,0,0,2.91-3.63,38.55,38.55,0,0,0-.26-4.16q-1.35-12.9-2.74-25.78c-.27-2.52-.54-5.05-.83-7.57a13.62,13.62,0,0,0-.34-1.78,3.29,3.29,0,0,0-3.19-2.71c-.6-.06-1.22.06-1.81-.06-.28-.05-.49-.46-1.05-1,2.37-.27,4.27-.51,6.17-.72,4.26-.45,8.52-1,12.79-1.32a58.31,58.31,0,0,1,7.24-.2c5.45.2,9.31,3.23,11,8.43a15.56,15.56,0,0,1,.65,6.8,11.06,11.06,0,0,1-5.79,8.72c-.42.23-.83.47-1.25.72-.05,0-.07.1-.16.24.18.31.36.67.59,1q5.37,7.42,10.75,14.83c.5.68,1,1.33,1.57,2a4.7,4.7,0,0,0,3.11,2C233.59,183.75,234,184,233.84,185Zm-32.29-42.88c.75,7.17,1.47,14.1,2.21,21.14a20.52,20.52,0,0,0,5.85-.86,6.3,6.3,0,0,0,4.66-4.61A17.13,17.13,0,0,0,212.74,145a6.07,6.07,0,0,0-4.44-3.12A20.14,20.14,0,0,0,201.55,142.12Z"/><path d="M258.79,172.29c-1.12,0-1-.68-1.08-1.17-.26-1.3-.43-2.63-.78-3.91a16.62,16.62,0,0,0-1.14-2.85c-1.24-2.56-3.41-3.41-6.17-3.23a2.48,2.48,0,0,0-.22.69q0,7.89.06,15.79a10,10,0,0,0,.12,1.44c.22,1.62,1.09,2.65,2.69,2.66a37.51,37.51,0,0,0,7.2-.43,10.14,10.14,0,0,0,7.14-5.43,57.86,57.86,0,0,0,2.34-5.68c.2-.5.14-1.29,1.28-1-.58,5-1.15,10-1.73,15.06H234.55c-.22-.74,0-1,.64-1.08,4.05-.56,4.7-1.23,4.71-5.3q.06-18,0-36.11c0-3.45-1.12-4.56-4.51-4.73-.24,0-.47-.05-.85-.09l-.07-1.11H267.1c.36,1.31.46,11.63.11,14.37-.38-.28-.8-.42-.88-.67-.3-1-.39-2.16-.78-3.17a21.21,21.21,0,0,0-2.16-4.53,7.66,7.66,0,0,0-6.08-3.16c-2.53-.15-5.06,0-7.6,0-.42,1.22-.57,16.5-.19,19.45a5.35,5.35,0,0,0,6.22-2.71,18.16,18.16,0,0,0,1.91-6.58c.09-.62.22-1.24.4-2.29.47.61.74.82.82,1.09a3.88,3.88,0,0,1,.05,1.08q0,11,0,22C258.91,171.17,258.83,171.69,258.79,172.29Z"/><path d="M354,165.11c-1.13.13-1-.52-1-1.05-.09-1.74-.05-3.51-.31-5.23a8.13,8.13,0,0,0-5.13-6.55A48.14,48.14,0,0,0,339,150l-4.43,19.12a5.58,5.58,0,0,0,7-1.45,18.52,18.52,0,0,0,3.15-5.68c.24-.61.45-1.22.75-2,.36.3.7.44.74.64a2.82,2.82,0,0,1-.12,1.07q-2.54,11-5.1,22.08a8.74,8.74,0,0,1-.42,1.15c-1.12,0-.84-.72-.76-1.27a18.15,18.15,0,0,0-.19-6.49c-.68-3.15-2.31-4.63-5.66-5.07-.22.92-.46,1.85-.67,2.78-1,4.24-1.95,8.48-2.9,12.72-.89,4,.14,5,3.55,5.62,1.18.22,2.36.49,3.56.64a10.79,10.79,0,0,0,9.57-3.32,52.92,52.92,0,0,0,3.86-5.22c.31-.43.34-1.27,1.45-.82-1.52,4.81-3.35,9.5-5,14.38-.63-.09-1.16-.13-1.67-.25L316,191.81a4.85,4.85,0,0,1-1.39-.39c-.24-.15-.3-.61-.55-1.21.86.13,1.37.21,1.89.27,2.49.31,3.81-.43,4.52-2.84s1.34-5.15,1.93-7.73c2.19-9.42,4.34-18.85,6.51-28.27,0-.23.12-.47.16-.7.6-3.27-.13-4.49-3.33-5.53a1.69,1.69,0,0,1-.66-.26.73.73,0,0,1-.19-.61.71.71,0,0,1,.47-.44,3.93,3.93,0,0,1,1.06.18L355.73,151c.4.09.79.24,1.4.42Q355.53,158.39,354,165.11Z"/><path d="M286.47,183.34c1.2.17,2.14.33,3.07.43,2.89.31,5.77.67,8.65.88a11.63,11.63,0,0,0,9.15-3.64,19.63,19.63,0,0,0,4.64-7.7,7.11,7.11,0,0,1,.52-1.35c.1-.18.47-.2,1.07-.43-1.2,6-2.44,11.66-3.75,17.42l-35.67-4.38c1.08-2,2.36-3.69,3.49-5.44s2.42-3.62,3.63-5.43l3.54-5.27c1.18-1.76,2.35-3.52,3.53-5.27l3.53-5.28,3.63-5.43c1.17-1.76,2.35-3.51,3.53-5.27l3.65-5.47c-1.2-.16-2.08-.29-3-.39-1.92-.23-3.83-.48-5.76-.63a9.31,9.31,0,0,0-8.61,4.07,34.49,34.49,0,0,0-2.47,4.61c-.26.49-.48,1-.88,1.83-.29-.57-.5-.78-.47-.95.84-4.44,1.69-8.87,2.58-13.48l30.58,3.76c.06.86-.54,1.36-.92,1.92q-13,19.45-26,38.89C287.35,181.92,287,182.52,286.47,183.34Z"/><path d="M161.1,199.38c.13-.31.18-.75.41-.89A12.57,12.57,0,0,1,163,198a3.53,3.53,0,0,0,2.33-4.21c-.18-1.13-.42-2.25-.7-3.37Q160.35,173,156,155.55c-.12-.47-.27-.92-.47-1.57-2.33.43-4.63.8-6.53,2.34a7,7,0,0,0-2.38,4.75,39.58,39.58,0,0,0-.2,4.87c0,.55,0,1-1,.94-1-4.06-2-8.19-3.13-12.53l34.37-8.58c1.06,4.29,2.09,8.46,3.11,12.57-.9.46-1.07-.05-1.31-.47a28.34,28.34,0,0,0-2.12-3.58,16.15,16.15,0,0,0-3-2.87,4.92,4.92,0,0,0-4-.89c-1.53.28-3,.65-4.74,1l1.46,5.94q4,15.93,8,31.84c.16.64.34,1.28.56,1.91a3.69,3.69,0,0,0,4.63,2.71,4.16,4.16,0,0,1,1.24-.17c.23,0,.41.44.84,1l-20,5Z"/><path class="cls-1" d="M218.63,280.32V350.5a7.73,7.73,0,0,1-.95-.33A42.36,42.36,0,0,1,203,338.3a32.72,32.72,0,0,1-6.72-19.37,45.92,45.92,0,0,1,1.65-13.8c2.54-9,7.95-15.92,15.41-21.34C214.94,282.63,216.65,281.62,218.63,280.32Z"/><path class="cls-1" d="M201.55,142.12a20.14,20.14,0,0,1,6.75-.24,6.07,6.07,0,0,1,4.44,3.12,17.13,17.13,0,0,1,1.53,12.79,6.3,6.3,0,0,1-4.66,4.61,20.52,20.52,0,0,1-5.85.86C203,156.22,202.3,149.29,201.55,142.12Z"/></svg>