<?xml version="1.0" encoding="UTF-8"?>
<!DOCTYPE svg PUBLIC "-//W3C//DTD SVG 1.1//EN" "http://www.w3.org/Graphics/SVG/1.1/DTD/svg11.dtd">
<svg xmlns="http://www.w3.org/2000/svg" version="1.1" width="288px" height="346px" style="shape-rendering:geometricPrecision; text-rendering:geometricPrecision; image-rendering:optimizeQuality; fill-rule:evenodd; clip-rule:evenodd" xmlns:xlink="http://www.w3.org/1999/xlink">
<g><path style="opacity:0.004" fill="#feff00" d="M 125.5,-0.5 C 125.833,-0.5 126.167,-0.5 126.5,-0.5C 126.315,0.170143 125.981,0.170143 125.5,-0.5 Z"/></g>
<g><path style="opacity:0.192" fill="#e3e32a" d="M 127.5,-0.5 C 128.167,-0.5 128.833,-0.5 129.5,-0.5C 128.833,0.833333 128.167,0.833333 127.5,-0.5 Z"/></g>
<g><path style="opacity:0.008" fill="#7e7f00" d="M 130.5,-0.5 C 130.833,-0.5 131.167,-0.5 131.5,-0.5C 131.315,0.170143 130.981,0.170143 130.5,-0.5 Z"/></g>
<g><path style="opacity:0.004" fill="#feff00" d="M 152.5,-0.5 C 152.833,-0.5 153.167,-0.5 153.5,-0.5C 153.315,0.170143 152.981,0.170143 152.5,-0.5 Z"/></g>
<g><path style="opacity:0.294" fill="#e3e230" d="M 154.5,-0.5 C 155.167,-0.5 155.833,-0.5 156.5,-0.5C 155.833,0.833333 155.167,0.833333 154.5,-0.5 Z"/></g>
<g><path style="opacity:0.004" fill="#feff00" d="M 157.5,-0.5 C 157.833,-0.5 158.167,-0.5 158.5,-0.5C 158.315,0.170143 157.981,0.170143 157.5,-0.5 Z"/></g>
<g><path style="opacity:0.004" fill="#feff00" d="M 128.5,1.5 C 129.833,2.16667 129.833,2.16667 128.5,1.5 Z"/></g>
<g><path style="opacity:0.004" fill="#feff00" d="M 154.5,1.5 C 155.833,2.16667 155.833,2.16667 154.5,1.5 Z"/></g>
<g><path style="opacity:0.998" fill="#e12223" d="M 176.5,32.5 C 176.5,33.1667 176.833,33.5 177.5,33.5C 196.06,46.7709 216.727,55.1042 239.5,58.5C 244.272,59.8711 249.272,60.7044 254.5,61C 264.5,61.3333 274.5,61.6667 284.5,62C 285.341,63.9959 285.008,65.8292 283.5,67.5C 283.167,64.8333 282.833,64.8333 282.5,67.5C 281.167,68.1667 281.167,68.8333 282.5,69.5C 282.509,71.3084 282.009,72.9751 281,74.5C 280.667,73.8333 280.333,73.1667 280,72.5C 279.504,74.0349 279.67,75.5349 280.5,77C 279.45,81.0941 278.116,83.5941 276.5,84.5C 275.596,85.209 275.263,86.209 275.5,87.5C 274.566,88.5676 274.232,89.901 274.5,91.5C 273.167,92.8333 273.167,94.1667 274.5,95.5C 274.784,97.4147 274.451,99.0813 273.5,100.5C 273.167,96.5 272.833,96.5 272.5,100.5C 271.549,101.919 271.216,103.585 271.5,105.5C 270.539,107.265 270.205,109.265 270.5,111.5C 268.925,118.27 268.259,125.27 268.5,132.5C 267.167,138.5 267.167,144.5 268.5,150.5C 268.595,157.525 269.928,164.192 272.5,170.5C 272.263,171.791 272.596,172.791 273.5,173.5C 273.565,176.428 274.232,179.095 275.5,181.5C 275.232,183.099 275.566,184.432 276.5,185.5C 276.833,189.5 277.167,189.5 277.5,185.5C 279.915,189.512 280.582,193.845 279.5,198.5C 279.878,200.717 280.545,202.717 281.5,204.5C 281.539,208.733 282.205,212.733 283.5,216.5C 283.5,221.833 283.5,227.167 283.5,232.5C 282.71,233.609 282.21,234.942 282,236.5C 281.667,235.833 281.333,235.167 281,234.5C 279.414,235.376 277.914,236.376 276.5,237.5C 275.571,236.311 275.238,234.978 275.5,233.5C 275.834,223.002 274.668,212.669 272,202.5C 268.489,188.79 264.822,175.123 261,161.5C 257.221,130.456 260.721,100.29 271.5,71C 219.767,70.7091 176.6,51.5424 142,13.5C 107.474,51.6387 64.3078,70.9721 12.5,71.5C 22.5396,99.7321 26.0396,128.732 23,158.5C 18.1794,177.449 13.5127,196.449 9,215.5C 6.05014,242.76 15.8835,263.926 38.5,279C 45.8164,283.159 53.483,286.492 61.5,289C 73.6566,291.372 85.6566,294.372 97.5,298C 104.67,300.75 111.337,304.25 117.5,308.5C 113.896,309.379 111.229,310.712 109.5,312.5C 108.167,312.167 106.833,311.833 105.5,311.5C 95.0251,305.454 83.6918,301.787 71.5,300.5C 67.7607,298.898 63.7607,297.898 59.5,297.5C 46.8968,293.365 35.2301,287.365 24.5,279.5C 24.5,278.833 24.1667,278.5 23.5,278.5C 21.8968,277.404 20.3968,276.07 19,274.5C 17.0627,274.821 15.5627,273.821 14.5,271.5C 14.7093,270.914 15.0426,270.414 15.5,270C 14.4479,268.881 13.2812,268.381 12,268.5C 11.3828,267.551 11.5494,266.718 12.5,266C 11.4479,264.881 10.2812,264.381 9,264.5C 7.15111,260.802 5.31778,257.136 3.5,253.5C 4.09293,250.265 3.42626,247.265 1.5,244.5C 1.16667,239.167 0.833333,239.167 0.5,244.5C 0.166667,244.5 -0.166667,244.5 -0.5,244.5C -0.5,242.833 -0.5,241.167 -0.5,239.5C 0.833333,237.167 0.833333,234.833 -0.5,232.5C -0.5,229.167 -0.5,225.833 -0.5,222.5C 0.473067,220.052 0.8064,217.385 0.5,214.5C 2.55632,208.371 3.38966,202.038 3,195.5C 3.66667,198.167 4.33333,198.167 5,195.5C 6.39619,192.517 6.56286,189.517 5.5,186.5C 6.43479,183.529 7.26812,180.529 8,177.5C 8.33333,178.5 8.66667,179.5 9,180.5C 11.1304,176.643 11.6304,172.643 10.5,168.5C 10.6667,167.833 10.8333,167.167 11,166.5C 11.3333,167.5 11.6667,168.5 12,169.5C 13.0793,166.937 13.5793,164.271 13.5,161.5C 14.5263,158.543 15.193,155.376 15.5,152C 14.6389,145.194 14.3056,138.361 14.5,131.5C 15.8333,128.5 15.8333,125.5 14.5,122.5C 14.5754,118.103 14.0754,113.77 13,109.5C 12.6667,111.167 12.3333,112.833 12,114.5C 11.0642,110.886 10.5642,107.22 10.5,103.5C 11.8333,101.833 11.8333,100.167 10.5,98.5C 10.1667,93.1667 9.83333,93.1667 9.5,98.5C 8.34281,95.7273 7.67615,92.7273 7.5,89.5C 8.83333,88.5 8.83333,87.5 7.5,86.5C 7.60682,84.6214 7.10682,84.2881 6,85.5C 4.27624,78.9004 2.10957,72.5671 -0.5,66.5C -0.5,65.5 -0.5,64.5 -0.5,63.5C 32.8673,64.411 64.534,57.2443 94.5,42C 102.008,37.7627 109.675,32.2627 117.5,25.5C 118.167,25.5 118.5,25.1667 118.5,24.5C 123.631,19.8698 128.631,15.0365 133.5,10C 132.549,9.28248 132.383,8.44915 133,7.5C 134.982,6.9063 136.816,5.73964 138.5,4C 137.216,2.70251 137.383,1.53585 139,0.5C 140.13,1.11362 141.463,1.11362 143,0.5C 145.241,0.680133 145.741,1.51347 144.5,3C 145.667,4.16667 146.833,5.33333 148,6.5C 148.333,6.16667 148.667,5.83333 149,5.5C 150.667,7.16667 152.333,8.83333 154,10.5C 154.617,11.4491 154.451,12.2825 153.5,13C 155.667,15.1667 157.833,17.3333 160,19.5C 160.718,18.5494 161.551,18.3828 162.5,19C 163.782,21.6581 165.615,24.1581 168,26.5C 168.718,25.5494 169.551,25.3828 170.5,26C 171.006,29.0315 173.006,31.1982 176.5,32.5 Z"/></g>
<g><path style="opacity:1" fill="#fef4f4" d="M 275.5,233.5 C 274.51,237.385 273.51,241.385 272.5,245.5C 271.596,244.791 271.263,243.791 271.5,242.5C 270.07,242.421 268.736,242.754 267.5,243.5C 266.702,243.043 266.369,242.376 266.5,241.5C 267.578,232.868 267.744,224.202 267,215.5C 263.299,198.031 258.966,180.698 254,163.5C 250.044,134.44 252.544,105.94 261.5,78C 214.732,75.1907 174.898,57.3573 142,24.5C 109.392,58.0462 69.5585,75.7128 22.5,77.5C 27.8326,97.9923 31.1659,118.826 32.5,140C 31.614,150.588 30.114,161.088 28,171.5C 22.7653,187.202 18.7653,203.202 16,219.5C 14.2992,242.598 23.1326,260.432 42.5,273C 49.1518,276.826 56.1518,279.826 63.5,282C 81.602,284.924 98.9353,290.257 115.5,298C 118.986,299.996 122.319,302.163 125.5,304.5C 126.5,304.833 127.167,305.5 127.5,306.5C 124.315,307.706 121.315,308.372 118.5,308.5C 118.167,308.5 117.833,308.5 117.5,308.5C 111.337,304.25 104.67,300.75 97.5,298C 85.6566,294.372 73.6566,291.372 61.5,289C 53.483,286.492 45.8164,283.159 38.5,279C 15.8835,263.926 6.05014,242.76 9,215.5C 13.5127,196.449 18.1794,177.449 23,158.5C 26.0396,128.732 22.5396,99.7321 12.5,71.5C 64.3078,70.9721 107.474,51.6387 142,13.5C 176.6,51.5424 219.767,70.7091 271.5,71C 260.721,100.29 257.221,130.456 261,161.5C 264.822,175.123 268.489,188.79 272,202.5C 274.668,212.669 275.834,223.002 275.5,233.5 Z"/></g>
<g><path style="opacity:0.008" fill="#c40002" d="M 118.5,24.5 C 117.833,24.5 117.5,24.8333 117.5,25.5C 115.025,25.2533 115.025,24.5866 117.5,23.5C 118.107,23.6236 118.44,23.9569 118.5,24.5 Z"/></g>
<g><path style="opacity:0.006" fill="#bb1607" d="M 176.5,32.5 C 177.497,31.2875 178.497,31.4542 179.5,33C 178.906,33.4643 178.239,33.631 177.5,33.5C 176.833,33.5 176.5,33.1667 176.5,32.5 Z"/></g>
<g><path style="opacity:0.01" fill="#f72826" d="M 239.5,58.5 C 241.288,57.3775 243.288,57.2109 245.5,58C 243.527,58.4955 241.527,58.6621 239.5,58.5 Z"/></g>
<g><path style="opacity:0.008" fill="#f03e31" d="M 255.5,59.5 C 252.482,59.6646 249.482,59.498 246.5,59C 249.696,58.1955 252.696,58.3622 255.5,59.5 Z"/></g>
<g><path style="opacity:0.008" fill="#eb0005" d="M 255.5,59.5 C 264.839,59.3335 274.173,59.5002 283.5,60C 273.991,60.8243 264.657,60.6576 255.5,59.5 Z"/></g>
<g><path style="opacity:0.012" fill="#c50000" d="M 282.5,67.5 C 282.833,67.5 283.167,67.5 283.5,67.5C 283.672,68.4916 283.338,69.1583 282.5,69.5C 282.5,68.8333 282.5,68.1667 282.5,67.5 Z"/></g>
<g><path style="opacity:0.016" fill="#a90001" d="M 276.5,84.5 C 277.833,85.5 277.833,86.5 276.5,87.5C 276.5,86.5 276.5,85.5 276.5,84.5 Z"/></g>
<g><path style="opacity:0.016" fill="#ca2b24" d="M 7.5,86.5 C 7.5,87.5 7.5,88.5 7.5,89.5C 6.16667,88.5 6.16667,87.5 7.5,86.5 Z"/></g>
<g><path style="opacity:0.016" fill="#d3ff1b" d="M 275.5,87.5 C 275.833,87.5 276.167,87.5 276.5,87.5C 276.768,89.099 276.434,90.4324 275.5,91.5C 275.5,90.1667 275.5,88.8333 275.5,87.5 Z"/></g>
<g><path style="opacity:0.012" fill="#ed0000" d="M 274.5,91.5 C 274.833,91.5 275.167,91.5 275.5,91.5C 275.768,93.099 275.434,94.4324 274.5,95.5C 274.5,94.1667 274.5,92.8333 274.5,91.5 Z"/></g>
<g><path style="opacity:0.016" fill="#e0291b" d="M 9.5,98.5 C 9.83333,98.5 10.1667,98.5 10.5,98.5C 10.5,100.167 10.5,101.833 10.5,103.5C 9.54885,102.081 9.21552,100.415 9.5,98.5 Z"/></g>
<g><path style="opacity:1" fill="#e01d20" d="M 266.5,241.5 C 265.662,241.842 265.328,242.508 265.5,243.5C 264.85,243.196 264.183,242.863 263.5,242.5C 260.85,244.494 257.85,245.494 254.5,245.5C 252.999,240.421 250.165,239.421 246,242.5C 245.209,243.745 244.709,245.078 244.5,246.5C 243.962,248.806 243.295,250.472 242.5,251.5C 243.689,246.555 242.023,243.222 237.5,241.5C 236.287,241.747 235.62,242.414 235.5,243.5C 233.896,240.597 232.896,237.263 232.5,233.5C 231.692,233.808 231.025,234.308 230.5,235C 231.475,240.741 231.808,246.575 231.5,252.5C 229.896,253.287 229.229,254.62 229.5,256.5C 227.564,252.285 226.897,247.619 227.5,242.5C 226.127,242.343 224.793,242.51 223.5,243C 225.059,244.996 225.726,247.329 225.5,250C 225.375,252.551 225.042,255.051 224.5,257.5C 223.312,258.684 222.145,258.684 221,257.5C 220.501,252.845 220.334,248.179 220.5,243.5C 218.452,243.16 217.452,243.493 217.5,244.5C 217.666,248.846 217.499,253.179 217,257.5C 216.667,256.833 216.333,256.167 216,255.5C 215.667,257.167 215.333,258.833 215,260.5C 214.832,251.149 214.332,241.816 213.5,232.5C 212.893,232.624 212.56,232.957 212.5,233.5C 211.522,233.811 210.855,234.478 210.5,235.5C 211.823,244.697 211.823,253.863 210.5,263C 211.094,263.464 211.761,263.631 212.5,263.5C 214.705,263.846 214.872,264.513 213,265.5C 183.566,278.138 154.4,291.138 125.5,304.5C 122.319,302.163 118.986,299.996 115.5,298C 98.9353,290.257 81.602,284.924 63.5,282C 56.1518,279.826 49.1518,276.826 42.5,273C 23.1326,260.432 14.2992,242.598 16,219.5C 18.7653,203.202 22.7653,187.202 28,171.5C 30.114,161.088 31.614,150.588 32.5,140C 31.1659,118.826 27.8326,97.9923 22.5,77.5C 69.5585,75.7128 109.392,58.0462 142,24.5C 174.898,57.3573 214.732,75.1907 261.5,78C 252.544,105.94 250.044,134.44 254,163.5C 258.966,180.698 263.299,198.031 267,215.5C 267.744,224.202 267.578,232.868 266.5,241.5 Z"/></g>
<g><path style="opacity:1" fill="#fefafa" d="M 241.5,195.5 C 242.488,200.64 242.821,205.974 242.5,211.5C 236.804,214.231 230.804,216.065 224.5,217C 187.948,223.093 165.115,208.26 156,172.5C 154.577,162.536 154.244,152.536 155,142.5C 162.808,141.839 168.641,138.173 172.5,131.5C 174.749,129.669 175.915,127.336 176,124.5C 170.88,127.321 165.38,128.655 159.5,128.5C 165.808,114.029 176.475,104.195 191.5,99C 197.394,97.4066 203.394,96.5733 209.5,96.5C 218.3,97.6635 227.133,98.6635 236,99.5C 241.145,98.2208 246.312,97.3875 251.5,97C 248.707,100.081 246.54,103.581 245,107.5C 246.089,116.101 246.423,124.767 246,133.5C 244.48,138.355 241.48,142.022 237,144.5C 236.667,138.833 236.333,133.167 236,127.5C 229.676,107.092 216.843,101.592 197.5,111C 185.413,119.668 178.913,131.501 178,146.5C 176.684,161.587 179.351,175.92 186,189.5C 202.065,212.624 220.565,214.624 241.5,195.5 Z"/></g>
<g><path style="opacity:1" fill="#fef7f7" d="M 144.5,93.5 C 151.709,92.8829 158.043,94.8829 163.5,99.5C 145.678,100.676 139.011,110.009 143.5,127.5C 140.167,127.5 136.833,127.5 133.5,127.5C 133.867,123.033 133.367,118.7 132,114.5C 130.581,113.54 129.081,112.707 127.5,112C 117.601,112.222 110.935,107.722 107.5,98.5C 107.833,98.1667 108.167,97.8333 108.5,97.5C 114.33,101.14 120.663,102.307 127.5,101C 133.492,98.999 139.158,96.499 144.5,93.5 Z"/></g>
<g><path style="opacity:1" fill="#fef9f9" d="M 133.5,180.5 C 134.496,167.344 134.829,154.01 134.5,140.5C 137.167,140.5 139.833,140.5 142.5,140.5C 143.661,155.328 143.828,170.328 143,185.5C 139.613,206.885 127.113,218.719 105.5,221C 86.5,224.221 70.3333,219.054 57,205.5C 54.1635,200.828 52.1635,195.828 51,190.5C 49.7336,164.865 49.0669,139.198 49,113.5C 46.0569,111.625 42.8902,110.125 39.5,109C 36.794,106.629 34.4606,103.963 32.5,101C 37.0903,101.543 41.757,101.543 46.5,101C 54.7449,98.6202 62.9115,96.1202 71,93.5C 77.3422,93.5898 82.8422,95.7565 87.5,100C 80.2366,99.5476 74.7366,102.381 71,108.5C 70.3333,134.833 70.3333,161.167 71,187.5C 74.1501,203.311 83.8167,210.978 100,210.5C 120.129,210.539 131.296,200.539 133.5,180.5 Z"/></g>
<g><path style="opacity:1" fill="#fefafa" d="M 119.5,144.5 C 119.062,144.435 118.728,144.601 118.5,145C 120.145,157.094 121.145,169.261 121.5,181.5C 124.833,181.5 128.167,181.5 131.5,181.5C 131.044,187.202 129.377,192.535 126.5,197.5C 114.007,198.026 102.007,200.692 90.5,205.5C 90.7123,197.074 94.2123,190.074 101,184.5C 101.5,152.502 101.667,120.502 101.5,88.5C 97.3274,88.4187 93.6607,89.752 90.5,92.5C 90.7217,83.9247 94.7217,77.4247 102.5,73C 105.674,71.2752 109.007,69.9419 112.5,69C 124.68,67.8756 136.68,68.8756 148.5,72C 160.251,72.9971 171.918,72.4971 183.5,70.5C 184.167,70.8333 184.833,71.1667 185.5,71.5C 180.165,79.8442 172.498,84.6775 162.5,86C 148.834,86.1987 135.168,86.032 121.5,85.5C 121.5,90.1667 121.5,94.8333 121.5,99.5C 115.895,99.6318 110.895,97.9651 106.5,94.5C 106.326,104.67 111.326,110.67 121.5,112.5C 122.04,123.312 121.373,133.979 119.5,144.5 Z"/></g>
<g><path style="opacity:0.004" fill="#ef1a0e" d="M 272.5,100.5 C 272.833,100.5 273.167,100.5 273.5,100.5C 273.784,102.415 273.451,104.081 272.5,105.5C 272.5,103.833 272.5,102.167 272.5,100.5 Z"/></g>
<g><path style="opacity:0.008" fill="#f40000" d="M 271.5,105.5 C 271.833,105.5 272.167,105.5 272.5,105.5C 272.795,107.735 272.461,109.735 271.5,111.5C 271.5,109.5 271.5,107.5 271.5,105.5 Z"/></g>
<g><path style="opacity:0.008" fill="#cc170c" d="M 270.5,111.5 C 270.833,111.5 271.167,111.5 271.5,111.5C 271.167,122.167 270.833,122.167 270.5,111.5 Z"/></g>
<g><path style="opacity:0.008" fill="#f1403a" d="M 13.5,122.5 C 12.3709,120.372 12.2042,118.039 13,115.5C 13.4966,117.81 13.6633,120.143 13.5,122.5 Z"/></g>
<g><path style="opacity:0.005" fill="#ff1c19" d="M 13.5,122.5 C 13.8333,122.5 14.1667,122.5 14.5,122.5C 14.5,125.5 14.5,128.5 14.5,131.5C 13.5233,128.713 13.19,125.713 13.5,122.5 Z"/></g>
<g><path style="opacity:0.005" fill="#f51611" d="M 269.5,132.5 C 269.334,128.486 269.501,124.486 270,120.5C 270.812,124.689 270.645,128.689 269.5,132.5 Z"/></g>
<g><path style="opacity:1" fill="#fef8f8" d="M 172.5,131.5 C 164.609,140.201 154.943,142.868 143.5,139.5C 139.5,138.167 135.5,138.167 131.5,139.5C 128.314,139.895 125.314,140.895 122.5,142.5C 122.577,136.597 125.577,132.43 131.5,130C 138.794,128.17 146.127,128.003 153.5,129.5C 160.099,131.073 166.599,130.406 173,127.5C 173.195,128.819 173.028,130.153 172.5,131.5 Z"/></g>
<g><path style="opacity:1" fill="#ea5b5a" d="M 172.5,131.5 C 173.028,130.153 173.195,128.819 173,127.5C 166.599,130.406 160.099,131.073 153.5,129.5C 155.735,129.795 157.735,129.461 159.5,128.5C 165.38,128.655 170.88,127.321 176,124.5C 175.915,127.336 174.749,129.669 172.5,131.5 Z"/></g>
<g><path style="opacity:0.012" fill="#e1ff34" d="M 268.5,132.5 C 268.833,132.5 269.167,132.5 269.5,132.5C 269.5,138.5 269.5,144.5 269.5,150.5C 269.167,150.5 268.833,150.5 268.5,150.5C 268.5,144.5 268.5,138.5 268.5,132.5 Z"/></g>
<g><path style="opacity:1" fill="#f08c8e" d="M 119.5,144.5 C 121.48,156.455 122.146,168.788 121.5,181.5C 121.145,169.261 120.145,157.094 118.5,145C 118.728,144.601 119.062,144.435 119.5,144.5 Z"/></g>
<g><path style="opacity:0.005" fill="#cc1b0f" d="M 269.5,150.5 C 270.629,152.628 270.796,154.961 270,157.5C 269.503,155.19 269.337,152.857 269.5,150.5 Z"/></g>
<g><path style="opacity:0.016" fill="#ea2a1c" d="M 13.5,161.5 C 12.3775,159.712 12.2109,157.712 13,155.5C 13.4955,157.473 13.6621,159.473 13.5,161.5 Z"/></g>
<g><path style="opacity:1" fill="#f29696" d="M 131.5,139.5 C 135.5,138.167 139.5,138.167 143.5,139.5C 142.833,139.5 142.5,139.833 142.5,140.5C 139.833,140.5 137.167,140.5 134.5,140.5C 134.829,154.01 134.496,167.344 133.5,180.5C 134.149,166.459 133.482,152.792 131.5,139.5 Z"/></g>
<g><path style="opacity:0.012" fill="#be251f" d="M 273.5,173.5 C 273.737,172.209 273.404,171.209 272.5,170.5C 272.836,165.589 273.502,165.923 274.5,171.5C 274.457,172.416 274.124,173.083 273.5,173.5 Z"/></g>
<g><path style="opacity:0.004" fill="#f41614" d="M 277.5,185.5 C 277.167,185.5 276.833,185.5 276.5,185.5C 276.768,183.901 276.434,182.568 275.5,181.5C 275.343,180.127 275.51,178.793 276,177.5C 277.079,180.063 277.579,182.729 277.5,185.5 Z"/></g>
<g><path style="opacity:1" fill="#fef4f4" d="M 144.5,183.5 C 149.167,184.167 153.833,184.833 158.5,185.5C 159.553,190.106 161.553,194.273 164.5,198C 156.966,200.618 149.3,201.118 141.5,199.5C 142.816,194.233 143.816,188.9 144.5,183.5 Z"/></g>
<g><path style="opacity:0.016" fill="#d40015" d="M 282.5,204.5 C 282.167,204.5 281.833,204.5 281.5,204.5C 281.833,199.167 282.167,199.167 282.5,204.5 Z"/></g>
<g><path style="opacity:0.004" fill="#f00016" d="M 282.5,204.5 C 283.613,205.946 283.78,207.613 283,209.5C 282.506,207.866 282.34,206.199 282.5,204.5 Z"/></g>
<g><path style="opacity:1" fill="#f08d8e" d="M 242.5,211.5 C 242.821,205.974 242.488,200.64 241.5,195.5C 241.783,194.711 242.283,194.044 243,193.5C 243.819,199.681 243.653,205.681 242.5,211.5 Z"/></g>
<g><path style="opacity:0.016" fill="#d12114" d="M -0.5,208.5 C 0.461384,210.265 0.794717,212.265 0.5,214.5C 0.166667,214.5 -0.166667,214.5 -0.5,214.5C -0.5,212.5 -0.5,210.5 -0.5,208.5 Z"/></g>
<g><path style="opacity:0.016" fill="#df291b" d="M 284.5,216.5 C 284.167,216.5 283.833,216.5 283.5,216.5C 283.833,208.5 284.167,208.5 284.5,216.5 Z"/></g>
<g><path style="opacity:0.016" fill="#d90006" d="M 284.5,216.5 C 285.655,223.655 285.822,230.988 285,238.5C 284.5,231.174 284.334,223.841 284.5,216.5 Z"/></g>
<g><path style="opacity:1" fill="#fcd4d3" d="M 64.5,233.5 C 65.5,233.5 66.5,233.5 67.5,233.5C 66.5,238.833 65.5,238.833 64.5,233.5 Z"/></g>
<g><path style="opacity:1" fill="#fdf2f2" d="M 212.5,233.5 C 212.862,243.081 213.862,252.581 215.5,262C 214.263,262.232 213.263,262.732 212.5,263.5C 211.761,263.631 211.094,263.464 210.5,263C 211.823,253.863 211.823,244.697 210.5,235.5C 210.855,234.478 211.522,233.811 212.5,233.5 Z"/></g>
<g><path style="opacity:1" fill="#fce2e3" d="M 30.5,235.5 C 31.9464,234.387 33.6131,234.22 35.5,235C 34.3594,240.75 34.1928,246.584 35,252.5C 38.4725,256.717 41.4725,256.384 44,251.5C 44.8056,245.916 44.6389,240.416 43.5,235C 44.5,234.333 45.5,234.333 46.5,235C 45.6883,241.085 45.1883,247.252 45,253.5C 41.4756,257.074 37.6423,257.407 33.5,254.5C 33,253.5 32.5,252.5 32,251.5C 31.8267,245.984 31.3267,240.651 30.5,235.5 Z"/></g>
<g><path style="opacity:1" fill="#fcdddd" d="M 103.5,236.5 C 107.298,235.517 111.298,235.183 115.5,235.5C 115.657,236.873 115.49,238.207 115,239.5C 112.894,237.709 110.394,237.042 107.5,237.5C 107.5,242.5 107.5,247.5 107.5,252.5C 109.5,252.5 111.5,252.5 113.5,252.5C 114.937,250.6 115.104,253.6 114,261.5C 114.361,256.697 112.194,254.363 107.5,254.5C 107.334,260.176 107.501,265.843 108,271.5C 110.064,272.591 112.231,272.758 114.5,272C 115.255,269.825 116.088,267.659 117,265.5C 116.954,268.8 116.788,272.134 116.5,275.5C 111.663,275.055 106.996,273.888 102.5,272C 103,271.5 103.5,271 104,270.5C 104.826,258.992 104.659,247.659 103.5,236.5 Z"/></g>
<g><path style="opacity:1" fill="#fcd9d9" d="M 72.5,235.5 C 74.3936,236.048 76.0603,237.048 77.5,238.5C 79.382,236.307 79.882,236.973 79,240.5C 77.9505,241.517 76.7839,241.684 75.5,241C 74.3147,239.647 72.9814,238.48 71.5,237.5C 71.8627,236.817 72.1961,236.15 72.5,235.5 Z"/></g>
<g><path style="opacity:1" fill="#fcdfdf" d="M 197.5,234.5 C 200.617,234.872 203.617,234.872 206.5,234.5C 207.655,237.446 207.821,240.446 207,243.5C 206.427,239.658 204.427,236.991 201,235.5C 198.679,236.487 197.013,238.154 196,240.5C 193.735,248.309 194.069,255.976 197,263.5C 199.244,265.994 201.577,265.994 204,263.5C 205,261.5 206,259.5 207,257.5C 207.202,263.085 204.535,266.419 199,267.5C 196.849,267.357 195.182,266.357 194,264.5C 189.809,253.762 190.976,243.762 197.5,234.5 Z"/></g>
<g><path style="opacity:1" fill="#f8dede" d="M 235.5,243.5 C 235.62,242.414 236.287,241.747 237.5,241.5C 242.023,243.222 243.689,246.555 242.5,251.5C 241.31,253.355 239.977,255.188 238.5,257C 233.801,258.713 231.468,257.213 231.5,252.5C 231.808,246.575 231.475,240.741 230.5,235C 231.025,234.308 231.692,233.808 232.5,233.5C 232.896,237.263 233.896,240.597 235.5,243.5 Z"/></g>
<g><path style="opacity:1" fill="#fde4e4" d="M 63.5,243.5 C 64.5,243.5 65.5,243.5 66.5,243.5C 66.3339,249.176 66.5006,254.843 67,260.5C 68.3385,261.224 68.5051,261.89 67.5,262.5C 66.069,262.023 64.7357,261.357 63.5,260.5C 64.6487,254.514 64.6487,248.848 63.5,243.5 Z"/></g>
<g><path style="opacity:0.004" fill="#662d20" d="M 283.5,239.5 C 284.833,241.167 284.833,242.833 283.5,244.5C 283.5,242.833 283.5,241.167 283.5,239.5 Z"/></g>
<g><path style="opacity:1" fill="#fdf2f2" d="M 53.5,244.5 C 52.55,249.351 52.2167,254.018 52.5,258.5C 51.5,258 50.5,257.5 49.5,257C 50.8333,252.333 50.8333,247.667 49.5,243C 50.4162,242.626 51.2496,242.126 52,241.5C 52.2321,242.737 52.7321,243.737 53.5,244.5 Z"/></g>
<g><path style="opacity:0.012" fill="#d64032" d="M 0.5,244.5 C 0.833333,244.5 1.16667,244.5 1.5,244.5C 1.16667,248.5 0.833333,248.5 0.5,244.5 Z"/></g>
<g><path style="opacity:1" fill="#fde7e7" d="M 53.5,244.5 C 54.9321,242.353 56.7655,242.02 59,243.5C 59.3333,248.5 59.6667,253.5 60,258.5C 61.7508,259.505 61.7508,260.172 60,260.5C 58.7753,260.138 57.6086,259.638 56.5,259C 57.4692,254.263 57.8025,249.43 57.5,244.5C 56.1667,244.5 54.8333,244.5 53.5,244.5 Z"/></g>
<g><path style="opacity:1" fill="#fcd4d4" d="M 72.5,243.5 C 75.3245,243.081 77.4912,244.081 79,246.5C 78.9074,252.292 79.7407,257.792 81.5,263C 79.3945,266.401 77.7279,266.234 76.5,262.5C 72.438,265.164 70.438,263.831 70.5,258.5C 70.9829,255.176 72.8163,252.842 76,251.5C 76.4955,249.527 76.6621,247.527 76.5,245.5C 75.5,245.5 74.5,245.5 73.5,245.5C 73.6567,246.873 73.49,248.207 73,249.5C 72.3333,250.833 71.6667,250.833 71,249.5C 70.2516,247.16 70.7516,245.16 72.5,243.5 Z"/></g>
<g><path style="opacity:1" fill="#fdeaea" d="M 86.5,244.5 C 90.0433,244.872 92.21,246.872 93,250.5C 93.8392,255.921 93.5059,261.254 92,266.5C 88.5118,269.462 85.8451,268.795 84,264.5C 81.2777,257.219 82.111,250.553 86.5,244.5 Z"/></g>
<g><path style="opacity:1" fill="#fdeaea" d="M 167.5,242.5 C 168.461,244.265 168.795,246.265 168.5,248.5C 172.5,249.167 172.5,249.833 168.5,250.5C 168.334,257.508 168.5,264.508 169,271.5C 169.92,271.93 170.753,272.264 171.5,272.5C 170.378,275.736 168.878,276.069 167,273.5C 166.831,265.812 166.331,258.145 165.5,250.5C 164.833,251.5 164.167,252.5 163.5,253.5C 161.216,252.584 160.049,253.584 160,256.5C 159.333,262.5 159.333,268.5 160,274.5C 160.692,275.025 161.192,275.692 161.5,276.5C 159.926,277.631 158.259,277.798 156.5,277C 157.152,272.915 157.485,268.748 157.5,264.5C 157.463,260.075 156.796,255.909 155.5,252C 156.667,250.833 157.833,249.667 159,248.5C 159.333,249.833 159.667,251.167 160,252.5C 160.625,249.294 162.291,248.294 165,249.5C 166.411,247.35 167.245,245.016 167.5,242.5 Z"/></g>
<g><path style="opacity:1" fill="#e12726" d="M 86.5,246.5 C 89.1878,247.024 90.6878,248.691 91,251.5C 91.6667,255.833 91.6667,260.167 91,264.5C 89.1697,268.144 87.5031,267.81 86,263.5C 83.9527,257.679 84.1194,252.013 86.5,246.5 Z"/></g>
<g><path style="opacity:1" fill="#efd2d2" d="M 254.5,245.5 C 252.052,246.473 249.385,246.806 246.5,246.5C 246.397,253.618 248.897,254.951 254,250.5C 252.943,257.017 249.943,258.017 245,253.5C 244.503,251.19 244.337,248.857 244.5,246.5C 244.709,245.078 245.209,243.745 246,242.5C 250.165,239.421 252.999,240.421 254.5,245.5 Z"/></g>
<g><path style="opacity:0.012" fill="#890006" d="M 280.5,250.5 C 280.833,250.5 281.167,250.5 281.5,250.5C 281.672,251.492 281.338,252.158 280.5,252.5C 280.5,251.833 280.5,251.167 280.5,250.5 Z"/></g>
<g><path style="opacity:0.012" fill="#9a1408" d="M 279.5,252.5 C 279.833,252.5 280.167,252.5 280.5,252.5C 280.737,253.791 280.404,254.791 279.5,255.5C 279.5,254.5 279.5,253.5 279.5,252.5 Z"/></g>
<g><path style="opacity:1" fill="#fdeaea" d="M 177.5,246.5 C 178.822,246.33 179.989,246.663 181,247.5C 182.908,250.206 183.741,253.206 183.5,256.5C 180.482,256.704 177.482,257.037 174.5,257.5C 174.059,262.177 175.392,266.177 178.5,269.5C 182.581,265.296 183.414,265.963 181,271.5C 177.548,275.625 175.215,274.958 174,269.5C 173.333,263.5 173.333,257.5 174,251.5C 174.997,249.677 176.164,248.01 177.5,246.5 Z"/></g>
<g><path style="opacity:1" fill="#e12827" d="M 177.5,248.5 C 180.092,250.036 181.092,252.369 180.5,255.5C 178.833,255.5 177.167,255.5 175.5,255.5C 175.166,252.812 175.832,250.479 177.5,248.5 Z"/></g>
<g><path style="opacity:1" fill="#e12323" d="M 74.5,253.5 C 76.369,255.635 77.0356,258.302 76.5,261.5C 72.7747,261.22 71.608,259.22 73,255.5C 73.7172,254.956 74.2172,254.289 74.5,253.5 Z"/></g>
<g><path style="opacity:1" fill="#ca1a1d" d="M 212.5,233.5 C 212.56,232.957 212.893,232.624 213.5,232.5C 214.332,241.816 214.832,251.149 215,260.5C 215.333,258.833 215.667,257.167 216,255.5C 216.333,256.167 216.667,256.833 217,257.5C 217.499,253.179 217.666,248.846 217.5,244.5C 218.326,249.316 218.826,254.316 219,259.5C 221.811,261.18 223.644,260.513 224.5,257.5C 226.457,260.059 228.123,259.726 229.5,256.5C 229.229,254.62 229.896,253.287 231.5,252.5C 231.468,257.213 233.801,258.713 238.5,257C 239.977,255.188 241.31,253.355 242.5,251.5C 243.295,250.472 243.962,248.806 244.5,246.5C 244.337,248.857 244.503,251.19 245,253.5C 249.943,258.017 252.943,257.017 254,250.5C 248.897,254.951 246.397,253.618 246.5,246.5C 249.385,246.806 252.052,246.473 254.5,245.5C 257.85,245.494 260.85,244.494 263.5,242.5C 264.183,242.863 264.85,243.196 265.5,243.5C 259.409,259.425 248.409,270.592 232.5,277C 218.387,281.778 204.054,285.778 189.5,289C 171.049,294.972 155.049,304.805 141.5,318.5C 137.108,314.103 132.442,310.103 127.5,306.5C 127.167,305.5 126.5,304.833 125.5,304.5C 154.4,291.138 183.566,278.138 213,265.5C 214.872,264.513 214.705,263.846 212.5,263.5C 213.263,262.732 214.263,262.232 215.5,262C 213.862,252.581 212.862,243.081 212.5,233.5 Z"/></g>
<g><path style="opacity:1" fill="#f8e9e9" d="M 229.5,256.5 C 228.123,259.726 226.457,260.059 224.5,257.5C 225.042,255.051 225.375,252.551 225.5,250C 225.726,247.329 225.059,244.996 223.5,243C 224.793,242.51 226.127,242.343 227.5,242.5C 226.897,247.619 227.564,252.285 229.5,256.5 Z"/></g>
<g><path style="opacity:1" fill="#dc2b28" d="M 235.5,243.5 C 238.897,244.258 240.23,246.425 239.5,250C 240.096,254.743 238.263,256.576 234,255.5C 232.994,251.198 233.494,247.198 235.5,243.5 Z"/></g>
<g><path style="opacity:1" fill="#faebeb" d="M 224.5,257.5 C 223.644,260.513 221.811,261.18 219,259.5C 218.826,254.316 218.326,249.316 217.5,244.5C 217.452,243.493 218.452,243.16 220.5,243.5C 220.334,248.179 220.501,252.845 221,257.5C 222.145,258.684 223.312,258.684 224.5,257.5 Z"/></g>
<g><path style="opacity:1" fill="#db181a" d="M 247.5,242.5 C 249.346,242.222 250.68,242.889 251.5,244.5C 249.833,245.833 248.167,245.833 246.5,244.5C 246.863,243.817 247.196,243.15 247.5,242.5 Z"/></g>
<g><path style="opacity:1" fill="#fde9e9" d="M 131.5,248.5 C 132.302,249.952 132.802,251.618 133,253.5C 133.707,251.919 134.54,250.419 135.5,249C 136.996,248.493 138.163,248.993 139,250.5C 142.476,259.945 142.143,269.279 138,278.5C 136.062,279.86 134.396,279.527 133,277.5C 132.333,281.833 132.333,286.167 133,290.5C 134.831,292.043 134.331,292.71 131.5,292.5C 130.5,292.167 129.5,291.833 128.5,291.5C 129.794,285.003 130.461,278.336 130.5,271.5C 130.478,264.76 129.812,258.26 128.5,252C 129.71,250.961 130.71,249.794 131.5,248.5 Z"/></g>
<g><path style="opacity:1" fill="#e12727" d="M 134.5,253.5 C 136.411,253.574 137.578,254.574 138,256.5C 138.667,262.5 138.667,268.5 138,274.5C 135.723,278.547 134.056,278.214 133,273.5C 131.962,266.628 132.462,259.962 134.5,253.5 Z"/></g>
<g><path style="opacity:1" fill="#fde0df" d="M 147.5,248.5 C 149.39,248.297 150.89,248.963 152,250.5C 155.468,259.955 155.135,269.288 151,278.5C 148.224,280.14 146.224,279.473 145,276.5C 141.152,266.658 141.985,257.325 147.5,248.5 Z"/></g>
<g><path style="opacity:1" fill="#e22f2c" d="M 147.5,250.5 C 149.411,250.574 150.578,251.574 151,253.5C 152.484,259.765 152.818,266.098 152,272.5C 151.74,274.618 150.74,276.284 149,277.5C 148.085,276.672 147.419,275.672 147,274.5C 144.948,266.353 145.115,258.353 147.5,250.5 Z"/></g>
<g><path style="opacity:1" fill="#fde7e7" d="M 121.5,248.5 C 125.605,248.496 127.105,250.496 126,254.5C 124.111,248.495 122.611,248.328 121.5,254C 122.006,258.179 123.84,261.679 127,264.5C 127.667,267.833 127.667,271.167 127,274.5C 125.64,277.551 123.473,278.218 120.5,276.5C 119.345,273.554 119.179,270.554 120,267.5C 120.116,270.932 121.283,273.932 123.5,276.5C 125.024,275.473 125.691,273.973 125.5,272C 124.6,267.753 122.767,263.92 120,260.5C 118.994,256.198 119.494,252.198 121.5,248.5 Z"/></g>
<g><path style="opacity:0.012" fill="#a90000" d="M 269.5,269.5 C 269.833,269.5 270.167,269.5 270.5,269.5C 270.315,270.17 269.981,270.17 269.5,269.5 Z"/></g>
<g><path style="opacity:0.012" fill="#a90000" d="M 268.5,270.5 C 268.833,270.5 269.167,270.5 269.5,270.5C 269.315,271.17 268.981,271.17 268.5,270.5 Z"/></g>
<g><path style="opacity:0.012" fill="#a90000" d="M 261.5,277.5 C 261.833,277.5 262.167,277.5 262.5,277.5C 262.315,278.17 261.981,278.17 261.5,277.5 Z"/></g>
<g><path style="opacity:0.007" fill="#fe0000" d="M 23.5,278.5 C 24.1667,278.5 24.5,278.833 24.5,279.5C 23.5029,280.713 22.5029,280.546 21.5,279C 22.0944,278.536 22.7611,278.369 23.5,278.5 Z"/></g>
<g><path style="opacity:0.012" fill="#a90000" d="M 260.5,278.5 C 260.833,278.5 261.167,278.5 261.5,278.5C 261.315,279.17 260.981,279.17 260.5,278.5 Z"/></g>
<g><path style="opacity:0.016" fill="#7e0000" d="M 259.5,279.5 C 259.833,279.5 260.167,279.5 260.5,279.5C 260.315,280.17 259.981,280.17 259.5,279.5 Z"/></g>
<g><path style="opacity:0.008" fill="#7e0000" d="M 258.5,280.5 C 258.833,280.5 259.167,280.5 259.5,280.5C 259.315,281.17 258.981,281.17 258.5,280.5 Z"/></g>
<g><path style="opacity:0.004" fill="#e10000" d="M 256.5,282.5 C 256.5,282.167 256.5,281.833 256.5,281.5C 257.167,281.5 257.833,281.5 258.5,281.5C 258.158,282.338 257.492,282.672 256.5,282.5 Z"/></g>
<g><path style="opacity:0.012" fill="#a90000" d="M 255.5,282.5 C 255.833,282.5 256.167,282.5 256.5,282.5C 256.315,283.17 255.981,283.17 255.5,282.5 Z"/></g>
<g><path style="opacity:0.008" fill="#a70003" d="M 253.5,284.5 C 253.5,284.167 253.5,283.833 253.5,283.5C 254.167,283.5 254.833,283.5 255.5,283.5C 255.158,284.338 254.492,284.672 253.5,284.5 Z"/></g>
<g><path style="opacity:0.016" fill="#7e0000" d="M 252.5,284.5 C 252.833,284.5 253.167,284.5 253.5,284.5C 253.315,285.17 252.981,285.17 252.5,284.5 Z"/></g>
<g><path style="opacity:0.008" fill="#7e0000" d="M 250.5,286.5 C 250.5,286.167 250.5,285.833 250.5,285.5C 251.167,285.5 251.833,285.5 252.5,285.5C 252.158,286.338 251.492,286.672 250.5,286.5 Z"/></g>
<g><path style="opacity:1" fill="#d4d0d0" d="M 266.5,241.5 C 266.369,242.376 266.702,243.043 267.5,243.5C 268.736,242.754 270.07,242.421 271.5,242.5C 271.263,243.791 271.596,244.791 272.5,245.5C 265.574,263.835 252.907,276.668 234.5,284C 221.419,288.604 208.085,292.27 194.5,295C 172.896,301.13 155.229,312.963 141.5,330.5C 135.104,321.769 127.438,314.436 118.5,308.5C 121.315,308.372 124.315,307.706 127.5,306.5C 132.442,310.103 137.108,314.103 141.5,318.5C 155.049,304.805 171.049,294.972 189.5,289C 204.054,285.778 218.387,281.778 232.5,277C 248.409,270.592 259.409,259.425 265.5,243.5C 265.328,242.508 265.662,241.842 266.5,241.5 Z"/></g>
<g><path style="opacity:0.012" fill="#a90000" d="M 249.5,286.5 C 249.833,286.5 250.167,286.5 250.5,286.5C 250.315,287.17 249.981,287.17 249.5,286.5 Z"/></g>
<g><path style="opacity:0.004" fill="#d20002" d="M 247.5,288.5 C 247.5,288.167 247.5,287.833 247.5,287.5C 248.167,287.5 248.833,287.5 249.5,287.5C 249.158,288.338 248.492,288.672 247.5,288.5 Z"/></g>
<g><path style="opacity:0.004" fill="#e10000" d="M 245.5,289.5 C 245.5,289.167 245.5,288.833 245.5,288.5C 246.167,288.5 246.833,288.5 247.5,288.5C 247.158,289.338 246.492,289.672 245.5,289.5 Z"/></g>
<g><path style="opacity:0.008" fill="#8d0000" d="M 243.5,290.5 C 243.5,290.167 243.5,289.833 243.5,289.5C 244.167,289.5 244.833,289.5 245.5,289.5C 245.158,290.338 244.492,290.672 243.5,290.5 Z"/></g>
<g><path style="opacity:0.008" fill="#8d0000" d="M 241.5,291.5 C 241.5,291.167 241.5,290.833 241.5,290.5C 242.167,290.5 242.833,290.5 243.5,290.5C 243.158,291.338 242.492,291.672 241.5,291.5 Z"/></g>
<g><path style="opacity:0.004" fill="#e10000" d="M 239.5,292.5 C 239.5,292.167 239.5,291.833 239.5,291.5C 240.167,291.5 240.833,291.5 241.5,291.5C 241.158,292.338 240.492,292.672 239.5,292.5 Z"/></g>
<g><path style="opacity:0.997" fill="#b21a1a" d="M 283.5,232.5 C 283.5,234.833 283.5,237.167 283.5,239.5C 282.167,241.167 282.167,242.833 283.5,244.5C 283.405,246.786 282.738,248.786 281.5,250.5C 281.167,246.5 280.833,246.5 280.5,250.5C 279.662,250.842 279.328,251.508 279.5,252.5C 278.167,253.5 278.167,254.5 279.5,255.5C 277.494,260.855 274.494,265.521 270.5,269.5C 270.167,268.167 269.833,268.167 269.5,269.5C 268.833,269.5 268.5,269.833 268.5,270.5C 267.167,270.833 267.167,271.167 268.5,271.5C 267.5,274.5 265.5,276.5 262.5,277.5C 262.167,276.167 261.833,276.167 261.5,277.5C 260.833,277.5 260.5,277.833 260.5,278.5C 259.833,278.5 259.5,278.833 259.5,279.5C 258.833,279.5 258.5,279.833 258.5,280.5C 257.508,280.328 256.842,280.662 256.5,281.5C 255.833,281.5 255.5,281.833 255.5,282.5C 254.508,282.328 253.842,282.662 253.5,283.5C 252.833,283.5 252.5,283.833 252.5,284.5C 251.508,284.328 250.842,284.662 250.5,285.5C 249.833,285.5 249.5,285.833 249.5,286.5C 248.508,286.328 247.842,286.662 247.5,287.5C 246.508,287.328 245.842,287.662 245.5,288.5C 244.508,288.328 243.842,288.662 243.5,289.5C 242.508,289.328 241.842,289.662 241.5,290.5C 240.508,290.328 239.842,290.662 239.5,291.5C 238.209,291.263 237.209,291.596 236.5,292.5C 235.508,292.328 234.842,292.662 234.5,293.5C 233.209,293.263 232.209,293.596 231.5,294.5C 229.447,294.402 227.78,295.069 226.5,296.5C 224.901,296.232 223.568,296.566 222.5,297.5C 221.209,297.263 220.209,297.596 219.5,298.5C 217.901,298.232 216.568,298.566 215.5,299.5C 213.901,299.232 212.568,299.566 211.5,300.5C 209.585,300.216 207.919,300.549 206.5,301.5C 204.901,301.232 203.568,301.566 202.5,302.5C 200.901,302.232 199.568,302.566 198.5,303.5C 197.209,303.263 196.209,303.596 195.5,304.5C 194.209,304.263 193.209,304.596 192.5,305.5C 191.209,305.263 190.209,305.596 189.5,306.5C 188.209,306.263 187.209,306.596 186.5,307.5C 185.508,307.328 184.842,307.662 184.5,308.5C 183.209,308.263 182.209,308.596 181.5,309.5C 180.508,309.328 179.842,309.662 179.5,310.5C 178.508,310.328 177.842,310.662 177.5,311.5C 176.508,311.328 175.842,311.662 175.5,312.5C 174.508,312.328 173.842,312.662 173.5,313.5C 172.833,313.5 172.5,313.833 172.5,314.5C 171.508,314.328 170.842,314.662 170.5,315.5C 169.508,315.328 168.842,315.662 168.5,316.5C 167.833,316.5 167.5,316.833 167.5,317.5C 166.167,317.833 166.167,318.167 167.5,318.5C 167.027,319.906 166.027,320.573 164.5,320.5C 164.167,319.167 163.833,319.167 163.5,320.5C 162.833,320.5 162.5,320.833 162.5,321.5C 161.508,321.328 160.842,321.662 160.5,322.5C 159.833,322.5 159.5,322.833 159.5,323.5C 158.833,323.5 158.5,323.833 158.5,324.5C 157.833,324.5 157.5,324.833 157.5,325.5C 156.833,325.5 156.5,325.833 156.5,326.5C 155.833,326.5 155.5,326.833 155.5,327.5C 154.167,327.833 154.167,328.167 155.5,328.5C 155.262,330.404 154.262,331.738 152.5,332.5C 152.167,331.167 151.833,331.167 151.5,332.5C 150.833,332.5 150.5,332.833 150.5,333.5C 149.167,333.833 149.167,334.167 150.5,334.5C 150.573,336.027 149.906,337.027 148.5,337.5C 148.167,336.167 147.833,336.167 147.5,337.5C 146.167,337.833 146.167,338.167 147.5,338.5C 146.242,340.687 145.242,343.02 144.5,345.5C 142.5,345.5 140.5,345.5 138.5,345.5C 137.111,342.393 135.445,339.393 133.5,336.5C 133.709,335.914 134.043,335.414 134.5,335C 133.448,333.881 132.281,333.381 131,333.5C 130.383,332.551 130.549,331.718 131.5,331C 128.297,327.629 124.964,324.462 121.5,321.5C 121.5,320.833 121.167,320.5 120.5,320.5C 116.833,317.833 113.167,315.167 109.5,312.5C 111.229,310.712 113.896,309.379 117.5,308.5C 117.833,308.5 118.167,308.5 118.5,308.5C 127.438,314.436 135.104,321.769 141.5,330.5C 155.229,312.963 172.896,301.13 194.5,295C 208.085,292.27 221.419,288.604 234.5,284C 252.907,276.668 265.574,263.835 272.5,245.5C 273.51,241.385 274.51,237.385 275.5,233.5C 275.238,234.978 275.571,236.311 276.5,237.5C 277.914,236.376 279.414,235.376 281,234.5C 281.333,235.167 281.667,235.833 282,236.5C 282.21,234.942 282.71,233.609 283.5,232.5 Z"/></g>
<g><path style="opacity:0.012" fill="#911306" d="M 236.5,293.5 C 236.5,293.167 236.5,292.833 236.5,292.5C 237.5,292.5 238.5,292.5 239.5,292.5C 238.791,293.404 237.791,293.737 236.5,293.5 Z"/></g>
<g><path style="opacity:0.012" fill="#a90000" d="M 234.5,294.5 C 234.5,294.167 234.5,293.833 234.5,293.5C 235.167,293.5 235.833,293.5 236.5,293.5C 236.158,294.338 235.492,294.672 234.5,294.5 Z"/></g>
<g><path style="opacity:0.012" fill="#d30000" d="M 231.5,295.5 C 231.5,295.167 231.5,294.833 231.5,294.5C 232.5,294.5 233.5,294.5 234.5,294.5C 233.791,295.404 232.791,295.737 231.5,295.5 Z"/></g>
<g><path style="opacity:0.008" fill="#8d0000" d="M 231.5,295.5 C 231.103,296.525 230.437,296.692 229.5,296C 230.094,295.536 230.761,295.369 231.5,295.5 Z"/></g>
<g><path style="opacity:0.008" fill="#e10000" d="M 226.5,297.5 C 226.5,297.167 226.5,296.833 226.5,296.5C 229.167,296.833 229.167,297.167 226.5,297.5 Z"/></g>
<g><path style="opacity:0.009" fill="#fe0000" d="M 59.5,297.5 C 59.5,297.833 59.5,298.167 59.5,298.5C 55.5,298.167 55.5,297.833 59.5,297.5 Z"/></g>
<g><path style="opacity:0.012" fill="#8e0f05" d="M 222.5,298.5 C 222.5,298.167 222.5,297.833 222.5,297.5C 223.833,297.5 225.167,297.5 226.5,297.5C 225.432,298.434 224.099,298.768 222.5,298.5 Z"/></g>
<g><path style="opacity:0.012" fill="#ef362f" d="M 59.5,298.5 C 60.552,298.351 61.552,298.517 62.5,299C 61.2506,299.74 60.2506,299.573 59.5,298.5 Z"/></g>
<g><path style="opacity:0.012" fill="#9f0000" d="M 219.5,299.5 C 219.5,299.167 219.5,298.833 219.5,298.5C 220.5,298.5 221.5,298.5 222.5,298.5C 221.791,299.404 220.791,299.737 219.5,299.5 Z"/></g>
<g><path style="opacity:0.012" fill="#6d0b02" d="M 215.5,300.5 C 215.5,300.167 215.5,299.833 215.5,299.5C 216.833,299.5 218.167,299.5 219.5,299.5C 218.432,300.434 217.099,300.768 215.5,300.5 Z"/></g>
<g><path style="opacity:0.012" fill="#cf0000" d="M 71.5,300.5 C 71.5,300.833 71.5,301.167 71.5,301.5C 66.1667,301.167 66.1667,300.833 71.5,300.5 Z"/></g>
<g><path style="opacity:0.006" fill="#e10000" d="M 211.5,301.5 C 211.5,301.167 211.5,300.833 211.5,300.5C 212.833,300.5 214.167,300.5 215.5,300.5C 214.432,301.434 213.099,301.768 211.5,301.5 Z"/></g>
<g><path style="opacity:0.016" fill="#dd2633" d="M 71.5,301.5 C 73.1992,301.34 74.8659,301.506 76.5,302C 74.6131,302.78 72.9464,302.613 71.5,301.5 Z"/></g>
<g><path style="opacity:0.016" fill="#af0002" d="M 206.5,302.5 C 206.5,302.167 206.5,301.833 206.5,301.5C 208.167,301.5 209.833,301.5 211.5,301.5C 210.081,302.451 208.415,302.784 206.5,302.5 Z"/></g>
<g><path style="opacity:0.016" fill="#b90002" d="M 202.5,303.5 C 202.5,303.167 202.5,302.833 202.5,302.5C 203.833,302.5 205.167,302.5 206.5,302.5C 205.432,303.434 204.099,303.768 202.5,303.5 Z"/></g>
<g><path style="opacity:0.006" fill="#dc0000" d="M 198.5,304.5 C 198.5,304.167 198.5,303.833 198.5,303.5C 199.833,303.5 201.167,303.5 202.5,303.5C 201.432,304.434 200.099,304.768 198.5,304.5 Z"/></g>
<g><path style="opacity:0.012" fill="#be0000" d="M 195.5,305.5 C 195.5,305.167 195.5,304.833 195.5,304.5C 196.5,304.5 197.5,304.5 198.5,304.5C 197.791,305.404 196.791,305.737 195.5,305.5 Z"/></g>
<g><path style="opacity:0.006" fill="#e90000" d="M 192.5,306.5 C 192.5,306.167 192.5,305.833 192.5,305.5C 193.5,305.5 194.5,305.5 195.5,305.5C 194.791,306.404 193.791,306.737 192.5,306.5 Z"/></g>
<g><path style="opacity:0.008" fill="#a51607" d="M 189.5,307.5 C 189.5,307.167 189.5,306.833 189.5,306.5C 190.5,306.5 191.5,306.5 192.5,306.5C 191.791,307.404 190.791,307.737 189.5,307.5 Z"/></g>
<g><path style="opacity:0.012" fill="#be0000" d="M 186.5,308.5 C 186.5,308.167 186.5,307.833 186.5,307.5C 187.5,307.5 188.5,307.5 189.5,307.5C 188.791,308.404 187.791,308.737 186.5,308.5 Z"/></g>
<g><path style="opacity:0.004" fill="#e10000" d="M 184.5,309.5 C 184.5,309.167 184.5,308.833 184.5,308.5C 185.167,308.5 185.833,308.5 186.5,308.5C 186.158,309.338 185.492,309.672 184.5,309.5 Z"/></g>
<g><path style="opacity:0.012" fill="#730f03" d="M 181.5,310.5 C 181.5,310.167 181.5,309.833 181.5,309.5C 182.5,309.5 183.5,309.5 184.5,309.5C 183.791,310.404 182.791,310.737 181.5,310.5 Z"/></g>
<g><path style="opacity:0.008" fill="#8d0000" d="M 179.5,311.5 C 179.5,311.167 179.5,310.833 179.5,310.5C 180.167,310.5 180.833,310.5 181.5,310.5C 181.158,311.338 180.492,311.672 179.5,311.5 Z"/></g>
<g><path style="opacity:0.008" fill="#fe0000" d="M 105.5,311.5 C 105.103,312.525 104.437,312.692 103.5,312C 104.094,311.536 104.761,311.369 105.5,311.5 Z"/></g>
<g><path style="opacity:0.008" fill="#8d0000" d="M 177.5,312.5 C 177.5,312.167 177.5,311.833 177.5,311.5C 178.167,311.5 178.833,311.5 179.5,311.5C 179.158,312.338 178.492,312.672 177.5,312.5 Z"/></g>
<g><path style="opacity:0.008" fill="#8d0000" d="M 175.5,313.5 C 175.5,313.167 175.5,312.833 175.5,312.5C 176.167,312.5 176.833,312.5 177.5,312.5C 177.158,313.338 176.492,313.672 175.5,313.5 Z"/></g>
<g><path style="opacity:0.008" fill="#7e0000" d="M 173.5,314.5 C 173.5,314.167 173.5,313.833 173.5,313.5C 174.167,313.5 174.833,313.5 175.5,313.5C 175.158,314.338 174.492,314.672 173.5,314.5 Z"/></g>
<g><path style="opacity:0.012" fill="#a90000" d="M 172.5,314.5 C 172.833,314.5 173.167,314.5 173.5,314.5C 173.315,315.17 172.981,315.17 172.5,314.5 Z"/></g>
<g><path style="opacity:0.004" fill="#3b1103" d="M 170.5,316.5 C 170.5,316.167 170.5,315.833 170.5,315.5C 171.167,315.5 171.833,315.5 172.5,315.5C 172.158,316.338 171.492,316.672 170.5,316.5 Z"/></g>
<g><path style="opacity:0.008" fill="#a70003" d="M 168.5,317.5 C 168.5,317.167 168.5,316.833 168.5,316.5C 169.167,316.5 169.833,316.5 170.5,316.5C 170.158,317.338 169.492,317.672 168.5,317.5 Z"/></g>
<g><path style="opacity:0.012" fill="#a90000" d="M 167.5,317.5 C 167.833,317.5 168.167,317.5 168.5,317.5C 168.315,318.17 167.981,318.17 167.5,317.5 Z"/></g>
<g><path style="opacity:0.012" fill="#8e0f05" d="M 120.5,320.5 C 121.167,320.5 121.5,320.833 121.5,321.5C 120.503,322.713 119.503,322.546 118.5,321C 119.094,320.536 119.761,320.369 120.5,320.5 Z"/></g>
<g><path style="opacity:0.016" fill="#7e0000" d="M 163.5,320.5 C 163.833,320.5 164.167,320.5 164.5,320.5C 164.315,321.17 163.981,321.17 163.5,320.5 Z"/></g>
<g><path style="opacity:0.008" fill="#7e0000" d="M 162.5,321.5 C 162.833,321.5 163.167,321.5 163.5,321.5C 163.315,322.17 162.981,322.17 162.5,321.5 Z"/></g>
<g><path style="opacity:0.004" fill="#621607" d="M 160.5,322.5 C 161.167,322.5 161.833,322.5 162.5,322.5C 161.738,324.262 160.404,325.262 158.5,325.5C 158.5,325.167 158.5,324.833 158.5,324.5C 159.167,324.5 159.5,324.167 159.5,323.5C 160.167,323.5 160.5,323.167 160.5,322.5 Z"/></g>
<g><path style="opacity:0.016" fill="#be0000" d="M 157.5,325.5 C 157.833,325.5 158.167,325.5 158.5,325.5C 158.315,326.17 157.981,326.17 157.5,325.5 Z"/></g>
<g><path style="opacity:0.016" fill="#be0000" d="M 156.5,326.5 C 156.833,326.5 157.167,326.5 157.5,326.5C 157.315,327.17 156.981,327.17 156.5,326.5 Z"/></g>
<g><path style="opacity:0.016" fill="#be0000" d="M 155.5,327.5 C 155.833,327.5 156.167,327.5 156.5,327.5C 156.315,328.17 155.981,328.17 155.5,327.5 Z"/></g>
<g><path style="opacity:0.008" fill="#fe0000" d="M 151.5,332.5 C 151.833,332.5 152.167,332.5 152.5,332.5C 152.315,333.17 151.981,333.17 151.5,332.5 Z"/></g>
<g><path style="opacity:0.012" fill="#a90000" d="M 150.5,333.5 C 150.833,333.5 151.167,333.5 151.5,333.5C 151.315,334.17 150.981,334.17 150.5,333.5 Z"/></g>
<g><path style="opacity:0.012" fill="#a90000" d="M 147.5,337.5 C 147.833,337.5 148.167,337.5 148.5,337.5C 148.315,338.17 147.981,338.17 147.5,337.5 Z"/></g>
</svg>
