<?xml version="1.0" encoding="utf-8"?>
<!-- Generator: Adobe Illustrator 23.0.1, SVG Export Plug-In . SVG Version: 6.00 Build 0)  -->
<svg version="1.1" id="Layer_1" xmlns="http://www.w3.org/2000/svg" xmlns:xlink="http://www.w3.org/1999/xlink" x="0px" y="0px"
	 viewBox="0 0 595.3 595.3" style="enable-background:new 0 0 595.3 595.3;" xml:space="preserve">
<style type="text/css">
	.st0{fill:#ED1C24;}
	.st1{fill:#FFFFFF;}
</style>
<g>
	<path class="st0" d="M518.6,168.4c0-33,30.4-45,30.4-45l-22.3-72.1c0,0-51.5,1.9-94.7-48.2c-32.5,25.8-80.6,45.1-134.4,45.1
		c-53.7,0-101.9-19.2-134.4-45.1C120,53.2,68.5,51.3,68.5,51.3l-22.3,72.1c0,0,30.4,12,30.4,45c0,33-30.4,47.1-30.4,47.1
		c3,276.3,250.4,376.4,250.4,376.4l1,0.4l1-0.4c0,0,247.4-100.1,250.4-376.4C549,215.4,518.6,201.4,518.6,168.4z"/>
	<path class="st1" d="M516.5,64.4c-0.5-0.1-1-0.1-1.5-0.2L60.2,226.1c0.7,20.2,2.8,40,6.3,59.3l460.2-163.8c2.1-1.8,4.1-3.3,6-4.6
		C528.7,103.8,520.1,75.9,516.5,64.4z"/>
	<path class="st1" d="M114.6,413.6c13.8,22.9,30.1,44.6,48.9,64.9V260.9l-48.9,17.4V413.6z M220.3,530.1
		c18.3,13.9,35.2,24.7,48.9,32.5V223.3l-48.9,17.4V530.1z M430.3,21.3c-37.1,25.8-84.7,40.5-132.7,40.5c-26.2,0-52.4-4.4-76.7-12.6
		l-54.6,45l-13.6-10.5l23-55.5c-3.7-2.2-7.2-4.5-10.7-7c-6.6,6.6-13.3,12.2-20,17V85l-17,6L82,63.9c-1.1,0.2-2.2,0.3-3.2,0.4
		c-3.6,11.5-12.2,39.5-16.3,52.6c2.7,1.8,5.6,4.1,8.5,6.8l50-8.8l11,18l-43.4,50.2c-2.8,11.9-8.7,21.2-15,28.1l58-20.7l6.3-57.7
		l13-8l40.1,44.5l67.3-23.9L163.9,118L158,96l330-32.2l8.9-3.2C478.3,55.5,453.7,44.6,430.3,21.3z M326.1,562.6
		c13.7-7.8,30.6-18.6,48.9-32.5V185.6L326.1,203V562.6z M431.8,478.5c18.7-20.3,35.1-42,48.9-64.9V148l-48.9,17.4V478.5z"/>
	<g>
		<path class="st0" d="M108.3,221.5l7.5-2.7l0.5,38.8l-6.8,2.4l-24-30.5l7.7-2.7l16.8,23.6L108.3,221.5z"/>
		<path class="st0" d="M138.9,249.6l-7.2,2.6l-12.3-34.6l7.2-2.6L138.9,249.6z"/>
		<path class="st0" d="M133.3,212.6l7.2-2.6l10.1,28.4l17.3-6.1l2.2,6.2l-24.5,8.7L133.3,212.6z"/>
		<path class="st0" d="M162.7,202.2l7.2-2.6l10.1,28.4l17.3-6.1l2.2,6.2l-24.5,8.7L162.7,202.2z"/>
		<path class="st0" d="M201.9,188.3l8.2-2.9l24.5,30.3l-7.8,2.8l-4.7-6.2l-12.8,4.5l0.2,7.9l-7.6,2.7L201.9,188.3z M209.1,210.1
			l8.9-3.1l-9.2-12.1L209.1,210.1z"/>
		<path class="st0" d="M243.1,173.7l7.5-2.7l22.2,19.3l-8.5-24.1l6.7-2.4l12.3,34.6l-7.2,2.5l-22.7-19.6l8.7,24.6l-6.7,2.4
			L243.1,173.7z"/>
		<path class="st0" d="M316.9,183c-1.7,3.6-5,6.3-9.9,8c-4.9,1.8-9.2,1.7-12.8,0c-4.7-2.1-8.1-6.2-10.3-12.4
			c-2.2-6.3-2.2-11.7,0.2-16.1c1.7-3.6,5-6.3,9.9-8c4.9-1.8,9.2-1.7,12.8,0c4.6,1.9,8,6.1,10.3,12.4
			C319.2,173.1,319.2,178.5,316.9,183z M310.5,179.3c0.9-2.7,0.7-6-0.7-9.8c-1.4-3.9-3.3-6.5-5.7-8c-2.4-1.5-5.1-1.8-7.9-0.7
			c-2.9,1-4.8,2.9-5.7,5.6c-1,2.7-0.8,6,0.6,9.9c1.4,3.9,3.3,6.5,5.7,8c2.4,1.5,5.1,1.7,7.9,0.7C307.6,183.9,309.5,182,310.5,179.3z
			"/>
		<path class="st0" d="M337.8,140.2l7.5-2.7l0.5,38.8l-6.8,2.4l-24-30.5l7.7-2.7l16.8,23.6L337.8,140.2z"/>
		<path class="st0" d="M356.4,133.6l8.2-2.9L389,161l-7.8,2.8l-4.7-6.2l-12.8,4.5l0.2,7.9l-7.6,2.7L356.4,133.6z M363.6,155.4
			l8.9-3.1l-9.2-12.1L363.6,155.4z"/>
		<path class="st0" d="M405.5,116.2l8.2-2.9l24.5,30.3l-7.8,2.8l-4.7-6.2l-12.8,4.5l0.2,7.9l-7.6,2.7L405.5,116.2z M412.7,138
			l8.9-3.1l-9.2-12.1L412.7,138z"/>
		<path class="st0" d="M440,135l7-2.5l2.5,7l-7,2.5L440,135z"/>
		<path class="st0" d="M449.3,104.8c1.8-3.8,4.8-6.5,9.1-8c5.7-2,10.6-1.6,14.6,1.3c2.2,1.6,3.8,3.5,4.6,5.6l-7.2,2.6
			c-1-1.5-2.1-2.5-3.1-3.1c-1.8-1-4-1.1-6.5-0.2c-2.6,0.9-4.2,2.7-4.9,5.3c-0.7,2.6-0.4,5.9,1,9.8c1.4,3.9,3.2,6.5,5.4,7.9
			c2.2,1.4,4.6,1.6,7,0.8c2.5-0.9,4-2.4,4.7-4.5c0.4-1.1,0.5-2.7,0.3-4.7l7.2-2.6c0.7,4,0.2,7.6-1.5,10.8c-1.7,3.3-4.5,5.6-8.5,7
			c-4.9,1.7-9.3,1.5-13.3-0.7c-3.9-2.2-6.9-6.1-8.9-11.7C447.3,114.4,447.2,109.2,449.3,104.8z"/>
		<path class="st0" d="M489,117.7l7-2.5l2.5,7l-7,2.5L489,117.7z"/>
	</g>
	<path class="st1" d="M112.7,110.4c0-17.6,14.2-31.8,31.8-31.8c17.6,0,31.8,14.2,31.8,31.8c0,17.6-14.2,31.8-31.8,31.8
		C126.9,142.2,112.7,128,112.7,110.4z"/>
	<path class="st0" d="M144.5,75.3c-19.4,0-35.1,15.8-35.1,35.1c0,19.4,15.8,35.1,35.1,35.1c19.4,0,35.1-15.8,35.1-35.1
		C179.6,91.1,163.9,75.3,144.5,75.3z M133.5,106.3c3.4,1.8,5.8,3.5,7.1,4.7c-1.2,4-2.9,13.6,0.6,27.8c-3.1-0.4-6-1.2-8.7-2.5
		C131.8,132.7,129.7,119.8,133.5,106.3z M146.8,113.5c4.1-0.7,13.4-3.3,24.5-12.7c1.1,3,1.7,6.2,1.7,9.6c-4,2.9-14.3,9.6-27.2,12
		C145.8,118.3,146.4,115.3,146.8,113.5z M168.2,94.7c-2.8,2.5-5.5,4.4-8,6c-6.4-8.8-14.5-14.9-20.2-18.4c1.4-0.2,2.9-0.3,4.4-0.3
		C154.4,82,163.1,87,168.2,94.7z M131.5,85.1c3.6,1.8,14.7,8,22.9,18.9c-3.7,1.8-6.7,2.6-8.4,2.9c-2.7-2.6-10.5-8.8-25.3-12.1
		C123.4,90.7,127.1,87.4,131.5,85.1z M116,110.4c0-3.3,0.6-6.5,1.6-9.5c3.7,0.7,6.9,1.6,9.7,2.7c-3.2,10.7-3,20.9-2.3,27.6
		C119.5,126,116,118.6,116,110.4z M148.1,138.7c-1-3.5-1.6-6.7-1.9-9.6c10.6-1.8,19.5-6.2,25.4-9.8
		C168.2,129.6,159.1,137.3,148.1,138.7z"/>
</g>
</svg>
